<?xml version="1.0" encoding="UTF-8"?>
<svg version="1.1" xmlns="http://www.w3.org/2000/svg" width="512" height="512">
<path d="M0 0 C7.71594062 7.51749737 12.89121771 16.14158303 17.83203125 25.640625 C18.43015625 26.76855469 19.02828125 27.89648438 19.64453125 29.05859375 C31.29079076 51.08857579 31.29079076 51.08857579 29.0859375 60.671875 C27.00660741 66.78064137 23.73994544 71.15608804 18.27734375 74.59765625 C17.09914062 75.16871094 15.9209375 75.73976563 14.70703125 76.328125 C13.53398437 76.91207031 12.3609375 77.49601562 11.15234375 78.09765625 C6.06867585 80.11666221 2.24902561 81.0042268 -3.04296875 79.453125 C-9.41754982 75.79364327 -12.48311286 69.99977353 -15.73046875 63.640625 C-16.08947266 62.95226562 -16.44847656 62.26390625 -16.81835938 61.5546875 C-17.69143199 59.87838808 -18.55564425 58.19747874 -19.41796875 56.515625 C-27.33790099 57.03084587 -34.87546827 58.30800943 -42.60546875 60.078125 C-43.65283203 60.31208984 -44.70019531 60.54605469 -45.77929688 60.78710938 C-48.32697285 61.35713733 -50.87306393 61.93337336 -53.41796875 62.515625 C-53.20591797 63.51940186 -52.99386719 64.52317871 -52.77539062 65.55737305 C-51.98761901 69.29297633 -51.2064544 73.02993594 -50.42724609 76.76733398 C-50.08952092 78.38261877 -49.7500214 79.99753366 -49.40869141 81.61206055 C-48.91749056 83.93703014 -48.43275238 86.26326908 -47.94921875 88.58984375 C-47.79610229 89.30774582 -47.64298584 90.02564789 -47.48522949 90.76530457 C-46.71596155 94.49967587 -46.41796875 97.65812764 -46.41796875 101.515625 C-17.37796875 101.515625 11.66203125 101.515625 41.58203125 101.515625 C41.58203125 91.615625 41.58203125 81.715625 41.58203125 71.515625 C44.98587616 60.16947532 48.5362323 51.26434121 58.58203125 44.515625 C70.21015575 38.3064323 82.07803785 36.20449459 94.95703125 40.078125 C104.97039355 43.92218086 113.19764855 51.26197291 117.75952148 61.03930664 C120.90923649 69.6843992 121.05490811 77.72229119 120.83203125 86.765625 C120.8119085 88.20440185 120.79366806 89.64320629 120.77734375 91.08203125 C120.73730772 94.56116238 120.65896861 98.03634679 120.58203125 101.515625 C129.16203125 101.515625 137.74203125 101.515625 146.58203125 101.515625 C148.06703125 96.565625 148.06703125 96.565625 149.58203125 91.515625 C151.19211321 86.6322642 152.88260234 81.78124615 154.60571289 76.93676758 C155.13381381 75.44138059 155.65427103 73.94327329 156.16723633 72.44262695 C156.9190892 70.24536263 157.69507353 68.05796659 158.4765625 65.87109375 C158.69866898 65.206436 158.92077545 64.54177826 159.14961243 63.85697937 C161.00687382 58.78808919 163.2795 56.53802951 167.58203125 53.515625 C172.64213797 51.82892276 177.94191554 52.25103664 183.24121094 52.22045898 C184.62803366 52.2089615 186.01481291 52.1885446 187.40136719 52.15893555 C202.31085276 51.84076698 202.31085276 51.84076698 207.58203125 56.515625 C210.75594091 61.69462419 212.80087365 67.46902458 214.81640625 73.171875 C215.09929504 73.95961304 215.38218384 74.74735107 215.67364502 75.55895996 C216.5644578 78.04286812 217.44835522 80.52917012 218.33203125 83.015625 C218.939646 84.71370568 219.54771481 86.41162396 220.15625 88.109375 C221.63676052 92.24293482 223.11108008 96.37865429 224.58203125 100.515625 C225.33292023 100.52149124 226.0838092 100.52735748 226.85745239 100.53340149 C233.94897706 100.59141008 241.04018689 100.66353319 248.13139534 100.75133991 C251.77670182 100.79598457 255.42189806 100.83525325 259.06738281 100.86206055 C262.58837362 100.88815311 266.10893888 100.92859642 269.62966537 100.97881126 C271.62029126 101.00350858 273.611082 101.01350947 275.60183716 101.02326965 C277.43305618 101.05296089 277.43305618 101.05296089 279.30126953 101.08325195 C280.37160431 101.09435501 281.44193909 101.10545807 282.54470825 101.11689758 C287.57672565 101.77748037 290.56568314 103.36306666 293.9236908 107.17111206 C295.92699127 111.21133453 296.15256093 114.61656963 296.11547852 119.02783203 C296.12409409 119.86109009 296.13270966 120.69434814 296.1415863 121.55285645 C296.16419765 124.2933705 296.15751845 127.03285835 296.1484375 129.7734375 C296.15367392 131.6834239 296.15995047 133.59340771 296.16722107 135.50338745 C296.17761532 139.49961549 296.17307583 143.49548719 296.15844727 147.49169922 C296.14122989 152.61453044 296.1647961 157.73624316 296.19993687 162.85894966 C296.22188285 166.80007365 296.22047672 170.7409286 296.21217155 174.68209457 C296.21135109 176.57115789 296.21823255 178.46024076 296.23294258 180.34924698 C296.25034434 182.98760401 296.23588569 185.62393208 296.21313477 188.26220703 C296.22482697 189.04256317 296.23651917 189.82291931 296.24856567 190.62692261 C296.1813125 194.45593792 295.8977188 196.17170245 293.26914978 199.03536987 C289.60231914 201.05531979 287.55654713 200.61965719 283.58203125 199.515625 C281.89237976 198.43156433 281.89237976 198.43156433 280.58203125 196.515625 C280.30159205 193.9038029 280.20277791 191.53337119 280.24145508 188.9230957 C280.241017 188.15212555 280.24057892 187.3811554 280.24012756 186.58682251 C280.24221787 184.03809295 280.26555979 181.49002092 280.2890625 178.94140625 C280.29465761 177.17449808 280.29892811 175.40758526 280.30192566 173.64067078 C280.31338117 168.98972733 280.34285438 164.33906485 280.3760376 159.68823242 C280.40672329 154.94258424 280.42042778 150.19689067 280.43554688 145.45117188 C280.46772351 136.1391796 280.52049715 126.82746962 280.58203125 117.515625 C274.97203125 117.515625 269.36203125 117.515625 263.58203125 117.515625 C263.58203125 165.695625 263.58203125 213.875625 263.58203125 263.515625 C269.19203125 263.515625 274.80203125 263.515625 280.58203125 263.515625 C280.56108398 262.32485352 280.54013672 261.13408203 280.51855469 259.90722656 C280.44612163 255.48677611 280.40021953 251.06637804 280.36230469 246.64550781 C280.34219673 244.73265765 280.31490618 242.81986889 280.28027344 240.90722656 C280.23171876 238.15674689 280.20905467 235.40708023 280.19140625 232.65625 C280.16043854 231.37479095 280.16043854 231.37479095 280.12884521 230.06744385 C280.1266143 224.15626291 280.1266143 224.15626291 282.38769531 220.97558594 C285.61203357 218.83033196 287.79999749 218.97533446 291.58203125 219.515625 C294.01061864 221.14519651 295.36753444 222.42917449 295.94674015 225.36291671 C296.10094862 227.76260451 296.11481044 230.13149189 296.08996582 232.53610229 C296.09620578 233.45816943 296.10244575 234.38023657 296.1088748 235.33024514 C296.12485974 238.42729021 296.11217879 241.52355423 296.09960938 244.62060547 C296.10502811 246.83803772 296.11214937 249.05546638 296.12084961 251.27288818 C296.13911742 257.30187696 296.13200048 263.33059256 296.11933327 269.35958624 C296.10922103 275.66422111 296.11859424 281.96883225 296.12487793 288.27346802 C296.13262737 299.54299322 296.12017744 310.81240564 296.09984058 322.08190431 C296.08197801 332.29636382 296.08506604 342.51064145 296.10351562 352.72509766 C296.1249318 364.58752928 296.13288373 376.4498728 296.12106657 388.3123275 C296.11482791 394.59133847 296.11400616 400.8702242 296.12721252 407.14922714 C296.13876371 413.05408704 296.13075821 418.95860343 296.1076355 424.86342621 C296.10234408 427.03140569 296.10386955 429.19941404 296.11268616 431.36738205 C296.12360805 434.32570575 296.10991788 437.28292706 296.08996582 440.24118042 C296.09888871 441.10032921 296.10781159 441.95947799 296.11700487 442.84466159 C296.04718897 448.17725341 295.34478063 451.44479317 291.58203125 455.515625 C286.17137809 459.09675389 281.39107553 460.09779537 274.99871826 460.01898956 C274.16795792 460.02480333 273.33719758 460.03061709 272.48126268 460.03660703 C269.70303086 460.05118181 266.92568602 460.03733366 264.14746094 460.02355957 C262.13335087 460.02816947 260.11924417 460.03452299 258.1051445 460.04246855 C252.57460458 460.05917257 247.04434061 460.05091048 241.51379967 460.03852367 C235.54779563 460.02947998 229.58183931 460.04343955 223.61584473 460.05444336 C212.60546491 460.07121178 201.59516715 460.06974503 190.58478415 460.05879749 C180.41308072 460.04873354 170.24140954 460.04610926 160.06970215 460.05088806 C159.39487583 460.0511936 158.72004952 460.05149914 158.02477393 460.05181394 C155.28540406 460.0530593 152.54603422 460.05433291 149.80666439 460.055653 C124.11153721 460.06788781 98.41646605 460.05679704 72.72134751 460.03526541 C49.89493083 460.01628311 27.0686034 460.01798162 4.2421875 460.03710938 C-21.40606938 460.05852992 -47.05427677 460.06702011 -72.70254135 460.05466032 C-75.43690744 460.05337746 -78.17127354 460.0521261 -80.90563965 460.05088806 C-81.5789057 460.05057175 -82.25217174 460.05025544 -82.94583979 460.04992955 C-93.11092012 460.04538048 -103.27596467 460.05069921 -113.44104004 460.06080627 C-124.99970457 460.0722417 -136.55826882 460.06900232 -148.11692142 460.0476833 C-154.01560511 460.03716263 -159.91410753 460.03306857 -165.81278992 460.04627991 C-171.21131684 460.05818828 -176.60949425 460.05166658 -182.00798941 460.0303697 C-183.96211574 460.02589709 -185.91627153 460.02818464 -187.87037897 460.03787285 C-190.52555832 460.05002831 -193.17953899 460.0375704 -195.83465576 460.01898956 C-196.59427345 460.02835423 -197.35389113 460.03771889 -198.13652754 460.04736733 C-204.82584181 459.95373593 -210.07674263 457.79502032 -214.88622284 453.11255646 C-217.28476299 447.48017026 -216.96757447 442.02405233 -216.92590332 435.96472168 C-216.93051386 434.56550558 -216.93686781 433.16629432 -216.9448123 431.76709318 C-216.96150798 427.92696737 -216.95325837 424.08723926 -216.94086742 420.24711204 C-216.93182017 416.10388735 -216.94578504 411.96073123 -216.95678711 407.81752014 C-216.97458041 399.70288248 -216.97072875 391.58839275 -216.95913655 383.47374928 C-216.95010568 376.87925128 -216.94887672 370.28479476 -216.95323181 363.69029236 C-216.95384474 362.75199017 -216.95445768 361.81368799 -216.95508918 360.84695241 C-216.95636807 358.94085299 -216.95766493 357.03475358 -216.95897955 355.12865418 C-216.97038772 337.25207979 -216.95726792 319.37558742 -216.93577808 301.49902648 C-216.91790689 286.15767579 -216.92101093 270.81644616 -216.93945312 255.47509766 C-216.96085565 237.66281341 -216.96928906 219.85060107 -216.95700407 202.03830576 C-216.95572986 200.13918973 -216.95447238 198.24007369 -216.95323181 196.34095764 C-216.95230616 194.93932887 -216.95230616 194.93932887 -216.95136181 193.50938436 C-216.94790705 186.92224923 -216.95373996 180.33515969 -216.96315002 173.74803162 C-216.97436451 165.72129455 -216.97134156 157.69471397 -216.95002705 149.66799486 C-216.93950918 145.57203329 -216.93540722 141.47633268 -216.94862366 137.380373 C-216.96053836 133.63115875 -216.95400074 129.88244749 -216.93271345 126.13327891 C-216.92612497 124.13379415 -216.93919179 122.13427451 -216.95294237 120.13482618 C-216.85736434 109.23907301 -216.85736434 109.23907301 -212.41796875 104.515625 C-207.31823963 100.92165878 -202.38169333 101.07400264 -196.37353516 101.08325195 C-195.3777948 101.0730603 -194.38205444 101.06286865 -193.35614014 101.05236816 C-190.07721307 101.02226469 -186.79857829 101.01297607 -183.51953125 101.00390625 C-181.2412316 100.98705765 -178.96294123 100.96890716 -176.68466187 100.94950867 C-170.69735617 100.90202253 -164.71008814 100.872204 -158.72265625 100.84606934 C-152.60929936 100.81625699 -146.49607218 100.76972891 -140.3828125 100.72460938 C-128.39459912 100.6385919 -116.40635903 100.57123952 -104.41796875 100.515625 C-105.22593807 96.55635275 -106.04010809 92.59838114 -106.85546875 88.640625 C-107.08556641 87.51269531 -107.31566406 86.38476562 -107.55273438 85.22265625 C-107.8862793 83.60810547 -107.8862793 83.60810547 -108.2265625 81.9609375 C-108.53291626 80.46844482 -108.53291626 80.46844482 -108.84545898 78.94580078 C-109.317333 76.52506366 -109.317333 76.52506366 -110.41796875 74.515625 C-111.66191406 74.804375 -112.90585938 75.093125 -114.1875 75.390625 C-136.75065441 80.49387162 -136.75065441 80.49387162 -142.59765625 77.33984375 C-146.68994409 74.15969236 -147.34346855 72.888126 -148.41796875 67.515625 C-153.36796875 68.505625 -153.36796875 68.505625 -158.41796875 69.515625 C-158.19109375 70.52625 -157.96421875 71.536875 -157.73046875 72.578125 C-157.35913326 77.25695219 -158.02395092 79.49985315 -160.41796875 83.515625 C-165.86133312 87.02516255 -172.10519472 87.98448939 -178.35546875 89.265625 C-179.94391602 89.61560547 -179.94391602 89.61560547 -181.56445312 89.97265625 C-192.10958723 92.16983329 -192.10958723 92.16983329 -197.41796875 90.515625 C-203.405576 86.51539377 -204.01098171 80.58668066 -205.35546875 73.953125 C-205.5992627 72.82156982 -205.84305664 71.69001465 -206.09423828 70.52416992 C-206.61224762 68.11180669 -207.12244042 65.69775401 -207.62548828 63.28222656 C-208.43087348 59.45428975 -209.27660662 55.63718053 -210.1328125 51.8203125 C-210.68694901 49.32308322 -211.24035432 46.82569155 -211.79296875 44.328125 C-212.05585693 43.1537085 -212.31874512 41.97929199 -212.58959961 40.76928711 C-215.54276915 27.12042593 -215.54276915 27.12042593 -213.23046875 21.765625 C-208.51148145 15.90757179 -201.58347145 15.19073975 -194.60546875 13.765625 C-193.55037109 13.53230469 -192.49527344 13.29898438 -191.40820312 13.05859375 C-185.3834721 11.8048491 -180.45188033 11.14490764 -174.41796875 12.515625 C-170.92931374 15.11355958 -169.64454417 16.59189443 -168.60546875 20.828125 C-168.54359375 21.715 -168.48171875 22.601875 -168.41796875 23.515625 C-165.11796875 22.855625 -161.81796875 22.195625 -158.41796875 21.515625 C-158.50046875 20.319375 -158.58296875 19.123125 -158.66796875 17.890625 C-158.6600084 13.39302461 -157.38750988 10.96671334 -154.41796875 7.515625 C-150.7626831 4.97000795 -147.45726379 3.84799249 -143.12109375 2.91015625 C-141.91453125 2.64912109 -140.70796875 2.38808594 -139.46484375 2.11914062 C-138.211875 1.85810547 -136.95890625 1.59707031 -135.66796875 1.328125 C-134.43046875 1.05548828 -133.19296875 0.78285156 -131.91796875 0.50195312 C-115.1163589 -3.06392045 -115.1163589 -3.06392045 -109.85546875 0.015625 C-107.69137302 3.77926976 -107.93803091 6.19618441 -108.41796875 10.515625 C-110.74934466 13.85585986 -113.62379224 14.28811622 -117.4765625 15.12109375 C-118.66701172 15.38212891 -119.85746094 15.64316406 -121.08398438 15.91210938 C-122.32857422 16.17314453 -123.57316406 16.43417969 -124.85546875 16.703125 C-126.09619141 16.97576172 -127.33691406 17.24839844 -128.61523438 17.52929688 C-137.82004817 19.515625 -137.82004817 19.515625 -142.41796875 19.515625 C-142.07185547 20.83046875 -142.07185547 20.83046875 -141.71875 22.171875 C-139.4877945 30.84879284 -137.5039171 39.55878719 -135.66796875 48.328125 C-135.44536377 49.38386719 -135.22275879 50.43960938 -134.9934082 51.52734375 C-134.78804443 52.51992187 -134.58268066 53.5125 -134.37109375 54.53515625 C-134.18708008 55.42307861 -134.00306641 56.31100098 -133.81347656 57.22583008 C-133.41796875 59.515625 -133.41796875 59.515625 -133.41796875 62.515625 C-132.50460754 62.27962585 -131.59124634 62.04362671 -130.65020752 61.80047607 C-119.35439289 58.91254186 -107.99110242 56.40224678 -96.58984375 53.96875 C-95.6265641 53.76279961 -94.66328445 53.55684921 -93.67081451 53.3446579 C-88.58726921 52.25835128 -83.50293842 51.17580985 -78.41796875 50.09619141 C-73.20243348 48.98796414 -67.99003771 47.8656252 -62.77817917 46.74025345 C-58.73046716 45.86908129 -54.68049734 45.00878555 -50.62985992 44.15132904 C-48.70745863 43.74239795 -46.78591596 43.3294065 -44.8653183 42.91208649 C-18.99688796 37.30086551 -18.99688796 37.30086551 -11.41796875 41.203125 C-6.36814731 45.09569569 -3.60949423 49.72791304 -0.66796875 55.328125 C0.25242188 57.07029297 0.25242188 57.07029297 1.19140625 58.84765625 C1.6503125 59.72808594 2.10921875 60.60851562 2.58203125 61.515625 C7.07306195 60.92360099 7.07306195 60.92360099 11.01953125 58.828125 C12.87434152 56.59897712 12.87434152 56.59897712 12.37329102 53.76855469 C11.50470737 50.19774057 10.20687549 47.40094331 8.484375 44.15625 C8.17182266 43.56696716 7.85927032 42.97768433 7.5372467 42.37054443 C6.87490058 41.12787426 6.20818475 39.88752432 5.53735352 38.64941406 C4.53358851 36.79164222 3.55022384 34.92410609 2.56835938 33.0546875 C-5.24333313 18.38333763 -14.07138092 7.5335907 -30.39794922 2.30664062 C-40.5100719 -0.3419671 -49.90744191 0.69753983 -59.98046875 2.890625 C-61.12837891 3.12523438 -62.27628906 3.35984375 -63.45898438 3.6015625 C-67.20135379 4.37237235 -70.93907557 5.14245544 -74.64428711 6.07739258 C-79.00653021 7.15519387 -83.01863319 7.35522633 -86.91796875 5.015625 C-88.71448101 2.02143791 -88.93295474 -0.05336494 -89.046875 -3.484375 C-88.06703422 -6.60039038 -86.06217423 -7.6521892 -83.41796875 -9.484375 C-80.40698242 -10.47338867 -80.40698242 -10.47338867 -77.0859375 -11.15234375 C-75.87486328 -11.40564453 -74.66378906 -11.65894531 -73.41601562 -11.91992188 C-72.15853516 -12.16806641 -70.90105469 -12.41621094 -69.60546875 -12.671875 C-68.35958984 -12.93162109 -67.11371094 -13.19136719 -65.83007812 -13.45898438 C-40.89010976 -18.57928557 -20.51979021 -15.95584387 0 0 Z M-191.54296875 30.015625 C-193.18652344 30.43328125 -193.18652344 30.43328125 -194.86328125 30.859375 C-195.70632812 31.0759375 -196.549375 31.2925 -197.41796875 31.515625 C-194.58864495 45.88928849 -191.68284975 60.23405056 -188.41796875 74.515625 C-184.12796875 73.525625 -179.83796875 72.535625 -175.41796875 71.515625 C-175.20140625 68.8859375 -175.20140625 68.8859375 -174.98046875 66.203125 C-174.72111517 63.05383147 -174.42056382 60.52341021 -173.41796875 57.515625 C-170.80787665 56.65155342 -168.34050447 55.97877107 -165.66796875 55.390625 C-164.95125 55.22175781 -164.23453125 55.05289063 -163.49609375 54.87890625 C-159.81722069 54.02005169 -156.12758608 53.23125984 -152.41796875 52.515625 C-152.53331479 50.95238268 -152.66072001 49.39002817 -152.79296875 47.828125 C-152.89738281 46.52294922 -152.89738281 46.52294922 -153.00390625 45.19140625 C-153.43728618 42.39079065 -154.2729232 40.09895948 -155.41796875 37.515625 C-156.25199219 37.66 -157.08601563 37.804375 -157.9453125 37.953125 C-175.3713961 40.82753054 -175.3713961 40.82753054 -179.85546875 37.953125 C-181.79720413 34.9240178 -182.61246978 32.00612052 -183.41796875 28.515625 C-186.26284532 28.515625 -188.78960112 29.31263752 -191.54296875 30.015625 Z M62.08203125 63.453125 C57.47761579 69.97158525 57.29896963 76.41240856 57.35498047 84.11083984 C57.35468842 85.16510162 57.35439636 86.2193634 57.35409546 87.30557251 C57.35548529 90.77932047 57.37103039 94.25285215 57.38671875 97.7265625 C57.39045011 100.13937259 57.3932965 102.55218419 57.39529419 104.96499634 C57.40292095 111.30747683 57.42256134 117.64986535 57.44470215 123.99230957 C57.46878336 131.60650227 57.47794611 139.22072577 57.48960876 146.83494568 C57.50898617 158.39523604 57.54731563 169.95532469 57.58203125 181.515625 C73.09203125 181.515625 88.60203125 181.515625 104.58203125 181.515625 C104.72754793 162.38675547 104.72754793 162.38675547 104.82617188 143.2578125 C104.85601934 135.45164928 104.89126562 127.64578031 104.95922852 119.83984375 C105.01369891 113.54394182 105.04348391 107.24835562 105.05641747 100.95223618 C105.06563024 98.55453397 105.08362065 96.15684835 105.11068153 93.75928116 C105.14717005 90.39139197 105.15196811 87.02479447 105.1496582 83.65673828 C105.17662277 82.18182167 105.17662277 82.18182167 105.20413208 80.67710876 C105.15276114 73.71967656 103.54131301 68.29499984 99.58203125 62.515625 C93.30776946 56.5473221 87.16579664 53.94589924 78.49609375 54.14453125 C71.6694278 55.01387879 66.34349164 58.07728756 62.08203125 63.453125 Z M-76.796875 66.2578125 C-77.63541016 66.43699219 -78.47394531 66.61617188 -79.33789062 66.80078125 C-80.20994141 66.99542969 -81.08199219 67.19007812 -81.98046875 67.390625 C-82.85638672 67.57753906 -83.73230469 67.76445313 -84.63476562 67.95703125 C-89.15177045 68.86564711 -89.15177045 68.86564711 -93.41796875 70.515625 C-92.71391446 77.02662102 -91.49169919 83.34513426 -90.12402344 89.74682617 C-89.89116638 90.84969971 -89.65830933 91.95257324 -89.418396 93.08886719 C-88.64537556 96.74612029 -87.86763205 100.40235191 -87.08984375 104.05859375 C-86.53921202 106.65865851 -85.98883584 109.25877612 -85.43878174 111.85896301 C-84.12889506 118.0481424 -82.81556824 124.23658667 -81.50104642 130.42478305 C-80.05736138 137.22189649 -78.61769383 144.01985847 -77.17832088 150.81788611 C-74.61680167 162.91515188 -72.04958378 175.01119728 -69.47814083 187.10635734 C-67.67763915 195.57574108 -65.88185091 204.04610145 -64.09240317 212.51782793 C-62.87459692 218.28305239 -61.6543885 224.04776477 -60.43242288 229.81210905 C-59.70709265 233.23435345 -58.9831024 236.65686932 -58.26229095 240.08006859 C-57.47086731 243.83849463 -56.67367901 247.5956845 -55.87597656 251.3527832 C-55.64046333 252.47600542 -55.4049501 253.59922764 -55.16230011 254.75648689 C-54.94593651 255.77107916 -54.72957291 256.78567142 -54.50665283 257.83100891 C-54.22577757 259.159934 -54.22577757 259.159934 -53.93922806 260.51570606 C-53.60208819 262.50014048 -53.60208819 262.50014048 -52.41796875 263.515625 C-50.63725629 263.60288723 -48.85313735 263.62261541 -47.0703125 263.61328125 C-45.99072266 263.61005859 -44.91113281 263.60683594 -43.79882812 263.60351562 C-42.66251953 263.59513672 -41.52621094 263.58675781 -40.35546875 263.578125 C-39.21529297 263.57361328 -38.07511719 263.56910156 -36.90039062 263.56445312 C-34.07286524 263.55262247 -31.24544235 263.5361391 -28.41796875 263.515625 C-29.11335604 255.61033143 -30.68121187 247.97112133 -32.34204102 240.21972656 C-32.64484609 238.79084492 -32.94726966 237.36188239 -33.24934387 235.93284607 C-34.06819474 232.06447635 -34.8924092 228.19726731 -35.71764112 224.33025455 C-36.58980011 220.23894673 -37.45707499 216.14660359 -38.32493591 212.05438232 C-39.78904692 205.1539728 -41.25631396 198.25424085 -42.72583008 191.35498047 C-44.76893254 181.76275718 -46.8064336 172.169351 -48.84272683 162.57568026 C-50.45131517 154.99813063 -52.06146463 147.42091258 -53.671875 139.84375 C-53.83890214 139.05780866 -54.00592928 138.27186731 -54.17801785 137.46210957 C-54.67133557 135.141075 -55.16480063 132.82007182 -55.65834045 130.49908447 C-55.81900539 129.74335687 -55.97967032 128.98762927 -56.14520389 128.20900083 C-56.93808491 124.48169242 -57.73326727 120.75489942 -58.53315067 117.02908707 C-58.84859009 115.55899646 -59.1639659 114.08889221 -59.47927856 112.61877441 C-59.63566636 111.88970343 -59.79205415 111.16063245 -59.95318097 110.40946841 C-60.99970378 105.51471752 -62.01987787 100.61498141 -63.02766258 95.71211457 C-63.74190604 92.24603607 -64.46642345 88.78214727 -65.19239986 85.31850958 C-65.538526 83.6542317 -65.87991727 81.98896156 -66.2163974 80.3227067 C-66.68137303 78.02240917 -67.16244077 75.72604095 -67.64732361 73.42987061 C-67.78221455 72.74114852 -67.91710549 72.05242644 -68.05608404 71.342834 C-68.474993 69.25390226 -68.474993 69.25390226 -69.41796875 66.515625 C-72.61299789 65.45061529 -73.61289511 65.56734305 -76.796875 66.2578125 Z M175.58203125 68.515625 C171.88209828 77.22213394 168.47516294 85.99084162 165.26953125 94.890625 C164.58793945 96.73720703 164.58793945 96.73720703 163.89257812 98.62109375 C163.46396484 99.81089844 163.03535156 101.00070313 162.59375 102.2265625 C162.20662842 103.29181152 161.81950684 104.35706055 161.4206543 105.45458984 C160.11562171 110.21805376 159.88862285 113.28752167 162.33984375 117.62890625 C163.51160156 119.21251953 163.51160156 119.21251953 164.70703125 120.828125 C165.53301268 121.9684165 166.35853169 123.10904311 167.18359375 124.25 C167.59125977 124.80365234 167.99892578 125.35730469 168.41894531 125.92773438 C170.01998152 128.11353192 171.56038743 130.33648387 173.08203125 132.578125 C173.54609375 133.24972656 174.01015625 133.92132813 174.48828125 134.61328125 C176.54150014 138.18441553 176.71123086 141.60357091 176.74024963 145.66619873 C176.75003845 146.70663834 176.75982727 147.74707794 176.76991272 148.81904602 C176.77854591 150.52268562 176.77854591 150.52268562 176.78735352 152.26074219 C176.79725311 153.46101547 176.80715271 154.66128876 176.81735229 155.89793396 C176.84351625 159.18476987 176.86538814 162.47160077 176.88535428 165.75847912 C176.9072444 169.1951526 176.93461826 172.63178228 176.96141052 176.06842041 C177.01129653 182.57417641 177.05625051 189.07995678 177.09943289 195.58576035 C177.14884026 202.99323802 177.20374539 210.40067175 177.25911248 217.8081069 C177.3728697 233.04390589 177.47952732 248.27974591 177.58203125 263.515625 C182.86203125 263.515625 188.14203125 263.515625 193.58203125 263.515625 C193.58123566 261.97182159 193.58044006 260.42801819 193.57962036 258.83743286 C193.57601429 244.27137427 193.60350443 229.70574717 193.66230965 215.13981819 C193.69174872 207.6517321 193.71015007 200.16392868 193.70214844 192.67578125 C193.69519887 186.14554885 193.70938582 179.61575433 193.74846733 173.08562934 C193.76841732 169.63100845 193.7781127 166.17707417 193.76245499 162.72241592 C193.74533018 158.85637064 193.77541652 154.9914402 193.80908203 151.12548828 C193.79686111 149.99259872 193.7846402 148.85970917 193.77204895 147.69248962 C193.95431682 136.03676525 200.25725093 128.37668075 207.40820312 119.70703125 C209.81810783 116.54471287 210.60022305 114.87442103 210.39697266 110.86572266 C209.66397021 106.16119136 208.11221171 101.85676488 206.421875 97.421875 C206.11254532 96.58974487 205.80321564 95.75761475 205.48451233 94.90026855 C204.50426489 92.26895023 203.51212768 89.6423065 202.51953125 87.015625 C201.84881553 85.22165076 201.17888573 83.42738248 200.50976562 81.6328125 C198.87769114 77.25634512 197.22958056 72.88641388 195.58203125 68.515625 C188.98203125 68.515625 182.38203125 68.515625 175.58203125 68.515625 Z M-168.41796875 117.515625 C-168.41796875 124.115625 -168.41796875 130.715625 -168.41796875 137.515625 C-144.65796875 137.515625 -120.89796875 137.515625 -96.41796875 137.515625 C-97.20343531 130.20051594 -97.20343531 130.20051594 -98.41796875 123.015625 C-98.58296875 122.1803125 -98.74796875 121.345 -98.91796875 120.484375 C-99.23660266 118.52656023 -99.23660266 118.52656023 -100.41796875 117.515625 C-102.53478192 117.4214076 -104.65477633 117.39819739 -106.77368164 117.40209961 C-107.76876488 117.40188057 -107.76876488 117.40188057 -108.78395081 117.4016571 C-110.98620831 117.40235619 -113.1883822 117.41014835 -115.390625 117.41796875 C-116.91377211 117.41983294 -118.43691982 117.42125684 -119.96006775 117.42225647 C-123.97634526 117.42608154 -127.99258683 117.43591172 -132.0088501 117.44696045 C-136.10420241 117.45717481 -140.19956051 117.46175414 -144.29492188 117.46679688 C-152.33595587 117.47753401 -160.3769537 117.49513071 -168.41796875 117.515625 Z M-42.41796875 117.515625 C-40.68378616 128.90424496 -40.68378616 128.90424496 -38.41796875 137.515625 C-12.01796875 137.515625 14.38203125 137.515625 41.58203125 137.515625 C41.58203125 130.915625 41.58203125 124.315625 41.58203125 117.515625 C13.86203125 117.515625 -13.85796875 117.515625 -42.41796875 117.515625 Z M120.58203125 117.515625 C120.58203125 124.115625 120.58203125 130.715625 120.58203125 137.515625 C132.46203125 137.515625 144.34203125 137.515625 156.58203125 137.515625 C154.2581304 133.44879852 152.07690533 129.64820317 149.45703125 125.828125 C147.56926456 123.07472437 146.08977532 120.53111314 144.58203125 117.515625 C136.66203125 117.515625 128.74203125 117.515625 120.58203125 117.515625 Z M225.58203125 117.515625 C224.90140625 118.98 224.22078125 120.444375 223.51953125 121.953125 C221.15747187 126.71796892 218.31263694 130.7059989 214.9375 134.80078125 C213.47867996 136.28206775 213.47867996 136.28206775 213.58203125 137.515625 C224.80203125 137.515625 236.02203125 137.515625 247.58203125 137.515625 C247.58203125 130.915625 247.58203125 124.315625 247.58203125 117.515625 C240.32203125 117.515625 233.06203125 117.515625 225.58203125 117.515625 Z M-201.41796875 117.515625 C-201.41796875 165.695625 -201.41796875 213.875625 -201.41796875 263.515625 C-195.80796875 263.515625 -190.19796875 263.515625 -184.41796875 263.515625 C-184.36898437 260.81890625 -184.32 258.1221875 -184.26953125 255.34375 C-184.21550593 252.7291107 -184.15820454 250.11456229 -184.10058594 247.5 C-184.06232684 245.68431379 -184.02746858 243.86855259 -183.99609375 242.05273438 C-183.95037645 239.44113377 -183.89239339 236.83004812 -183.83203125 234.21875 C-183.81470444 233.00291229 -183.81470444 233.00291229 -183.79702759 231.76251221 C-183.60837033 224.54190172 -183.60837033 224.54190172 -181.41796875 221.515625 C-178.36812879 219.99070502 -175.77563185 220.27999952 -172.41796875 220.515625 C-162.23901443 230.69457932 -168.77773672 249.12490614 -168.41796875 263.515625 C-135.74796875 263.515625 -103.07796875 263.515625 -69.41796875 263.515625 C-70.19529703 257.10555533 -70.19529703 257.10555533 -71.32873535 250.81535339 C-71.50536209 249.97569031 -71.68198883 249.13602722 -71.8639679 248.2709198 C-72.15076668 246.93254814 -72.15076668 246.93254814 -72.44335938 245.56713867 C-72.64672409 244.60518585 -72.85008881 243.64323303 -73.05961609 242.65213013 C-73.72789658 239.49525135 -74.40095188 236.33941252 -75.07421875 233.18359375 C-75.54146043 230.98266129 -76.00845711 228.78167681 -76.47521973 226.5806427 C-77.45162473 221.97983262 -78.43026906 217.37950664 -79.41064453 212.77954102 C-80.66842237 206.87760546 -81.92170643 200.97472701 -83.17346954 195.07151318 C-84.13631421 190.53229958 -85.10095683 185.99346966 -86.06620789 181.45476723 C-86.52913444 179.27749991 -86.99162976 177.10014086 -87.45368958 174.92268944 C-88.09823998 171.88713095 -88.74507164 168.85206778 -89.39257812 165.81713867 C-89.58377731 164.91476974 -89.7749765 164.01240082 -89.9719696 163.08268738 C-90.23690971 161.84434143 -90.23690971 161.84434143 -90.50720215 160.58097839 C-90.73616306 159.50562222 -90.73616306 159.50562222 -90.96974945 158.40854168 C-91.43688458 156.31033291 -91.43688458 156.31033291 -92.41796875 153.515625 C-117.49796875 153.515625 -142.57796875 153.515625 -168.41796875 153.515625 C-168.58842833 167.53165739 -168.58842833 167.53165739 -168.71582031 181.5480957 C-168.74518255 183.30422603 -168.77600699 185.06033279 -168.80859375 186.81640625 C-168.80972168 187.72950562 -168.81084961 188.64260498 -168.81201172 189.58337402 C-168.95783756 196.00415686 -168.95783756 196.00415686 -171.30859375 198.6171875 C-173.88882673 199.71617562 -175.41292366 199.64879406 -178.16796875 199.203125 C-178.9671875 199.08324219 -179.76640625 198.96335937 -180.58984375 198.83984375 C-181.49476563 198.67935547 -181.49476563 198.67935547 -182.41796875 198.515625 C-183.62704347 194.71878123 -183.59112578 190.93665627 -183.62329102 186.99316406 C-183.63319061 186.24155502 -183.64309021 185.48994598 -183.65328979 184.71556091 C-183.68481341 182.23748904 -183.70962598 179.75939802 -183.734375 177.28125 C-183.75495242 175.56060291 -183.77594911 173.8399608 -183.79734802 172.11932373 C-183.85248726 167.59515408 -183.90193242 163.07093943 -183.95019531 158.54669189 C-184.00046988 153.9282227 -184.05612484 149.3098187 -184.11132812 144.69140625 C-184.21881005 135.63286617 -184.31977975 126.57427058 -184.41796875 117.515625 C-190.02796875 117.515625 -195.63796875 117.515625 -201.41796875 117.515625 Z M-34.41796875 153.515625 C-33.68778918 160.50959512 -33.68778918 160.50959512 -32.50720215 167.34288025 C-32.33057541 168.18536316 -32.15394867 169.02784607 -31.9719696 169.89585876 C-31.78077042 170.78608231 -31.58957123 171.67630585 -31.39257812 172.59350586 C-31.18921341 173.557211 -30.98584869 174.52091614 -30.77632141 175.51382446 C-30.10905261 178.67029366 -29.43555032 181.8253946 -28.76171875 184.98046875 C-28.29441768 187.18235502 -27.82742198 189.38430612 -27.36071777 191.58631897 C-26.38497232 196.18549127 -25.40626083 200.78401891 -24.42529297 205.38208008 C-23.16610547 211.28491085 -21.91326163 217.18906597 -20.66246796 223.09368038 C-19.70036355 227.63300937 -18.73550027 232.17174829 -17.76972961 236.71029854 C-17.30649899 238.88832776 -16.84400363 241.06651349 -16.38224792 243.24485588 C-15.73867742 246.27832778 -15.09153712 249.31101557 -14.44335938 252.34350586 C-14.15656059 253.7000956 -14.15656059 253.7000956 -13.8639679 255.08409119 C-13.68734116 255.90683533 -13.51071442 256.72957947 -13.32873535 257.57725525 C-13.17609474 258.29378234 -13.02345413 259.01030943 -12.86618805 259.74854946 C-12.46222152 261.60510136 -12.46222152 261.60510136 -11.41796875 263.515625 C9.37203125 263.515625 30.16203125 263.515625 51.58203125 263.515625 C51.58203125 251.965625 51.58203125 240.415625 51.58203125 228.515625 C47.29203125 228.185625 43.00203125 227.855625 38.58203125 227.515625 C31.61754263 224.82479985 26.92378268 222.31587026 23.58203125 215.515625 C20.82688994 208.1685815 20.95387133 201.88793199 23.60546875 194.58984375 C26.05199091 189.39343069 30.77133409 186.3627723 35.58203125 183.515625 C37.56203125 182.855625 39.54203125 182.195625 41.58203125 181.515625 C41.58203125 172.275625 41.58203125 163.035625 41.58203125 153.515625 C16.50203125 153.515625 -8.57796875 153.515625 -34.41796875 153.515625 Z M120.58203125 153.515625 C120.58203125 162.755625 120.58203125 171.995625 120.58203125 181.515625 C125.53203125 183.495625 125.53203125 183.495625 130.58203125 185.515625 C135.5107674 188.6228717 138.48246873 192.86012575 140.171875 198.4765625 C141.70239776 206.0854471 140.39811514 212.76954481 136.58203125 219.515625 C133.16150974 223.64588008 128.63153963 225.93765363 123.58203125 227.515625 C118.96203125 227.845625 114.34203125 228.175625 109.58203125 228.515625 C109.58203125 240.065625 109.58203125 251.615625 109.58203125 263.515625 C126.74203125 263.515625 143.90203125 263.515625 161.58203125 263.515625 C161.58203125 227.215625 161.58203125 190.915625 161.58203125 153.515625 C148.05203125 153.515625 134.52203125 153.515625 120.58203125 153.515625 Z M209.58203125 153.515625 C209.58203125 189.815625 209.58203125 226.115625 209.58203125 263.515625 C222.12203125 263.515625 234.66203125 263.515625 247.58203125 263.515625 C247.58203125 227.215625 247.58203125 190.915625 247.58203125 153.515625 C235.04203125 153.515625 222.50203125 153.515625 209.58203125 153.515625 Z M39.16296387 199.39463806 C37.28459291 201.91466974 36.65882631 203.36702757 36.58203125 206.515625 C38.3331665 210.22823727 38.3331665 210.22823727 41.58203125 212.515625 C44.0572799 212.63444598 46.50530475 212.69391848 48.98168945 212.70849609 C50.12587845 212.72076233 50.12587845 212.72076233 51.29318237 212.73327637 C53.82305107 212.75813331 56.35286364 212.77464701 58.8828125 212.7890625 C59.74631002 212.79438618 60.60980755 212.79970985 61.49947166 212.80519485 C66.06986987 212.83192765 70.64024075 212.85130218 75.21069336 212.86572266 C79.93212811 212.88237173 84.65286499 212.92715084 89.37403584 212.9780941 C93.00374659 213.01174532 96.63329125 213.02329771 100.26314354 213.02894974 C102.00349448 213.03566805 103.74383427 213.05090528 105.48403358 213.07484055 C107.92133116 213.1064513 110.35674082 213.10653587 112.79418945 213.09912109 C113.87057426 213.1237291 113.87057426 213.1237291 114.96870422 213.14883423 C118.81858958 213.10094258 120.48449918 212.59115381 123.56486511 210.20571899 C125.93487806 207.5924975 125.93487806 207.5924975 125.64453125 203.890625 C124.44761838 200.08866649 123.99810876 199.37764492 120.58203125 197.515625 C117.95486739 197.22068548 115.56541595 197.09510924 112.93945312 197.11157227 C112.17476212 197.10470901 111.41007111 197.09784576 110.62220764 197.09077454 C108.09820921 197.07249489 105.57483158 197.07634513 103.05078125 197.08203125 C101.29487913 197.07747036 99.53897879 197.07216506 97.78308105 197.06614685 C94.10449975 197.05721375 90.42613553 197.05964152 86.74755859 197.06958008 C82.03284721 197.08107664 77.31888402 197.06084908 72.60427094 197.03166294 C68.97885376 197.01332095 65.3536166 197.01358926 61.72816467 197.01930046 C59.98982187 197.01945389 58.25146703 197.013392 56.51316833 197.00100899 C54.08317027 196.98613616 51.65456378 196.99674698 49.22460938 197.01391602 C48.14754478 196.99941406 48.14754478 196.99941406 47.04872131 196.98461914 C43.64903671 197.03493694 41.88288725 197.2819348 39.16296387 199.39463806 Z M67.58203125 228.515625 C67.58203125 240.065625 67.58203125 251.615625 67.58203125 263.515625 C76.16203125 263.515625 84.74203125 263.515625 93.58203125 263.515625 C93.58203125 251.965625 93.58203125 240.415625 93.58203125 228.515625 C85.00203125 228.515625 76.42203125 228.515625 67.58203125 228.515625 Z M-201.41796875 279.515625 C-201.41796875 333.635625 -201.41796875 387.755625 -201.41796875 443.515625 C-42.35796875 443.515625 116.70203125 443.515625 280.58203125 443.515625 C280.58203125 389.395625 280.58203125 335.275625 280.58203125 279.515625 C121.52203125 279.515625 -37.53796875 279.515625 -201.41796875 279.515625 Z " fill="#000000" transform="translate(216.41796875,34.484375)"/>
<path d="M0 0 C1.06237885 -0.01022186 2.12475769 -0.02044373 3.21932983 -0.03097534 C6.72994546 -0.05876703 10.23977574 -0.05685399 13.75048828 -0.05224609 C16.19280285 -0.06002036 18.63511473 -0.06868977 21.0774231 -0.07821655 C26.19688684 -0.0931411 31.31607475 -0.09255876 36.43554688 -0.08203125 C42.9918987 -0.07044508 49.54711994 -0.1042941 56.10328484 -0.1507206 C61.14770088 -0.1802051 66.19184499 -0.1819374 71.23633194 -0.17570114 C73.65323246 -0.1767272 76.07014827 -0.18719605 78.48696518 -0.20732498 C81.86965812 -0.23203933 85.25015394 -0.2184838 88.6328125 -0.1953125 C90.12615112 -0.21824371 90.12615112 -0.21824371 91.6496582 -0.24163818 C97.59360772 -0.15177871 100.85835872 0.83333902 105.19703865 4.97002602 C107.33268127 7.67094062 107.57643882 10.2445508 107.62280273 13.55834961 C107.64205559 14.76023674 107.64205559 14.76023674 107.66169739 15.98640442 C107.66908432 16.84892319 107.67647125 17.71144196 107.68408203 18.60009766 C107.69215378 19.49166061 107.70022552 20.38322357 107.70854187 21.30180359 C107.72236985 23.18889427 107.73309775 25.07600983 107.7409668 26.96313477 C107.75817423 29.8406544 107.80207066 32.71702321 107.84619141 35.59423828 C107.85631933 37.42951631 107.86483512 39.26480408 107.87158203 41.10009766 C107.88909012 41.95654373 107.90659821 42.81298981 107.92463684 43.69538879 C107.90511254 49.10583823 107.22011544 52.3755577 103.44580078 56.54931641 C98.08544373 60.05871557 93.31556777 59.97662466 87.12939453 59.9375 C86.10427765 59.94275696 85.07916077 59.94801392 84.02297974 59.95343018 C80.64293061 59.96660671 77.2633545 59.95790011 73.88330078 59.94775391 C71.52970286 59.94977531 69.17610555 59.9526873 66.82250977 59.95645142 C61.89316842 59.9608716 56.96399032 59.95445335 52.03466797 59.94042969 C45.71956895 59.92333821 39.40485245 59.93318099 33.08976746 59.95114708 C28.23072432 59.96199302 23.37177171 59.9585348 18.51272583 59.9507637 C16.18433588 59.94876395 13.85593769 59.95121306 11.52755737 59.95820236 C8.27221943 59.96582993 5.01749904 59.95419364 1.76220703 59.9375 C0.80202667 59.94357269 -0.15815369 59.94964539 -1.14743042 59.9559021 C-6.3668705 59.9063734 -10.054723 59.49591855 -14.55419922 56.54931641 C-18.9809866 51.63655528 -19.13338473 47.45867966 -19.05029297 41.17041016 C-19.0517482 40.28072037 -19.05320343 39.39103058 -19.05470276 38.47438049 C-19.05304872 36.60096956 -19.04154308 34.72754434 -19.02075195 32.85424805 C-18.99175427 29.99225015 -19.00016184 27.13210178 -19.01318359 24.27001953 C-19.00694673 22.44514077 -18.99855619 20.62026783 -18.98779297 18.79541016 C-18.99072861 17.94321396 -18.99366425 17.09101776 -18.99668884 16.21299744 C-18.90091227 10.16394063 -17.79127892 6.95770567 -13.60224915 2.44789124 C-9.1335457 -0.33558281 -5.16888167 -0.02562101 0 0 Z M-2.55419922 16.54931641 C-2.55419922 25.45931641 -2.55419922 34.36931641 -2.55419922 43.54931641 C28.46580078 43.54931641 59.48580078 43.54931641 91.44580078 43.54931641 C91.44580078 34.63931641 91.44580078 25.72931641 91.44580078 16.54931641 C60.42580078 16.54931641 29.40580078 16.54931641 -2.55419922 16.54931641 Z " fill="#000000" transform="translate(211.55419921875,344.45068359375)"/>
</svg>
