<?xml version="1.0" standalone="no"?>
<!DOCTYPE svg PUBLIC "-//W3C//DTD SVG 20010904//EN"
 "http://www.w3.org/TR/2001/REC-SVG-20010904/DTD/svg10.dtd">
<svg version="1.0" xmlns="http://www.w3.org/2000/svg"
 width="512.000000pt" height="512.000000pt" viewBox="0 0 512.000000 512.000000"
 preserveAspectRatio="xMidYMid meet">

<g transform="translate(0.000000,512.000000) scale(0.100000,-0.100000)"
fill="#000000" stroke="none">
<path d="M782 4489 c-44 -22 -73 -55 -97 -112 -11 -27 -19 -173 -35 -637 -18
-542 -19 -605 -5 -626 17 -27 53 -39 85 -29 49 16 49 14 70 645 23 649 20 630
81 630 40 0 57 -23 63 -82 3 -29 21 -566 41 -1193 19 -627 37 -1177 40 -1222
l6 -83 -145 0 -146 0 0 58 c0 31 7 279 16 551 l17 495 -27 23 c-35 30 -71 29
-101 -2 -20 -19 -25 -34 -25 -77 0 -29 -7 -237 -15 -463 -8 -225 -15 -449 -15
-497 l0 -88 -180 0 c-217 0 -261 -12 -332 -88 -78 -83 -79 -95 -76 -518 l3
-369 29 -53 c17 -30 47 -67 67 -83 77 -61 52 -59 714 -59 592 0 605 0 625 20
27 27 26 81 -1 106 -20 18 -49 19 -620 24 l-599 5 -32 33 -33 32 -3 350 c-3
387 -2 392 61 430 31 20 61 20 1468 20 l1436 0 27 21 c34 27 36 77 3 107 l-23
22 -972 0 c-535 0 -972 1 -973 3 0 1 -20 578 -43 1282 -47 1380 -42 1323 -99
1383 -59 64 -172 82 -255 41z"/>
<path d="M4145 4494 c-49 -27 -76 -56 -98 -104 -19 -43 -22 -113 -63 -1325
-24 -704 -43 -1281 -43 -1282 -1 -2 -128 -3 -284 -3 -306 0 -318 -2 -331 -55
-7 -29 15 -79 39 -89 9 -3 353 -6 763 -6 723 0 748 -1 779 -20 63 -38 64 -43
61 -430 l-3 -350 -33 -32 -32 -33 -1619 -5 c-1574 -5 -1619 -6 -1640 -24 -27
-25 -29 -86 -3 -109 17 -16 145 -17 1643 -17 1314 1 1631 3 1661 14 56 20 111
69 144 128 l29 53 3 369 c3 423 2 435 -76 518 -71 76 -115 88 -332 88 l-180 0
0 70 c0 38 -18 615 -40 1282 l-40 1213 -26 53 c-37 76 -86 106 -178 110 -51 2
-79 -2 -101 -14z m138 -152 c15 -16 21 -157 57 -1225 22 -663 40 -1235 40
-1271 l0 -66 -146 0 -145 0 6 82 c3 46 21 596 41 1223 19 627 37 1164 40 1193
3 28 12 59 20 67 21 21 67 19 87 -3z"/>
<path d="M2425 3804 c-220 -31 -373 -77 -528 -156 -168 -86 -368 -244 -383
-302 -10 -40 23 -80 69 -84 31 -3 43 4 107 62 179 161 413 275 650 317 97 17
344 17 440 0 239 -42 472 -156 648 -316 66 -59 78 -66 109 -63 46 4 79 44 69
84 -9 32 -99 118 -206 195 -161 115 -383 209 -575 244 -88 16 -340 28 -400 19z"/>
<path d="M2485 3404 c-288 -39 -464 -116 -648 -287 -33 -31 -38 -41 -35 -73 2
-26 11 -43 30 -57 36 -27 65 -18 130 40 168 149 373 226 598 226 230 -1 429
-76 598 -226 65 -58 94 -67 130 -40 19 14 28 31 30 57 3 33 -2 43 -40 78 -141
132 -329 228 -513 263 -77 15 -233 25 -280 19z"/>
<path d="M2450 3004 c-114 -22 -249 -88 -328 -162 -38 -36 -43 -44 -40 -78 2
-26 11 -43 30 -57 34 -26 62 -18 124 34 190 159 458 159 648 0 62 -52 90 -60
124 -34 19 14 28 31 30 57 3 34 -2 42 -42 80 -115 105 -246 156 -411 161 -60
2 -121 1 -135 -1z"/>
<path d="M2423 2630 c-70 -35 -91 -55 -99 -97 -5 -26 -1 -37 19 -57 34 -34 71
-33 116 2 31 23 45 27 101 27 56 0 70 -4 101 -27 47 -37 91 -37 118 -2 42 53
14 106 -81 153 -52 27 -72 31 -138 31 -65 0 -86 -4 -137 -30z"/>
<path d="M536 1089 c-34 -27 -36 -79 -4 -109 20 -18 35 -20 170 -20 145 0 150
1 173 25 28 27 30 42 14 78 -18 39 -50 47 -193 47 -120 0 -136 -2 -160 -21z"/>
<path d="M1104 1087 c-35 -31 -38 -82 -5 -109 20 -16 42 -18 172 -18 136 0
151 2 169 20 30 30 27 83 -6 109 -24 19 -40 21 -165 21 -130 0 -139 -1 -165
-23z"/>
<path d="M1683 1100 c-45 -18 -55 -72 -22 -114 l20 -26 153 0 c146 0 153 1
174 23 29 31 28 72 -3 102 -23 24 -29 25 -162 24 -76 0 -148 -4 -160 -9z"/>
<path d="M2236 1089 c-34 -27 -36 -77 -3 -107 22 -21 33 -22 171 -22 143 0
148 1 171 25 28 27 30 42 14 78 -18 39 -50 47 -193 47 -120 0 -136 -2 -160
-21z"/>
<path d="M3696 1089 c-33 -26 -36 -79 -6 -109 18 -18 33 -20 166 -20 83 0 154
5 165 11 48 25 44 105 -7 128 -15 6 -80 11 -158 11 -120 0 -136 -2 -160 -21z"/>
<path d="M4256 1089 c-33 -26 -36 -79 -6 -109 18 -18 33 -20 170 -20 137 0
152 2 170 20 33 33 30 75 -6 108 -23 21 -34 22 -163 22 -125 0 -141 -2 -165
-21z"/>
</g>
</svg>
