<?xml version="1.0" standalone="no"?>
<!DOCTYPE svg PUBLIC "-//W3C//DTD SVG 20010904//EN"
 "http://www.w3.org/TR/2001/REC-SVG-20010904/DTD/svg10.dtd">
<svg version="1.0" xmlns="http://www.w3.org/2000/svg"
 width="512.000000pt" height="512.000000pt" viewBox="0 0 512.000000 512.000000"
 preserveAspectRatio="xMidYMid meet">

<g transform="translate(0.000000,512.000000) scale(0.100000,-0.100000)"
fill="#000000" stroke="none">
<path d="M2516 4538 c-178 -133 -289 -223 -296 -239 -24 -56 -13 -67 289 -294
314 -234 326 -241 376 -190 28 27 32 61 10 91 -8 12 -98 84 -200 160 l-186
139 43 3 c64 5 270 -16 383 -39 150 -30 294 -81 450 -159 209 -104 378 -233
543 -414 65 -71 196 -245 190 -252 -2 -1 -50 2 -108 7 -190 16 -411 -11 -607
-76 -346 -115 -581 -323 -741 -653 l-46 -95 -23 109 c-93 447 -301 771 -616
956 -140 82 -317 142 -547 185 l-45 9 89 66 c49 36 126 87 171 112 95 54 116
84 95 136 -14 34 -37 50 -73 50 -51 0 -321 -181 -454 -304 l-59 -54 -97 -12
c-200 -24 -396 -86 -541 -172 -92 -54 -137 -88 -213 -162 -89 -85 -88 -104 12
-186 76 -64 151 -152 251 -297 l57 -82 -22 -103 c-62 -298 -53 -623 26 -928
53 -209 169 -452 303 -640 466 -649 1250 -958 2035 -799 768 155 1394 782
1550 1554 32 158 49 347 42 469 l-6 99 58 81 c60 83 141 170 224 242 67 58 65
81 -17 161 -103 100 -258 195 -406 247 l-75 27 -49 86 c-164 288 -455 572
-753 738 -261 145 -533 223 -877 252 l-90 8 157 117 c86 65 164 129 173 142
20 32 11 80 -19 101 -47 33 -65 24 -361 -197z m-1015 -937 c497 -100 802 -414
925 -953 13 -59 24 -114 24 -123 0 -9 -28 19 -62 62 -128 163 -322 344 -483
453 -166 112 -206 127 -252 95 -26 -18 -38 -67 -23 -94 6 -12 57 -51 113 -87
268 -174 458 -363 629 -623 37 -58 68 -110 68 -117 0 -16 -141 -41 -300 -54
-323 -26 -649 51 -869 207 -157 111 -273 247 -516 602 -90 133 -192 269 -235
314 l-75 80 35 29 c129 107 355 197 575 227 101 14 333 5 446 -18z m2528 -411
c122 -13 261 -47 362 -89 80 -33 206 -105 254 -144 l30 -25 -60 -64 c-76 -79
-123 -141 -260 -343 -279 -411 -415 -553 -638 -665 -266 -134 -590 -170 -948
-104 -53 10 -89 21 -89 28 0 7 31 59 68 117 171 261 361 449 630 623 113 73
132 99 111 148 -22 52 -64 61 -132 27 -186 -95 -460 -332 -625 -542 -34 -43
-62 -71 -62 -62 0 37 44 216 77 309 146 421 431 675 855 761 162 34 277 40
427 25z m-3168 -640 c91 -114 241 -260 326 -318 138 -94 303 -163 491 -205 84
-18 128 -21 332 -22 224 0 316 9 447 42 l23 5 0 -381 0 -381 -22 -4 c-13 -3
-58 -7 -102 -10 -265 -19 -628 -144 -859 -295 -68 -44 -81 -50 -95 -39 -187
145 -374 379 -491 615 -66 131 -135 337 -161 483 -28 153 -36 355 -21 504 16
147 19 158 40 125 9 -13 50 -66 92 -119z m3529 -361 c-39 -377 -182 -714 -430
-1012 -67 -79 -172 -182 -242 -235 -14 -11 -28 -5 -95 39 -231 151 -594 276
-859 295 -138 9 -124 -11 -124 178 l0 163 93 -18 c297 -58 629 -42 877 41 288
97 521 284 740 597 24 35 45 61 47 59 2 -1 -2 -50 -7 -107z m-1680 -1069 c148
-13 298 -43 430 -87 111 -36 345 -147 394 -186 l29 -24 -61 -37 c-163 -99
-392 -186 -597 -226 -140 -28 -398 -38 -545 -21 -195 23 -370 70 -545 148
-103 45 -255 130 -255 141 0 10 153 96 243 137 175 79 395 137 588 154 135 12
190 12 319 1z"/>
</g>
</svg>
