<?xml version="1.0" encoding="UTF-8"?>
<svg version="1.1" xmlns="http://www.w3.org/2000/svg" width="512" height="512">
<path d="M0 0 C1.07776654 -0.00322445 2.15553307 -0.00644889 3.2659592 -0.00977105 C5.04098437 -0.00744815 5.04098437 -0.00744815 6.85186863 -0.00507832 C8.10949263 -0.00734387 9.36711662 -0.00960943 10.66285044 -0.01194364 C14.15585128 -0.0180681 17.6488282 -0.01792729 21.14183319 -0.01674926 C24.90808697 -0.01654542 28.67433303 -0.02206239 32.44058323 -0.02680683 C39.81984069 -0.03511723 47.19909016 -0.03786184 54.57835191 -0.03841921 C60.57506895 -0.03889414 66.57178336 -0.04094772 72.56849957 -0.04411983 C89.56349874 -0.05292708 106.5584916 -0.05753904 123.55349308 -0.05678936 C124.46991248 -0.0567494 125.38633189 -0.05670945 126.33052158 -0.05666828 C127.70682527 -0.05660696 127.70682527 -0.05660696 129.11093307 -0.0565444 C143.98678919 -0.0561378 158.86262002 -0.06571077 173.73846882 -0.07980665 C189.00621895 -0.09415996 204.27395673 -0.10107743 219.54171377 -0.10021287 C228.11611726 -0.09988056 236.69049421 -0.10264244 245.26489162 -0.11339092 C252.5640951 -0.12248214 259.86326002 -0.12468252 267.1624667 -0.1178815 C270.88760608 -0.11460944 274.61267143 -0.11458424 278.33780384 -0.12323475 C282.37339164 -0.13250997 286.40880695 -0.12634173 290.44439793 -0.11860371 C291.62551732 -0.12374727 292.8066367 -0.12889083 294.02354759 -0.13419026 C295.10392187 -0.12959147 296.18429616 -0.12499267 297.29740906 -0.12025452 C298.22897306 -0.12047188 299.16053706 -0.12068925 300.12033027 -0.12091321 C303.91539771 0.24456053 306.74667244 1.26017706 309.5866251 3.81613445 C311.24746265 7.2300783 310.63115217 9.51620668 309.7116251 13.12863445 C308.13276544 15.18801662 307.02020087 15.97434657 304.7116251 17.12863445 C303.06481464 17.22252433 301.41418551 17.25236785 299.76470089 17.25168228 C298.71221672 17.25367333 297.65973256 17.25566438 296.57535493 17.25771576 C295.41000518 17.25480292 294.24465543 17.25189008 293.04399204 17.24888897 C291.19770488 17.25017061 291.19770488 17.25017061 289.31411898 17.25147814 C285.88674284 17.25284493 282.45942327 17.24970269 279.03205395 17.24470007 C275.34016639 17.24039485 271.64828069 17.24184205 267.95639133 17.24260235 C261.55632072 17.24312754 255.15626027 17.23998126 248.75619221 17.23436451 C239.50268757 17.22624883 230.24918786 17.22363422 220.99568005 17.22237652 C205.98367457 17.22018611 190.97167451 17.21352631 175.95967197 17.20407391 C161.37406027 17.19489951 146.78845004 17.18781881 132.20283604 17.18356609 C130.8549957 17.18317201 130.8549957 17.18317201 129.47992627 17.18276996 C124.9722621 17.18146496 120.46459792 17.18020124 115.95693374 17.17895806 C78.54182703 17.16858578 41.12672648 17.15096776 3.7116251 17.12863445 C3.71439048 17.75793456 3.71715586 18.38723467 3.72000504 19.03560448 C3.78626999 34.35078343 3.83590812 49.66591249 3.86706161 64.98119926 C3.88252782 72.38757445 3.90361253 79.79385391 3.93794346 87.20016766 C3.96785348 93.65582525 3.9872019 100.11141353 3.99389058 106.56713849 C3.99780016 109.98514152 4.00698282 113.40294622 4.02881527 116.82088566 C4.05053856 120.63737487 4.05359408 124.45345096 4.05220127 128.26999187 C4.0629871 129.40215633 4.07377293 130.53432079 4.0848856 131.70079327 C4.07869961 133.26351467 4.07869961 133.26351467 4.07238865 134.85780621 C4.07515403 135.76024154 4.07791941 136.66267687 4.08076859 137.59245872 C3.62482756 140.72497117 2.56208147 142.57729519 0.7116251 145.12863445 C-2.2883749 147.12863445 -2.2883749 147.12863445 -5.7883749 146.94113445 C-9.16600024 146.15704286 -10.32151475 145.86038466 -12.2883749 143.12863445 C-13.57866836 140.54804753 -13.42303213 138.68740644 -13.43554592 135.79664898 C-13.44270123 134.66521465 -13.44985653 133.53378033 -13.45722866 132.36806011 C-13.45991756 131.12075619 -13.46260647 129.87345226 -13.46537685 128.58835125 C-13.47194805 127.27935863 -13.47851925 125.97036602 -13.48528957 124.62170696 C-13.50270439 121.02450309 -13.51325262 117.42731252 -13.5214951 113.83007693 C-13.52664424 111.58304949 -13.53272001 109.33602618 -13.53900623 107.08900166 C-13.55805966 100.05973452 -13.57229047 93.03047789 -13.5806182 86.00118989 C-13.59039225 77.8848942 -13.61671526 69.76887113 -13.6571191 61.65267152 C-13.68727076 55.38084038 -13.70208616 49.10908742 -13.70539922 42.8371852 C-13.7077508 39.09053511 -13.71672481 35.3441762 -13.74186039 31.5976038 C-13.76945275 27.41726147 -13.76531293 23.23752881 -13.7583456 19.05710125 C-13.77115566 17.81587002 -13.78396572 16.57463879 -13.79716396 15.29579449 C-13.78674824 13.58595379 -13.78674824 13.58595379 -13.77612209 11.84157085 C-13.77851045 10.85324103 -13.7808988 9.86491121 -13.78335953 8.846632 C-13.13907503 5.30881773 -11.82112315 3.64532212 -9.2883749 1.12863445 C-6.18815665 0.04881872 -3.26380553 0.00246844 0 0 Z " fill="#000000" transform="translate(43.28837490081787,180.87136554718018)"/>
<path d="M0 0 C6.7160162 4.24048804 12.39806875 10.13712514 18.21875 15.5 C20.89465532 17.90530815 23.63459924 20.18229249 26.4375 22.4375 C30.97316443 26.09571015 35.2570117 29.94742965 39.51928711 33.91381836 C42.75193975 36.90427 46.06696766 39.73779007 49.5 42.5 C54.01777813 46.13499389 58.27818516 49.9671029 62.51953125 53.9140625 C65.75211747 56.90441358 69.06705866 59.73786329 72.5 62.5 C77.01777813 66.13499389 81.27818516 69.9671029 85.51953125 73.9140625 C89.6054577 77.69380841 93.87742411 81.19493536 98.21484375 84.68359375 C101.78662431 87.65423312 105.17426548 90.79828997 108.56787109 93.96899414 C112.54082739 97.65370615 116.70467218 100.9988078 121.0390625 104.24609375 C123.18736512 106.16758354 124.1722744 107.23929169 125 110 C125.03127372 114.47214199 124.31818033 117.06470434 121.2265625 120.2109375 C120.04191773 121.28342655 118.84037728 122.33746732 117.625 123.375 C116.99158691 123.93880371 116.35817383 124.50260742 115.70556641 125.08349609 C111.14980718 129.10719585 106.45551602 132.95936694 101.7109375 136.7578125 C98.71095469 139.23906629 95.8484797 141.84865956 93 144.5 C88.41245234 148.76923405 83.6655672 152.75758961 78.78125 156.6875 C75.75980812 159.1997101 72.87558227 161.82400827 70 164.5 C65.41239887 168.76918152 60.66557272 172.75758517 55.78125 176.6875 C52.75980812 179.1997101 49.87558227 181.82400827 47 184.5 C42.41239887 188.76918152 37.66557272 192.75758517 32.78125 196.6875 C29.75979924 199.19971749 26.87568403 201.82410618 24 204.5 C19.28519109 208.88469587 14.43007302 213.03226254 9.3984375 217.0546875 C7.4392796 218.64371134 5.59882811 220.28812212 3.75 222 C0.34613395 224.47553895 -1.79726268 225.07641341 -6 225 C-9.13002947 223.53487982 -10.44132653 222.35800629 -11.76171875 219.1484375 C-12.24778287 216.27386474 -12.04347836 214.74987239 -11 212 C-7.10312468 207.4707106 -2.63592542 203.74949287 2 200 C2.95390625 199.21496094 3.9078125 198.42992187 4.890625 197.62109375 C6.67196773 196.1652888 8.45976387 194.71734482 10.25390625 193.27734375 C13.26319052 190.78173531 16.13938654 188.16234857 19 185.5 C23.58757439 181.23079221 28.33443004 177.24241261 33.21875 173.3125 C36.24019188 170.8002899 39.12441773 168.17599173 42 165.5 C46.58760113 161.23081848 51.33442728 157.24241483 56.21875 153.3125 C59.24019188 150.8002899 62.12441773 148.17599173 65 145.5 C69.58493511 141.23329946 74.32806544 137.2463105 79.2109375 133.3203125 C82.27971567 130.76729536 85.20525251 128.09525301 88.125 125.375 C92.87126508 120.95360064 97.78490363 116.85864454 103 113 C94.68122861 104.58913889 85.9725732 96.68263132 76.74609375 89.27734375 C73.73680948 86.78173531 70.86061346 84.16234857 68 81.5 C64.26672745 78.02580757 60.47628889 74.6993129 56.5 71.5 C51.98222187 67.86500611 47.72181484 64.0328971 43.48046875 60.0859375 C40.24788253 57.09558642 36.93294134 54.26213671 33.5 51.5 C28.98222187 47.86500611 24.72181484 44.0328971 20.48046875 40.0859375 C17.24788253 37.09558642 13.93294134 34.26213671 10.5 31.5 C4.41483188 26.59830434 -1.31783009 21.36133417 -7 16 C-7.76441406 15.31550781 -8.52882813 14.63101563 -9.31640625 13.92578125 C-11.7095474 11.18838313 -11.58128237 9.40539846 -11.37890625 5.90625 C-11 4 -11 4 -9.4375 1.5 C-5.81928843 -0.72659173 -4.21615344 -0.8160297 0 0 Z " fill="#000000" transform="translate(357,119)"/>
<path d="M0 0 C0.76845214 -0.00779995 1.53690428 -0.01559991 2.32864285 -0.02363622 C4.90000488 -0.04355789 7.46988713 -0.02779202 10.04125977 -0.01205444 C11.88608666 -0.01883052 13.7309068 -0.0277336 15.57571411 -0.03860474 C20.58402707 -0.06140583 25.59182525 -0.05255834 30.60014725 -0.03670931 C35.84021649 -0.02405456 41.08024153 -0.03578924 46.3203125 -0.04364014 C55.12027911 -0.05273792 63.92003594 -0.04074534 72.7199707 -0.01693726 C82.89539749 0.0102742 93.07032338 0.00146014 103.24573803 -0.02606928 C111.98049553 -0.04875561 120.7151022 -0.05196275 129.44987965 -0.03887594 C134.66750614 -0.03107883 139.88489716 -0.03004704 145.10250854 -0.04655838 C150.00778538 -0.06099688 154.91241613 -0.05099266 159.81762314 -0.0220871 C161.61835532 -0.01547298 163.41914184 -0.01737953 165.21985245 -0.02840042 C167.6774141 -0.04205526 170.1329027 -0.02494343 172.59033203 0 C173.3038555 -0.01115361 174.01737898 -0.02230722 174.75252438 -0.03379881 C178.59287117 0.04186913 180.20114461 0.55985854 183.24156189 2.9871006 C185.29516602 5.63491821 185.29516602 5.63491821 185.85766602 8.63491821 C185.14678567 12.42628008 184.05801972 13.9488446 181.29516602 16.63491821 C178.02308273 17.25015736 178.02308273 17.25015736 174.05657959 17.2361908 C173.32628957 17.24046292 172.59599955 17.24473504 171.84357953 17.24913663 C169.39550336 17.25737534 166.94913907 17.22986974 164.5012207 17.20254517 C162.74695883 17.20113487 160.992694 17.20192631 159.23843384 17.20475769 C154.47410192 17.20619399 149.71039768 17.17676963 144.94621181 17.1418879 C139.96810006 17.11066004 134.98997438 17.10769648 130.01177979 17.10176086 C120.58404351 17.08621192 111.15659667 17.0451692 101.72898793 16.99501342 C90.99637122 16.93915267 80.26374078 16.91164167 69.53101492 16.88653624 C47.45223699 16.83425431 25.37371973 16.74629155 3.29516602 16.63491821 C3.29977498 17.23421772 3.30438395 17.83351723 3.30913258 18.45097733 C3.41954065 33.03134883 3.50228785 47.61169563 3.55422688 62.19238663 C3.58001177 69.24353291 3.6151671 76.29440021 3.67236328 83.34536743 C3.72751043 90.14697674 3.7565687 96.94829569 3.76955223 103.75011444 C3.77880756 106.34814778 3.79688057 108.94616482 3.8238163 111.54407501 C3.8599892 115.17659613 3.86511601 118.80791072 3.86279297 122.44058228 C3.88076935 123.52023758 3.89874573 124.59989288 3.91726685 125.71226501 C3.86676295 132.9862686 3.86676295 132.9862686 0.94718933 136.29940796 C-2.33937716 137.95446251 -4.0747763 138.31555403 -7.70483398 137.63491821 C-10.35189819 135.85891724 -10.35189819 135.85891724 -12.70483398 132.63491821 C-13.46269276 128.59256424 -13.38755066 124.59115357 -13.35180664 120.48843384 C-13.36056824 119.25703171 -13.36932983 118.02562958 -13.37835693 116.75691223 C-13.39657673 113.38660401 -13.39233144 110.01783324 -13.37646151 106.64761162 C-13.36378247 103.11719607 -13.37554815 99.58684519 -13.38339233 96.056427 C-13.39248315 90.12820674 -13.38051623 84.20029816 -13.35668945 78.27212524 C-13.32947881 71.42304141 -13.3382934 64.57470181 -13.36582148 57.72563601 C-13.38852807 51.84009074 -13.39170521 45.95476924 -13.37862813 40.06919432 C-13.37084196 36.55621362 -13.36976852 33.04358248 -13.38631058 29.53062439 C-13.40346627 25.61392396 -13.37967416 21.69805385 -13.35180664 17.78140259 C-13.3619278 16.6196904 -13.37204895 15.45797821 -13.38247681 14.26106262 C-13.36837769 13.19281754 -13.35427856 12.12457245 -13.3397522 11.0239563 C-13.33786707 10.09851768 -13.33598194 9.17307907 -13.33403969 8.21959686 C-11.62003178 1.17872038 -6.4764751 -0.10123853 0 0 Z " fill="#000000" transform="translate(82.704833984375,222.36508178710938)"/>
<path d="M0 0 C1.41584405 -0.0083016 1.41584405 -0.0083016 2.860291 -0.0167709 C6.03110922 -0.03041153 9.20114497 -0.0153894 12.37194824 -0.00050354 C14.64188472 -0.00428546 16.91181889 -0.00978446 19.18174744 -0.01687622 C25.35316764 -0.03086449 31.5243101 -0.01963723 37.69571495 -0.00316501 C44.14675503 0.01066109 50.59777859 0.0042282 57.04882812 0.0007019 C67.88331232 -0.00200215 78.71766881 0.01140482 89.55212402 0.03465271 C100.70157987 0.05857385 111.85088931 0.06565714 123.00036621 0.05516052 C136.43309696 0.04253702 149.86571291 0.04503933 163.29844666 0.06081963 C168.43075644 0.06658608 173.56301723 0.06649156 178.69532776 0.06175423 C184.73638398 0.05699047 190.77723693 0.06706135 196.81825447 0.08870888 C199.03867469 0.0942851 201.25911441 0.09473444 203.47953606 0.08975601 C206.50408156 0.0838239 209.52800122 0.09626872 212.55249023 0.11352539 C213.43691945 0.10751535 214.32134866 0.1015053 215.23257875 0.09531313 C218.75499342 0.13200824 221.13773734 0.16816978 224.29413605 1.81449795 C226.69389529 4.54553306 226.71491455 6.94403273 226.77624512 10.50120544 C225.43062112 13.44876276 224.69069968 15.04397816 221.77624512 16.50120544 C218.9166378 16.59717917 216.0814594 16.6313031 213.22164917 16.62145996 C212.32564235 16.62231439 211.42963554 16.62316881 210.506477 16.62404913 C207.48619094 16.62570407 204.4659597 16.62018231 201.44567871 16.61473083 C199.28777569 16.61444894 197.12987257 16.61460674 194.9719696 16.61517334 C189.09830008 16.61546123 183.22465081 16.60956592 177.350986 16.60259938 C171.21837688 16.59636437 165.08576733 16.59576193 158.95315552 16.59457397 C147.33323875 16.5914611 135.71333135 16.58324828 124.09341872 16.57322448 C110.86750672 16.56206201 97.64159428 16.55655256 84.41567874 16.55152905 C57.202529 16.54106564 29.98938758 16.52346703 2.77624512 16.50120544 C2.78512756 17.17914658 2.79401001 17.85708771 2.80316162 18.55557251 C2.89166002 25.61199004 2.95199017 32.66824989 2.99597168 39.7250824 C3.0160861 42.35861108 3.04338115 44.99209511 3.07800293 47.62547302 C3.12652599 51.41098551 3.14921624 55.19590745 3.16687012 58.98167419 C3.18751526 60.15892563 3.2081604 61.33617706 3.22943115 62.54910278 C3.23167478 70.72357978 3.23167478 70.72357978 0.87683105 74.74436951 C-1.38849059 76.63898301 -2.30792441 77.16052013 -5.22375488 77.06370544 C-5.88375488 77.06499451 -6.54375488 77.06628357 -7.22375488 77.06761169 C-10.16217951 76.23544066 -11.32123784 74.87432911 -13.22375488 72.50120544 C-13.73168945 69.46556091 -13.73168945 69.46556091 -13.74133301 65.86839294 C-13.75184692 64.88229034 -13.75184692 64.88229034 -13.76257324 63.87626648 C-13.78013919 61.70914627 -13.76853724 59.54333828 -13.75500488 57.37620544 C-13.75770025 55.86692556 -13.76158304 54.35764736 -13.76660156 52.84837341 C-13.77249465 49.68756045 -13.76394039 46.52720011 -13.74523926 43.36643982 C-13.72244908 39.31751987 -13.73557328 35.26966047 -13.75952911 31.22077942 C-13.77399266 28.10488412 -13.76937872 24.98923971 -13.75901794 21.87333679 C-13.75635216 20.38061904 -13.75961526 18.88787841 -13.76893616 17.39518738 C-13.77911184 15.30751841 -13.76359057 13.2215597 -13.74133301 11.13401794 C-13.73815063 9.94695251 -13.73496826 8.75988708 -13.73168945 7.53684998 C-12.41124604 -0.35471139 -6.6524878 -0.07224681 0 0 Z " fill="#000000" transform="translate(127.2237548828125,264.49879455566406)"/>
<path d="M0 0 C2.90717073 2.21863029 3.83981643 3.51944929 5 7 C5 15.58 5 24.16 5 33 C27.11 33 49.22 33 72 33 C72 27.72 72 22.44 72 17 C75.54823932 13.45176068 77.09661485 13.2580729 82 13 C84.65336228 13.78883744 85.61730041 14.38938998 87.08227539 16.72680664 C88.94994227 21.35299613 88.41237008 26.51482728 88.4375 31.4375 C88.47037109 32.56994141 88.50324219 33.70238281 88.53710938 34.86914062 C88.54419922 35.96291016 88.55128906 37.05667969 88.55859375 38.18359375 C88.57877563 39.67717407 88.57877563 39.67717407 88.59936523 41.20092773 C87.74708222 45.18114151 86.1879582 46.49709166 83 49 C80.07299744 49.71237249 77.23495678 49.66393179 74.23413086 49.61523438 C72.92594139 49.62355789 72.92594139 49.62355789 71.59132385 49.63204956 C68.7152675 49.6438381 65.84078933 49.61958093 62.96484375 49.59375 C60.96375093 49.59203877 58.96265588 49.59210471 56.96156311 49.59387207 C52.77095042 49.59221933 48.580873 49.57352803 44.39038086 49.54199219 C39.01775787 49.50228924 33.6458351 49.49795021 28.27309322 49.50545502 C24.14239583 49.50852358 20.01185601 49.49640862 15.88119698 49.47932434 C13.90005036 49.47229166 11.91888589 49.46917013 9.93772697 49.47001648 C7.17031404 49.4682198 4.4037422 49.44684995 1.63647461 49.41992188 C0.81714447 49.42285248 -0.00218567 49.42578308 -0.84634399 49.42880249 C-4.12627588 49.37953149 -6.5629253 49.23619926 -9.47727966 47.66125488 C-12.81387736 44.02109911 -12.17778602 39.42867732 -12.203125 34.7890625 C-12.20882507 33.98391205 -12.21452515 33.1787616 -12.22039795 32.34921265 C-12.22983936 30.64623322 -12.23637852 28.9432356 -12.24023438 27.24023438 C-12.24993801 24.64160127 -12.28096784 22.04375997 -12.3125 19.4453125 C-12.31903067 17.78906719 -12.32428089 16.13281623 -12.328125 14.4765625 C-12.3404718 13.70245026 -12.3528186 12.92833801 -12.36553955 12.13076782 C-12.34682961 7.57527349 -11.84954726 4.61006246 -9 1 C-5.90826248 -0.54586876 -3.40570448 -0.29359521 0 0 Z " fill="#000000" transform="translate(42,344)"/>
<path d="M0 0 C0.86032837 -0.00817749 1.72065674 -0.01635498 2.60705566 -0.02478027 C5.46158141 -0.04964601 8.31605741 -0.0661529 11.1706543 -0.08056641 C12.14447744 -0.08589008 13.11830059 -0.09121376 14.12163353 -0.09669876 C19.27557972 -0.12343491 24.42950163 -0.14280871 29.58349609 -0.15722656 C34.91023581 -0.17387961 40.23635745 -0.21866162 45.56286335 -0.26959801 C49.65580466 -0.30323309 53.74859856 -0.31479987 57.84166527 -0.32045364 C59.80529697 -0.32717599 61.76891865 -0.34242351 63.73241615 -0.36634445 C66.48097927 -0.3979202 69.22786606 -0.3980444 71.9765625 -0.390625 C72.78765976 -0.40703033 73.59875702 -0.42343567 74.43443298 -0.44033813 C78.64412996 -0.39382339 80.23790078 -0.14891691 83.69132996 2.50668335 C85.68237305 5.19287109 85.68237305 5.19287109 86.24487305 8.75537109 C85.57401899 12.85503476 85.02016958 13.78502584 81.68237305 16.19287109 C78.61114026 16.58222637 75.90059038 16.72986518 72.83056641 16.69458008 C71.93747269 16.69998306 71.04437897 16.70538605 70.1242218 16.71095276 C67.17321602 16.72345662 64.22318259 16.70693927 61.2722168 16.68896484 C59.22245736 16.68911978 57.17269763 16.69060785 55.12294006 16.69337463 C50.82808475 16.69475932 46.5335631 16.68218759 42.23876953 16.65942383 C36.72815877 16.63102124 31.21810177 16.63378051 25.70744991 16.64651394 C21.47558342 16.65346153 17.24384541 16.64569264 13.01199532 16.63325691 C10.97977758 16.62873473 8.94754608 16.62841228 6.91532707 16.63232231 C4.07819098 16.63522596 1.24182415 16.61876878 -1.59521484 16.59692383 C-2.86001175 16.6036763 -2.86001175 16.6036763 -4.15036011 16.61056519 C-9.87708776 16.53713459 -9.87708776 16.53713459 -11.99819088 14.87957859 C-14.18049219 12.08982314 -14.25767609 9.67002112 -14.31762695 6.19287109 C-10.36760282 -0.07268444 -6.92845343 0.03611838 0 0 Z " fill="#000000" transform="translate(298.317626953125,222.80712890625)"/>
</svg>
