<?xml version="1.0" encoding="UTF-8"?>
<svg version="1.1" xmlns="http://www.w3.org/2000/svg" width="512" height="512">
<path d="M0 0 C1.48655594 -0.01270432 1.48655594 -0.01270432 3.00314331 -0.02566528 C6.27135135 -0.04901696 9.53908797 -0.05005773 12.80737305 -0.04882812 C15.08652433 -0.05593159 17.36567382 -0.06363087 19.64482117 -0.07189941 C24.42032848 -0.08534064 29.19567048 -0.08691489 33.97119141 -0.08105469 C40.07767284 -0.07516393 46.18335776 -0.10572694 52.28968525 -0.14617157 C56.99702698 -0.17207941 61.70417784 -0.17492305 66.41158104 -0.17127991 C68.66215196 -0.17296875 70.91273192 -0.18258838 73.1632328 -0.20042419 C76.31768979 -0.22267043 79.47054638 -0.21288171 82.625 -0.1953125 C83.54634232 -0.20857574 84.46768463 -0.22183899 85.41694641 -0.23550415 C91.95352713 -0.15132366 96.71964165 1.5186745 102.0065918 5.41992188 C103.79174805 7.87695312 103.79174805 7.87695312 105.0690918 10.23242188 C107.33834508 13.0199614 109.07995661 14.2366371 112.62084961 14.93701172 C115.82578217 15.25976269 118.97329626 15.384471 122.1940918 15.41992188 C123.26473877 15.44417236 124.33538574 15.46842285 125.43847656 15.4934082 C131.00889966 15.4978243 131.00889966 15.4978243 135.6940918 12.90966797 C136.98102323 11.09284399 136.98102323 11.09284399 138.01855469 9.15722656 C139.41427223 6.70308127 141.26261878 5.51840681 143.6315918 4.04492188 C144.38698242 3.5628125 145.14237305 3.08070312 145.9206543 2.58398438 C150.18905204 0.20199462 154.10611635 0.26667716 158.85487366 0.2592926 C159.66300819 0.25420478 160.47114273 0.24911696 161.30376619 0.24387497 C164.02119397 0.22813526 166.73859512 0.21962134 169.45605469 0.21118164 C171.40083994 0.20164426 173.34562349 0.19175315 175.29040527 0.18153381 C181.68666567 0.15013049 188.08293914 0.12987762 194.47924805 0.11132812 C196.11176612 0.10638214 196.11176612 0.10638214 197.77726436 0.10133624 C208.04283047 0.07055083 218.3083995 0.04384424 228.57399845 0.02691746 C241.70134703 0.00501813 254.82828619 -0.0369341 267.9554711 -0.10652012 C277.18703169 -0.153792 286.41848196 -0.17802053 295.65015978 -0.18527943 C301.16263702 -0.19023149 306.67465299 -0.20527024 312.18699837 -0.24502373 C317.37704037 -0.28195863 322.56635895 -0.29027708 327.75650787 -0.27701759 C329.65676966 -0.27707143 331.55706406 -0.28732225 333.45720482 -0.30876923 C345.33938539 -0.43566468 353.39168447 0.1599608 362.40893555 8.69335938 C362.91553711 9.386875 363.42213867 10.08039062 363.9440918 10.79492188 C364.73106445 11.82746094 364.73106445 11.82746094 365.53393555 12.88085938 C370.28728581 21.07629086 370.43791364 28.34960873 370.39427185 37.63998413 C370.39844837 39.08757077 370.40392764 40.53515414 370.41059166 41.98273146 C370.42502335 45.94736856 370.42080871 49.91179738 370.41342485 53.87644577 C370.40868981 58.15740145 370.42120602 62.43831229 370.43144226 66.71925354 C370.44862921 75.10096762 370.44947046 83.48260673 370.44422936 91.86433385 C370.44018611 98.6780433 370.44163305 105.49173061 370.44697762 112.305439 C370.44772604 113.27561964 370.44847446 114.24580029 370.44924556 115.24538035 C370.45077706 117.21637777 370.4523154 119.18737519 370.45386053 121.1583726 C370.46758528 139.6378524 370.46214813 158.11728986 370.45067532 176.59676869 C370.4407437 193.49627999 370.45368242 210.39568179 370.47760951 227.29517619 C370.50200247 244.65473964 370.51160784 262.0142521 370.50495678 279.37383235 C370.50146491 289.11704545 370.50369451 298.86017435 370.52120781 308.60337448 C370.53593226 316.89783522 370.53656206 325.19215247 370.5191369 333.4866104 C370.5106264 337.71675134 370.50847847 341.94663598 370.52378845 346.17676353 C370.53764422 350.05315452 370.5328613 353.92906982 370.51354922 357.80543335 C370.50979158 359.20374644 370.51270441 360.60209771 370.52316087 362.00037675 C370.6034319 373.56146154 368.81991495 382.22693222 360.72143555 390.73632812 C352.05689129 399.24297636 343.37165143 399.86379156 331.59228516 399.76049805 C329.61521576 399.76115517 329.61521576 399.76115517 327.59820557 399.76182556 C324.00988478 399.76268096 320.42186918 399.74512992 316.83361888 399.72410369 C313.0740369 399.70526016 309.31444675 399.70358043 305.55482483 399.70002747 C298.44707296 399.69072942 291.33946069 399.66614626 284.2317701 399.635979 C276.135 399.6023649 268.03822299 399.58593142 259.94140041 399.57089269 C243.29638269 399.53959449 226.6515051 399.48687798 210.0065918 399.41992188 C210.01542892 400.39555084 210.02426605 401.37117981 210.03337097 402.37637329 C210.06422794 406.04301272 210.08340148 409.709641 210.09928894 413.37637329 C210.1077044 414.9545587 210.11916586 416.53273125 210.13389587 418.11087036 C210.36342786 443.35938908 203.83927151 466.06707716 185.8190918 484.60351562 C184.8909668 485.53292969 183.9628418 486.46234375 183.0065918 487.41992188 C182.2022168 488.23589844 181.3978418 489.051875 180.5690918 489.89257812 C162.20587077 507.5007325 139.36999644 511.97827806 114.8034668 511.68945312 C91.5721109 511.04272174 71.40959654 499.54338345 55.6315918 483.04492188 C38.68099944 463.45448316 33.43049023 442.17937812 33.8190918 417.04492188 C33.83418268 415.32618375 33.84786321 413.60743264 33.86010742 411.88867188 C33.8927258 407.73209336 33.94425787 403.57615657 34.0065918 399.41992188 C32.84200439 399.44086914 31.67741699 399.46181641 30.47753906 399.48339844 C26.12219731 399.55625694 21.76690851 399.60188705 17.41113281 399.63964844 C15.53245967 399.65966007 13.653848 399.68687824 11.77539062 399.72167969 C9.06193807 399.77066158 6.34931484 399.79299516 3.63549805 399.81054688 C2.80699844 399.83119202 1.97849884 399.85183716 1.12489319 399.87310791 C-8.05404922 399.87657373 -16.4811082 395.87749667 -22.9934082 389.41992188 C-27.79447875 382.82366842 -30.11122421 377.59597488 -30.1332159 369.44831848 C-30.13890715 368.21811604 -30.14459839 366.98791359 -30.15046209 365.72043228 C-30.15175469 364.35309101 -30.15294272 362.98574964 -30.15403748 361.6184082 C-30.15876895 360.16745238 -30.16391993 358.71649787 -30.16945511 357.26554489 C-30.18336044 353.2729971 -30.19094459 349.28045842 -30.19742811 345.28789258 C-30.20380015 341.86459063 -30.21387013 338.44130365 -30.22398876 335.01801103 C-30.25731031 323.73891008 -30.27883419 312.45980001 -30.29718861 301.18066597 C-30.30198422 298.24328207 -30.30696747 295.30589853 -30.31199384 292.36851501 C-30.34296652 274.12458012 -30.36964967 255.88064205 -30.38641262 237.63668823 C-30.39036207 233.41094965 -30.39436507 229.18521112 -30.3984375 224.95947266 C-30.39944586 223.90919537 -30.40045422 222.85891809 -30.40149314 221.77681422 C-30.4184948 204.7684387 -30.4595985 187.76020881 -30.51046049 170.75190437 C-30.56226006 153.28624857 -30.591358 135.82066761 -30.59860951 118.35493565 C-30.60326888 108.55004633 -30.61798995 98.74539547 -30.65835381 88.94058228 C-30.69269362 80.58896631 -30.70657714 72.23763182 -30.69392966 63.88594931 C-30.68811196 59.62709616 -30.69190344 55.36883802 -30.7220993 51.110075 C-30.74956137 47.20488386 -30.74888958 43.30070762 -30.72658885 39.39549291 C-30.72337945 37.98893288 -30.73015493 36.58230367 -30.74838608 35.17585814 C-30.87441363 24.81871439 -29.11522721 15.99709955 -21.91031545 8.1516304 C-15.11882286 1.79485236 -9.11917254 -0.02881631 0 0 Z M-10.9309082 20.10742188 C-15.77717999 27.89082808 -15.2804042 36.18447886 -15.25410461 45.07725525 C-15.25712819 46.46368047 -15.26101871 47.85010402 -15.26569718 49.23652464 C-15.27595918 53.03203207 -15.27379997 56.82744485 -15.26951659 60.62295997 C-15.26704612 64.72188128 -15.27606747 68.82078 -15.28355408 72.91969299 C-15.29629382 80.94411777 -15.2980957 88.96850908 -15.29575381 96.99294227 C-15.29396982 103.51584777 -15.29572205 110.03874312 -15.29997826 116.56164742 C-15.30057345 117.49048637 -15.30116863 118.41932532 -15.30178186 119.3763109 C-15.30299362 121.26331905 -15.30420776 123.1503272 -15.30542424 125.03733534 C-15.31629682 142.72751849 -15.31413851 160.41768256 -15.30803939 178.10786677 C-15.30286953 194.28701784 -15.31412801 210.46610871 -15.33313761 226.64524787 C-15.35251458 243.26464267 -15.36077232 259.88400899 -15.35701436 276.50341517 C-15.35510222 285.83131139 -15.35759117 295.15915637 -15.3717289 304.48704338 C-15.38364179 312.42724444 -15.38504854 320.36736271 -15.37293873 328.30756491 C-15.36704964 332.35729718 -15.36595145 336.406878 -15.37794113 340.45660019 C-15.38879828 344.16694686 -15.38569874 347.87701558 -15.37167945 351.58734924 C-15.36778209 353.55867851 -15.37858094 355.53002012 -15.38997632 357.5013203 C-15.34011391 365.68936694 -14.93284485 372.87752387 -9.5559082 379.35742188 C-4.58752074 383.35636788 -0.78343253 383.71752974 5.51953125 383.71044922 C6.37693909 383.71716644 7.23434692 383.72388367 8.11773682 383.73080444 C10.95184122 383.74979968 13.78570895 383.75370957 16.61987305 383.75585938 C18.59278968 383.76228683 20.56570536 383.76901515 22.53862 383.77603149 C26.67534596 383.78800849 30.81198839 383.79171194 34.94873047 383.79052734 C40.24152318 383.79032427 45.53377828 383.81761301 50.82644367 383.85207176 C54.90232284 383.874345 58.97807279 383.87836473 63.05400658 383.87730789 C65.00479165 383.87966372 66.95558029 383.88848623 68.90630531 383.90397263 C71.63973884 383.92363871 74.37201532 383.91779198 77.10546875 383.90576172 C77.90623337 383.91700073 78.70699799 383.92823975 79.5320282 383.93981934 C85.13539309 383.87736897 88.39539696 382.642627 93.0065918 379.41992188 C98.04456428 372.92358894 98.18874073 367.75703774 98.43237305 359.76757812 C99.0065918 356.41992188 99.0065918 356.41992188 100.75268555 353.96289062 C103.47831846 352.09698941 104.55192797 352.10439296 107.7565918 352.66992188 C109.8603418 353.04117188 109.8603418 353.04117188 112.0065918 353.41992188 C112.9965918 360.34992188 112.9965918 360.34992188 114.0065918 367.41992188 C119.2865918 367.41992188 124.5665918 367.41992188 130.0065918 367.41992188 C130.0065918 256.20992187 130.0065918 144.99992187 130.0065918 30.41992188 C124.7265918 30.41992188 119.4465918 30.41992188 114.0065918 30.41992188 C114.00328165 31.95720066 113.9999715 33.49447945 113.99656105 35.07834244 C113.91758901 71.54831281 113.82838651 108.01824545 113.72654019 144.48815937 C113.71402091 148.97436516 113.7015882 153.46057117 113.68920898 157.94677734 C113.68674299 158.83992192 113.684277 159.73306649 113.68173628 160.65327606 C113.64198361 175.12588305 113.60924738 189.59849787 113.57909198 204.07112768 C113.5480073 218.91501348 113.50941075 233.75886595 113.46380174 248.6027143 C113.43588345 257.76640491 113.41386493 266.93007106 113.39932929 276.09379283 C113.38880887 282.37278415 113.37100956 288.6517282 113.34742476 294.93068394 C113.33402277 298.55642 113.32388914 302.18208963 113.32237816 305.80785179 C113.32065814 309.73453515 113.30364089 313.66106571 113.2850647 317.58770752 C113.28699943 318.73944969 113.28893417 319.89119187 113.29092753 321.07783532 C113.28346204 322.12733479 113.27599654 323.17683426 113.26830482 324.25813675 C113.26488734 325.61829497 113.26488734 325.61829497 113.26140082 327.00593114 C112.98689147 329.60655737 112.40707628 331.22202147 111.0065918 333.41992188 C107.95675184 334.94484185 105.3642549 334.65554736 102.0065918 334.41992188 C100.30728477 333.22172564 100.30728477 333.22172564 99.0065918 331.41992188 C98.63218695 329.11368686 98.63218695 329.11368686 98.63300419 326.34106159 C98.62601444 325.28455318 98.6190247 324.22804476 98.61182314 323.13952094 C98.6193992 321.97475909 98.62697525 320.80999724 98.63478088 319.60993958 C98.62904404 317.75858691 98.62904404 317.75858691 98.6231913 315.86983317 C98.61549319 312.43720307 98.62123858 309.00506111 98.63248813 305.5724715 C98.64132236 301.8729375 98.63284413 298.17344047 98.62628174 294.47390747 C98.61711396 288.06021102 98.61846271 281.64658608 98.62646675 275.23288918 C98.63768571 265.95099359 98.62866818 256.66920014 98.61390495 247.38731345 C98.59011607 232.31737414 98.57676513 217.24744741 98.57275391 202.17749023 C98.57250904 201.27512895 98.57226417 200.37276766 98.57201188 199.44306209 C98.56946701 189.37992852 98.56889855 179.31679592 98.56994629 169.25366211 C98.5702793 165.60717774 98.5705647 161.96069336 98.57080078 158.31420898 C98.57086357 157.41446072 98.57092636 156.51471246 98.57099105 155.58769909 C98.57159602 140.58097339 98.55670722 125.57430575 98.52996773 110.56760424 C98.51416195 101.31076586 98.51190533 92.05411492 98.52710175 82.79727455 C98.53656937 76.4514565 98.53180739 70.10575136 98.51588792 63.75994656 C98.50719458 60.09917284 98.50505046 56.43869917 98.52041435 52.77794075 C98.53694781 48.80675355 98.52260253 44.83601422 98.50538635 40.86482239 C98.51519313 39.71121414 98.52499991 38.5576059 98.53510386 37.36903983 C98.46448513 29.49927061 97.37933332 23.88381857 91.6940918 18.04492188 C86.09304734 14.65824383 80.33537663 14.12312818 73.91918945 14.14526367 C73.14258469 14.14015274 72.36597992 14.13504181 71.56584167 14.129776 C69.01736586 14.11595988 66.46916294 14.11683081 63.9206543 14.11914062 C62.1361786 14.11524913 60.35170382 14.11091352 58.56723022 14.1061554 C54.83344516 14.0987102 51.09975468 14.09897197 47.3659668 14.10424805 C42.59927832 14.11003841 37.83297895 14.09311389 33.06635475 14.06990337 C29.38243373 14.05511628 25.69860533 14.05430112 22.01465988 14.0574131 C20.25812383 14.05690232 18.50158226 14.05171067 16.74507523 14.04160118 C1.85754487 13.51751746 1.85754487 13.51751746 -10.9309082 20.10742188 Z M150.0690918 19.85742188 C146.57694606 24.1961484 145.75666046 26.96070703 145.76608276 32.55755615 C145.76333344 33.81676376 145.76058411 35.07597137 145.75775146 36.37333679 C145.76482929 37.76614475 145.7720989 39.15895175 145.77954102 40.55175781 C145.78010524 42.02030937 145.77978835 43.48886149 145.77865601 44.95741272 C145.77808193 48.94263536 145.78984512 52.92773772 145.80380392 56.9129324 C145.81630211 61.07828093 145.81748106 65.24363219 145.81985474 69.40899658 C145.82607218 77.29602589 145.84248659 85.18299979 145.86255372 93.0700047 C145.88490447 102.0493626 145.89590407 111.02872315 145.90594459 120.00810194 C145.92685258 138.47874001 145.96203371 156.94932649 146.0065918 175.41992188 C146.76875 175.47398193 147.5309082 175.52804199 148.31616211 175.58374023 C149.31228516 175.66245361 150.3084082 175.74116699 151.3347168 175.82226562 C152.32375 175.89695068 153.3127832 175.97163574 154.33178711 176.04858398 C157.0065918 176.41992188 157.0065918 176.41992188 159.7565918 177.98242188 C161.36028612 181.10962581 161.17038899 183.18847635 160.7565918 186.61523438 C160.0065918 188.41992188 160.0065918 188.41992188 158.2878418 189.49365234 C155.71292158 190.53916254 153.52212988 190.82658992 150.7565918 191.04492188 C149.41854492 191.15707031 149.41854492 191.15707031 148.0534668 191.27148438 C147.37799805 191.32046875 146.7025293 191.36945313 146.0065918 191.41992188 C145.9131662 214.91572687 145.84262123 238.41150405 145.79934311 261.90745735 C145.77871455 272.81694878 145.75058825 283.72632482 145.70483398 294.63574219 C145.66497533 304.14397091 145.63916112 313.65211607 145.63023782 323.16042602 C145.62502145 328.19541573 145.61275483 333.23016638 145.58367157 338.2650795 C145.5565179 343.00434688 145.54814674 347.74327674 145.55416107 352.48261452 C145.55306082 354.22167482 145.54510661 355.96074643 145.5297699 357.69973946 C145.50984221 360.07588497 145.514662 362.45075936 145.52557373 364.82693481 C145.51392236 365.51371941 145.502271 366.200504 145.49026656 366.90810025 C145.55145032 371.84355877 146.95526346 374.6022283 150.0065918 378.41992188 C154.94552345 382.77088547 157.8323746 383.56875512 164.26800537 383.5670929 C165.40352966 383.57260793 165.40352966 383.57260793 166.56199384 383.57823437 C169.11221815 383.58929448 171.66240175 383.59311898 174.21264648 383.59692383 C176.03569672 383.60318673 177.85874567 383.60983338 179.68179321 383.61683655 C184.64472484 383.63426258 189.60764681 383.64480272 194.57060146 383.65304208 C197.66992549 383.65818894 200.76924651 383.66426482 203.86856842 383.67055321 C213.56164515 383.68960994 223.25471425 383.70383993 232.94780612 383.71216518 C244.14415565 383.72193973 255.34030759 383.74826297 266.53658748 383.78866607 C275.18548399 383.81880763 283.83432381 383.8336322 292.48327184 383.83694619 C297.65123707 383.83929896 302.81899134 383.84828882 307.98690033 383.87340736 C312.8493246 383.89665872 317.71139857 383.90093313 322.57386398 383.89064598 C324.35807077 383.89014979 326.14229462 383.8964947 327.92644882 383.91020203 C330.36380116 383.92787918 332.79989065 383.92083614 335.23724365 383.90766907 C335.94211875 383.91863831 336.64699384 383.92960756 337.37322879 383.94090921 C342.36122041 383.87592313 345.14988436 382.51460083 349.0065918 379.41992188 C353.32047767 374.52307846 354.15345492 371.6881165 354.12684631 365.30795288 C354.12770074 364.56712105 354.12855516 363.82628923 354.12943548 363.06300795 C354.13108933 360.56786 354.12557045 358.07277853 354.12011719 355.57763672 C354.11983527 353.79411318 354.11999314 352.01058952 354.12055969 350.22706604 C354.12084749 345.37402336 354.11495366 340.52100523 354.10798573 335.66796827 C354.10174921 330.6003936 354.10114816 325.5328184 354.09996033 320.46524048 C354.0968479 310.8640329 354.08863569 301.26283666 354.07861084 291.66163409 C354.06744697 280.73313937 354.06193856 269.80464412 354.0569154 258.87614512 C354.04645301 236.39073108 354.02885527 213.90532711 354.0065918 191.41992188 C353.12899075 191.41845531 352.25138969 191.41698875 351.34719467 191.41547775 C330.00701571 191.3784487 308.66699606 191.31948593 287.32694626 191.23601913 C277.00710535 191.19618602 266.68734117 191.16381526 256.36743164 191.14892578 C247.37406032 191.13593138 238.38085753 191.10902347 229.38758111 191.06530881 C224.62434251 191.04264411 219.86131215 191.02701419 215.09801483 191.02803802 C210.61637285 191.02878169 206.13519206 191.01094967 201.65366936 190.97875404 C200.00733734 190.97022212 198.36095378 190.96852735 196.71460915 190.97411919 C194.46900702 190.98073154 192.22488424 190.96290778 189.97943115 190.93890381 C188.72210552 190.93521664 187.46477989 190.93152946 186.16935349 190.92773056 C182.43059149 190.32744005 181.23298767 189.43462517 179.0065918 186.41992188 C178.52823607 183.13976833 178.59582403 181.22711 180.10327625 178.26485825 C182.91573398 175.53866523 185.02824461 175.91221131 188.8971405 175.90093994 C189.95454192 175.88968806 189.95454192 175.88968806 191.03330499 175.87820888 C193.40124358 175.85786899 195.76823036 175.86604612 198.13623047 175.87402344 C199.83124238 175.86529179 201.52624604 175.85480744 203.22123718 175.84269714 C207.82841583 175.81476627 212.43532647 175.81143401 217.04257751 175.81241703 C221.85529486 175.809294 226.66789042 175.78368856 231.48054504 175.76043701 C240.59651348 175.71982663 249.71241029 175.69952448 258.82845527 175.68646312 C269.20565901 175.6706101 279.58274057 175.63220169 289.95987356 175.59186983 C311.30873937 175.50940197 332.65759952 175.45535292 354.0065918 175.41992188 C354.12348646 156.1309697 354.21160998 136.84208959 354.26565266 117.55285645 C354.29141462 108.59615221 354.32652659 99.63966828 354.38378906 90.68310547 C354.43368571 82.8749155 354.46589741 75.06688513 354.47703427 67.25854015 C354.4835425 63.12547736 354.49879623 58.99287106 354.53524208 54.85995483 C354.56930091 50.96600015 354.57962511 47.0726879 354.5721302 43.1785984 C354.57350037 41.75319738 354.58337455 40.32777382 354.60261917 38.90250206 C354.7038972 31.01153614 354.71932968 24.3820199 349.0065918 18.41992188 C343.17060836 14.65084924 337.60030302 14.2953006 330.78424072 14.27947998 C330.06761348 14.27650886 329.35098623 14.27353774 328.612643 14.27047658 C326.21692911 14.2618212 323.82126538 14.26028402 321.42553711 14.25878906 C319.70543308 14.25415865 317.98533008 14.24913369 316.26522827 14.2437439 C311.59564788 14.23063941 306.92608185 14.22417875 302.25648594 14.21973324 C299.33719503 14.21679937 296.41790802 14.21269396 293.49861908 14.20822906 C284.35923571 14.19455928 275.21986129 14.18489008 266.08046842 14.18102717 C255.5407576 14.17654755 245.00117654 14.1590019 234.46150517 14.13002658 C226.30761299 14.10839049 218.15375726 14.09832186 209.99983668 14.09698606 C205.13311314 14.09593941 200.26651167 14.09006152 195.39981842 14.07216644 C190.81973025 14.05565243 186.23985547 14.0535464 181.65974808 14.06230545 C179.98323367 14.06307404 178.30670762 14.05875665 176.63022232 14.0488472 C162.46235049 13.71386134 162.46235049 13.71386134 150.0690918 19.85742188 Z M105.46362305 387.28710938 C105.06763916 387.9894873 104.67165527 388.69186523 104.26367188 389.41552734 C101.03705156 394.56032298 94.61066005 396.84992293 89.0065918 398.41992188 C85.96906874 398.7377473 82.94181216 398.79109594 79.8894043 398.83398438 C79.03224823 398.85335052 78.17509216 398.87271667 77.29196167 398.89266968 C74.57193751 398.95213444 71.85187027 398.99871757 69.1315918 399.04492188 C67.28001151 399.08313217 65.42844843 399.12218566 63.5769043 399.16210938 C59.05360754 399.25780852 54.53022764 399.34196094 50.0065918 399.41992188 C49.90609503 404.12974137 49.8343756 408.83890802 49.78686523 413.54956055 C49.76701574 415.14472349 49.73992676 416.73981638 49.70483398 418.3347168 C49.21212787 441.33974495 55.94722692 459.72748992 72.08862305 476.59570312 C85.98410594 489.87246322 104.04934191 495.95522238 123.0065918 496.41992188 C143.61395735 495.87775017 160.80081066 486.75141789 175.0065918 472.41992188 C175.67432617 471.78570312 176.34206055 471.15148437 177.0300293 470.49804688 C185.41371464 461.92468539 190.74574352 449.0418031 193.0065918 437.41992188 C193.26569336 436.09444336 193.26569336 436.09444336 193.5300293 434.7421875 C194.0581105 431.06076892 194.11912385 427.55293463 194.10424805 423.83398438 C194.1028331 423.13220062 194.10141815 422.43041687 194.09996033 421.70736694 C194.09440469 419.48650683 194.08186072 417.26575103 194.0690918 415.04492188 C194.06407105 413.53060042 194.05950915 412.01627738 194.05541992 410.50195312 C194.04444987 406.80790935 194.02721628 403.11392581 194.0065918 399.41992188 C192.87753418 399.41057617 191.74847656 399.40123047 190.58520508 399.39160156 C186.35418759 399.35141296 182.12387538 399.28557723 177.89331055 399.21240234 C176.07016126 399.18435885 174.24689414 399.16306252 172.42358398 399.14892578 C149.06284839 398.95702489 149.06284839 398.95702489 140.5690918 390.91992188 C139.64290039 390.06914062 139.64290039 390.06914062 138.69799805 389.20117188 C137.0065918 387.41992188 137.0065918 387.41992188 135.74780273 385.35058594 C134.13811808 383.19401678 134.13811808 383.19401678 131.46630859 382.83886719 C128.20720222 382.74054689 124.9547962 382.67729486 121.6940918 382.66992188 C120.00123047 382.59644531 120.00123047 382.59644531 118.27416992 382.52148438 C110.76581968 382.46045538 110.76581968 382.46045538 105.46362305 387.28710938 Z " fill="#000000" transform="translate(86.993408203125,-0.419921875)"/>
<path d="M0 0 C1.37045026 -0.00542487 2.74089468 -0.01254958 4.11132812 -0.02124023 C7.82214736 -0.03943355 11.53252041 -0.0324229 15.24334717 -0.01972389 C19.13229549 -0.00957537 23.02120638 -0.0189947 26.91015625 -0.02526855 C33.44017372 -0.03253959 39.97001005 -0.02297163 46.5 -0.00390625 C54.04255185 0.01786159 61.58467116 0.01080982 69.12721252 -0.01121187 C75.61063837 -0.02938147 82.09393423 -0.03191662 88.57737732 -0.0214572 C92.44635098 -0.01523078 96.31512153 -0.01436299 100.18408203 -0.02760315 C103.82206402 -0.03918392 107.45949 -0.03109613 111.09741211 -0.00802612 C113.06428265 -0.00024035 115.03120039 -0.01207597 116.99804688 -0.02453613 C127.7488469 0.07844088 127.7488469 0.07844088 132.5625 4.51757812 C136.77986355 9.31664699 136.71940846 13.88688666 136.73950195 20.0246582 C136.74607315 20.89327988 136.75264435 21.76190155 136.75941467 22.65684509 C136.77913781 25.53360073 136.79080761 28.4103042 136.80078125 31.28710938 C136.80485678 32.26979986 136.8089323 33.25249035 136.81313133 34.26495934 C136.8339871 39.46545578 136.8482914 44.66592586 136.85766602 49.86645508 C136.86873406 55.23668942 136.90314004 60.60650983 136.94283772 65.97659779 C136.96898506 70.10732289 136.97735615 74.23794903 136.98094749 78.36874962 C136.9858177 80.34828171 136.99744402 82.32780926 137.01598549 84.30726051 C137.04033852 87.07927892 137.03941902 89.85022177 137.0324707 92.62231445 C137.05168579 93.84523697 137.05168579 93.84523697 137.07128906 95.09286499 C137.02314077 100.37091682 136.02022321 103.30925558 132.5625 107.51757812 C127.05736313 112.60982973 122.52366603 112.68073467 115.25390625 112.72070312 C114.04830299 112.72925323 114.04830299 112.72925323 112.81834412 112.73797607 C111.12134103 112.74740484 109.42431981 112.7539516 107.72729492 112.7578125 C105.13753296 112.76753109 102.54856071 112.79857895 99.95898438 112.83007812 C98.30729636 112.8366076 96.6556027 112.84185829 95.00390625 112.84570312 C94.23293106 112.85804993 93.46195587 112.87039673 92.6676178 112.88311768 C88.12140488 112.86436301 85.1680567 112.35600434 81.5625 109.51757812 C80.6796875 107.65039063 80.6796875 107.65039063 80.4375 105.64257812 C80.33179688 104.98515625 80.22609375 104.32773438 80.1171875 103.65039062 C80.5625 101.51757812 80.5625 101.51757812 85.5625 96.51757812 C97.1125 96.51757812 108.6625 96.51757812 120.5625 96.51757812 C120.5625 70.11757812 120.5625 43.71757812 120.5625 16.51757812 C78.3225 16.51757812 36.0825 16.51757812 -7.4375 16.51757812 C-7.4375 42.91757813 -7.4375 69.31757813 -7.4375 96.51757812 C4.4425 96.51757812 16.3225 96.51757812 28.5625 96.51757812 C32.5625 101.51757812 32.5625 101.51757812 33 104.58007812 C32.51624115 107.82817327 31.86838726 109.21169087 29.5625 111.51757812 C25.82345245 112.76392731 22.31841297 112.69924944 18.421875 112.72070312 C17.6214679 112.7264032 16.82106079 112.73210327 15.99639893 112.73797607 C14.30181192 112.74741954 12.60720659 112.75395747 10.91259766 112.7578125 C8.33593117 112.76749012 5.76007214 112.79850726 3.18359375 112.83007812 C1.53385888 112.83661149 -0.11588167 112.84186065 -1.765625 112.84570312 C-2.52941467 112.85804993 -3.29320435 112.87039673 -4.08013916 112.88311768 C-9.80993272 112.85957988 -14.69337092 111.88023635 -19.1796875 108.01757812 C-23.24468633 102.63495898 -23.59274598 98.67538985 -23.61450195 92.11816406 C-23.62107315 91.26090225 -23.62764435 90.40364044 -23.63441467 89.520401 C-23.65413892 86.68091748 -23.66580867 83.84148685 -23.67578125 81.00195312 C-23.67985678 80.03154335 -23.6839323 79.06113358 -23.68813133 78.06131744 C-23.70898888 72.92450676 -23.72329167 67.78772277 -23.73266602 62.65087891 C-23.74372655 57.35024251 -23.77812337 52.05002635 -23.81783772 46.74953842 C-23.84400729 42.66938507 -23.85235819 38.58933177 -23.85594749 34.50910187 C-23.86081297 32.55551568 -23.87242585 30.60193395 -23.89098549 28.64842987 C-23.91538291 25.91013986 -23.91441079 23.17293617 -23.9074707 20.43457031 C-23.92668579 19.23106682 -23.92668579 19.23106682 -23.94628906 18.00325012 C-23.8829484 11.12401354 -21.98716764 7.06195118 -17.02734375 2.11242676 C-11.44248048 -0.36874295 -6.04422391 -0.03829075 0 0 Z " fill="#000000" transform="translate(280.4375,38.482421875)"/>
<path d="M0 0 C5.78443244 3.74286805 8.8498861 8.44944112 11 15 C12.36116901 23.33167163 10.82825531 30.08797134 6 37 C1.9251166 41.6570096 -3.44040737 44.6110026 -9.609375 45.28515625 C-17.01402268 45.52038677 -22.57190951 44.25942328 -28.75 40.1875 C-34.44418576 34.65148607 -36.68973035 28.90939756 -37.3125 21.0625 C-37.05523166 13.64459607 -34.04270417 8.12357173 -29.01171875 2.765625 C-20.69679091 -4.53213691 -9.62221972 -5.11245368 0 0 Z M-17.8125 14.5625 C-20.43681169 17.48673302 -20.91872313 19.09871003 -21 23 C-19.87981101 26.36056696 -19.05465901 26.96356066 -16 29 C-13.0850745 29.5838196 -13.0850745 29.5838196 -10 29 C-6.63655511 26.51397551 -5.19942251 25.08574477 -4.4375 20.9375 C-5.13644685 17.28744421 -5.98202045 16.14435389 -9 14 C-12.8166059 12.70072991 -14.25788881 12.58771601 -17.8125 14.5625 Z " fill="#000000" transform="translate(406,282)"/>
<path d="M0 0 C4.79915544 4.18919084 7.55073052 9.50952172 8.35546875 15.76171875 C8.70752275 23.19291258 7.45848607 28.96224297 3 35 C-2.45198092 40.39600576 -8.1515915 42.99726645 -15.8125 43.375 C-23.7295816 43.14947594 -29.01856496 40.4091143 -34.4375 34.6875 C-38.91593301 29.23859144 -40.46077198 24.21567124 -40.25390625 17.11328125 C-39.51710963 10.98086627 -37.46824615 5.34748274 -33 1 C-22.44362539 -6.66153373 -11.07044353 -7.60717638 0 0 Z M-23 15 C-24.24677006 17.89706707 -24.24677006 17.89706707 -24 21 C-21.98863937 24.77130118 -20.63640532 25.79172189 -16.5625 27.125 C-12.88838909 27.32041984 -12.88838909 27.32041984 -10.0625 24.9375 C-7.82852347 22.16764391 -7.82852347 22.16764391 -7.375 19 C-8.21746209 14.95618195 -9.73399981 13.46764459 -13 11 C-17.52849739 9.98108809 -19.90813196 11.73636151 -23 15 Z " fill="#000000" transform="translate(409,220)"/>
<path d="M0 0 C2.34615779 2.54655877 2.94096718 3.52773744 3.375 7 C2.94731161 10.42150709 2.60057161 11.73498601 0 14 C-4.96160835 15.75723629 -7.5913859 14.96030943 -12.3125 12.75 C-13.74722656 12.05583984 -13.74722656 12.05583984 -15.2109375 11.34765625 C-27.82335231 5.25342221 -43.12423503 4.72641007 -56.375 9.3125 C-59.78958207 10.59585872 -62.98151549 11.99039882 -66.21875 13.671875 C-69.71331799 15.34062938 -71.34630417 15.19142255 -75 14 C-78.02706748 11.84918889 -78.87395791 10.74049726 -79.5 7.0625 C-78.8416507 3.03011052 -78.05197314 1.76806866 -75 -1 C-52.27296197 -14.31155085 -22.22315579 -13.9269103 0 0 Z " fill="#000000" transform="translate(375,81)"/>
<path d="M0 0 C2.30872116 2.86599869 2.48269518 4.73093113 2.2265625 8.34375 C1.8125 10.25 1.8125 10.25 0.25 12.75 C-3.15364804 14.84455264 -5.23900565 14.71846543 -9.1875 14.25 C-10.82759096 13.47819249 -12.46756291 12.70612142 -14.10546875 11.9296875 C-19.70435715 10.1019078 -26.65383954 10.21570271 -32 12.75 C-35.74188686 14.51088794 -38.09886726 14.7900081 -42.1875 14.25 C-44.625 12.75 -44.625 12.75 -46.1875 10.25 C-46.79773452 7.44061842 -46.82536331 5.05659855 -46.1875 2.25 C-35.50329029 -11.01315689 -12.75269844 -7.0014815 0 0 Z " fill="#000000" transform="translate(359.1875,108.75)"/>
<path d="M0 0 C1.90625 0.4140625 1.90625 0.4140625 4.40625 1.9765625 C6.47476618 5.3379013 6.39130011 7.53366161 5.90625 11.4140625 C4.84375 13.7890625 4.84375 13.7890625 2.90625 15.4140625 C-1.06719161 16.51779628 -3.18374772 16.82949833 -6.96875 15.1015625 C-9.09375 13.4140625 -9.09375 13.4140625 -10.09375 11.4140625 C-10.49991229 7.75860185 -10.30809253 5.82488568 -8.59375 2.5390625 C-5.55206021 -0.04637382 -3.89367767 -0.27604431 0 0 Z " fill="#000000" transform="translate(339.09375,134.5859375)"/>
</svg>
