<?xml version="1.0" encoding="UTF-8"?>
<svg xmlns="http://www.w3.org/2000/svg" xmlns:xlink="http://www.w3.org/1999/xlink" width="512px" height="512px" viewBox="0 0 384 384" version="1.1">
<g id="surface1">
<path style=" stroke:none;fill-rule:nonzero;fill:rgb(0%,0%,0%);fill-opacity:1;" d="M 380.90625 49.734375 C 382.722656 51.175781 383.863281 52.394531 384.238281 54.738281 C 384.300781 60.535156 382.914062 65.78125 381.378906 71.335938 C 381.09375 72.390625 380.808594 73.449219 380.523438 74.507812 C 379.910156 76.792969 379.289062 79.078125 378.664062 81.359375 C 377.648438 85.070312 376.644531 88.78125 375.640625 92.496094 C 374.191406 97.867188 372.738281 103.234375 371.277344 108.601562 C 369 116.992188 366.742188 125.386719 364.488281 133.785156 C 364.105469 135.207031 363.726562 136.628906 363.34375 138.046875 C 362.765625 140.199219 362.1875 142.351562 361.613281 144.503906 C 359.4375 152.613281 357.253906 160.71875 355.070312 168.824219 C 351.691406 181.394531 348.308594 193.964844 344.933594 206.539062 C 342.792969 214.496094 340.65625 222.453125 338.515625 230.410156 C 338.324219 231.117188 338.132812 231.828125 337.9375 232.558594 C 336.328125 238.542969 336.328125 238.542969 335.625 241.15625 C 333.183594 250.222656 330.75 259.292969 328.320312 268.359375 C 326.644531 274.628906 324.960938 280.894531 323.28125 287.15625 C 322.28125 290.878906 321.28125 294.597656 320.289062 298.320312 C 319.367188 301.769531 318.441406 305.222656 317.511719 308.671875 C 317.175781 309.929688 316.835938 311.191406 316.5 312.457031 C 316.039062 314.183594 315.578125 315.90625 315.109375 317.632812 C 314.914062 318.378906 314.914062 318.378906 314.714844 319.136719 C 312.445312 327.464844 312.445312 327.464844 309.140625 330.328125 C 306.363281 331.691406 305.292969 332.085938 302.25 331.5 C 296.234375 328.367188 290.683594 324.308594 285.09375 320.484375 C 284.167969 319.855469 283.246094 319.222656 282.320312 318.59375 C 280.40625 317.292969 278.496094 315.988281 276.582031 314.683594 C 272.617188 311.976562 268.648438 309.285156 264.675781 306.589844 C 263.382812 305.714844 262.09375 304.839844 260.800781 303.960938 C 256.125 300.785156 251.445312 297.613281 246.761719 294.445312 C 246.261719 294.105469 245.757812 293.765625 245.242188 293.414062 C 242.742188 291.722656 240.246094 290.035156 237.746094 288.347656 C 233.460938 285.453125 229.191406 282.546875 224.972656 279.5625 C 224.308594 279.097656 223.644531 278.628906 222.960938 278.148438 C 221.765625 277.308594 220.578125 276.457031 219.398438 275.597656 C 216.816406 273.59375 216.816406 273.59375 213.734375 273.160156 C 212.101562 273.808594 211.175781 274.503906 209.90625 275.710938 C 209.449219 276.140625 208.992188 276.574219 208.519531 277.015625 C 208.019531 277.5 207.515625 277.984375 207 278.484375 C 206.464844 278.996094 205.929688 279.503906 205.378906 280.03125 C 198.757812 286.382812 192.300781 292.90625 185.847656 299.429688 C 185.410156 299.871094 184.96875 300.316406 184.515625 300.773438 C 183.695312 301.601562 182.875 302.429688 182.054688 303.261719 C 179.953125 305.375 177.796875 307.382812 175.539062 309.332031 C 172.597656 311.882812 169.847656 314.578125 167.125 317.355469 C 166.136719 318.355469 165.148438 319.351562 164.15625 320.347656 C 162.625 321.898438 161.09375 323.453125 159.566406 325.003906 C 158.074219 326.519531 156.574219 328.03125 155.078125 329.542969 C 154.625 330.007812 154.167969 330.472656 153.703125 330.949219 C 148.378906 336.300781 148.378906 336.300781 144.703125 337.074219 C 141.925781 337.082031 140.53125 336.921875 138.09375 335.4375 C 135.3125 332.492188 134.722656 329.808594 134.085938 325.84375 C 134.003906 325.351562 133.921875 324.859375 133.839844 324.355469 C 133.574219 322.710938 133.3125 321.0625 133.050781 319.417969 C 132.859375 318.238281 132.667969 317.058594 132.476562 315.875 C 132.066406 313.335938 131.660156 310.796875 131.253906 308.253906 C 130.613281 304.238281 129.964844 300.226562 129.316406 296.210938 C 128.289062 289.867188 127.269531 283.519531 126.25 277.171875 C 124.421875 265.796875 122.59375 254.425781 120.753906 243.054688 C 120.109375 239.058594 119.46875 235.066406 118.828125 231.070312 C 118.433594 228.59375 118.03125 226.113281 117.632812 223.632812 C 117.445312 222.480469 117.261719 221.328125 117.078125 220.171875 C 116.828125 218.605469 116.574219 217.035156 116.320312 215.464844 C 116.179688 214.585938 116.039062 213.707031 115.894531 212.800781 C 115.601562 210.785156 115.601562 210.785156 114.75 209.25 C 113.203125 208.5 111.625 207.820312 110.035156 207.167969 C 109.535156 206.964844 109.035156 206.757812 108.523438 206.542969 C 106.835938 205.847656 105.144531 205.160156 103.453125 204.46875 C 102.246094 203.972656 101.039062 203.472656 99.832031 202.976562 C 97.203125 201.890625 94.578125 200.8125 91.953125 199.730469 C 85.410156 197.039062 78.882812 194.3125 72.351562 191.589844 C 70.066406 190.636719 67.78125 189.683594 65.492188 188.730469 C 61.667969 187.136719 57.84375 185.539062 54.015625 183.945312 C 52.511719 183.316406 51.007812 182.691406 49.503906 182.0625 C 40.628906 178.363281 31.753906 174.652344 22.890625 170.925781 C 20.753906 170.027344 18.613281 169.128906 16.472656 168.238281 C 13.980469 167.199219 11.488281 166.148438 9 165.09375 C 8.320312 164.8125 7.636719 164.53125 6.9375 164.242188 C 1.34375 161.84375 1.34375 161.84375 0 159 C -0.6875 155.46875 -0.5625 152.460938 1.265625 149.34375 C 9.023438 144.367188 20.15625 142.925781 29.015625 140.574219 C 30.558594 140.164062 32.101562 139.753906 33.644531 139.34375 C 36.945312 138.464844 40.25 137.585938 43.554688 136.707031 C 48.835938 135.304688 54.117188 133.898438 59.398438 132.492188 C 61.210938 132.011719 63.023438 131.53125 64.835938 131.046875 C 65.738281 130.808594 66.640625 130.566406 67.570312 130.320312 C 70.339844 129.582031 73.109375 128.84375 75.878906 128.109375 C 93.25 123.484375 110.617188 118.847656 127.980469 114.203125 C 131.902344 113.152344 135.824219 112.105469 139.742188 111.054688 C 153.0625 107.496094 166.378906 103.933594 179.695312 100.371094 C 187.515625 98.277344 195.335938 96.1875 203.152344 94.097656 C 204.714844 93.679688 206.277344 93.261719 207.839844 92.84375 C 226.898438 87.746094 245.960938 82.660156 265.023438 77.589844 C 265.914062 77.355469 266.800781 77.117188 267.714844 76.875 C 276.554688 74.523438 285.390625 72.175781 294.226562 69.828125 C 316.710938 63.863281 316.710938 63.863281 339.164062 57.78125 C 340.90625 57.304688 342.648438 56.832031 344.390625 56.355469 C 350.589844 54.664062 350.589844 54.664062 356.789062 52.953125 C 359.425781 52.21875 362.0625 51.496094 364.703125 50.773438 C 365.445312 50.566406 366.1875 50.355469 366.953125 50.140625 C 371.65625 48.863281 376.28125 47.625 380.90625 49.734375 Z M 360 81 C 359.445312 81.515625 358.890625 82.035156 358.320312 82.566406 C 353.988281 86.589844 349.585938 90.460938 344.980469 94.171875 C 342.351562 96.328125 339.78125 98.546875 337.21875 100.78125 C 333.300781 104.195312 329.355469 107.578125 325.382812 110.929688 C 322.410156 113.4375 319.453125 115.964844 316.5 118.5 C 312.738281 121.730469 308.960938 124.941406 305.171875 128.140625 C 302.1875 130.664062 299.214844 133.203125 296.25 135.75 C 292.488281 138.980469 288.710938 142.191406 284.921875 145.390625 C 281.9375 147.914062 278.964844 150.453125 276 153 C 272.636719 155.886719 269.261719 158.765625 265.875 161.625 C 262.503906 164.472656 259.144531 167.332031 255.796875 170.203125 C 255.363281 170.574219 254.929688 170.949219 254.480469 171.332031 C 252.25 173.246094 250.019531 175.164062 247.792969 177.082031 C 243.792969 180.523438 239.789062 183.945312 235.6875 187.265625 C 232.402344 189.933594 229.261719 192.726562 226.132812 195.574219 C 224.25 197.25 222.320312 198.851562 220.359375 200.4375 C 216.503906 203.558594 212.757812 206.789062 209.019531 210.042969 C 205.589844 213.03125 202.132812 215.980469 198.65625 218.910156 C 193.910156 222.910156 189.207031 226.957031 184.5 231 C 187.855469 234.738281 191.839844 237.269531 196.03125 240 C 197.660156 241.074219 199.285156 242.144531 200.910156 243.21875 C 201.339844 243.503906 201.769531 243.785156 202.210938 244.074219 C 207.398438 247.5 212.542969 250.992188 217.6875 254.484375 C 218.679688 255.160156 219.675781 255.832031 220.667969 256.503906 C 223.136719 258.179688 225.605469 259.855469 228.074219 261.53125 C 230.328125 263.0625 232.578125 264.589844 234.832031 266.117188 C 237.414062 267.871094 239.996094 269.625 242.582031 271.375 C 248.601562 275.464844 254.628906 279.546875 260.65625 283.628906 C 263.5625 285.597656 266.46875 287.566406 269.375 289.535156 C 271.839844 291.207031 274.304688 292.875 276.773438 294.546875 C 279.222656 296.207031 281.671875 297.867188 284.125 299.527344 C 285.042969 300.148438 285.960938 300.769531 286.878906 301.390625 C 288.148438 302.25 289.414062 303.109375 290.679688 303.964844 C 291.398438 304.453125 292.113281 304.9375 292.851562 305.4375 C 294.75 306.75 294.75 306.75 296.363281 308.050781 C 297.777344 309.210938 297.777344 309.210938 300 309 C 307.269531 282.097656 314.515625 255.191406 321.75 228.28125 C 321.945312 227.550781 322.140625 226.824219 322.34375 226.070312 C 324.367188 218.550781 326.386719 211.027344 328.40625 203.507812 C 330.273438 196.566406 332.136719 189.628906 334.003906 182.6875 C 334.210938 181.917969 334.417969 181.148438 334.628906 180.359375 C 335.664062 176.5 336.703125 172.644531 337.738281 168.789062 C 339.550781 162.050781 341.363281 155.3125 343.171875 148.574219 C 344.125 145.019531 345.078125 141.464844 346.035156 137.910156 C 346.308594 136.886719 346.308594 136.886719 346.589844 135.84375 C 348.835938 127.480469 351.09375 119.125 353.378906 110.777344 C 354.265625 107.53125 355.148438 104.285156 356.03125 101.042969 C 356.695312 98.613281 357.367188 96.1875 358.039062 93.761719 C 358.421875 92.355469 358.804688 90.953125 359.1875 89.546875 C 359.445312 88.621094 359.445312 88.621094 359.710938 87.671875 C 360.644531 84.339844 360.644531 84.339844 360 81 Z M 308.847656 82.929688 C 308.375 83.058594 307.898438 83.1875 307.40625 83.316406 C 305.804688 83.75 304.199219 84.1875 302.59375 84.621094 C 301.4375 84.933594 300.28125 85.246094 299.125 85.554688 C 296.601562 86.234375 294.078125 86.917969 291.558594 87.597656 C 285.296875 89.292969 279.03125 90.976562 272.765625 92.664062 C 270.515625 93.269531 268.265625 93.875 266.015625 94.480469 C 249.347656 98.96875 232.671875 103.414062 215.992188 107.855469 C 208.464844 109.859375 200.9375 111.867188 193.410156 113.875 C 192.578125 114.097656 191.742188 114.320312 190.882812 114.546875 C 168.894531 120.410156 146.902344 126.28125 124.917969 132.164062 C 124.152344 132.371094 123.386719 132.578125 122.59375 132.789062 C 121.449219 133.09375 121.449219 133.09375 120.28125 133.40625 C 119.519531 133.609375 118.757812 133.816406 117.972656 134.023438 C 116.445312 134.433594 114.917969 134.84375 113.390625 135.25 C 103.480469 137.902344 93.570312 140.546875 83.65625 143.183594 C 78.542969 144.542969 73.425781 145.90625 68.308594 147.269531 C 64.234375 148.355469 60.15625 149.441406 56.078125 150.519531 C 53.605469 151.175781 51.132812 151.835938 48.664062 152.496094 C 47.523438 152.800781 46.382812 153.101562 45.242188 153.402344 C 43.699219 153.808594 42.15625 154.222656 40.613281 154.636719 C 39.324219 154.980469 39.324219 154.980469 38.003906 155.328125 C 35.914062 155.863281 35.914062 155.863281 34.5 157.5 C 48.503906 163.550781 62.558594 169.464844 76.644531 175.316406 C 81.789062 177.453125 86.929688 179.601562 92.070312 181.75 C 94.535156 182.78125 97 183.808594 99.46875 184.839844 C 101.085938 185.515625 102.703125 186.191406 104.316406 186.871094 C 106.589844 187.820312 108.863281 188.769531 111.136719 189.71875 C 111.8125 190.003906 112.492188 190.285156 113.191406 190.582031 C 114.957031 191.316406 116.726562 192.035156 118.5 192.75 C 119.726562 193.269531 119.726562 193.269531 120.980469 193.800781 C 123.589844 194.382812 124.445312 193.890625 126.691406 192.496094 C 127.738281 191.863281 127.738281 191.863281 128.804688 191.222656 C 129.550781 190.75 130.292969 190.28125 131.0625 189.796875 C 132.683594 188.8125 134.308594 187.828125 135.929688 186.84375 C 136.769531 186.332031 137.605469 185.816406 138.46875 185.289062 C 142.488281 182.84375 146.574219 180.511719 150.65625 178.171875 C 152.292969 177.230469 153.929688 176.285156 155.566406 175.339844 C 158.035156 173.921875 160.5 172.5 162.96875 171.078125 C 171.65625 166.074219 180.339844 161.058594 189 156 C 199.296875 149.984375 209.632812 144.03125 219.96875 138.078125 C 228.65625 133.074219 237.339844 128.058594 246 123 C 256.296875 116.984375 266.632812 111.03125 276.96875 105.078125 C 281.835938 102.273438 286.699219 99.46875 291.5625 96.65625 C 293.222656 95.699219 294.882812 94.742188 296.542969 93.785156 C 299.027344 92.355469 301.503906 90.917969 303.984375 89.484375 C 304.734375 89.050781 305.488281 88.621094 306.261719 88.175781 C 309.621094 86.226562 312.816406 84.320312 315.75 81.75 C 313.230469 81.75 311.285156 82.273438 308.847656 82.929688 Z M 291.023438 115.316406 C 290.25 115.765625 289.472656 116.214844 288.675781 116.679688 C 287.835938 117.171875 286.992188 117.664062 286.125 118.171875 C 285.246094 118.683594 284.363281 119.195312 283.484375 119.707031 C 281.648438 120.773438 279.816406 121.839844 277.984375 122.910156 C 274.601562 124.878906 271.210938 126.828125 267.820312 128.78125 C 260.042969 133.257812 252.28125 137.769531 244.527344 142.296875 C 238.210938 145.988281 231.875 149.644531 225.535156 153.296875 C 220.09375 156.429688 214.667969 159.582031 209.25 162.75 C 198.953125 168.765625 188.617188 174.71875 178.28125 180.671875 C 169.421875 185.773438 160.570312 190.886719 151.734375 196.03125 C 151.046875 196.433594 150.355469 196.832031 149.648438 197.246094 C 145.53125 199.648438 141.4375 202.082031 137.351562 204.535156 C 136.835938 204.84375 136.320312 205.15625 135.785156 205.476562 C 134.523438 206.234375 133.261719 206.992188 132 207.75 C 133.628906 218.089844 135.265625 228.429688 136.910156 238.769531 C 137.671875 243.570312 138.433594 248.371094 139.1875 253.171875 C 139.917969 257.800781 140.652344 262.429688 141.390625 267.058594 C 141.671875 268.828125 141.953125 270.597656 142.230469 272.367188 C 142.617188 274.839844 143.011719 277.3125 143.410156 279.78125 C 143.523438 280.519531 143.636719 281.257812 143.753906 282.019531 C 143.863281 282.6875 143.972656 283.359375 144.085938 284.050781 C 144.179688 284.636719 144.269531 285.222656 144.367188 285.824219 C 144.667969 287.417969 144.667969 287.417969 146.25 288.75 C 146.453125 288.027344 146.652344 287.300781 146.859375 286.554688 C 148.765625 279.722656 150.671875 272.890625 152.585938 266.0625 C 153.570312 262.550781 154.554688 259.039062 155.53125 255.527344 C 156.472656 252.136719 157.421875 248.746094 158.375 245.359375 C 158.738281 244.066406 159.097656 242.773438 159.457031 241.480469 C 159.960938 239.667969 160.46875 237.855469 160.980469 236.046875 C 161.125 235.511719 161.273438 234.980469 161.421875 234.429688 C 162.917969 229.183594 165.101562 226.183594 169.125 222.5625 C 169.523438 222.203125 169.917969 221.847656 170.328125 221.476562 C 173.554688 218.589844 176.890625 215.851562 180.265625 213.136719 C 182.230469 211.515625 184.117188 209.839844 186 208.125 C 188.488281 205.859375 191.023438 203.679688 193.640625 201.5625 C 197.496094 198.441406 201.242188 195.210938 204.980469 191.957031 C 208.417969 188.964844 211.882812 186.007812 215.367188 183.070312 C 218.339844 180.5625 221.296875 178.035156 224.25 175.5 C 227.613281 172.613281 230.988281 169.734375 234.375 166.875 C 237.746094 164.027344 241.105469 161.167969 244.453125 158.296875 C 244.886719 157.925781 245.320312 157.550781 245.769531 157.167969 C 248 155.253906 250.230469 153.335938 252.457031 151.417969 C 256.457031 147.976562 260.460938 144.554688 264.5625 141.234375 C 267.847656 138.566406 270.988281 135.773438 274.117188 132.925781 C 276 131.25 277.929688 129.648438 279.890625 128.0625 C 283.425781 125.199219 286.898438 122.265625 290.34375 119.296875 C 290.84375 118.871094 291.339844 118.445312 291.851562 118.003906 C 292.546875 117.40625 292.546875 117.40625 293.257812 116.792969 C 293.878906 116.253906 293.878906 116.253906 294.511719 115.707031 C 295.597656 114.761719 295.597656 114.761719 296.25 113.25 C 294.09375 113.25 292.882812 114.230469 291.023438 115.316406 Z M 174.75 246 C 172.871094 252.59375 171 259.191406 169.136719 265.792969 C 168.273438 268.859375 167.40625 271.921875 166.53125 274.984375 C 165.6875 277.9375 164.851562 280.894531 164.023438 283.855469 C 163.703125 284.984375 163.382812 286.109375 163.058594 287.238281 C 162.605469 288.816406 162.164062 290.394531 161.722656 291.976562 C 161.46875 292.878906 161.214844 293.777344 160.949219 294.703125 C 160.527344 296.867188 160.476562 297.972656 161.25 300 C 161.878906 299.367188 162.503906 298.738281 163.152344 298.085938 C 165.503906 295.722656 167.859375 293.359375 170.214844 290.996094 C 171.226562 289.976562 172.242188 288.957031 173.253906 287.9375 C 183.113281 278.015625 183.113281 278.015625 187.703125 274.125 C 190.132812 272.015625 192.367188 269.710938 194.625 267.421875 C 195.097656 266.945312 195.574219 266.46875 196.058594 265.976562 C 197.207031 264.820312 198.355469 263.660156 199.5 262.5 C 196.746094 259.414062 193.421875 257.335938 189.984375 255.09375 C 188.824219 254.328125 187.667969 253.566406 186.507812 252.804688 C 185.933594 252.429688 185.359375 252.054688 184.769531 251.667969 C 183.542969 250.859375 182.324219 250.039062 181.113281 249.210938 C 180.507812 248.796875 179.902344 248.386719 179.28125 247.964844 C 178.734375 247.585938 178.191406 247.210938 177.628906 246.824219 C 176.304688 245.871094 176.304688 245.871094 174.75 246 Z M 174.75 246 "/>
</g>
</svg>
