<?xml version="1.0" encoding="UTF-8"?>
<svg version="1.1" xmlns="http://www.w3.org/2000/svg" width="512" height="512">
<path d="M0 0 C0.9384375 -0.04898438 1.876875 -0.09796875 2.84375 -0.1484375 C13.03213389 1.31015592 20.46672954 6.30205223 27.50976562 13.51074219 C28.3243927 14.31631561 29.13901978 15.12188904 29.97833252 15.95187378 C32.6385013 18.59160388 35.27268984 21.25561887 37.90625 23.921875 C39.76164882 25.77763799 41.61823631 27.63221322 43.47595215 29.48565674 C47.3543518 33.36048788 51.2185528 37.24903914 55.07421875 41.14648438 C59.51665397 45.63675103 63.980039 50.10531386 68.4554162 54.5627315 C72.7835423 58.87432506 77.09716882 63.20010832 81.40446472 67.53250885 C83.22866178 69.36504594 85.056276 71.19418818 86.8874054 73.01979828 C89.44592079 75.57501886 91.98758136 78.14591405 94.52539062 80.72167969 C95.27761902 81.46692902 96.02984741 82.21217834 96.80487061 82.98001099 C103.45791083 89.79569908 107.56325377 97.39838235 107.75 107.0625 C107.47217189 120.73561196 98.50503399 131.95429483 90.69140625 142.6015625 C86.31531858 148.57153471 82.2073063 154.70175633 78.125 160.875 C77.05958984 162.47988281 77.05958984 162.47988281 75.97265625 164.1171875 C74.67030647 166.07936156 73.36891366 168.04217142 72.06884766 170.00585938 C70.88233425 171.79763125 69.6920584 173.5869124 68.5 175.375 C67.89869909 178.78237183 67.68738997 181.20342775 69.72363281 184.13916016 C75.73682274 190.7670552 82.12571551 196.99642162 88.55664062 203.21679688 C89.42095703 204.06693359 90.28527344 204.91707031 91.17578125 205.79296875 C91.95864502 206.55375732 92.74150879 207.3145459 93.5480957 208.09838867 C96.57411915 211.62780313 97.5202911 214.23869832 97.4375 218.875 C96.27422053 223.21791002 95.21020082 224.82423694 91.5 227.375 C88.26827999 228.24294766 85.74795991 228.1310696 82.5 227.375 C80.70532227 226.17260742 80.70532227 226.17260742 78.94140625 224.54296875 C78.25216064 223.90891113 77.56291504 223.27485352 76.8527832 222.62158203 C76.07636475 221.88020996 75.29994629 221.13883789 74.5 220.375 C73.14684692 219.08698486 73.14684692 219.08698486 71.76635742 217.77294922 C69.25039143 215.35882139 66.76477445 212.91554713 64.28955078 210.4597168 C63.26044767 209.44220048 62.22687599 208.42918448 61.18896484 207.4206543 C52.55236877 199.02720869 46.4303221 191.90230925 46.1875 179.25 C46.1449182 173.62311976 46.79155772 169.17851339 49.52734375 164.20703125 C51.01693253 161.4464472 51.01693253 161.4464472 51.5 158.375 C49.90333159 156.30184411 48.37488156 154.62836833 46.50463867 152.82788086 C45.69037666 152.01493309 45.69037666 152.01493309 44.85966492 151.18556213 C43.05720098 149.39169919 41.23778276 147.61608888 39.41796875 145.83984375 C38.16464066 144.59837996 36.91248315 143.35573339 35.66145325 142.11195374 C32.36027224 138.83556452 29.04481164 135.57401649 25.72576904 132.31573486 C21.05344903 127.72372362 16.40063202 123.11194005 11.74568176 118.50233459 C9.26560128 116.0465102 6.78016676 113.59630501 4.29032898 111.15037537 C3.15471523 110.03117779 2.01911957 108.91196186 0.88354492 107.79272461 C0.10651215 107.03286758 0.10651215 107.03286758 -0.68621826 106.25765991 C-4.29804969 102.69028345 -6.78613853 100.20728204 -6.875 95 C-6.80696946 91.51910381 -6.54360709 90.44477134 -4.625 87.375 C-1.47382981 84.40919276 0.9488521 83.83271867 5.31689453 83.91758728 C7.97408169 84.47433143 9.06371842 85.36169986 11.0546875 87.19360352 C11.74997559 87.83250519 12.44526367 88.47140686 13.16162109 89.12966919 C17.836121 93.61816275 22.42957093 98.18355326 27 102.77734375 C28.08693803 103.86615104 29.17410015 104.95473466 30.26147461 106.04310608 C33.09783223 108.88324889 35.93117164 111.7263836 38.76385498 114.57019043 C41.66494253 117.48157891 44.56892713 120.39007467 47.47265625 123.29882812 C53.15124818 128.9880867 58.82664916 134.68051499 64.5 140.375 C68.99056493 134.7994862 73.14603453 129.0181935 77.24707031 123.15429688 C78.39553198 121.52335599 79.56772978 119.90919675 80.7421875 118.296875 C81.38414062 117.37390625 82.02609375 116.4509375 82.6875 115.5 C83.25855469 114.69820313 83.82960937 113.89640625 84.41796875 113.0703125 C85.93409876 109.29367096 85.72172274 106.17942616 84.5 102.375 C82.43622135 99.30550849 79.89639792 96.81396348 77.26147461 94.23071289 C76.50364685 93.4606189 75.74581909 92.6905249 74.96502686 91.89709473 C72.46142762 89.36274973 69.93316257 86.85479841 67.40234375 84.34765625 C65.65071277 82.59130862 63.90012192 80.83392309 62.15052795 79.07554626 C58.48215266 75.39685723 54.80143122 71.73111061 51.11157227 68.07397461 C46.385349 63.38763337 41.69153965 58.67085775 37.00620174 53.94359684 C33.39770346 50.30979057 29.77268148 46.69283865 26.14245796 43.0807476 C24.40499639 41.34795196 22.6727097 39.6099513 20.9457531 37.86668587 C18.52847838 35.4316108 16.08985491 33.02013963 13.64428711 30.61352539 C12.93591202 29.89098068 12.22753693 29.16843597 11.49769592 28.42399597 C6.89858563 23.95952126 3.97823304 22.34316131 -2.5 22.375 C-5.82620087 23.94717255 -8.0376699 26.67016769 -10.5 29.375 C-11.221875 30.16390625 -11.94375 30.9528125 -12.6875 31.765625 C-33.23897849 55.5996313 -44.16606174 87.87837543 -42.25 119.296875 C-39.12473891 159.40632863 -20.13019502 187.05624526 7.65722656 214.82275391 C9.26050084 216.43202595 10.8633691 218.04170259 12.46586609 219.65174866 C16.785639 223.98905679 21.11175235 228.31998485 25.43966007 232.64917421 C28.15076114 235.36170399 30.86043014 238.07565599 33.56960297 240.79011154 C42.55479485 249.79280994 51.54405426 258.79140825 60.5387558 267.78460343 C61.02144979 268.2672175 61.50414377 268.74983157 62.00146484 269.24707031 C62.48476111 269.73028482 62.96805737 270.21349932 63.46599898 270.71135668 C71.29754416 278.54208899 79.11905973 286.38275474 86.93609098 294.22797318 C94.99831954 302.31903932 103.06826778 310.40231952 111.14560866 318.47830331 C115.66605408 322.99824131 120.18341033 327.52115933 124.69293976 332.05199051 C128.93586387 336.31441272 133.18846606 340.5669448 137.44837379 344.81239128 C139.00008009 346.36202306 140.54845342 347.91500151 142.09301567 349.47175407 C155.79095402 363.27068243 169.60093598 374.5427929 187.5 382.375 C188.14018066 382.65714355 188.78036133 382.93928711 189.43994141 383.22998047 C217.29367847 395.22992761 249.84805527 396.45539894 278.5 386.375 C273.70602463 380.53947189 268.45102138 375.24554525 263.06791115 369.95944214 C261.48779833 368.40630891 259.91238572 366.84854946 258.33830261 365.28930664 C253.86757297 360.86100293 249.39408473 356.43560541 244.90454102 352.02636719 C242.14622655 349.31672474 239.39790454 346.59728522 236.65573692 343.87130737 C235.61524021 342.84066106 234.5711101 341.81366866 233.5232029 340.79055786 C223.16996321 330.67712909 223.16996321 330.67712909 221.5 324.375 C222.06097198 320.23783165 222.88385207 318.08175792 225.625 314.9375 C229.37414053 312.89992363 232.39813498 312.26990252 236.5 313.375 C243.58600786 318.12805392 249.42135197 325.24528821 255.3787899 331.33145142 C258.41288013 334.42701938 261.46287319 337.50688547 264.50976562 340.58984375 C268.36928768 344.4973949 272.22397559 348.40943024 276.0637207 352.33642578 C279.18524583 355.5280528 282.32109504 358.70495563 285.46711159 361.87243652 C286.66026444 363.07918985 287.84798051 364.29134382 289.03009605 365.50891113 C290.67668367 367.20358131 292.34088156 368.8788398 294.01049805 370.55078125 C294.49424393 371.05766983 294.97798981 371.56455841 295.47639465 372.08680725 C296.98926589 373.64450106 296.98926589 373.64450106 299.5 375.375 C303.14871387 375.2014786 305.36165864 374.07451023 308.2421875 371.8984375 C308.91636719 371.39183594 309.59054687 370.88523437 310.28515625 370.36328125 C310.97480469 369.83089844 311.66445313 369.29851562 312.375 368.75 C313.05691406 368.24082031 313.73882812 367.73164063 314.44140625 367.20703125 C323.83057743 360.48656429 323.83057743 360.48656429 329 350.75 C328.45172563 347.04914801 327.86051579 346.3116899 325.42930603 343.63865662 C324.79104826 342.93495375 324.15279049 342.23125088 323.49519157 341.50622368 C320.41810706 338.21934363 317.29656571 334.98329067 314.13110352 331.78149414 C313.43092102 331.06992157 312.73073853 330.358349 312.00933838 329.62521362 C304.76850406 322.27474711 297.496734 314.95475398 290.22241211 307.63745117 C286.77481663 304.16748037 283.33727223 300.68798943 279.90795898 297.19995117 C275.75266122 292.97366933 271.58051414 288.76474092 267.39573479 284.56765556 C265.80812196 282.96964101 264.22652901 281.36562193 262.65118599 279.75551033 C260.44965983 277.50787841 258.22713575 275.2832427 255.99829102 273.06274414 C255.35544662 272.39630386 254.71260223 271.72986359 254.05027771 271.04322815 C249.62871161 266.70121969 246.74100005 265.41167502 240.5 265.375 C237.91914399 266.23673059 237.91914399 266.23673059 235.79296875 267.8828125 C234.96877441 268.4509668 234.14458008 269.01912109 233.29541016 269.60449219 C232.4347998 270.23000977 231.57418945 270.85552734 230.6875 271.5 C229.77532715 272.13583008 228.8631543 272.77166016 227.92333984 273.42675781 C226.03149562 274.7468316 224.14576578 276.07570946 222.26611328 277.41308594 C218.09123449 280.37419149 213.85634043 283.24548251 209.625 286.125 C208.07121876 287.18822386 206.51782596 288.25201563 204.96484375 289.31640625 C204.22089355 289.82574707 203.47694336 290.33508789 202.71044922 290.85986328 C201.24483829 291.86445588 199.78030628 292.87062446 198.31689453 293.87841797 C196.27839057 295.28003578 194.23382302 296.67233212 192.1875 298.0625 C191.59533691 298.47274414 191.00317383 298.88298828 190.39306641 299.30566406 C182.11160433 304.89666555 174.26999086 305.19088719 164.5 304.375 C157.46815482 302.67308964 152.56081001 298.33121457 147.5 293.375 C146.90751465 292.79621094 146.3150293 292.21742188 145.70458984 291.62109375 C142.31668358 288.30165503 138.94532313 284.9654965 135.59765625 281.60546875 C135.02539307 281.03207764 134.45312988 280.45868652 133.86352539 279.86791992 C131.24321994 276.99895523 131.10039915 274.31323315 131.15625 270.48046875 C131.79146358 266.58978557 133.57347039 264.98342857 136.5 262.375 C140.690452 260.8263547 143.46381284 261.3640929 147.49804688 263.16918945 C151.7131243 265.70800255 154.9439641 269.45909322 158.3125 273 C159.81699534 274.55663761 161.32341004 276.11142317 162.83203125 277.6640625 C163.48921143 278.35193848 164.1463916 279.03981445 164.82348633 279.74853516 C167.16794962 282.02300937 168.31415389 282.35188597 171.609375 282.76171875 C176.77986104 282.2477849 179.60377007 280.16755963 183.75 277.1875 C184.52577393 276.65012207 185.30154785 276.11274414 186.10083008 275.55908203 C187.74249022 274.42073701 189.37953821 273.27571542 191.01220703 272.12451172 C195.04174391 269.29078637 199.11783567 266.52561787 203.1875 263.75 C204.76839328 262.66690616 206.34912459 261.58357588 207.9296875 260.5 C212.21369719 257.56797816 216.50443137 254.64657157 220.8125 251.75 C221.70038208 251.14744385 221.70038208 251.14744385 222.60620117 250.53271484 C231.09714122 244.84925317 238.29977699 242.36077328 248.5 243.375 C260.14212783 246.05915725 267.2467269 253.98518767 275.48901367 262.1394043 C276.24292892 262.88192947 276.99684418 263.62445465 277.77360535 264.38948059 C285.58846517 272.09439109 293.37255858 279.83050911 301.15405273 287.5690918 C304.83915674 291.2318801 308.53377913 294.88464546 312.23706055 298.52905273 C316.72932716 302.95007438 321.2040134 307.38819991 325.66692543 311.83884621 C327.36209165 313.52364999 329.06323595 315.20246236 330.77058983 316.87491417 C350.15691151 335.88498832 350.15691151 335.88498832 351.0625 350.5 C350.56383017 360.55213402 346.46357305 367.38519881 339.5 374.375 C338.99758789 374.90077637 338.49517578 375.42655273 337.97753906 375.96826172 C316.23014822 398.39640845 282.12330426 413.1226727 250.94580078 414.53613281 C217.61599839 414.90930857 217.61599839 414.90930857 204.5 411.375 C203.35313721 411.08496094 203.35313721 411.08496094 202.18310547 410.7890625 C170.13036677 402.57138706 146.36686649 384.71791494 123.37207031 361.65112305 C121.70213044 359.98689822 120.03156476 358.32330115 118.36042786 356.66027832 C113.85984671 352.17751526 109.36874038 347.68537567 104.87992573 343.19083381 C100.64014959 338.94755555 96.39463079 334.7100317 92.14967152 330.47194026 C83.23118646 321.56712725 74.3222335 312.65282625 65.41633961 303.73542313 C57.29529618 295.60444514 49.16286428 287.48496944 41.02490607 279.37092378 C32.63430137 271.00478546 24.25119903 262.63119763 15.87613559 254.24950057 C11.18781811 249.55770856 6.49658193 244.86891149 1.79788971 240.18750572 C-2.62056488 235.78460147 -7.0290729 231.37196695 -11.43038368 226.95192719 C-13.0384982 225.3401496 -14.64996152 223.73170448 -16.26516533 222.12703133 C-27.57392839 210.88633574 -37.58971614 199.45941984 -45.25 185.375 C-45.61649658 184.70750732 -45.98299316 184.04001465 -46.3605957 183.35229492 C-51.68136568 173.49923351 -55.61595567 163.54097971 -58.75 152.8125 C-58.99645264 151.97436768 -59.24290527 151.13623535 -59.49682617 150.27270508 C-62.9355961 137.97134661 -63.88033886 125.83136282 -63.8125 113.125 C-63.81034485 112.39689117 -63.8081897 111.66878235 -63.80596924 110.91860962 C-63.75473231 100.12672031 -63.32206039 89.84780924 -60.5 79.375 C-60.30664062 78.6104248 -60.11328125 77.84584961 -59.9140625 77.05810547 C-53.2080294 50.90147174 -38.60895237 19.27084301 -15.16796875 3.83984375 C-10.16662711 1.25102312 -5.57857197 0.1949501 0 0 Z " fill="#000000" transform="translate(63.5,97.625)"/>
<path d="M0 0 C2.46265558 -0.01198908 4.92287398 -0.06136458 7.38500977 -0.11157227 C8.96507582 -0.12102906 10.54515704 -0.12826765 12.12524414 -0.13305664 C13.21762642 -0.16235512 13.21762642 -0.16235512 14.33207703 -0.19224548 C18.1891324 -0.15833255 20.71814818 0.39162086 23.71240234 2.74560547 C26.89948047 6.08541994 27.35021541 7.84045585 27.26977539 12.42553711 C26.00946083 16.28061693 25.06127502 17.93675898 21.59643555 20.07641602 C17.84261063 21.59877302 15.14501146 21.77995264 11.10571289 21.76147461 C9.72159373 21.77399936 8.33747913 21.78703701 6.95336914 21.80053711 C4.80785296 21.80443716 2.66280435 21.80066125 0.51733398 21.78588867 C-11.44348573 21.73608651 -21.36223131 23.34389813 -30.73022461 31.42553711 C-39.6823377 42.53989874 -39.88054995 53.9524276 -39.87548828 67.65942383 C-39.87884689 68.97101471 -39.88220551 70.28260559 -39.88566589 71.63394165 C-39.89445399 75.21254234 -39.89684178 78.79111908 -39.89748168 82.36972952 C-39.89819503 84.61046309 -39.9003347 86.85119068 -39.9029789 89.09192276 C-39.91221448 96.92302076 -39.91631594 104.75410181 -39.91552734 112.58520508 C-39.91492673 119.86289702 -39.92547994 127.1405148 -39.94127101 134.41818798 C-39.95438193 140.68597315 -39.95970977 146.95373418 -39.95907193 153.22153294 C-39.95881803 156.9564196 -39.9616095 160.69124024 -39.97224998 164.42611313 C-39.98380448 168.59508014 -39.97916247 172.76388263 -39.97314453 176.93286133 C-39.98157379 178.76763031 -39.98157379 178.76763031 -39.99017334 180.63946533 C-39.95857345 189.27689429 -39.45840403 197.81745009 -35.54272461 205.67553711 C-35.17791992 206.44381836 -34.81311523 207.21209961 -34.43725586 208.00366211 C-32.03514598 211.41168985 -28.97056503 213.83414845 -25.73022461 216.42553711 C-25.71040527 215.63493896 -25.69058594 214.84434082 -25.67016602 214.02978516 C-25.57394273 210.39057789 -25.46466319 206.75187 -25.35522461 203.11303711 C-25.32428711 201.86973633 -25.29334961 200.62643555 -25.26147461 199.34545898 C-24.72110254 182.18864578 -22.05600981 168.79406848 -9.2355957 156.7175293 C-2.09652255 150.59038445 6.86753802 146.96689138 16.26977539 147.42553711 C16.12830078 146.79969727 15.98682617 146.17385742 15.84106445 145.52905273 C14.21125737 137.61775718 13.96956078 129.98498286 14.01977539 121.92553711 C14.00817383 120.06348633 14.00817383 120.06348633 13.99633789 118.16381836 C14.01834168 107.72302152 14.75313535 98.38523884 19.64477539 89.05053711 C20.23000977 87.90842773 20.81524414 86.76631836 21.41821289 85.58959961 C27.27673451 75.5782019 36.59392371 69.37869297 47.48461914 65.67163086 C59.66459649 62.52201646 72.75866308 63.97746589 83.64477539 70.30053711 C94.76147796 77.56983225 101.83230873 86.47035362 105.26977539 99.42553711 C106.08072576 104.26985974 106.39816904 108.91884992 106.40258789 113.82788086 C106.40354462 114.50927628 106.40450134 115.19067169 106.40548706 115.89271545 C106.40616293 117.32382297 106.40435038 118.75493366 106.40014648 120.18603516 C106.3947981 122.35383121 106.40010745 124.52141933 106.40649414 126.68920898 C106.40936373 133.3394908 106.34969502 139.85174064 105.26977539 146.42553711 C106.0084082 146.57249023 106.74704102 146.71944336 107.50805664 146.87084961 C119.65506602 149.5564654 129.46081365 154.52000587 137.26977539 164.42553711 C144.63188421 175.99005139 145.53313593 187.69470633 145.89477539 201.11303711 C145.93344727 202.30348633 145.97211914 203.49393555 146.01196289 204.72045898 C146.10518534 207.62200764 146.19098887 210.52356677 146.26977539 213.42553711 C147.41117224 211.82637886 148.54839934 210.22424387 149.68383789 208.62084961 C150.63444092 207.28304443 150.63444092 207.28304443 151.60424805 205.91821289 C157.35694346 197.30856466 156.41874129 186.23571301 156.41503906 176.29931641 C156.41839767 174.99908539 156.42175629 173.69885437 156.42521667 172.35922241 C156.43400461 168.81154529 156.43639258 165.26389232 156.43703246 161.71620536 C156.43774592 159.49422505 156.43988581 157.27225079 156.44252968 155.05027199 C156.45176582 147.28285969 156.45586673 139.51546448 156.45507812 131.74804688 C156.45447778 124.53285864 156.46502562 117.31774526 156.48082179 110.10257596 C156.49394056 103.88657937 156.49926021 97.67060713 156.49862272 91.45459682 C156.49836901 87.75153611 156.50114956 84.04854201 156.51180077 80.34549522 C156.52337176 76.21025937 156.51870849 72.0751891 156.51269531 67.93994141 C156.51831482 66.7297081 156.52393433 65.51947479 156.52972412 64.27256775 C156.4880558 52.9529914 155.25231086 44.10880766 149.26977539 34.42553711 C148.97071289 33.72299805 148.67165039 33.02045898 148.36352539 32.29663086 C146.97038981 29.91337392 145.7973445 29.4753118 143.26977539 28.42553711 C142.45379883 28.01174805 141.63782227 27.59795898 140.79711914 27.17163086 C139.9424707 26.73979492 139.08782227 26.30795898 138.20727539 25.86303711 C137.35004883 25.42862305 136.49282227 24.99420898 135.60961914 24.54663086 C131.44737565 22.55236728 128.17033112 22.27007176 123.59008789 22.17944336 C122.25544599 22.14650188 120.92081073 22.11329028 119.58618164 22.07983398 C117.49068804 22.0324879 115.3952208 21.98804547 113.29956055 21.94873047 C111.27112164 21.90883067 109.24322403 21.85733205 107.21508789 21.80444336 C105.39775146 21.76685913 105.39775146 21.76685913 103.54370117 21.72851562 C99.00945803 21.30890371 96.26801925 20.36982184 92.95727539 17.23803711 C90.80089238 13.64406543 90.75311589 11.55881312 91.26977539 7.42553711 C92.92116845 3.88683771 93.98582768 2.61483558 97.26977539 0.42553711 C99.82767443 0.2176154 102.27377211 0.12149724 104.83227539 0.12475586 C105.57880371 0.12047073 106.32533203 0.11618561 107.09448242 0.11177063 C108.67813099 0.10602665 110.26180594 0.10552759 111.84545898 0.10986328 C114.2334706 0.11298958 116.62020129 0.08968538 119.00805664 0.06420898 C136.21310469 -0.0079218 150.5666085 4.24213973 163.26977539 16.42553711 C171.54211732 25.84238869 177.3694237 37.12559711 177.41694641 49.78613281 C177.42767937 51.7499012 177.42767937 51.7499012 177.43862915 53.75334167 C177.4414693 55.202667 177.44418104 56.65199258 177.44677734 58.10131836 C177.45304471 59.62921808 177.45969176 61.15711627 177.46669006 62.68501282 C177.48770835 67.70267684 177.49809349 72.72034106 177.50805664 77.73803711 C177.51210567 79.46881119 177.51622263 81.19958512 177.52040672 82.93035889 C177.53945709 91.06648337 177.55368588 99.20259881 177.56201869 107.3387413 C177.57177712 116.71085202 177.5980607 126.08272567 177.63851959 135.45475292 C177.66875876 142.71016476 177.68349512 149.96550896 177.68679971 157.22098255 C177.68914219 161.54852131 177.69799686 165.8758068 177.72326088 170.20327759 C177.74668225 174.28110481 177.75071894 178.35851456 177.7404995 182.43639183 C177.74000735 183.92459699 177.74623199 185.41282369 177.76005554 186.90096474 C177.90197337 203.09894591 173.48511586 216.42832019 162.36352539 228.35913086 C152.16296129 238.42647864 138.59954283 244.06092427 124.26977539 244.42553711 C122.24603421 244.14655053 120.22747162 243.82799092 118.21508789 243.47631836 C109.21981672 242.29313147 100.64812979 241.77905233 92.89324951 247.0368042 C80.90276082 256.55863655 70.65952131 268.38843064 60.68183899 279.9453125 C58.31002353 282.43161667 57.05941705 282.44657294 53.51977539 282.80053711 C50.23536995 282.76464197 48.41592622 282.2149322 45.83227539 280.17553711 C41.82220216 275.87204388 42.14682819 272.45749907 42.17211914 266.69116211 C42.17695313 264.74790039 42.17695313 264.74790039 42.18188477 262.76538086 C42.19023941 261.40209894 42.19870435 260.03881769 42.20727539 258.67553711 C42.21229371 257.29663246 42.21685604 255.91772607 42.22094727 254.53881836 C42.23273446 251.16768052 42.24918904 247.79663083 42.26977539 244.42553711 C41.37680252 244.43219894 41.37680252 244.43219894 40.46578979 244.43899536 C34.20272247 244.48365327 27.93970124 244.51357744 21.67651367 244.53540039 C19.34706786 244.54538419 17.01763434 244.55897594 14.68823242 244.57641602 C-8.76840312 244.74748543 -28.32656693 244.22744335 -46.55834961 227.61694336 C-60.28209985 213.76977809 -62.05113845 195.03036338 -61.98901367 176.48217773 C-61.99251831 175.16638229 -61.99602295 173.85058685 -61.99963379 172.49491882 C-62.00864223 168.93083332 -62.00526201 165.36686543 -61.99887562 161.80277824 C-61.99375501 158.0444193 -61.99852369 154.28606936 -62.00164795 150.52770996 C-62.00527015 144.22035952 -62.00053466 137.91305616 -61.9909668 131.60571289 C-61.98008563 124.34955334 -61.98361245 117.09350625 -61.99461961 109.83734941 C-62.00374258 103.56852533 -62.00495344 97.29973479 -61.99974227 91.0309062 C-61.99664994 87.30381399 -61.99613678 83.57677435 -62.00281525 79.84968567 C-62.00975148 75.68935663 -62.00009474 71.52921658 -61.98901367 67.36889648 C-61.99306213 66.1601738 -61.9971106 64.95145111 -62.00128174 63.70610046 C-61.91986262 47.07835304 -59.62487795 32.45639699 -48.73022461 19.42553711 C-48.11147461 18.55928711 -47.49272461 17.69303711 -46.85522461 16.80053711 C-34.3855739 2.86386867 -17.67588362 0.04075642 0 0 Z M39.74243164 95.87475586 C34.9970032 104.09429106 34.80223071 112.70786266 34.89477539 121.98803711 C34.88317383 123.1552832 34.87157227 124.3225293 34.85961914 125.52514648 C34.89179991 135.04529178 36.24736251 142.80895612 42.26977539 150.42553711 C48.88874799 156.68672741 55.14355459 158.07080471 64.04711914 157.83569336 C70.56712802 157.00587405 75.17355304 153.86540114 79.64477539 149.17553711 C85.92887363 140.81859991 85.76199067 131.60041598 85.70727539 121.48803711 C85.72725586 120.18157227 85.74723633 118.87510742 85.76782227 117.52905273 C85.76318939 108.32353426 84.31245903 101.4966765 79.58227539 93.61303711 C73.50865621 87.86772167 66.3315441 84.96855068 58.02758789 85.08959961 C50.39749966 86.01904379 44.76406716 90.31024083 39.74243164 95.87475586 Z M1.51977539 176.42553711 C-3.4883473 183.10303403 -3.88750601 189.21511955 -3.82788086 197.44897461 C-3.82646591 198.19515045 -3.82505096 198.94132629 -3.82359314 199.71011353 C-3.81803334 202.07363029 -3.8054885 204.43704938 -3.79272461 206.80053711 C-3.78770441 208.41121282 -3.78314241 210.02189002 -3.77905273 211.63256836 C-3.76807712 215.5635951 -3.75084057 219.49454959 -3.73022461 223.42553711 C-2.97711502 223.42696213 -2.22400543 223.42838715 -1.44807434 223.42985535 C5.65858838 223.44770464 12.76462238 223.48937437 19.87095165 223.55762768 C23.52423964 223.59188045 27.17711025 223.61700482 30.83056641 223.62109375 C34.35821824 223.62538066 37.88492886 223.65387317 41.41228676 223.69896889 C43.40905917 223.71822917 45.40602153 223.71259025 47.40287781 223.70658875 C57.50574041 223.86913558 57.50574041 223.86913558 60.59008789 226.70678711 C62.19272982 229.3008308 62.90815287 230.63468686 62.97680664 233.63256836 C63.0203125 234.75888672 63.0203125 234.75888672 63.06469727 235.90795898 C63.07049805 236.67688477 63.07629883 237.44581055 63.08227539 238.23803711 C63.10741211 239.02629883 63.13254883 239.81456055 63.15844727 240.62670898 C63.2170052 242.55912084 63.24633027 244.49238038 63.26977539 246.42553711 C68.28497562 242.2333441 72.94931431 237.84492592 77.51977539 233.17553711 C78.73093542 231.93882518 79.94438879 230.70435399 81.16040039 229.47241211 C81.68666016 228.93455078 82.21291992 228.39668945 82.75512695 227.8425293 C86.83225434 224.02827279 90.3699003 224.08839954 95.65649414 224.01147461 C96.88200737 223.98242538 96.88200737 223.98242538 98.13227844 223.95278931 C100.74050473 223.89303359 103.34877525 223.84662453 105.95727539 223.80053711 C107.72617479 223.7623536 109.49505568 223.72330165 111.26391602 223.68334961 C115.59905198 223.58733543 119.93427499 223.50328976 124.26977539 223.42553711 C124.3443901 218.44510102 124.39859526 213.46499622 124.43457031 208.48413086 C124.44958044 206.79266689 124.46999502 205.10124133 124.49609375 203.40991211 C124.53282225 200.96710687 124.5495795 198.5248198 124.56274414 196.08178711 C124.578228 195.33562134 124.59371185 194.58945557 124.60966492 193.82067871 C124.61227897 185.51285842 121.83724918 179.18554047 116.14868164 173.11694336 C110.93461346 168.42319799 103.98557416 167.46475389 97.26977539 166.42553711 C96.23852539 166.26053711 95.20727539 166.09553711 94.14477539 165.92553711 C91.01465474 166.46990592 90.12065657 167.16125898 87.70727539 169.11303711 C78.81109879 176.27751521 67.53056075 179.13544835 56.26977539 178.16772461 C46.66771759 176.82049711 38.54343797 174.11261605 31.25415039 167.59741211 C22.45801236 162.4028424 7.45144185 169.65866475 1.51977539 176.42553711 Z " fill="#000000" transform="translate(334.730224609375,78.574462890625)"/>
<path d="M0 0 C0.88792236 0.0191748 1.77584473 0.03834961 2.69067383 0.05810547 C29.93932079 0.96191536 56.44379562 12.37798575 76.6875 30.5 C77.24131348 30.99338867 77.79512695 31.48677734 78.36572266 31.99511719 C101.51253129 52.9888903 116.91696697 84.15115043 118.6875 115.5 C118.78417969 117.09714844 118.78417969 117.09714844 118.8828125 118.7265625 C119.21519921 128.54305009 119.21519921 128.54305009 117.125 132.1875 C113.99270365 135.15916577 111.97819771 135.99093417 107.6875 136.5 C103.89310152 135.42492043 101.53232118 134.55102161 99.0390625 131.44921875 C97.19889622 127.433827 97.0796199 123.74383839 96.8125 119.375 C94.4720201 90.78021308 82.38978621 64.65292126 60.6875 45.5 C44.55587214 32.25345174 25.05395026 23.82754591 4.171875 22.11328125 C2.97135498 22.0062085 2.97135498 22.0062085 1.74658203 21.89697266 C0.15545585 21.76004324 -1.43753747 21.6429758 -3.03173828 21.54833984 C-7.09770946 21.19851222 -8.96194434 20.76428611 -12.3125 18.23828125 C-14.43926494 15.32644097 -14.99299015 14.05136964 -14.9375 10.5 C-14.95039062 9.675 -14.96328125 8.85 -14.9765625 8 C-12.87071074 0.07208749 -6.96649144 -0.25227033 0 0 Z " fill="#000000" transform="translate(133.3125,-0.5)"/>
<path d="M0 0 C11.06639652 3.70776227 20.72924478 9.70813983 29.18457031 17.73193359 C29.961875 18.46798828 30.73917969 19.20404297 31.54003906 19.96240234 C45.45855183 34.26421323 52.13196023 53.04193321 53.18457031 72.73193359 C52.64509663 79.12667044 52.64509663 79.12667044 49.99707031 82.60693359 C46.78169864 85.03632553 45.20357464 85.73193359 41.18457031 85.73193359 C36.83470741 84.28197929 34.75200581 83.58308684 32.18457031 79.73193359 C31.76147461 77.74584961 31.76147461 77.74584961 31.50878906 75.48583984 C31.40598633 74.65431396 31.30318359 73.82278809 31.19726562 72.96606445 C31.08995117 72.08442627 30.98263672 71.20278809 30.87207031 70.29443359 C28.73987423 54.77786116 22.82603402 40.64758767 10.49707031 30.44287109 C0.47045126 23.02452795 -10.61489406 19.48676496 -22.88964844 18.03417969 C-28.05736396 17.30192686 -30.66202505 15.89806627 -33.81542969 11.73193359 C-34.71892025 8.62817779 -34.54381429 5.87309218 -33.81542969 2.73193359 C-25.61033468 -7.63239695 -11.14197164 -3.31883251 0 0 Z " fill="#000000" transform="translate(152.8154296875,50.26806640625)"/>
<path d="M0 0 C9.00567925 3.78772897 16.13698189 9.46516065 20.48828125 18.31640625 C22.91776217 25.04624574 24.44730803 31.33737334 22.48828125 38.31640625 C20.4295274 41.40453702 19.01663335 42.97861829 15.33203125 43.79296875 C10.87104513 44.07549787 9.04488123 43.76864374 5.48828125 40.87890625 C4.82828125 40.03328125 4.16828125 39.18765625 3.48828125 38.31640625 C2.99328125 37.82140625 2.99328125 37.82140625 2.48828125 37.31640625 C2.21906548 35.73622673 1.97285118 34.15209897 1.73828125 32.56640625 C0.75529335 27.67935295 -0.22998897 25.20002018 -4.51171875 22.31640625 C-6.33227382 21.79077231 -8.16782667 21.31568284 -10.01171875 20.87890625 C-13.59074979 20.009506 -16.14545687 19.35096762 -18.69921875 16.62890625 C-21.09958752 12.24202539 -21.21884829 10.26631301 -20.51171875 5.31640625 C-15.74094306 -2.15780899 -8.1840942 -2.22739733 0 0 Z " fill="#000000" transform="translate(139.51171875,91.68359375)"/>
<path d="M0 0 C3.49406769 1.66762322 4.82670681 2.74006022 7 6 C7.54531842 9.06526351 7.54325893 11.93408329 7 15 C4.81840855 17.75569447 3.12822506 19.43588747 0 21 C-4.57694247 21.12370115 -7.99613174 20.87838473 -11.5 17.8125 C-13.18356312 14.65581916 -13.92684384 12.58465187 -14 9 C-12.74365054 5.44034319 -11.62302702 3.50515704 -8.6875 1.125 C-5.47713606 -0.21887328 -3.45252804 -0.431566 0 0 Z " fill="#000000" transform="translate(182,333)"/>
<path d="M0 0 C2.8100346 1.79363911 4.50940468 3.01880935 6 6 C6.65271451 10.74616694 6.69934049 13.98277746 3.9375 18 C0.40055558 20.40813237 -1.72563406 21 -6 21 C-10.27358325 19.68505131 -11.64562889 18.57585305 -14 14.75 C-15.19957139 10.2516073 -14.91101752 8.2201637 -13 4 C-9.2754716 -0.27225317 -5.41420966 -1.11565532 0 0 Z " fill="#000000" transform="translate(393,79)"/>
</svg>
