<?xml version="1.0" encoding="UTF-8"?>
<svg version="1.1" xmlns="http://www.w3.org/2000/svg" width="512" height="512">
<path d="M0 0 C4.92381692 2.45106305 7.85976305 6.38737185 9.8359375 11.3828125 C10.4334388 15.76890104 10.47920262 20.10036345 10.42752266 24.51632309 C10.401853 26.729817 10.40698004 28.9414712 10.41941833 31.15505981 C10.44006196 35.85618425 10.42056139 40.55672673 10.3984375 45.2578125 C10.37722799 50.70447007 10.37295864 56.15052587 10.39893913 61.59717178 C10.40226463 63.76101505 10.38120335 65.9236683 10.35853577 68.08737183 C10.33955411 76.48690967 10.7364885 84.65868953 16.48268127 91.28048706 C21.25997294 95.86877127 26.7222441 97.97918558 33.2109375 98.8203125 C41.45554494 97.82527367 47.114062 94.92753965 52.4609375 88.578125 C55.46958469 83.77454625 56.08530062 79.17302225 56.09130859 73.58642578 C56.09492905 72.93515717 56.0985495 72.28388855 56.10227966 71.61288452 C56.10913561 70.20848102 56.11168628 68.80405109 56.11033249 67.3996315 C56.10936075 65.17044573 56.12238528 62.94173365 56.13931274 60.71261597 C56.18538843 54.37827185 56.21017859 48.0439788 56.21679688 41.70947266 C56.22183233 37.8249514 56.24618136 33.94092794 56.28212357 30.05657578 C56.2918718 28.5839424 56.29428086 27.11124013 56.28895187 25.63858414 C56.26151006 17.68257439 56.29599075 11.18699905 60.8359375 4.3828125 C66.0004694 -0.52979101 70.64855454 -1.16156034 77.58203125 -1.078125 C90.30532671 0.72421457 101.89278687 14.4219033 109.26660156 24.14746094 C124.39454676 45.12277548 130.7350376 71.26454515 127.06445312 96.81835938 C124.06843941 114.84409938 116.41950828 129.72835891 104.8359375 143.7578125 C91.91279727 159.51009993 84.94679411 177.82283827 84.51953125 198.28125 C84.49875015 199.11621002 84.47796906 199.95117004 84.45655823 200.81143188 C84.39154281 203.4601474 84.33240259 206.10895609 84.2734375 208.7578125 C84.23020654 210.56120728 84.18659084 212.36459288 84.14257812 214.16796875 C84.03591111 218.57282289 83.93451055 222.9777701 83.8359375 227.3828125 C84.75819374 227.37186806 84.75819374 227.37186806 85.69908142 227.36070251 C86.91139183 227.35219017 86.91139183 227.35219017 88.14819336 227.34350586 C89.3488871 227.33256142 89.3488871 227.33256142 90.57383728 227.32139587 C98.177637 227.52784107 104.75464499 231.38067133 110.1171875 236.5234375 C117.58939161 244.60700376 119.60680524 252.20881016 119.2734375 263.26171875 C118.66199535 271.51809848 114.64884529 278.10484453 108.5859375 283.5703125 C106.69165977 285.07912674 104.99993693 286.30081279 102.8359375 287.3828125 C104.18952821 291.56391548 104.18952821 291.56391548 105.875 295.6171875 C108.72078534 303.80749653 107.86962912 313.36008 104.1484375 321.0703125 C101.82155314 325.1326878 99.44767436 328.40844097 95.8359375 331.3828125 C96.74430788 333.72943598 97.65188351 336.03289167 98.82421875 338.26171875 C102.89992721 346.30939036 104.05049267 355.05677057 101.6484375 363.8203125 C98.92810326 371.34980906 94.34223077 376.76995224 87.8359375 381.3828125 C85.5859375 382.08203125 85.5859375 382.08203125 83.8359375 382.3828125 C84.25166016 383.28773438 84.25166016 383.28773438 84.67578125 384.2109375 C85.03800781 385.01015625 85.40023438 385.809375 85.7734375 386.6328125 C86.13308594 387.42171875 86.49273437 388.210625 86.86328125 389.0234375 C88.44852011 392.86875587 89.03211686 396.28838008 89.1484375 400.4453125 C89.18582031 401.30253906 89.22320312 402.15976562 89.26171875 403.04296875 C88.85284828 406.25016375 88.06227234 408.40403915 86.84082031 411.3671875 C84.62923986 417.35286769 84.28017713 422.64010398 84.33203125 428.97265625 C84.32261002 430.03843399 84.31318878 431.10421173 84.30348206 432.20228577 C84.27507009 435.57516115 84.27174436 438.94732784 84.2734375 442.3203125 C84.26980756 445.68962246 84.2600366 449.05842232 84.23268127 452.42762756 C84.21613873 454.51239193 84.21281854 456.5973234 84.22569275 458.68211365 C84.12978922 472.12186703 80.19433996 486.63237985 70.77734375 496.6640625 C56.95265229 508.90322596 43.45368379 512.70138053 25.18066406 511.61035156 C20.24785882 511.13165784 16.17543905 509.70832168 11.8359375 507.3828125 C10.99160156 506.95871094 10.14726562 506.53460938 9.27734375 506.09765625 C-1.66860872 500.11653458 -10.28048582 490.93000076 -14.29272461 479.03735352 C-17.23667373 468.17921538 -17.64742283 458.0863098 -17.4140625 446.8828125 C-17.39393029 445.17319843 -17.37569161 443.46356099 -17.359375 441.75390625 C-17.3159947 437.62961361 -17.24735605 433.5064841 -17.1640625 429.3828125 C-18.33183228 429.19996704 -18.33183228 429.19996704 -19.52319336 429.01342773 C-35.12566989 426.50419074 -49.0789018 421.3978766 -63.63500977 415.30493164 C-73.95960529 410.98334125 -83.15311085 407.39135843 -94.43359375 407.06640625 C-95.11459641 407.04562515 -95.79559906 407.02484406 -96.49723816 407.00343323 C-98.65691758 406.93843372 -100.81671096 406.87928538 -102.9765625 406.8203125 C-104.44727706 406.77708 -105.91798041 406.73346425 -107.38867188 406.68945312 C-110.98034967 406.58280391 -114.57215332 406.48139901 -118.1640625 406.3828125 C-118.31029053 407.32970947 -118.45651855 408.27660645 -118.60717773 409.25219727 C-120.02091026 417.19971687 -125.83679997 422.78670851 -132.1640625 427.3828125 C-139.63284099 431.61042297 -148.68580347 432.45003579 -156.96875 430.23828125 C-163.72251188 427.60647724 -169.01853422 423.26678813 -173.1640625 417.3828125 C-173.1640625 416.7228125 -173.1640625 416.0628125 -173.1640625 415.3828125 C-173.76298498 415.38742146 -174.36190746 415.39203043 -174.97897911 415.39677906 C-189.58649043 415.50744666 -204.1939769 415.59006028 -218.80180931 415.64187336 C-225.86623616 415.66759919 -232.9303823 415.70264094 -239.99462891 415.76000977 C-246.81571729 415.81537725 -253.63651424 415.84425913 -260.45781326 415.85719872 C-263.05646979 415.86641666 -265.6551109 415.88441718 -268.25364304 415.91146278 C-271.90170113 415.94791194 -275.54856561 415.95275091 -279.19677734 415.95043945 C-280.26421173 415.96841583 -281.33164612 415.98639221 -282.431427 416.00491333 C-290.39347874 415.95054732 -297.0545978 414.08512517 -303.08020592 408.65651417 C-310.39317032 401.03184783 -310.60518464 392.26949031 -310.56811523 382.24072266 C-310.57841011 380.28796669 -310.57841011 380.28796669 -310.58891296 378.29576111 C-310.60677388 374.74395157 -310.60568925 371.19239004 -310.59997058 367.64054918 C-310.59686793 364.66613457 -310.60298321 361.69176686 -310.60900933 358.71735895 C-310.62303022 351.69499606 -310.6215141 344.67275488 -310.61010742 337.65039062 C-310.59863303 330.42712105 -310.61269577 323.20422307 -310.6395039 315.98100245 C-310.66172076 309.7599031 -310.66828472 303.53891988 -310.66242748 297.31778371 C-310.65907041 293.61077876 -310.66138883 289.90401182 -310.67867851 286.19704056 C-310.69713819 282.05902136 -310.68289932 277.9217164 -310.66577148 273.78369141 C-310.67543945 272.56986282 -310.68510742 271.35603424 -310.69506836 270.10542297 C-310.60735217 259.95410432 -308.59130783 252.1016717 -301.23828125 244.85546875 C-294.58328573 240.13054726 -288.65523383 239.96146584 -280.72094727 240.04223633 C-279.02229271 240.04157921 -279.02229271 240.04157921 -277.2893219 240.04090881 C-273.56119303 240.04299213 -269.83351868 240.06630246 -266.10546875 240.08984375 C-263.51472723 240.09544131 -260.92398253 240.09971065 -258.33323669 240.10270691 C-252.22058834 240.11297531 -246.10812644 240.1365987 -239.99554819 240.16675538 C-233.03302615 240.20035538 -226.07049614 240.21679942 -219.10791314 240.23184168 C-204.79320943 240.26315009 -190.47864173 240.31587549 -176.1640625 240.3828125 C-175.72126953 238.990625 -175.72126953 238.990625 -175.26953125 237.5703125 C-172.68189697 230.10914795 -167.69969612 224.89056897 -160.875 221.1171875 C-152.61125234 217.39194252 -145.00753472 217.20993782 -136.4140625 220.0078125 C-128.64952845 223.18220178 -124.25835425 227.53346426 -120.109375 234.74609375 C-118.74694389 238.54626317 -118.48399876 242.37601756 -118.1640625 246.3828125 C-99.72987199 246.28355794 -99.72987199 246.28355794 -84.06640625 237.46484375 C-78.58199288 231.46239544 -73.76125812 224.8368607 -68.87890625 218.34375 C-56.66089393 202.60003177 -39.62819761 194.24118199 -20.1640625 191.3828125 C-19.1740625 191.3828125 -18.1840625 191.3828125 -17.1640625 191.3828125 C-20.83868043 174.29937243 -25.60332911 158.82951299 -37.1640625 145.3828125 C-53.82254678 124.71059921 -63.00874302 101.31514808 -61.1640625 74.3828125 C-58.8229912 54.0217159 -51.83846341 34.85342709 -38.1640625 19.3828125 C-37.720625 18.79757813 -37.2771875 18.21234375 -36.8203125 17.609375 C-28.16616327 6.36953484 -14.7405454 -4.20398226 0 0 Z M-22.7265625 26.5703125 C-37.25371587 41.16698566 -44.71706601 60.98808903 -45.4140625 81.3828125 C-45.1830341 99.91642445 -38.73377968 117.45681079 -26.8515625 131.6328125 C-11.48420437 150.0270745 -2.27631691 171.9292831 -1.953125 196.109375 C-1.92508268 197.56772006 -1.89641845 199.02605328 -1.8671875 200.484375 C-1.82584565 202.7532551 -1.78889973 205.02190708 -1.76269531 207.29101562 C-1.73503732 209.50174775 -1.68920948 211.71151677 -1.640625 213.921875 C-1.610896 215.88954834 -1.610896 215.88954834 -1.58056641 217.89697266 C-1.14372252 221.55304356 -0.37695686 223.47495958 1.8359375 226.3828125 C4.79258269 227.8611351 7.57823487 227.44314033 10.8359375 227.3828125 C10.84180374 226.69091827 10.84766998 225.99902405 10.85371399 225.28616333 C10.9119194 218.72566382 10.98415203 212.16548049 11.07165241 205.60530281 C11.11614242 202.23363824 11.15544344 198.86208856 11.18237305 195.49023438 C11.21611014 191.6025728 11.26843769 187.71552536 11.32421875 183.828125 C11.33060867 182.63293243 11.3369986 181.43773987 11.34358215 180.20632935 C11.4851986 172.04719042 12.33470953 164.64416386 16.5234375 157.5078125 C22.67231959 151.85748842 28.40840877 150.69482585 36.71484375 151.01171875 C42.32533779 151.67879877 45.9250394 153.13666912 49.6171875 157.4765625 C53.56833162 163.06780418 54.97053617 167.59987994 55.0234375 174.4453125 C55.03761719 175.28191406 55.05179687 176.11851562 55.06640625 176.98046875 C54.81605701 179.59004137 54.23544236 181.17797852 52.8359375 183.3828125 C50.02678276 184.78738987 47.94783216 184.63176407 44.8359375 184.3828125 C42.70703125 183.27734375 42.70703125 183.27734375 40.8359375 181.3828125 C40.11328125 178.31640625 40.11328125 178.31640625 39.7734375 174.8203125 C39.49222084 171.39546306 39.49222084 171.39546306 38.8359375 168.3828125 C35.94215926 166.03218445 35.94215926 166.03218445 32.2734375 166.5078125 C28.83950128 166.98518218 28.83950128 166.98518218 27.63528442 169.08782959 C26.67514399 171.84446232 26.59573292 174.05739663 26.60888672 176.97753906 C26.60903778 178.09839905 26.60918884 179.21925903 26.60934448 180.37408447 C26.61966705 181.57837097 26.62998962 182.78265747 26.640625 184.0234375 C26.64486984 185.87941559 26.64486984 185.87941559 26.64920044 187.77288818 C26.6584955 191.05432791 26.67645045 194.33557004 26.6986084 197.61694336 C26.71910702 200.96856872 26.72804026 204.32020257 26.73828125 207.671875 C26.76033723 214.24227471 26.79486518 220.81250525 26.8359375 227.3828125 C31.1259375 227.3828125 35.4159375 227.3828125 39.8359375 227.3828125 C39.86171875 226.04605469 39.8875 224.70929688 39.9140625 223.33203125 C39.97033862 221.57809212 40.02768607 219.82418714 40.0859375 218.0703125 C40.10011719 217.18923828 40.11429687 216.30816406 40.12890625 215.40039062 C40.37442607 208.94321923 40.37442607 208.94321923 42.5859375 206.2578125 C45.23577212 205.22732126 46.79145872 205.24326446 49.5859375 205.6953125 C50.38515625 205.81519531 51.184375 205.93507812 52.0078125 206.05859375 C52.91273438 206.21908203 52.91273438 206.21908203 53.8359375 206.3828125 C54.58871265 209.11530591 55.00235453 211.66381933 55.15234375 214.4921875 C55.19423828 215.24628906 55.23613281 216.00039062 55.27929688 216.77734375 C55.31861328 217.55464844 55.35792969 218.33195313 55.3984375 219.1328125 C55.44162109 219.92558594 55.48480469 220.71835938 55.52929688 221.53515625 C55.63496741 223.48419065 55.73591716 225.43347998 55.8359375 227.3828125 C59.7959375 227.3828125 63.7559375 227.3828125 67.8359375 227.3828125 C67.85052002 226.28517578 67.86510254 225.18753906 67.88012695 224.05664062 C67.9390029 219.90383602 68.01621116 215.75152441 68.09838867 211.59912109 C68.13122523 209.81697716 68.15937885 208.0347395 68.18237305 206.25244141 C68.38137645 191.22133299 69.55773445 176.87163352 75.0234375 162.6953125 C75.47843628 161.49890137 75.47843628 161.49890137 75.94262695 160.27832031 C79.99697591 150.00108939 85.80692556 141.5424102 92.8359375 133.0703125 C106.34419774 116.77483519 113.33805551 96.60320979 111.8359375 75.3828125 C109.31110003 54.46273064 100.61220693 34.68011037 83.9921875 21.05078125 C78.93356353 16.83040572 78.93356353 16.83040572 72.8359375 15.3828125 C72.83229187 16.19554626 72.82864624 17.00828003 72.82489014 17.84564209 C72.78682004 25.55342519 72.72975489 33.26073503 72.65203476 40.96821213 C72.61274175 44.92950706 72.58046527 48.89058574 72.56494141 52.85205078 C72.54965355 56.68435169 72.51499822 60.51605734 72.46762848 64.34809113 C72.45293832 65.80064939 72.44490369 67.25329269 72.44405365 68.70592499 C72.42747603 82.84714383 69.91510471 93.90316933 60.0234375 104.28515625 C52.13602135 111.80682528 42.40945375 114.75388417 31.6484375 114.59375 C20.37045552 113.74790135 11.69698075 109.78288351 4.0234375 101.5078125 C-4.75091875 90.82422133 -5.47014868 79.50087754 -5.578125 66.1640625 C-5.59686241 64.69574934 -5.61643769 63.22744666 -5.6368103 61.75915527 C-5.68786616 57.91896781 -5.72763279 54.07874554 -5.76495361 50.23840332 C-5.80516096 46.30989154 -5.85617646 42.38152122 -5.90625 38.453125 C-6.00269438 30.76311833 -6.08719849 23.07304248 -6.1640625 15.3828125 C-12.78730544 15.3828125 -18.22084671 22.24432953 -22.7265625 26.5703125 Z M-50.8671875 223.04296875 C-55.93839923 228.20905009 -60.57596388 233.55930245 -64.92553711 239.3425293 C-73.78310847 251.10553033 -82.60202619 257.74230342 -97.1640625 261.3828125 C-103.7640625 261.7128125 -110.3640625 262.0428125 -117.1640625 262.3828125 C-117.1640625 304.6228125 -117.1640625 346.8628125 -117.1640625 390.3828125 C-107.2640625 390.7128125 -97.3640625 391.0428125 -87.1640625 391.3828125 C-73.67186687 393.63151177 -73.67186687 393.63151177 -68.46484375 395.7734375 C-67.32700439 396.23290771 -66.18916504 396.69237793 -65.0168457 397.16577148 C-63.26440552 397.89195679 -63.26440552 397.89195679 -61.4765625 398.6328125 C-58.99951778 399.63423353 -56.51900997 400.62686368 -54.0390625 401.62109375 C-52.26208984 402.33773193 -52.26208984 402.33773193 -50.44921875 403.06884766 C-28.79952731 411.72808066 -7.19318699 416.67591276 16.21484375 416.71875 C17.51115219 416.7254068 18.80746063 416.7320636 20.14305115 416.73892212 C22.85296989 416.75074333 25.56276246 416.75461762 28.27270508 416.75341797 C31.73254989 416.75321267 35.19159272 416.78079619 38.65124607 416.81496239 C41.98495765 416.84256301 45.31851947 416.84137735 48.65234375 416.84375 C49.88674698 416.85812103 51.12115021 416.87249207 52.39295959 416.88729858 C58.82194558 416.85297021 63.00461933 416.82020415 67.8359375 412.3828125 C71.15074793 408.70964418 72.62778945 406.15207095 73.2109375 401.1953125 C72.72183004 396.22272 71.12914316 393.11511225 67.8359375 389.3828125 C65.79157471 387.86106877 63.75114541 386.59662728 61.5078125 385.390625 C59.8359375 384.3828125 59.8359375 384.3828125 58.8359375 382.3828125 C58.48038194 374.91614583 58.48038194 374.91614583 60.8359375 371.3828125 C63.78441611 370.3999863 66.06530801 370.18691546 69.1484375 370.0078125 C75.43983182 369.45244568 79.06786736 368.1115922 83.6484375 363.6328125 C86.53815645 359.33951577 87.35432389 356.25121719 86.42578125 351.11328125 C85.1888227 346.64689799 83.64550088 343.21082388 79.7890625 340.3671875 C76.44315433 338.68084978 72.8773723 337.92431654 69.2265625 337.15625 C66.8359375 336.3828125 66.8359375 336.3828125 64.8359375 333.3828125 C64.49461736 330.17440316 64.44082295 328.1305119 65.9609375 325.25390625 C68.5594996 322.66075782 70.53425738 322.71630086 74.1484375 322.3828125 C80.98879223 321.50116678 84.54605101 319.91373968 89.2109375 314.7578125 C91.41501643 310.18011011 91.6331014 306.37728839 90.8359375 301.3828125 C87.0947606 293.61267586 80.50756497 291.11339177 72.8359375 288.3828125 C71.24699678 286.79387178 71.66595339 285.13479826 71.6484375 282.9453125 C71.63425781 282.14222656 71.62007812 281.33914063 71.60546875 280.51171875 C71.8359375 278.3828125 71.8359375 278.3828125 73.8359375 276.3828125 C78.62726114 274.63949052 84.07963811 275.10318593 89.109375 274.95703125 C94.52278517 274.12288943 97.59057935 271.75926098 101.2109375 267.7578125 C103.41296681 263.18436701 103.64058906 259.37327774 102.8359375 254.3828125 C100.62351311 249.95796372 97.88794134 247.18804593 93.8359375 244.3828125 C89.9993889 243.10396297 86.38954018 243.24653844 82.39233398 243.25683594 C81.53013748 243.2549678 80.66794098 243.25309967 79.77961731 243.25117493 C77.90533688 243.24716956 76.03105156 243.24509596 74.15676689 243.24471283 C70.16373163 243.24129431 66.17085875 243.21992292 62.17788029 243.19948196 C54.74446097 243.16150063 47.31121297 243.13019121 39.87768555 243.13232422 C34.70629977 243.133114 29.53550602 243.10963049 24.36427498 243.0704422 C22.39926888 243.0600177 20.43419415 243.05843185 18.46917534 243.06609344 C-1.93734527 243.13768671 -1.93734527 243.13768671 -9.1640625 237.3828125 C-15.24133717 231.02410932 -16.41480588 223.46744764 -16.7890625 214.9453125 C-16.82773437 214.21376953 -16.86640625 213.48222656 -16.90625 212.72851562 C-16.99940234 210.94697718 -17.08276536 209.16493128 -17.1640625 207.3828125 C-29.83445766 207.3828125 -42.04475335 214.59984307 -50.8671875 223.04296875 Z M-158.4765625 239.8828125 C-160.74950064 243.25012827 -161.28916641 245.779728 -161.31555176 249.74755859 C-161.32389542 250.63924744 -161.33223907 251.53093628 -161.34083557 252.449646 C-161.3471122 253.91316498 -161.3471122 253.91316498 -161.35351562 255.40625 C-161.36180893 256.43574768 -161.37010223 257.46524536 -161.37864685 258.52593994 C-161.39605633 260.76363583 -161.41122069 263.00135004 -161.42442322 265.23907471 C-161.44542705 268.77710767 -161.47245146 272.31504856 -161.50109863 275.85302734 C-161.56082632 283.36292052 -161.6129768 290.87285622 -161.6640625 298.3828125 C-161.72324566 307.08315249 -161.7854954 315.78344689 -161.85594177 324.48370361 C-161.88256449 327.97528628 -161.90334969 331.46687344 -161.9239502 334.95849609 C-161.94055002 337.09212464 -161.95742158 339.2257511 -161.97460938 341.359375 C-161.980886 342.82289398 -161.980886 342.82289398 -161.98728943 344.315979 C-161.99563309 345.20766785 -162.00397675 346.09935669 -162.01257324 347.01806641 C-162.01772697 347.79308502 -162.02288071 348.56810364 -162.02819061 349.36660767 C-162.1640625 351.3828125 -162.1640625 351.3828125 -163.1640625 354.3828125 C-167.4805547 355.14454642 -170.90839703 355.54344854 -175.1640625 354.3828125 C-175.93407164 351.63827715 -176.29563372 349.18063085 -176.32228088 346.33319092 C-176.3320697 345.53676178 -176.34185852 344.74033264 -176.35194397 343.91976929 C-176.35769943 343.05518097 -176.3634549 342.19059265 -176.36938477 341.29980469 C-176.37928436 340.38238495 -176.38918396 339.46496521 -176.39938354 338.51974487 C-176.43095092 335.48975193 -176.4557372 332.45974331 -176.48046875 329.4296875 C-176.50104238 327.32789708 -176.52203897 325.22611076 -176.54344177 323.12432861 C-176.59862012 317.59402793 -176.64804813 312.06369017 -176.69628906 306.5333252 C-176.74653499 300.88937075 -176.80220493 295.24547011 -176.85742188 289.6015625 C-176.96495165 278.52869181 -177.06640816 267.45577438 -177.1640625 256.3828125 C-191.68055113 256.24259959 -206.19693464 256.13721998 -220.7139616 256.07193947 C-227.45463902 256.04101181 -234.19489551 255.99885357 -240.93530273 255.93017578 C-247.43861629 255.86394537 -253.94165658 255.82911858 -260.44529152 255.81354904 C-262.92808738 255.80245177 -265.41085895 255.78078148 -267.89346886 255.74843216 C-271.36790315 255.70495435 -274.84052355 255.69887516 -278.31518555 255.70166016 C-279.34449188 255.6800885 -280.37379822 255.65851685 -281.43429565 255.6362915 C-286.09271339 255.6767679 -288.45199234 255.87044051 -292.30366516 258.641922 C-295.46730172 263.47120088 -294.84135729 269.36797608 -294.77929688 274.91821289 C-294.78484589 276.17902176 -294.7903949 277.43983063 -294.79611206 278.73884583 C-294.81032205 282.18529006 -294.79333785 285.63093281 -294.76982689 289.07730031 C-294.74967354 292.68909817 -294.75559969 296.30086419 -294.75793457 299.91270447 C-294.75788105 305.97619801 -294.73815574 312.03937937 -294.70605469 318.1027832 C-294.66914746 325.10795205 -294.66038195 332.11271237 -294.6673522 339.11796576 C-294.6736618 345.864832 -294.66289558 352.6115585 -294.64338684 359.35839653 C-294.63522288 362.22631258 -294.63250142 365.09415712 -294.63407898 367.96208382 C-294.63512277 371.96720047 -294.61092577 375.97178056 -294.58398438 379.97680664 C-294.58691498 381.165 -294.58984558 382.35319336 -294.59286499 383.57739258 C-294.5815152 384.66943497 -294.57016541 385.76147736 -294.55847168 386.88661194 C-294.55474297 387.83287477 -294.55101425 388.77913759 -294.54717255 389.75407505 C-294.08355085 392.93524905 -293.04967936 394.79568033 -291.1640625 397.3828125 C-287.98332954 399.50330114 -287.22708304 399.63154249 -283.58930969 399.62332153 C-282.6512146 399.62607086 -281.71311951 399.62882019 -280.74659729 399.63165283 C-279.20587807 399.620867 -279.20587807 399.620867 -277.6340332 399.60986328 C-276.00940659 399.61030136 -276.00940659 399.61030136 -274.35195923 399.61074829 C-270.7645065 399.60935262 -267.1772603 399.59378009 -263.58984375 399.578125 C-261.10548516 399.57439572 -258.62112511 399.57154835 -256.13676453 399.56954956 C-250.2613195 399.56268806 -244.38595098 399.54691792 -238.51053733 399.52685058 C-231.16524 399.50230721 -223.81993834 399.49156175 -216.47460938 399.48046875 C-203.37105595 399.45900688 -190.26756393 399.42524615 -177.1640625 399.3828125 C-177.14947998 398.82819336 -177.13489746 398.27357422 -177.11987305 397.70214844 C-177.04519353 395.17835008 -176.94860225 392.65584596 -176.8515625 390.1328125 C-176.82900391 389.26011719 -176.80644531 388.38742187 -176.78320312 387.48828125 C-176.51131979 381.01251446 -176.51131979 381.01251446 -174.7421875 377.80444336 C-172.77483987 376.03218698 -171.78738245 375.87078637 -169.1640625 375.9453125 C-168.143125 375.94724609 -168.143125 375.94724609 -167.1015625 375.94921875 C-164.54557061 376.521225 -163.76130282 377.31221279 -162.1640625 379.3828125 C-161.79516602 381.90722656 -161.79516602 381.90722656 -161.79296875 384.8984375 C-161.77556641 385.98511719 -161.75816406 387.07179688 -161.74023438 388.19140625 C-161.73118191 390.47004005 -161.72592045 392.74869234 -161.72460938 395.02734375 C-161.6106718 401.68286977 -161.26746938 406.03086012 -157.1640625 411.3828125 C-154.14147463 414.08178282 -150.91478451 415.35318945 -146.85546875 415.421875 C-141.50966341 414.61053861 -138.61460475 412.48139945 -135.2578125 408.33203125 C-132.92463188 404.17397007 -133.03600778 399.65557827 -133.02362061 394.98893738 C-133.01791046 393.69784561 -133.01220032 392.40675385 -133.00631714 391.07653809 C-133.00507193 389.65283213 -133.00394681 388.22912606 -133.00292969 386.80541992 C-132.99829844 385.30043924 -132.99327337 383.79545973 -132.98788452 382.29048157 C-132.97478893 378.20772651 -132.96832124 374.12498788 -132.96387386 370.04221511 C-132.96093884 367.48944298 -132.95683324 364.9366753 -132.95236969 362.38390541 C-132.93870287 354.39088468 -132.92903196 346.39787416 -132.9251678 338.40484256 C-132.92068748 329.18895554 -132.90313741 319.97321686 -132.8741672 310.75737494 C-132.85253023 303.62599485 -132.84246246 296.49465644 -132.84112668 289.36324388 C-132.84008019 285.10743742 -132.83420557 280.85177057 -132.81630707 276.59599876 C-132.79979122 272.59126827 -132.79768782 268.58678182 -132.80644608 264.58202934 C-132.80721455 263.11633906 -132.80289886 261.65063546 -132.79298782 260.18497849 C-132.55135713 247.67310273 -132.55135713 247.67310273 -138.2890625 236.9453125 C-145.72181807 232.90577143 -152.6155877 233.54662353 -158.4765625 239.8828125 Z M-1.1640625 431.3828125 C-1.23893489 436.0417948 -1.29300082 440.70041705 -1.32885742 445.35986328 C-1.34382521 446.94065461 -1.36420687 448.52140528 -1.39038086 450.10205078 C-1.62457636 464.62217194 -0.13840426 476.09613262 10.1484375 487.1328125 C16.92993411 493.52138978 24.60117949 495.81002371 33.8359375 496.3828125 C44.63625748 495.8151407 52.77677368 491.26235388 60.11328125 483.48828125 C66.34380467 475.87319707 68.17274378 466.79226543 68.03125 457.1640625 C68.0284201 456.42071655 68.02559021 455.67737061 68.02267456 454.91149902 C68.01159907 452.56843033 67.98651978 450.22576303 67.9609375 447.8828125 C67.95089131 446.28125557 67.94176835 444.67969257 67.93359375 443.078125 C67.9117014 439.179536 67.87726136 435.28124198 67.8359375 431.3828125 C63.8759375 431.7128125 59.9159375 432.0428125 55.8359375 432.3828125 C55.82135498 433.24447021 55.80677246 434.10612793 55.79174805 434.99389648 C55.73020881 438.23155625 55.65596967 441.46862178 55.57348633 444.70581055 C55.54050442 446.09925612 55.51239183 447.49282672 55.48950195 448.88647461 C55.18268872 467.07984665 55.18268872 467.07984665 49.6484375 474.1953125 C43.4693584 479.00126291 38.46468423 481.10271727 30.51171875 480.76171875 C23.79740805 479.81093315 19.47558982 476.53482238 15.0625 471.5546875 C10.7656491 463.94625088 11.409965 454.84977418 11.2109375 446.3828125 C11.17268098 445.02211252 11.13362502 443.66143476 11.09375 442.30078125 C10.99996682 438.9949243 10.91426361 435.68906576 10.8359375 432.3828125 C6.8759375 432.0528125 2.9159375 431.7228125 -1.1640625 431.3828125 Z M26.8359375 432.3828125 C26.7550258 436.77901474 26.69547177 441.17372847 26.6484375 445.5703125 C26.62330078 446.81619141 26.59816406 448.06207031 26.57226562 449.34570312 C26.56259766 450.54775391 26.55292969 451.74980469 26.54296875 452.98828125 C26.5272583 454.09324951 26.51154785 455.19821777 26.49536133 456.33666992 C26.91114197 460.05544776 28.17189394 462.71876894 30.8359375 465.3828125 C33.20815706 465.88416449 33.20815706 465.88416449 35.8359375 465.3828125 C38.55792834 462.70329464 39.73834639 461.05718803 40.29003906 457.24487305 C40.2690918 456.09801025 40.24814453 454.95114746 40.2265625 453.76953125 C40.21367187 452.52236328 40.20078125 451.27519531 40.1875 449.99023438 C40.15398437 448.69666016 40.12046875 447.40308594 40.0859375 446.0703125 C40.06789063 444.75740234 40.04984375 443.44449219 40.03125 442.09179688 C39.98417159 438.85515635 39.9124305 435.61889147 39.8359375 432.3828125 C35.5459375 432.3828125 31.2559375 432.3828125 26.8359375 432.3828125 Z " fill="#000000" transform="translate(347.1640625,0.6171875)"/>
</svg>
