<?xml version="1.0" standalone="no"?>
<!DOCTYPE svg PUBLIC "-//W3C//DTD SVG 20010904//EN"
 "http://www.w3.org/TR/2001/REC-SVG-20010904/DTD/svg10.dtd">
<svg version="1.0" xmlns="http://www.w3.org/2000/svg"
 width="512.000000pt" height="512.000000pt" viewBox="0 0 512.000000 512.000000"
 preserveAspectRatio="xMidYMid meet">

<g transform="translate(0.000000,512.000000) scale(0.100000,-0.100000)"
fill="#000000" stroke="none">
<path d="M425 5109 c-126 -26 -258 -117 -334 -230 -111 -166 -113 -400 -7
-569 34 -53 34 -55 19 -90 -121 -285 -129 -497 -27 -792 85 -248 244 -502 354
-567 40 -23 57 -26 163 -30 105 -3 118 -5 112 -20 -4 -9 -10 -100 -12 -203
l-6 -186 26 -26 c32 -32 71 -33 101 -3 22 22 23 32 29 208 3 101 9 194 13 207
6 22 9 22 160 22 l153 0 33 -29 c90 -78 179 -113 287 -113 129 1 233 68 288
189 13 29 27 69 30 90 5 33 27 60 155 189 129 130 156 153 188 158 186 30 314
201 283 379 -13 77 -50 155 -104 219 l-39 47 0 150 c0 82 4 152 9 155 5 3 73
10 152 15 138 8 144 9 166 35 29 34 29 56 1 91 l-22 28 -153 -6 -153 -5 0 104
c0 153 -24 195 -170 304 -214 158 -515 272 -754 286 -106 7 -211 -6 -233 -29
-24 -24 -26 -71 -5 -97 20 -24 23 -25 169 -26 151 0 210 -10 334 -53 96 -33
119 -49 141 -98 35 -80 7 -188 -64 -248 -33 -28 -34 -28 -133 -9 -70 13 -116
-80 -62 -123 13 -10 71 -33 130 -52 l106 -35 7 -43 c3 -24 5 -45 3 -47 -2 -1
-40 -22 -84 -46 -305 -164 -572 -427 -745 -733 -35 -61 -65 -113 -66 -115 -1
-2 -21 0 -44 5 l-41 8 -35 107 c-41 126 -58 151 -104 151 -41 0 -85 -44 -76
-77 4 -12 9 -41 12 -66 6 -40 3 -50 -21 -78 -75 -89 -219 -103 -290 -28 -59
62 -124 342 -110 471 8 72 29 158 57 232 l20 55 77 -75 c100 -98 151 -133 229
-157 91 -28 189 -26 277 6 39 15 85 25 105 23 129 -11 193 10 240 78 22 33 25
47 26 137 0 69 6 112 16 136 30 65 41 157 28 229 -20 116 -60 181 -208 332
-149 154 -209 199 -308 236 -79 28 -209 38 -289 22z m269 -177 c75 -35 221
-171 232 -215 14 -60 -37 -117 -105 -117 -41 0 -75 -43 -66 -85 18 -83 17
-110 -5 -132 -27 -30 -66 -39 -105 -24 -51 18 -81 14 -104 -15 -12 -15 -21
-40 -21 -56 0 -66 -64 -109 -123 -84 -45 19 -169 151 -200 212 -74 147 -46
326 70 442 113 112 282 142 427 74z m1358 -239 c94 -72 88 -41 88 -440 l0
-352 51 -58 c28 -32 60 -75 70 -95 39 -77 34 -163 -12 -222 -28 -36 -39 -32
-39 13 0 50 -22 112 -55 156 -28 36 -97 75 -133 75 -26 0 -20 -27 -82 349 -28
167 -55 312 -60 322 -6 10 -17 22 -26 27 -14 8 -12 15 15 52 36 50 71 154 71
211 l0 39 28 -17 c15 -9 53 -37 84 -60z m-972 -189 c13 -61 1 -126 -37 -198
-20 -41 -24 -57 -18 -90 23 -128 9 -149 -82 -122 l-59 18 -65 -32 c-46 -24
-82 -34 -130 -38 -63 -4 -139 10 -139 27 0 4 13 17 30 29 16 12 40 40 52 61
20 36 26 39 76 44 111 12 201 102 210 211 4 48 7 54 39 72 20 10 49 36 66 56
35 44 41 40 57 -38z m745 -610 l33 -199 -213 -215 -214 -214 -206 33 -205 34
37 68 c144 261 400 517 663 662 35 20 66 35 68 33 2 -2 18 -93 37 -202z m214
-300 c25 -31 28 -92 7 -132 -16 -29 -345 -359 -386 -386 -44 -29 -138 -12
-153 28 -4 10 78 98 246 265 138 138 255 251 259 251 3 0 16 -12 27 -26z
m-1017 -413 l327 -54 6 -37 c16 -96 124 -180 231 -180 41 0 43 -12 7 -38 -88
-62 -193 -42 -308 56 l-60 52 -352 0 -352 0 -36 32 c-40 35 -130 156 -122 164
3 3 32 9 65 14 66 9 172 52 197 80 15 17 17 16 43 -9 25 -24 50 -30 354 -80z"/>
<path d="M3669 5106 c-154 -33 -326 -134 -509 -299 -104 -94 -282 -285 -328
-353 -34 -50 -46 -90 -182 -609 -86 -326 -120 -470 -117 -496 19 -148 192
-264 320 -215 50 19 249 213 266 260 20 52 13 124 -19 191 l-30 62 81 174 c45
96 94 202 110 237 l28 63 63 -32 c283 -142 553 -403 709 -686 23 -41 39 -76
38 -77 -2 -2 -41 -10 -86 -19 l-83 -16 -46 49 c-25 27 -65 58 -88 70 -49 23
-122 26 -169 6 -18 -7 -84 -67 -148 -132 -122 -124 -139 -153 -139 -234 0 -41
32 -115 63 -148 12 -13 40 -34 62 -45 39 -21 53 -22 417 -25 l377 -3 8 -37
c10 -48 10 -416 0 -465 l-8 -37 -359 0 c-302 0 -367 -3 -406 -16 l-47 -16
-146 145 c-80 80 -156 150 -168 156 -12 6 -44 11 -71 11 -66 0 -86 -16 -313
-246 -272 -275 -272 -274 -38 -503 l149 -146 -14 -40 c-23 -61 -23 -1129 -1
-1183 57 -137 384 -331 695 -414 101 -27 132 -31 255 -32 154 -1 234 16 385
78 l75 32 50 -33 c232 -153 564 -82 721 154 114 172 118 398 10 573 l-36 58
31 68 c127 280 105 595 -66 949 -82 169 -199 329 -275 374 -40 23 -57 26 -162
30 l-117 3 7 32 c4 17 7 123 7 236 0 113 -3 219 -7 236 l-7 32 117 3 c105 4
122 7 162 30 74 44 210 226 210 281 0 50 -53 82 -104 62 -9 -3 -40 -41 -70
-83 -29 -42 -70 -91 -90 -109 l-37 -32 -164 0 -165 0 0 114 0 113 76 13 c50 9
85 21 99 34 15 13 38 67 64 144 39 121 42 125 113 200 100 105 206 232 266
320 l51 74 10 -39 c30 -117 17 -279 -33 -438 -33 -103 -33 -128 0 -154 59 -47
103 -18 138 90 79 245 80 448 4 666 l-21 61 26 79 c37 114 50 194 50 318 -1
132 -22 208 -83 302 -102 155 -270 243 -466 243 -82 0 -221 -25 -315 -56 -72
-23 -79 -24 -115 -10 -146 57 -339 78 -465 52z m248 -147 c35 -6 63 -14 63
-18 0 -3 -33 -28 -72 -55 -119 -82 -230 -180 -493 -433 l-250 -240 -55 -123
c-30 -67 -61 -125 -67 -127 -10 -4 -179 34 -191 43 -9 6 83 325 106 364 36 62
340 365 442 440 186 137 337 180 517 149z m785 -10 c195 -65 287 -231 258
-461 -33 -264 -161 -484 -470 -813 -77 -82 -80 -86 -112 -190 -27 -87 -37
-109 -56 -116 -53 -20 -65 -13 -113 75 l-45 83 132 136 c203 210 222 265 186
538 -12 90 -22 176 -22 190 0 42 -32 67 -97 74 -32 3 -109 13 -171 22 -147 21
-251 14 -327 -21 -43 -19 -91 -59 -196 -163 l-140 -138 -55 30 c-31 17 -58 33
-60 37 -4 6 206 215 336 333 170 154 332 267 470 326 179 76 362 99 482 58z
m-492 -617 l104 -17 17 -120 c9 -66 15 -121 14 -123 -2 -2 -31 11 -65 28 -59
30 -63 31 -116 19 -30 -7 -56 -10 -59 -7 -3 2 0 20 5 39 16 53 11 91 -15 134
-45 72 -44 73 115 47z m-268 -72 c22 -49 25 -66 17 -93 -5 -17 -9 -51 -9 -75
0 -107 65 -154 186 -134 61 10 68 9 127 -17 l62 -28 -125 -127 -125 -126 -53
69 c-57 75 -265 280 -325 321 -20 14 -37 27 -37 31 0 9 236 239 246 239 5 0
21 -27 36 -60z m-1032 -425 c36 -9 66 -18 68 -20 2 -2 -13 -38 -32 -80 -20
-43 -36 -86 -36 -96 0 -10 16 -47 35 -82 19 -35 35 -75 35 -88 0 -17 -26 -50
-89 -113 -82 -82 -91 -88 -119 -81 -31 6 -92 65 -92 87 0 6 23 97 51 202 81
307 78 298 97 292 9 -3 46 -12 82 -21z m838 -571 c12 -8 40 -40 62 -70 22 -29
50 -56 63 -59 12 -3 66 3 121 15 54 11 104 20 112 20 11 0 14 -21 14 -95 l0
-95 -290 0 -291 0 -24 25 c-45 44 -35 68 72 176 100 103 119 112 161 83z
m-536 -981 l138 -138 -6 -50 c-11 -95 5 -127 134 -258 l116 -117 -97 -98 -97
-97 -113 111 c-101 101 -118 114 -171 129 -44 13 -67 15 -96 7 l-38 -9 -143
143 -144 144 185 185 c102 102 187 185 190 185 3 0 67 -62 142 -137z m608
-255 c0 -124 -15 -167 -64 -189 -41 -19 -68 -3 -169 99 -107 109 -117 133 -72
177 23 24 29 25 165 25 l140 0 0 -112z m820 76 c88 -79 218 -314 275 -494 35
-114 58 -269 50 -345 -8 -72 -29 -158 -57 -232 l-20 -54 -126 123 c-255 250
-405 332 -609 333 -51 0 -93 0 -93 1 0 0 28 43 63 95 34 53 78 126 97 162 29
56 39 67 60 66 52 -1 61 -12 96 -121 19 -59 42 -116 52 -128 33 -41 110 -22
127 31 9 27 -82 300 -108 324 -17 15 -80 31 -250 65 l-227 44 0 83 0 83 315 0
315 0 40 -36z m-541 -310 c7 -6 -80 -153 -141 -240 -74 -104 -205 -244 -303
-324 -107 -87 -318 -220 -331 -208 -2 2 -10 35 -18 74 -14 63 -14 70 1 79 60
37 123 117 123 157 0 24 332 345 375 363 45 18 100 66 120 106 l14 26 78 -15
c43 -8 80 -16 82 -18z m-1016 -175 c12 -6 59 -48 104 -92 92 -90 112 -130 91
-174 -21 -44 -51 -53 -180 -53 l-118 0 0 134 c0 74 3 142 6 151 4 10 21 23 38
31 38 16 33 16 59 3z m1146 -339 c57 -11 151 -48 151 -60 0 -4 -16 -11 -36
-15 -20 -3 -60 -17 -90 -30 -49 -22 -58 -23 -126 -13 -65 10 -78 16 -115 51
-24 23 -40 43 -38 46 8 7 126 29 166 30 20 1 59 -3 88 -9z m-1085 -147 c3 -10
24 -114 47 -231 25 -128 49 -221 58 -232 15 -17 278 -110 312 -110 33 0 69 40
69 75 0 46 -28 65 -152 105 -57 17 -105 34 -107 36 -2 2 -7 21 -11 43 l-7 41
91 49 c50 27 125 72 166 100 l75 50 6 -112 c13 -213 87 -349 327 -599 63 -65
113 -120 111 -123 -11 -10 -162 -55 -223 -66 -242 -42 -677 109 -883 307 l-43
41 0 321 0 322 79 0 c67 0 80 -3 85 -17z m806 -108 c0 -22 4 -55 10 -74 7 -26
5 -41 -9 -70 -10 -20 -25 -56 -32 -81 -7 -25 -15 -49 -19 -53 -11 -12 -50 100
-60 170 -8 59 1 177 16 216 6 16 12 13 50 -24 38 -37 44 -49 44 -84z m647 11
c69 -38 292 -265 326 -332 135 -269 -79 -581 -377 -550 -108 11 -173 50 -316
193 -161 160 -184 201 -179 327 3 70 9 93 37 146 34 66 38 94 22 149 -5 19 -8
37 -5 39 3 3 29 0 59 -7 52 -11 57 -11 107 15 94 47 120 54 199 51 60 -3 86
-9 127 -31z"/>
<path d="M741 2185 c-48 -22 -244 -189 -386 -330 -157 -156 -245 -268 -303
-384 -46 -93 -47 -95 -45 -185 2 -106 34 -246 82 -350 l31 -68 -36 -58 c-108
-175 -104 -401 10 -573 104 -157 299 -251 484 -234 84 8 180 40 240 80 l47 32
82 -33 c134 -53 227 -74 338 -76 93 -1 105 1 168 31 107 51 211 129 346 258
111 108 275 286 356 388 l30 39 106 -16 c59 -9 163 -16 232 -16 124 0 126 0
146 26 27 35 26 57 -3 91 -24 27 -25 28 -177 34 -162 7 -289 25 -289 40 0 5
-55 123 -123 262 l-123 252 53 110 c65 136 87 219 80 300 -5 72 -24 111 -80
172 -65 70 -117 96 -206 101 -66 4 -89 0 -168 -27 -51 -16 -124 -46 -162 -65
l-69 -35 -249 121 c-228 111 -253 122 -313 125 -43 2 -76 -2 -99 -12z m343
-247 c127 -61 232 -112 234 -114 2 -1 -2 -39 -9 -84 -9 -67 -14 -80 -27 -75
-15 5 -329 102 -363 111 -21 6 -65 -25 -204 -142 -109 -91 -115 -98 -115 -133
0 -38 17 -61 53 -74 27 -10 56 6 147 83 47 39 97 80 112 91 l27 19 54 -82
c141 -217 328 -403 555 -553 39 -26 72 -51 72 -54 0 -3 -43 -57 -95 -119 -78
-94 -95 -120 -95 -147 0 -24 7 -39 26 -54 30 -24 44 -26 76 -10 28 14 227 251
240 288 9 21 0 59 -46 205 -31 98 -55 184 -53 190 5 16 145 35 156 22 4 -6 59
-115 120 -243 83 -170 111 -237 106 -253 -18 -57 -316 -378 -469 -505 -123
-103 -219 -155 -285 -155 -79 0 -311 60 -311 80 0 3 23 28 51 55 79 76 135
158 159 231 32 94 26 232 -14 324 -31 71 -30 66 -20 161 9 90 -10 131 -72 155
-38 14 -54 15 -111 6 -59 -10 -70 -9 -104 9 -72 36 -146 49 -278 48 l-126 -1
-121 -120 -122 -120 -20 55 c-35 93 -54 179 -55 252 -2 80 17 123 99 235 64
88 272 299 419 426 93 80 127 104 149 104 17 0 126 -47 260 -112z m596 -153
c-112 -112 -154 -148 -183 -156 -20 -5 -41 -8 -45 -5 -5 3 -2 48 7 100 l15 94
87 42 c110 52 161 68 219 69 l45 1 -145 -145z m257 -24 c-6 -66 -77 -242 -112
-277 -15 -15 -40 -23 -86 -28 -35 -4 -74 -10 -86 -13 -20 -5 -23 -1 -23 27 0
17 5 41 11 53 14 27 280 297 293 297 5 0 6 -27 3 -59z m-645 -255 c46 -14 107
-28 136 -32 l52 -7 0 -42 c0 -23 13 -86 30 -140 16 -55 27 -101 25 -103 -13
-13 -218 178 -301 279 -56 69 -65 85 -39 75 8 -3 52 -17 97 -30z m-463 -482
c72 -34 76 -34 128 -23 29 7 55 10 58 7 3 -2 0 -20 -5 -39 -16 -55 -12 -83 23
-149 27 -53 33 -76 36 -146 3 -73 0 -90 -24 -141 l-27 -58 -24 83 c-39 133
-128 292 -240 427 -73 87 -74 89 -33 81 19 -3 67 -22 108 -42z m-159 -177
c161 -211 226 -401 177 -519 -34 -82 -160 -162 -273 -174 -247 -26 -457 197
-414 438 19 104 51 151 204 306 l141 144 53 -59 c29 -32 80 -93 112 -136z"/>
</g>
</svg>
