<?xml version="1.0" encoding="UTF-8"?>
<svg version="1.1" xmlns="http://www.w3.org/2000/svg" width="512" height="512">
<path d="M0 0 C8.47776817 6.05554869 13.77427029 14.1975663 15.5390625 24.4921875 C16.49566642 35.28055394 15.3624808 45.00411959 8.32421875 53.546875 C0.89259236 61.64523374 -5.92715361 66.71783712 -17.109375 67.8671875 C-24.54839312 68.10861608 -30.43534942 67.34753305 -37.19140625 64.171875 C-39.41901512 63.25212887 -39.41901512 63.25212887 -41.36785889 64.22897339 C-43.66188606 65.61346391 -45.33211655 67.12302274 -47.21972656 69.02392578 C-47.94017151 69.74452179 -48.66061646 70.4651178 -49.40289307 71.20755005 C-50.16970398 71.98468353 -50.93651489 72.76181702 -51.7265625 73.5625 C-52.51996033 74.35872772 -53.31335815 75.15495544 -54.13079834 75.97531128 C-56.66224453 78.51794698 -59.18664553 81.06745098 -61.7109375 83.6171875 C-63.42662367 85.34290503 -65.14276412 87.06817105 -66.859375 88.79296875 C-71.06517998 93.02081782 -75.26522257 97.25432619 -79.4609375 101.4921875 C-78.5053651 102.61477118 -77.54869079 103.73641695 -76.59155273 104.85766602 C-75.79260841 105.79474144 -75.79260841 105.79474144 -74.9775238 106.75074768 C-73.24477882 108.74039449 -71.42058475 110.59671436 -69.5234375 112.4296875 C-65.62207974 116.28696212 -62.02537706 120.32453509 -58.4609375 124.4921875 C-57.55521556 125.53431335 -56.64891947 126.57594035 -55.7421875 127.6171875 C11.21090294 204.74662076 11.21090294 204.74662076 8.5390625 245.4921875 C6.54350044 259.79840004 -4.98890129 268.41863859 -15.79467773 276.67529297 C-47.33873069 300.14742509 -84.40360119 312.70605406 -123.7109375 312.7421875 C-124.4687149 312.74319458 -125.22649231 312.74420166 -126.00723267 312.74523926 C-143.49600619 312.72953085 -159.6857652 310.49932226 -176.4609375 305.4921875 C-170.34583765 314.19656386 -164.20286718 322.87817363 -157.9609375 331.4921875 C-152.23640048 339.39518625 -146.59296057 347.35246824 -140.97998047 355.33496094 C-139.38453363 357.60069032 -137.78462712 359.86321519 -136.18359375 362.125 C-135.37450562 363.26859985 -135.37450562 363.26859985 -134.54907227 364.43530273 C-133.52275461 365.88571599 -132.49593409 367.33577361 -131.46850586 368.78540039 C-130.1265687 370.68348487 -128.79215647 372.58657554 -127.4609375 374.4921875 C-126.86164429 375.33922241 -126.86164429 375.33922241 -126.25024414 376.20336914 C-124.4815756 378.75785039 -123.46796049 380.4539512 -122.8984375 383.5546875 C-123.6887401 387.68182329 -125.14431774 388.9332546 -128.4609375 391.4921875 C-131.59953972 392.21909463 -134.66379134 392.1631362 -137.87414551 392.12037659 C-138.8263575 392.12747097 -139.7785695 392.13456536 -140.7596364 392.14187473 C-143.95279745 392.15948761 -147.14474661 392.14133257 -150.33789062 392.12329102 C-152.6260585 392.12842855 -154.91422243 392.13570857 -157.20237732 392.14497375 C-163.41930937 392.16351681 -169.63581355 392.15053047 -175.85272789 392.13088346 C-182.35401295 392.11451983 -188.85527042 392.12330667 -195.35656738 392.12840271 C-206.27505495 392.13292621 -217.19336733 392.11714208 -228.11181641 392.08911133 C-239.34463616 392.0602739 -250.57721198 392.05319035 -261.81005859 392.06860352 C-275.34771367 392.0871538 -288.88517588 392.08542806 -302.4228363 392.06638908 C-307.59340934 392.05951042 -312.76389172 392.06055945 -317.9344635 392.06793404 C-324.02155626 392.07558623 -330.10829697 392.06350511 -336.19532967 392.03608513 C-338.43145261 392.02918909 -340.66760836 392.0291163 -342.90373039 392.03630066 C-345.9521251 392.0449673 -348.99942638 392.02908582 -352.04772949 392.0068512 C-352.93634564 392.01509196 -353.82496179 392.02333273 -354.7405057 392.03182322 C-358.77895266 391.97731455 -360.96305229 391.7861266 -364.50775909 389.69341946 C-366.4609375 387.4921875 -366.4609375 387.4921875 -367.125 383.7578125 C-366.77100215 378.54176253 -363.99087037 375.22358343 -360.8359375 371.2421875 C-359.63361182 369.65501144 -358.43315623 368.06641735 -357.234375 366.4765625 C-356.61014648 365.65865234 -355.98591797 364.84074219 -355.34277344 363.99804688 C-352.2705783 359.90710099 -349.37179081 355.69866072 -346.4609375 351.4921875 C-341.49916651 344.36710081 -336.45701158 337.30673233 -331.35546875 330.28125 C-327.3304679 324.72616408 -323.38321369 319.12017762 -319.4609375 313.4921875 C-314.49654763 306.36889078 -309.457049 299.30678388 -304.35546875 292.28125 C-299.73219015 285.90045387 -295.21504153 279.44866302 -290.71337891 272.98168945 C-286.13687753 266.42050045 -281.46803336 259.93038902 -276.72265625 253.49023438 C-273.6554286 249.291523 -270.95485644 245.05641713 -268.4609375 240.4921875 C-268.96302734 239.83371826 -269.46511719 239.17524902 -269.98242188 238.49682617 C-298.32885682 200.54907166 -307.38704593 152.79245692 -301.4609375 106.4921875 C-296.23911309 71.41677763 -280.36778499 39.71270488 -256.48046875 13.75 C-254.84715449 11.92397362 -253.40326287 10.08985244 -251.9609375 8.1171875 C-246.94721497 2.85277884 -241.86086457 1.34022703 -234.62353516 0.9675293 C-194.55141296 0.26633502 -155.61415025 34.11166988 -126.4609375 58.4921875 C-125.93419434 58.93256348 -125.40745117 59.37293945 -124.86474609 59.82666016 C-114.00898135 68.93384534 -103.41003845 78.3945925 -93.4609375 88.4921875 C-90.27833899 87.08709651 -88.14745284 85.42297408 -85.70214844 82.96044922 C-84.98170349 82.23985321 -84.26125854 81.5192572 -83.51898193 80.77682495 C-82.75217102 79.99969147 -81.98536011 79.22255798 -81.1953125 78.421875 C-80.40191467 77.62564728 -79.60851685 76.82941956 -78.79107666 76.00906372 C-76.25963047 73.46642802 -73.73522947 70.91692402 -71.2109375 68.3671875 C-69.49525133 66.64146997 -67.77911088 64.91620395 -66.0625 63.19140625 C-61.85669502 58.96355718 -57.65665243 54.73004881 -53.4609375 50.4921875 C-53.74352417 49.74965225 -54.02611084 49.007117 -54.31726074 48.24208069 C-54.68371704 47.26121994 -55.05017334 46.28035919 -55.42773438 45.26977539 C-55.79282104 44.30036514 -56.15790771 43.3309549 -56.53405762 42.33216858 C-57.7970546 38.46231704 -58.07119197 34.97123275 -57.9609375 30.9296875 C-57.94885254 30.20080322 -57.93676758 29.47191895 -57.92431641 28.72094727 C-57.54427207 18.35495008 -53.23053502 9.86388174 -45.6484375 2.8046875 C-32.32146323 -7.9428724 -14.61910103 -8.95709999 0 0 Z M-36.25390625 16.43359375 C-41.29121984 22.93065143 -42.26391443 28.3285887 -41.4609375 36.4921875 C-39.83509561 41.82919023 -37.22735172 45.49932276 -32.4609375 48.4921875 C-26.00946543 51.90051237 -20.31523676 52.54853323 -13.3984375 50.4921875 C-7.68193616 48.12440588 -4.09312889 43.25981637 -1.0234375 38.0546875 C0.38856406 31.62223596 0.14214511 26.15205234 -3.125 20.34765625 C-6.3917046 15.81056653 -10.94415197 11.77516088 -16.4609375 10.4921875 C-24.23228738 9.62870418 -30.76672487 10.49213592 -36.25390625 16.43359375 Z M-241.4609375 21.4921875 C-245.36651878 37.62920161 -232.37415957 58.35725536 -224.4609375 71.4921875 C-216.36650822 84.2301909 -207.59501869 96.48248108 -198.4609375 108.4921875 C-197.70272705 109.48931763 -197.70272705 109.48931763 -196.92919922 110.5065918 C-182.190809 129.74976682 -165.68172247 147.34403866 -148.5859375 164.4921875 C-147.84745575 165.2346875 -147.84745575 165.2346875 -147.09405518 165.9921875 C-141.93528491 171.17226877 -136.7360387 176.25771106 -131.18164062 181.01660156 C-128.78225187 183.07419316 -126.46998856 185.22255091 -124.1484375 187.3671875 C-118.74435433 192.28401727 -113.18546612 196.95471241 -107.4609375 201.4921875 C-106.45619385 202.28979492 -106.45619385 202.28979492 -105.43115234 203.10351562 C-95.99800816 210.56994414 -86.52571784 217.88971325 -76.4609375 224.4921875 C-75.75356445 224.95866699 -75.04619141 225.42514648 -74.31738281 225.90576172 C-46.02553346 245.08419815 -46.02553346 245.08419815 -13.4609375 251.4921875 C-10.86206497 250.64930992 -9.82915777 249.98928487 -8.2109375 247.8046875 C-4.28768979 235.70800705 -12.08298771 221.12899222 -17.4609375 210.4921875 C-36.71438845 174.43734111 -63.41762453 142.97421892 -91.4609375 113.4921875 C-98.57232507 119.35204847 -104.90921582 125.91348481 -111.34179688 132.5 C-112.19966797 133.36882812 -113.05753906 134.23765625 -113.94140625 135.1328125 C-114.71379639 135.92204102 -115.48618652 136.71126953 -116.28198242 137.52441406 C-118.32836666 139.37246526 -119.88592754 140.54406127 -122.4609375 141.4921875 C-126.0859375 141.3046875 -126.0859375 141.3046875 -129.4609375 140.4921875 C-132.0818777 136.5607772 -132.27845252 135.17431896 -131.4609375 130.4921875 C-128.93195308 126.73811431 -125.66282836 123.66705818 -122.4609375 120.4921875 C-120.9250818 118.9447043 -119.38998953 117.3964632 -117.85546875 115.84765625 C-113.41129271 111.37487342 -108.94292395 106.92705619 -104.4609375 102.4921875 C-105.80253057 99.47810783 -107.25400439 97.48486157 -109.6640625 95.2421875 C-110.62892578 94.33895752 -110.62892578 94.33895752 -111.61328125 93.41748047 C-112.65162109 92.46446045 -112.65162109 92.46446045 -113.7109375 91.4921875 C-114.42894531 90.82719238 -115.14695312 90.16219727 -115.88671875 89.47705078 C-122.59436283 83.30028065 -129.45449619 77.32644127 -136.4609375 71.4921875 C-137.07904297 70.97446777 -137.69714844 70.45674805 -138.33398438 69.92333984 C-181.67576204 32.38971261 -181.67576204 32.38971261 -234.53515625 17.05859375 C-238.02378311 17.84406552 -239.38987062 18.5236583 -241.4609375 21.4921875 Z M-256.4609375 39.4921875 C-280.68927782 68.55411193 -290.27986379 111.02400805 -286.9921875 148.06640625 C-282.65468604 190.924804 -262.44661075 231.46136772 -229.1796875 259.2734375 C-210.32650396 274.64359763 -187.99548888 286.2354618 -164.3984375 292.2421875 C-163.62016602 292.44094482 -162.84189453 292.63970215 -162.04003906 292.84448242 C-149.66930933 295.82475013 -137.41494005 296.87215815 -124.7109375 296.8046875 C-124.0122757 296.80319702 -123.31361389 296.80170654 -122.59378052 296.8001709 C-111.62670402 296.7582264 -101.15239446 296.04194131 -90.4609375 293.4921875 C-89.19121094 293.20214844 -87.92148437 292.91210938 -86.61328125 292.61328125 C-65.81549504 287.47298042 -47.15606506 278.4363986 -29.4609375 266.4921875 C-31.70332743 264.24979757 -33.63984542 263.68762012 -36.61279297 262.74365234 C-61.24756432 254.88836141 -83.40864115 239.89382895 -103.54443359 223.99560547 C-105.32182698 222.60131395 -107.11399803 221.23073671 -108.91796875 219.87109375 C-120.79152031 210.91497253 -131.89778302 201.13523916 -142.78979492 191.01977539 C-144.03712108 189.87959719 -145.29723311 188.75337717 -146.5637207 187.63452148 C-153.41285941 181.56814148 -159.9111082 175.19552853 -166.36645508 168.71704102 C-168.1526842 166.925428 -169.94423097 165.13925695 -171.73632812 163.35351562 C-177.52477084 157.56873559 -183.18214849 151.7524104 -188.4609375 145.4921875 C-189.4096016 144.408528 -190.36007732 143.32645134 -191.3125 142.24609375 C-199.11301176 133.30339897 -206.38504627 124.01605649 -213.4609375 114.4921875 C-214.00927246 113.75419922 -214.55760742 113.01621094 -215.12255859 112.25585938 C-231.56397841 90.0249352 -248.18304313 66.52938928 -255.4609375 39.4921875 C-255.7909375 39.4921875 -256.1209375 39.4921875 -256.4609375 39.4921875 Z M-257.4609375 254.4921875 C-259.25670156 256.73689258 -260.99441739 259.0001078 -262.7109375 261.3046875 C-263.24452881 262.01810303 -263.77812012 262.73151855 -264.32788086 263.46655273 C-268.94561965 269.69326912 -273.32444783 276.06920742 -277.6706543 282.48706055 C-281.45389007 288.06101662 -285.35988495 293.5218263 -289.36962891 298.93432617 C-294.86423646 306.36089581 -300.1523072 313.93219041 -305.4609375 321.4921875 C-311.57759853 330.19558608 -317.72077093 338.8767617 -323.9609375 347.4921875 C-328.41018827 353.63600729 -332.83037866 359.79916584 -337.2109375 365.9921875 C-337.72462891 366.71664062 -338.23832031 367.44109375 -338.76757812 368.1875 C-341.30180071 371.72433237 -341.30180071 371.72433237 -343.4609375 375.4921875 C-278.7809375 375.4921875 -214.1009375 375.4921875 -147.4609375 375.4921875 C-150.66667261 369.81992693 -150.66667261 369.81992693 -154.23828125 364.50390625 C-154.74496338 363.8070874 -155.25164551 363.11026855 -155.77368164 362.39233398 C-156.30985107 361.66216064 -156.84602051 360.9319873 -157.3984375 360.1796875 C-158.56256067 358.58077333 -159.72662141 356.98181372 -160.890625 355.3828125 C-161.77959473 354.16561523 -161.77959473 354.16561523 -162.68652344 352.92382812 C-165.47653354 349.10042408 -168.25118054 345.26597544 -171.0234375 341.4296875 C-171.56154053 340.68549561 -172.09964355 339.94130371 -172.65405273 339.17456055 C-176.29021211 334.13731224 -179.88633059 329.07325694 -183.4609375 323.9921875 C-187.75934464 317.88347173 -192.09285297 311.80130249 -196.4609375 305.7421875 C-197.00105469 304.99130859 -197.54117188 304.24042969 -198.09765625 303.46679688 C-199.10305741 302.07518998 -200.11365914 300.68731983 -201.13037109 299.30395508 C-202.24771277 297.78252525 -203.34503149 296.24641869 -204.4375 294.70703125 C-206.95693868 291.94926729 -209.53544393 290.54556569 -212.8359375 288.8046875 C-228.4811911 280.24268004 -242.51771079 268.92573212 -254.8515625 256.07421875 C-256.20366937 254.3753504 -256.20366937 254.3753504 -257.4609375 254.4921875 Z " fill="#000000" transform="translate(381.4609375,113.5078125)"/>
<path d="M0 0 C17.26878518 5.97998906 32.32370582 14.62662134 46.22265625 26.50390625 C47.05410156 27.20128906 47.88554687 27.89867187 48.7421875 28.6171875 C55.00437905 34.03287696 60.18293683 39.94951706 65.22265625 46.50390625 C65.87878906 47.32117187 66.53492188 48.1384375 67.2109375 48.98046875 C83.85185197 70.52361654 93.3506385 98.32676981 93.72265625 125.50390625 C93.74118652 126.34679199 93.7597168 127.18967773 93.77880859 128.05810547 C93.73896194 131.87166463 93.67120247 133.87652156 91.41015625 137.0390625 C88.21821072 139.17652602 85.97696299 138.97319459 82.22265625 138.50390625 C79.03762055 136.74375494 78.38968653 136.00499709 77.22265625 132.50390625 C77.09148288 130.17193526 76.99251227 127.83811117 76.91015625 125.50390625 C75.3622287 95.24959264 62.85917303 68.34806772 42.22265625 46.50390625 C41.52527344 45.74207031 40.82789063 44.98023438 40.109375 44.1953125 C19.44102174 22.39341153 -10.32806643 12.21724165 -39.67041016 10.32543945 C-47.98203475 9.7007095 -47.98203475 9.7007095 -50.77734375 6.50390625 C-51.88107753 2.53046464 -52.19277958 0.41390853 -50.46484375 -3.37109375 C-42.40989839 -13.51435828 -10.63373696 -3.46002557 0 0 Z " fill="#000000" transform="translate(403.77734375,13.49609375)"/>
<path d="M0 0 C4.76278628 3.52901097 4.76278628 3.52901097 5.30712891 6.90454102 C5.26689347 9.15119362 5.07144543 11.33052581 4.8125 13.5625 C4.6749687 15.1873224 4.53955177 16.81232514 4.40625 18.4375 C4.3340625 19.22382813 4.261875 20.01015625 4.1875 20.8203125 C1.45135125 52.62804176 12.76442027 84.67514686 33 109 C34.2065625 110.37865234 34.2065625 110.37865234 35.4375 111.78515625 C36.2625 112.74292969 37.0875 113.70070313 37.9375 114.6875 C38.70964844 115.55761719 39.48179687 116.42773438 40.27734375 117.32421875 C42.34396283 120.53427333 42.49837834 122.24931766 42 126 C40 128.9375 40 128.9375 37 131 C32.93473804 131.26227496 30.62703192 131.12413115 27.28125 128.8125 C25.34632423 126.98709833 23.68601325 125.05914733 22 123 C21.2265625 122.06671875 20.453125 121.1334375 19.65625 120.171875 C-6.66035438 87.59454838 -16.04974691 48.49746911 -11.92578125 7.2578125 C-10.2280738 1.28360148 -6.04459604 -1.13336176 0 0 Z " fill="#000000" transform="translate(129,219)"/>
<path d="M0 0 C0.74958984 0.06050537 1.49917969 0.12101074 2.27148438 0.18334961 C25.59966805 2.39066825 46.9315066 13.50315433 62.10546875 31.3515625 C75.00952391 48.27409518 81.30988561 66.4809033 81.62109375 87.6015625 C81.125 91 81.125 91 79.3515625 93.43359375 C75.71260542 95.99363198 73.50271595 95.48641288 69.125 95 C66.45068511 93.18836733 66.16579641 92.12238923 65.125 89 C64.93444063 87.15240258 64.7467867 85.3044009 64.58178711 83.4543457 C62.80906713 64.55719261 55.61890299 47.48879441 41.35546875 34.47265625 C27.7866507 23.72559497 13.39105825 18.0884635 -3.87109375 17.05273438 C-7.67263757 16.70807017 -9.56421878 16.29096469 -12.38671875 13.6484375 C-13.875 11 -13.875 11 -13.9375 7.4375 C-11.70937391 0.22885677 -6.87855671 -0.6415517 0 0 Z " fill="#000000" transform="translate(365.875,57)"/>
</svg>
