<?xml version="1.0" encoding="UTF-8"?>
<svg version="1.1" xmlns="http://www.w3.org/2000/svg" width="512" height="512">
<path d="M0 0 C1.33461021 -0.0146228 1.33461021 -0.0146228 2.69618225 -0.02954102 C22.59213188 -0.20266312 41.80589538 0.05410039 61.34765625 4.23828125 C62.31638672 4.44146973 63.28511719 4.6446582 64.28320312 4.85400391 C85.26945259 9.3707946 85.26945259 9.3707946 90.78515625 16.30078125 C93.15086967 21.05269045 93.11262722 26.07082428 92.34765625 31.23828125 C90.02180939 36.15834192 87.02622017 38.5505956 82.34765625 41.23828125 C74.7971532 43.7551156 67.79017157 41.28747367 60.34765625 39.36328125 C6.84639061 26.10350169 -49.47121399 35.58176394 -96.64160156 63.98388672 C-144.00607541 93.53204925 -177.35271013 140.80388955 -189.96484375 195.11328125 C-201.41193482 248.68714688 -192.00102967 305.52909728 -162.34790039 351.80126953 C-149.82493554 370.75481262 -134.58485362 388.28311011 -116.65234375 402.23828125 C-116.11931641 402.65835449 -115.58628906 403.07842773 -115.03710938 403.51123047 C-98.19617079 416.69938708 -79.56146251 426.5284386 -59.65234375 434.23828125 C-58.65243408 434.6262085 -58.65243408 434.6262085 -57.63232422 435.02197266 C-8.4897851 453.64889253 47.9509156 450.45755683 95.70849609 429.44238281 C144.86165713 407.01653728 181.83315534 368.75578335 203.34765625 319.23828125 C203.79963379 318.2013916 203.79963379 318.2013916 204.26074219 317.14355469 C224.63649561 269.36013294 223.3150847 212.1522741 204.73608398 164.12548828 C199.25212995 150.65077625 192.24162534 137.73168539 184.55737305 125.39355469 C181.89265791 120.64600569 182.01821477 116.70309135 183.41015625 111.61328125 C185.32379031 106.42166292 188.38995932 103.71712971 193.34765625 101.23828125 C198.70297154 100.74924797 203.65011948 100.53364334 208.66015625 102.61328125 C239.78061464 133.01000805 251.98300614 191.15402923 252.67308044 232.79304504 C253.40214656 296.09145259 233.13302294 352.80420356 191.62597656 400.76025391 C190.46216005 402.10588897 189.30678079 403.45880959 188.15234375 404.8125 C184.4967787 409.03431924 180.71750559 412.84446047 176.44921875 416.4453125 C174.18567571 418.37647654 172.02481243 420.39789498 169.84765625 422.42578125 C159.26475615 431.95201697 147.64830061 440.09925479 135.34765625 447.23828125 C134.1625661 447.95019746 132.97767716 448.66244872 131.79296875 449.375 C106.9412042 464.08688247 78.89033553 473.8964613 50.34765625 478.23828125 C49.2275415 478.41343262 48.10742676 478.58858398 46.95336914 478.76904297 C35.64320307 480.37302756 24.44760643 480.63753179 13.03515625 480.61328125 C12.06888306 480.61273743 11.10260986 480.6121936 10.10705566 480.6116333 C-5.80315371 480.57059207 -21.05159042 479.59114188 -36.65234375 476.23828125 C-38.18810059 475.91682129 -38.18810059 475.91682129 -39.75488281 475.58886719 C-74.01529526 468.23128565 -107.21057439 453.12870272 -134.65234375 431.23828125 C-135.56113281 430.5215625 -136.46992188 429.80484375 -137.40625 429.06640625 C-151.48018033 417.77523028 -164.47257616 405.42072291 -175.65234375 391.23828125 C-176.45671875 390.23925781 -177.26109375 389.24023438 -178.08984375 388.2109375 C-184.15883793 380.5907665 -189.45622381 372.61223148 -194.44970703 364.25146484 C-195.22810476 362.94844664 -196.01255862 361.6490192 -196.80419922 360.35400391 C-229.10824275 307.3641607 -235.92473834 240.92204639 -221.65234375 181.23828125 C-210.56682512 138.48608707 -188.93716545 102.12697201 -158.65234375 70.23828125 C-157.86730469 69.41070312 -157.08226562 68.583125 -156.2734375 67.73046875 C-150.7706024 62.0799726 -144.83798085 57.12211537 -138.65234375 52.23828125 C-137.71132812 51.46871094 -136.7703125 50.69914062 -135.80078125 49.90625 C-98.24919367 19.87468319 -48.32864577 0.44355253 0 0 Z " fill="#000000" transform="translate(243.65234375,15.76171875)"/>
<path d="M0 0 C4.44980582 2.67172726 8.10490439 5.82495064 11.72998047 9.50292969 C12.26730301 10.03996017 12.80462555 10.57699066 13.35823059 11.1302948 C15.11600463 12.88945142 16.86660601 14.65556328 18.6171875 16.421875 C19.84128735 17.64970879 21.06583233 18.87709894 22.290802 20.10406494 C25.50095336 23.32182271 28.7050508 26.54554284 31.90789795 29.77056885 C35.18233879 33.06553273 38.46250636 36.35478479 41.7421875 39.64453125 C48.16705585 46.09079669 54.58553908 52.54337956 61 59 C64.91808929 57.41334527 67.53435148 54.72177105 70.43945312 51.75585938 C71.2353611 50.9555706 71.2353611 50.9555706 72.04734802 50.13911438 C73.19594376 48.98292229 74.34222355 47.82442584 75.48643494 46.66389465 C77.29779754 44.82696893 79.11536668 42.99639546 80.93469238 41.1673584 C84.79541535 37.28379399 88.6482581 33.39246938 92.5 29.5 C96.96378732 24.98901356 101.43074522 20.481267 105.90623474 15.98188782 C107.69622427 14.17893882 109.48008009 12.37006791 111.26379395 10.56091309 C112.36241432 9.45502687 113.46131691 8.34942092 114.56054688 7.24414062 C115.30098488 6.48820366 115.30098488 6.48820366 116.05638123 5.71699524 C120.32111586 1.4509605 123.27809712 -0.28964777 129.3125 -0.375 C136.13134325 -0.22953134 139.62649338 1.56563424 144.4375 6.5 C146.70046371 11.56903871 146.96715432 16.53842268 146 22 C143.3393631 26.45632888 140.17445626 30.10548896 136.49707031 33.72998047 C135.96003983 34.26730301 135.42300934 34.80462555 134.8697052 35.35823059 C133.11054858 37.11600463 131.34443672 38.86660601 129.578125 40.6171875 C128.35029121 41.84128735 127.12290106 43.06583233 125.89593506 44.290802 C122.67817729 47.50095336 119.45445716 50.7050508 116.22943115 53.90789795 C112.93446727 57.18233879 109.64521521 60.46250636 106.35546875 63.7421875 C99.90920331 70.16705585 93.45662044 76.58553908 87 83 C88.58665473 86.91808929 91.27822895 89.53435148 94.24414062 92.43945312 C94.77766647 92.97005844 95.31119232 93.50066376 95.86088562 94.04734802 C97.01707771 95.19594376 98.17557416 96.34222355 99.33610535 97.48643494 C101.17303107 99.29779754 103.00360454 101.11536668 104.8326416 102.93469238 C108.71620601 106.79541535 112.60753062 110.6482581 116.5 114.5 C121.01098644 118.96378732 125.518733 123.43074522 130.01811218 127.90623474 C131.82106118 129.69622427 133.62993209 131.48008009 135.43908691 133.26379395 C136.54497313 134.36241432 137.65057908 135.46131691 138.75585938 136.56054688 C139.25981735 137.05417221 139.76377533 137.54779755 140.28300476 138.05638123 C144.73516259 142.50718224 146.30034584 145.52761224 146.4375 151.8125 C146.34692972 156.7636754 145.75934685 159.91643831 142.46875 163.6640625 C137.63731196 168.05861518 133.05010546 168.36098911 126.78125 168.49609375 C120.73516909 167.41764954 116.4446949 162.73266929 112.27001953 158.49707031 C111.73269699 157.96003983 111.19537445 157.42300934 110.64176941 156.8697052 C108.88399537 155.11054858 107.13339399 153.34443672 105.3828125 151.578125 C104.15871265 150.35029121 102.93416767 149.12290106 101.709198 147.89593506 C98.49904664 144.67817729 95.2949492 141.45445716 92.09210205 138.22943115 C88.81766121 134.93446727 85.53749364 131.64521521 82.2578125 128.35546875 C75.83294415 121.90920331 69.41446092 115.45662044 63 109 C59.08191071 110.58665473 56.46564852 113.27822895 53.56054688 116.24414062 C53.02994156 116.77766647 52.49933624 117.31119232 51.95265198 117.86088562 C50.80405624 119.01707771 49.65777645 120.17557416 48.51356506 121.33610535 C46.70220246 123.17303107 44.88463332 125.00360454 43.06530762 126.8326416 C39.20458465 130.71620601 35.3517419 134.60753062 31.5 138.5 C27.03621268 143.01098644 22.56925478 147.518733 18.09376526 152.01811218 C16.30377573 153.82106118 14.51991991 155.62993209 12.73620605 157.43908691 C11.63758568 158.54497313 10.53868309 159.65057908 9.43945312 160.75585938 C8.94582779 161.25981735 8.45220245 161.76377533 7.94361877 162.28300476 C3.67888414 166.5490395 0.72190288 168.28964777 -5.3125 168.375 C-10.80025463 168.2506109 -13.69428289 167.42699933 -18 164 C-21.97187041 159.00970128 -22.45814464 155.04229275 -22.53125 148.74609375 C-21.36700704 142.72798495 -16.73047336 138.44253055 -12.49707031 134.27001953 C-11.96003983 133.73269699 -11.42300934 133.19537445 -10.8697052 132.64176941 C-9.11054858 130.88399537 -7.34443672 129.13339399 -5.578125 127.3828125 C-4.35029121 126.15871265 -3.12290106 124.93416767 -1.89593506 123.709198 C1.32182271 120.49904664 4.54554284 117.2949492 7.77056885 114.09210205 C11.06553273 110.81766121 14.35478479 107.53749364 17.64453125 104.2578125 C24.09079669 97.83294415 30.54337956 91.41446092 37 85 C35.41334527 81.08191071 32.72177105 78.46564852 29.75585938 75.56054688 C28.9555706 74.7646389 28.9555706 74.7646389 28.13911438 73.95265198 C26.98292229 72.80405624 25.82442584 71.65777645 24.66389465 70.51356506 C22.82696893 68.70220246 20.99639546 66.88463332 19.1673584 65.06530762 C15.28379399 61.20458465 11.39246938 57.3517419 7.5 53.5 C2.98901356 49.03621268 -1.518733 44.56925478 -6.01811218 40.09376526 C-7.82106118 38.30377573 -9.62993209 36.51991991 -11.43908691 34.73620605 C-12.54497313 33.63758568 -13.65057908 32.53868309 -14.75585938 31.43945312 C-15.25981735 30.94582779 -15.76377533 30.45220245 -16.28300476 29.94361877 C-20.5490395 25.67888414 -22.28964777 22.72190288 -22.375 16.6875 C-22.2506109 11.19974537 -21.42699933 8.30571711 -18 4 C-12.55483181 -0.33390937 -6.86995971 -1.32903915 0 0 Z " fill="#000000" transform="translate(194,172)"/>
<path d="M0 0 C1.38251953 -0.05607422 1.38251953 -0.05607422 2.79296875 -0.11328125 C9.18340702 0.78782841 14.52451211 5.3586292 19.5625 9.1875 C20.12582031 9.59613281 20.68914062 10.00476563 21.26953125 10.42578125 C25.88660152 13.92951543 28.34791482 17.33245812 29.24609375 23.09375 C29.25460479 29.01743458 28.95254919 32.72487793 24.8125 37.3125 C20.64605191 41.16646449 18.07571362 42.09488331 12.5625 42.625 C1.84502393 41.73187699 -7.12271444 32.83460427 -14.1875 25.3125 C-16.36975871 21.27532138 -16.57943178 17.85890869 -16.1875 13.3125 C-14.36448367 7.43833628 -12.02111931 4.80916077 -7.1875 1.3125 C-4.67302066 0.05526033 -2.80956063 0.07362986 0 0 Z " fill="#000000" transform="translate(383.1875,55.6875)"/>
</svg>
