<?xml version="1.0" encoding="UTF-8"?>
<svg version="1.1" xmlns="http://www.w3.org/2000/svg" width="512" height="512">
<path d="M0 0 C1.65695818 0.87028933 3.3237362 1.72181151 4.99121094 2.57177734 C20.45700358 10.61632692 34.95376663 20.34788293 48.78027344 30.93505859 C49.65111572 31.59755615 49.65111572 31.59755615 50.53955078 32.2734375 C72.84799219 49.29846425 94.63299031 68.4742588 112.78027344 89.93505859 C113.62460937 90.89025391 114.46894531 91.84544922 115.33886719 92.82958984 C128.02250506 107.23644258 139.52419501 122.71082968 149.78027344 138.93505859 C150.33158936 139.80445068 150.33158936 139.80445068 150.89404297 140.69140625 C155.86177178 148.59033568 160.40889733 156.72650213 164.84277344 164.93505859 C165.33253662 165.8195166 165.8222998 166.70397461 166.3269043 167.61523438 C168.94251132 172.54484575 170.59249355 176.20561399 169.78027344 181.93505859 C167.7885124 184.86045762 166.33103269 186.52235653 162.84277344 187.45068359 C159.03550356 187.76795608 159.03550356 187.76795608 156.78027344 186.93505859 C152.79256562 182.83519649 150.30582512 178.45926711 147.78027344 173.37255859 C139.76287602 157.77482507 130.29049341 142.96585878 119.78027344 128.93505859 C119.37744141 128.39478027 118.97460938 127.85450195 118.55957031 127.29785156 C105.70130357 110.10425004 91.32208567 94.4198789 76.21777344 79.18505859 C75.35555176 78.30978516 74.49333008 77.43451172 73.60498047 76.53271484 C67.64431183 70.5641453 61.36932715 65.19416921 54.78027344 59.93505859 C53.71828118 59.04742327 52.65992017 58.15538557 51.60839844 57.25537109 C43.95203246 50.73585946 35.99258656 44.73335329 27.78027344 38.93505859 C27.18907715 38.51756348 26.59788086 38.10006836 25.98876953 37.66992188 C2.88746321 21.5060603 -22.29412695 8.36506344 -49.21972656 -0.06494141 C-49.87602051 -0.27344727 -50.53231445 -0.48195313 -51.20849609 -0.69677734 C-73.6554252 -7.68970036 -98.4224911 -10.49575716 -120.34472656 -0.43994141 C-132.76619996 6.16099865 -140.28600903 15.38729551 -144.53222656 28.68505859 C-154.99427219 64.52970436 -138.76440186 103.57774046 -122.21972656 134.93505859 C-121.85153809 135.63953125 -121.48334961 136.34400391 -121.10400391 137.06982422 C-112.11818453 154.15162727 -101.21387126 169.83897992 -89.21972656 184.93505859 C-88.53394531 185.81419922 -87.84816406 186.69333984 -87.14160156 187.59912109 C-83.14315222 192.68376337 -78.95786573 197.54631674 -74.59082031 202.31787109 C-73.30489593 203.73726045 -72.02497551 205.1626644 -70.77978516 206.61791992 C-65.92517552 212.28259812 -60.74249785 217.59845027 -55.46923828 222.87084961 C-53.98079419 224.36147475 -52.5005538 225.85992876 -51.02050781 227.35888672 C-44.74726709 233.66854684 -38.19413556 239.39551118 -31.21972656 244.93505859 C-30.15748223 245.82239224 -29.09910436 246.71441751 -28.04785156 247.61474609 C-20.39148558 254.13425773 -12.43203968 260.1367639 -4.21972656 265.93505859 C-3.33293213 266.56130127 -3.33293213 266.56130127 -2.42822266 267.20019531 C26.36013231 287.34325467 58.2276417 303.01461554 92.78027344 309.93505859 C93.46573242 310.07314941 94.15119141 310.21124023 94.85742188 310.35351562 C114.29095076 314.07472424 135.03496311 312.04920262 151.78027344 300.93505859 C152.33328125 300.37947266 152.88628906 299.82388672 153.45605469 299.25146484 C154.78027344 297.93505859 154.78027344 297.93505859 156.78027344 297.93505859 C157.05097656 297.36013672 157.32167969 296.78521484 157.60058594 296.19287109 C158.79492533 293.90701623 160.16016649 291.90940566 161.65527344 289.81005859 C168.89466639 279.00394033 170.80404677 267.46280652 171.33886719 254.66162109 C171.96103712 250.81848292 173.45262033 247.9782146 176.53027344 245.56005859 C179.96235303 244.60670315 182.3584996 245.01851203 185.78027344 245.93505859 C188.31601956 248.47532476 189.63863692 250.14434763 190.27636719 253.70458984 C189.8469899 276.0035839 183.52985931 295.7618288 167.78027344 311.93505859 C166.94496094 312.84384766 166.10964844 313.75263672 165.24902344 314.68896484 C150.01764542 330.79390719 130.12475228 339.12306241 108.78027344 343.93505859 C108.05517578 344.10021973 107.33007812 344.26538086 106.58300781 344.43554688 C53.6170339 355.8376165 -3.62480943 338.72894736 -48.39550781 310.32568359 C-64.25341371 300.01416825 -78.89009321 288.17689364 -92.72900391 275.30810547 C-95.13615919 273.09096801 -97.58996787 270.92587962 -100.03222656 268.74755859 C-103.76273115 265.35812871 -107.18615107 261.89692634 -110.42675781 258.04052734 C-112.53766386 255.56170739 -114.75258698 253.19426678 -116.96972656 250.81005859 C-122.74847568 244.45518041 -128.06048566 237.79990672 -133.21972656 230.93505859 C-133.6913623 230.30921875 -134.16299805 229.68337891 -134.64892578 229.03857422 C-169.23852951 182.70045287 -192.97955014 123.73984478 -184.57910156 65.19921875 C-181.07620356 43.13000946 -172.49074574 22.48207904 -157.21972656 5.93505859 C-156.64158203 5.30776855 -156.0634375 4.68047852 -155.46777344 4.03417969 C-112.64093707 -41.83148866 -49.77742446 -26.18974267 0 0 Z M-166.21972656 63.93505859 C-175.80098823 113.29566558 -155.94158738 164.16420381 -129.34472656 204.99755859 C-113.06303523 228.91231649 -93.7352239 252.72269046 -70.95019531 270.75146484 C-69.16878242 272.17608546 -67.4188562 273.64126932 -65.70800781 275.14990234 C-55.37341808 284.21718472 -43.76750097 291.52426605 -32.21972656 298.93505859 C-31.54683594 299.37124512 -30.87394531 299.80743164 -30.18066406 300.25683594 C-3.88403923 317.10498741 31.72831052 329.25710792 63.21777344 329.03271484 C63.98331543 329.0312999 64.74885742 329.02988495 65.53759766 329.02842712 C67.95186486 329.02288712 70.36603487 329.01034639 72.78027344 328.99755859 C74.43001167 328.99253582 76.07975137 328.98797428 77.72949219 328.98388672 C81.74645599 328.97293745 85.76334831 328.95571525 89.78027344 328.93505859 C86.92124044 327.38881767 84.25693296 326.45064102 81.09667969 325.70849609 C17.38136196 310.22469985 -42.87802039 267.99560617 -85.23144531 218.26318359 C-86.84018119 216.37947714 -88.46911202 214.52107645 -90.11425781 212.66943359 C-127.57901797 170.31895131 -155.9870541 120.05937033 -165.21972656 63.93505859 C-165.54972656 63.93505859 -165.87972656 63.93505859 -166.21972656 63.93505859 Z " fill="#000000" transform="translate(244.2197265625,25.06494140625)"/>
<path d="M0 0 C4.04444865 0.65000068 5.70449524 1.60255379 8.5 4.5625 C9.8189712 8.13558296 9.58436042 11.69820335 9.53076172 15.46728516 C9.5146615 16.89042743 9.49896373 18.3135743 9.48361206 19.73672485 C9.47407375 20.48818409 9.46453545 21.23964333 9.4547081 22.01387405 C9.40290014 26.85432018 9.40892986 31.69512771 9.40334892 36.53580666 C9.39514491 40.780032 9.36747227 45.02241926 9.29785156 49.26611328 C9.23145998 53.38236357 9.21945605 57.49569699 9.24310684 61.61237717 C9.24250004 63.17283415 9.22263596 64.73341734 9.18233871 66.29335403 C8.90935366 75.51620254 8.90935366 75.51620254 12.83770752 83.652771 C15.61012011 86.20281976 18.4246376 88.39250537 21.5 90.5625 C23.36273367 92.07282822 25.21812065 93.59231188 27.0625 95.125 C27.97128906 95.85847656 28.88007813 96.59195313 29.81640625 97.34765625 C32.44708557 99.51882827 34.97942424 101.76491357 37.5 104.0625 C40.91739372 107.17708668 44.4052235 110.1543662 48 113.0625 C52.46420457 116.67399134 56.73002114 120.44910694 60.97265625 124.31640625 C63.56962393 126.62437598 66.23404013 128.81805863 68.9375 131 C73.70996203 134.85958603 78.23109109 138.93449991 82.74609375 143.08984375 C86.33207284 146.30959519 90.06701492 149.32155176 93.81640625 152.34765625 C96.44708557 154.51882827 98.97942424 156.76491357 101.5 159.0625 C104.91739372 162.17708668 108.4052235 165.1543662 112 168.0625 C116.50874829 171.71274192 120.84401032 175.50892314 125.1328125 179.4140625 C128.0552626 182.0664512 131.02535115 184.66099436 134.00390625 187.25 C136.48296727 189.42484204 136.48296727 189.42484204 136.73828125 191.48828125 C136.85496654 195.24063437 136.92648286 197.80224795 135.0625 201.125 C131.24642221 203.26572656 127.78405603 203.29578294 123.5 202.5625 C120.69557098 201.05132177 118.57917525 199.03179048 116.3125 196.8125 C115.00849808 195.60993325 113.70379447 194.40812699 112.3984375 193.20703125 C111.42342285 192.28978271 111.42342285 192.28978271 110.42871094 191.35400391 C107.50996482 188.64289517 104.4771494 186.07369271 101.4375 183.5 C100.27941995 182.50973169 99.12186757 181.51884595 97.96484375 180.52734375 C97.39362793 180.03862793 96.82241211 179.54991211 96.23388672 179.04638672 C93.90538559 177.05361991 91.57847724 175.0589986 89.25170898 173.06420898 C88.08599385 172.06486211 86.92014145 171.06567532 85.75415039 170.06665039 C82.21489659 167.03406455 78.67929219 163.99728817 75.14599609 160.95776367 C73.40277873 159.4613459 71.65491147 157.97051838 69.90625 156.48046875 C67.61464297 154.52644113 65.34788569 152.54787779 63.09375 150.55078125 C62.02102578 149.61696638 60.94811762 148.68336276 59.875 147.75 C58.93398437 146.91855469 57.99296875 146.08710938 57.0234375 145.23046875 C54.75962186 143.34996447 54.75962186 143.34996447 52.77075195 143.74438477 C49.58930273 144.89060951 46.63476957 146.42020543 43.64453125 147.984375 C42.98345871 148.3262384 42.32238617 148.66810181 41.64128113 149.02032471 C40.24250091 149.74465792 38.84476146 150.47100404 37.44799805 151.19921875 C34.65261101 152.65651438 31.85206861 154.10376419 29.05122375 155.55053711 C27.7025062 156.25343543 26.35800779 156.96449256 25.01799011 157.68383789 C22.21220896 159.18844646 19.52226941 160.55407026 16.53833008 161.68359375 C13.92725163 162.72916161 12.35326497 163.4398599 10.5 165.5625 C9.30808189 170.40856233 9.42416144 175.09687393 9.5625 180.0625 C9.58166818 182.67703933 9.59367462 185.29164344 9.59765625 187.90625 C9.62351807 189.06318359 9.64937988 190.22011719 9.67602539 191.41210938 C9.45548948 195.35912099 8.53248469 198.19483188 6.15234375 201.34765625 C4.02262813 202.91347553 2.68951021 202.99556997 0.0625 203 C-0.69933594 203.01933594 -1.46117187 203.03867187 -2.24609375 203.05859375 C-5.45576823 202.3521316 -6.49818721 201.16057537 -8.5 198.5625 C-8.84959406 195.88077524 -8.96923774 193.62312042 -8.890625 190.953125 C-8.88496521 190.22631531 -8.87930542 189.49950562 -8.87347412 188.75067139 C-8.85114553 186.43726755 -8.80096048 184.1254328 -8.75 181.8125 C-8.72993023 180.24090784 -8.71168029 178.66929132 -8.6953125 177.09765625 C-8.65129293 173.25200283 -8.58229375 169.40751711 -8.5 165.5625 C-9.35811279 165.30057861 -10.21622559 165.03865723 -11.1003418 164.76879883 C-14.58171792 163.53350408 -17.64642405 162.01741976 -20.89453125 160.26171875 C-21.78201302 159.78434013 -21.78201302 159.78434013 -22.68742371 159.2973175 C-24.56487907 158.28597341 -26.43867954 157.26805994 -28.3125 156.25 C-29.55771443 155.57835264 -30.80315546 154.90712523 -32.04882812 154.23632812 C-33.26826877 153.57819838 -34.48767036 152.91999625 -35.70703125 152.26171875 C-36.29904327 151.94298798 -36.8910553 151.6242572 -37.50100708 151.29586792 C-40.11227913 149.8838569 -42.69739399 148.44553487 -45.25146484 146.93212891 C-46.03859863 146.46597168 -46.82573242 145.99981445 -47.63671875 145.51953125 C-48.29760498 145.11323486 -48.95849121 144.70693848 -49.6394043 144.28833008 C-52.04665253 143.34924741 -53.11982206 143.61422903 -55.5 144.5625 C-57.15386422 145.66165457 -57.15386422 145.66165457 -58.6796875 147.08203125 C-59.27144775 147.6035376 -59.86320801 148.12504395 -60.47290039 148.66235352 C-61.10059326 149.22752686 -61.72828613 149.7927002 -62.375 150.375 C-63.72487789 151.56814125 -65.07514708 152.76083993 -66.42578125 153.953125 C-67.10721191 154.55833984 -67.78864258 155.16355469 -68.49072266 155.78710938 C-71.48585908 158.43360173 -74.52231535 161.03053076 -77.5625 163.625 C-78.72015568 164.61576439 -79.8777077 165.6066499 -81.03515625 166.59765625 C-81.89197998 167.33072998 -81.89197998 167.33072998 -82.76611328 168.07861328 C-85.09470161 170.07145471 -87.42170262 172.06614418 -89.74853516 174.06103516 C-90.91339056 175.05962183 -92.07842879 176.05799528 -93.24365234 177.05615234 C-96.80180282 180.10443071 -100.35456843 183.15884245 -103.90356445 186.21777344 C-105.65666146 187.7235127 -107.41761243 189.21962916 -109.1796875 190.71484375 C-111.3291882 192.54210561 -113.4324075 194.40557384 -115.5078125 196.31640625 C-123.14096749 203.10970157 -123.14096749 203.10970157 -128.4375 203.4375 C-131.59983126 203.06912808 -132.48719689 202.57280494 -135.0625 200.5 C-136.91198523 196.72061715 -137.21835768 194.72897456 -136.5 190.5625 C-133.23015146 184.84357463 -127.41488676 180.91355836 -122.359375 176.8828125 C-119.6544119 174.68780146 -117.07077971 172.4122254 -114.5 170.0625 C-110.20008209 166.14358748 -105.74080453 162.47079131 -101.21875 158.8125 C-98.57852271 156.62748431 -96.0327028 154.37078609 -93.5 152.0625 C-89.20008209 148.14358748 -84.74080453 144.47079131 -80.21875 140.8125 C-77.57852271 138.62748431 -75.0327028 136.37078609 -72.5 134.0625 C-68.20008209 130.14358748 -63.74080453 126.47079131 -59.21875 122.8125 C-55.72091849 119.91774289 -52.38214596 116.86660461 -49.02734375 113.80859375 C-46.43037607 111.50062402 -43.76595987 109.30694137 -41.0625 107.125 C-36.29936114 103.27295381 -31.7860274 99.20739018 -27.28125 95.05859375 C-23.56692271 91.72508934 -19.7072805 88.59187726 -15.8125 85.47265625 C-13.53384513 83.66439882 -13.53384513 83.66439882 -11.8125 81.80859375 C-10.5 80.5625 -10.5 80.5625 -8.5 80.5625 C-8.51110306 79.63399734 -8.52220612 78.70549469 -8.53364563 77.74885559 C-8.63387166 68.99438801 -8.70997723 60.24011337 -8.75906086 51.48520374 C-8.78514391 46.98427143 -8.82051776 42.48381356 -8.87719727 37.9831543 C-8.93156406 33.63890108 -8.96143027 29.29510391 -8.97438622 24.95053673 C-8.98361781 23.29389962 -9.00164546 21.63728721 -9.02865028 19.9808445 C-9.06500498 17.65831399 -9.06994301 15.3376623 -9.06762695 13.01489258 C-9.08560333 12.33156357 -9.10357971 11.64823456 -9.12210083 10.94419861 C-9.0814661 7.1727595 -8.55170231 5.6279025 -6.18327332 2.63188171 C-3.5 0.5625 -3.5 0.5625 0 0 Z M-15.9375 109.5 C-20.79875878 114.06043282 -25.80246414 118.34695873 -31.02734375 122.4921875 C-33.67761441 124.71121349 -36.08943563 127.08725143 -38.5 129.5625 C-36.12754145 130.92127172 -33.75213721 132.27445335 -31.375 133.625 C-30.40626953 134.1809082 -30.40626953 134.1809082 -29.41796875 134.74804688 C-22.55509385 138.63700932 -15.59233122 142.01633439 -8.5 145.5625 C-8.5 132.0325 -8.5 118.5025 -8.5 104.5625 C-11.80464522 104.5625 -13.65655021 107.32196368 -15.9375 109.5 Z M9.5 104.5625 C9.5 117.7625 9.5 130.9625 9.5 144.5625 C13.7971502 143.1301166 17.03589186 141.87794803 20.8984375 139.7421875 C21.87167969 139.20722656 22.84492188 138.67226563 23.84765625 138.12109375 C25.34619141 137.28771484 25.34619141 137.28771484 26.875 136.4375 C27.89722656 135.87417969 28.91945312 135.31085938 29.97265625 134.73046875 C32.48425792 133.3455669 34.99323719 131.95613545 37.5 130.5625 C37.5 129.5725 37.5 128.5825 37.5 127.5625 C35.38704665 125.49713004 35.38704665 125.49713004 32.625 123.4375 C27.89022557 119.70080142 23.39792047 115.81228803 18.984375 111.703125 C15.9864348 109.11999414 12.72018615 106.86263296 9.5 104.5625 Z " fill="#000000" transform="translate(148.5,309.4375)"/>
<path d="M0 0 C5.68186383 4.29509308 10.69099845 9.54261028 15.7109375 14.578125 C16.40514801 15.27137878 17.09935852 15.96463257 17.81460571 16.67889404 C19.26614072 18.12975412 20.71643612 19.58185537 22.16552734 21.03515625 C24.38655894 23.26158704 26.61293481 25.48257446 28.83984375 27.703125 C30.25552943 29.11947079 31.67090526 30.53612637 33.0859375 31.953125 C33.75047943 32.6156427 34.41502136 33.2781604 35.09970093 33.96075439 C36.02173813 34.88751984 36.02173813 34.88751984 36.96240234 35.83300781 C37.77226089 36.64405975 37.77226089 36.64405975 38.59848022 37.47149658 C41.54387044 40.68375166 42.75240273 43.32324557 42.62495708 47.72033691 C41.79291243 50.75539568 40.33747256 52.2449026 38.18818665 54.53710938 C37.36689585 55.41592773 36.54560505 56.29474609 35.69942665 57.20019531 C30.94672939 62.12962137 26.14446753 67.00335171 21.30151367 71.84375 C20.15378483 72.99447854 19.00625858 74.14540916 17.85891724 75.29652405 C14.77284245 78.39135077 11.68360971 81.48300565 8.59347701 84.57378006 C6.66061298 86.50735848 4.7284642 88.4416487 2.7965641 90.37619019 C-3.9487817 97.13075318 -10.6966705 103.88276336 -17.44702148 110.63232422 C-23.73365446 116.91835417 -30.01466211 123.20996685 -36.29311734 129.50416374 C-41.69612261 134.92023146 -47.10296288 140.3324502 -52.51282328 145.74167061 C-55.73896171 148.9675541 -58.96352847 152.19497118 -62.18424416 155.42626953 C-65.2061715 158.45785847 -68.23283629 161.4846352 -71.26324081 164.50774956 C-72.37437134 165.61783253 -73.48379305 166.72962893 -74.59137917 167.84324837 C-76.10226715 169.36183352 -77.61917714 170.87413684 -79.13777161 172.38500977 C-79.9851933 173.23297623 -80.83261499 174.08094269 -81.70571613 174.9546051 C-85.13302454 178.01011154 -86.87075832 179.04033006 -91.5 178.875 C-95.34466506 177.91383374 -96.70217836 177.18159919 -99 174 C-100.29933034 170.70836314 -100.18492183 169.43884176 -98.80169201 166.15627098 C-96.91443912 162.85011126 -94.92737549 160.5578813 -92.23542786 157.87466431 C-91.75917251 157.39584568 -91.28291716 156.91702706 -90.79222983 156.42369878 C-89.20551059 154.83206513 -87.60835988 153.25134523 -86.01098633 151.67041016 C-84.86705663 150.52732723 -83.72378823 149.3835822 -82.58113098 148.23922729 C-79.48478257 145.14201949 -76.37928346 142.0541373 -73.27204347 138.96786165 C-70.02354099 135.73813517 -66.78355343 132.49988959 -63.54264832 129.26254272 C-57.40761608 123.13682821 -51.26497781 117.01880014 -45.11956185 110.90350473 C-38.1221668 103.93966208 -31.13330613 96.96728116 -24.14514506 89.99417424 C-9.77289798 75.65327003 4.61001913 61.32310821 19 47 C17.60403514 44.09380865 16.26935799 42.02878234 13.9609375 39.765625 C13.09082031 38.90517578 13.09082031 38.90517578 12.203125 38.02734375 C11.59984375 37.44082031 10.9965625 36.85429687 10.375 36.25 C9.76398438 35.64800781 9.15296875 35.04601562 8.5234375 34.42578125 C7.02011376 32.94594695 5.51065144 31.47235324 4 30 C-1.51652677 34.5358109 -6.49307826 39.47798201 -11.44921875 44.609375 C-13.6584949 46.67993702 -15.17599045 48.00604219 -18 49 C-21.78825503 48.86470518 -24.23184073 48.49240979 -27.4375 46.4375 C-29.19042704 43.70293382 -29.87296859 41.53902036 -29.703125 38.26953125 C-28.12389987 33.17214347 -23.72177754 29.63795372 -20 26 C-19.14148438 25.12988281 -18.28296875 24.25976562 -17.3984375 23.36328125 C-15.2826374 21.22397226 -13.15029313 19.10454221 -11 17 C-11.32226562 16.25878906 -11.64453125 15.51757812 -11.9765625 14.75390625 C-13.44707206 10.79700075 -13.40198366 8.22082844 -13 4 C-9.38378334 -0.86318793 -5.70660562 -1.72274887 0 0 Z " fill="#000000" transform="translate(458,119)"/>
</svg>
