<?xml version="1.0" encoding="UTF-8"?>
<svg version="1.1" xmlns="http://www.w3.org/2000/svg" width="512" height="512">
<path d="M0 0 C2.30582442 0.00315136 4.61034924 -0.02036856 6.91601562 -0.0456543 C21.07034637 -0.10691173 34.53936017 2.07204067 48.13476562 6.06567383 C49.44936768 6.44755859 49.44936768 6.44755859 50.79052734 6.8371582 C91.67772546 19.12488811 125.12164675 48.45892907 145.55126953 85.50512695 C153.38468373 100.12557574 158.52377433 115.42756545 161.82226562 131.62817383 C161.98549316 132.42755371 162.1487207 133.22693359 162.31689453 134.05053711 C174.33208745 196.37855064 146.31059893 257.65845686 112.57226562 308.31567383 C111.3415287 310.09241062 110.10494622 311.86511369 108.86230469 313.63354492 C108.2429303 314.51577728 107.62355591 315.39800964 106.9854126 316.30697632 C106.28590485 317.30128159 106.28590485 317.30128159 105.57226562 318.31567383 C106.50076828 318.30457077 107.42927094 318.29346771 108.38591003 318.2820282 C117.14037762 318.18180217 125.89465225 318.1056966 134.64956188 318.05661297 C139.1504942 318.03052992 143.65095207 317.99515607 148.15161133 317.93847656 C152.49586454 317.88410977 156.83966172 317.85424356 161.1842289 317.84128761 C162.840866 317.83205602 164.49747842 317.81402837 166.15392113 317.78702354 C168.47645164 317.75066885 170.79710333 317.74573081 173.11987305 317.74804688 C173.80320206 317.7300705 174.48653107 317.71209412 175.19056702 317.693573 C178.96160432 317.7342034 180.47595447 318.23714303 183.43634033 320.65100098 C185.89843097 323.72258129 187.20888994 326.54225051 188.63867188 330.21020508 C189.0451722 331.23399765 189.0451722 331.23399765 189.45988464 332.2784729 C190.05029894 333.76890102 190.63494537 335.26162403 191.21447754 336.75631714 C192.8339094 340.93007571 194.49828269 345.08601543 196.15429688 349.24536133 C196.68372391 350.58053047 196.68372391 350.58053047 197.22384644 351.94267273 C201.45870079 362.60075015 205.89404313 373.17436919 210.32226562 383.75317383 C212.03548276 387.85302628 213.74736062 391.95343719 215.45898438 396.05395508 C215.88476776 397.07371933 216.31055115 398.09348358 216.74923706 399.14414978 C222.02037531 411.77512153 227.2495841 424.42348356 232.45532227 437.08154297 C236.14079513 446.0382392 239.84531176 454.98547735 243.61787415 463.90591431 C245.40877199 468.1433388 247.18934988 472.38506485 248.96920776 476.62713623 C249.82110187 478.64936996 250.67803959 480.66948733 251.54031372 482.68731689 C252.73443326 485.4826735 253.91090312 488.28487422 255.08398438 491.08911133 C255.61682541 492.31721527 255.61682541 492.31721527 256.16043091 493.57012939 C258.29700289 498.73883198 259.19069903 502.71365759 258.57226562 508.31567383 C257.56336784 510.51379728 257.56336784 510.51379728 255.57226562 512.31567383 C252.6924211 512.7152566 250.19174246 512.85265338 247.30911255 512.81903839 C246.45223272 512.82485215 245.59535289 512.83066592 244.71250701 512.83665586 C241.81538268 512.85135806 238.91909207 512.83732322 236.02197266 512.8236084 C233.93436815 512.82821327 231.84676687 512.83456339 229.75917244 512.84251738 C224.00245854 512.85929058 218.24600823 512.85092813 212.4892931 512.8385725 C206.28880292 512.8295569 200.08835945 512.84347433 193.88787842 512.85449219 C182.43647062 512.87128793 170.98518097 512.86978024 159.53377372 512.85884631 C148.95595808 512.84879573 138.37817344 512.84615184 127.800354 512.85093689 C127.09950413 512.85124243 126.39865425 512.85154797 125.6765665 512.85186277 C122.83179881 512.85310806 119.98703113 512.85438166 117.14226348 512.85570182 C90.44011727 512.86794593 63.73802493 512.85683116 37.03588703 512.83531424 C13.29733333 512.81633091 -10.44113455 512.81802938 -34.1796875 512.8371582 C-60.83207326 512.85856309 -87.48441142 512.86707769 -114.13680458 512.85470915 C-116.97647729 512.85342622 -119.81615002 512.85217486 -122.65582275 512.85093689 C-123.35505513 512.85062058 -124.0542875 512.85030427 -124.77470873 512.84997838 C-135.34751987 512.84542284 -145.92029665 512.85076008 -156.49310303 512.8608551 C-168.51133923 512.87227282 -180.52945187 512.86908775 -192.54768419 512.84773213 C-198.68469278 512.83718805 -204.82152677 512.83315689 -210.95853424 512.84632874 C-216.56917655 512.85818911 -222.17948132 512.85179563 -227.79009271 512.83041853 C-229.82705164 512.82592537 -231.8640387 512.8282789 -233.90097976 512.83792168 C-236.65592726 512.8499698 -239.40969686 512.83772975 -242.1645813 512.81903839 C-243.36917161 512.83308539 -243.36917161 512.83308539 -244.59809709 512.84741616 C-249.92690058 512.7744443 -249.92690058 512.7744443 -252.41171074 510.49832487 C-254.57040789 505.86094989 -253.98845627 502.00774917 -252.43310547 497.31420898 C-251.07056994 493.88061946 -249.61497837 490.50401624 -248.11523438 487.12817383 C-247.61572266 485.96608398 -247.11621094 484.80399414 -246.6015625 483.60668945 C-240.66575884 469.93468606 -240.66575884 469.93468606 -237.42773438 468.31567383 C-233.62895838 467.96393531 -231.28413284 467.78865939 -227.99023438 469.81567383 C-226.42773438 472.31567383 -226.42773438 472.31567383 -226.42773438 480.31567383 C-228.73773438 485.59567383 -231.04773438 490.87567383 -233.42773438 496.31567383 C-216.92773438 496.31567383 -200.42773438 496.31567383 -183.42773438 496.31567383 C-183.09773438 494.66567383 -182.76773438 493.01567383 -182.42773438 491.31567383 C-181.97577228 490.00909581 -181.48520694 488.7152144 -180.95654297 487.43774414 C-180.51004898 486.34940277 -180.51004898 486.34940277 -180.05453491 485.23907471 C-179.73167511 484.46513367 -179.40881531 483.69119263 -179.07617188 482.89379883 C-178.73905182 482.07554626 -178.40193176 481.2572937 -178.05459595 480.41424561 C-176.97486721 477.79628638 -175.88893306 475.18095434 -174.80273438 472.56567383 C-174.09528711 470.85360609 -173.38825208 469.14136795 -172.68164062 467.42895508 C-171.34874085 464.20035274 -170.01331199 460.97282167 -168.67529297 457.74633789 C-165.5826122 450.27364716 -162.50700429 442.79390075 -159.42773438 435.31567383 C-183.68273437 434.82067383 -183.68273437 434.82067383 -208.42773438 434.31567383 C-209.41773438 437.28567383 -210.40773437 440.25567383 -211.42773438 443.31567383 C-212.0623212 444.95346777 -212.72094174 446.58272059 -213.42773438 448.19067383 C-213.73710937 448.9099707 -214.04648438 449.62926758 -214.36523438 450.37036133 C-216.01600728 453.3927323 -217.56299463 454.9970855 -220.80273438 456.19067383 C-224.24663151 456.35466893 -225.70969188 455.37257085 -228.42773438 453.31567383 C-230.70807779 449.8951587 -230.53310809 448.44476824 -229.91326904 444.49249268 C-229.10663133 440.87605846 -227.74477386 437.57658103 -226.27929688 434.18286133 C-225.79314156 433.02296944 -225.79314156 433.02296944 -225.29716492 431.83964539 C-224.22467308 429.28609865 -223.13857484 426.73856938 -222.05273438 424.19067383 C-221.28883835 422.37726147 -220.52608533 420.56336726 -219.7644043 418.74902344 C-218.15265727 414.91116389 -216.53672628 411.07510376 -214.91845703 407.23999023 C-211.2130147 398.44330532 -207.57901105 389.61714524 -203.94210815 380.79196167 C-202.74381244 377.88684839 -201.54241897 374.9830351 -200.34008789 372.07958984 C-196.60473467 363.05443276 -192.89609743 354.02027023 -189.25585938 344.95629883 C-188.30092055 342.59107187 -187.3450425 340.22622711 -186.38876343 337.86154175 C-185.51387741 335.68694054 -184.65193826 333.50750647 -183.7902832 331.32763672 C-183.26515586 330.02780522 -182.73939857 328.72822797 -182.21289062 327.42895508 C-181.76824463 326.31302979 -181.32359863 325.19710449 -180.86547852 324.04736328 C-179.26969687 321.01540526 -178.37753099 320.00461067 -175.42773438 318.31567383 C-172.90071996 318.01294046 -170.61559698 317.87802206 -168.08886719 317.88330078 C-167.35676529 317.87310913 -166.62466339 317.86291748 -165.87037659 317.85241699 C-163.45712632 317.82228869 -161.044273 317.81302158 -158.63085938 317.80395508 C-156.95504436 317.78710822 -155.27924199 317.76895796 -153.60345459 317.7495575 C-149.19765166 317.70205192 -144.79189995 317.67224626 -140.38592529 317.64611816 C-135.88803998 317.6163154 -131.39033119 317.56978411 -126.89257812 317.5246582 C-118.07105587 317.4386188 -109.2494973 317.37127638 -100.42773438 317.31567383 C-101.17575317 316.30473663 -101.92377197 315.29379944 -102.69445801 314.25222778 C-103.6896356 312.90252001 -104.68470642 311.55273351 -105.6796875 310.20288086 C-106.17108215 309.53936111 -106.66247681 308.87584137 -107.16876221 308.19221497 C-111.44425364 302.38432364 -115.26680502 296.40759564 -118.92773438 290.19067383 C-119.87845825 288.58482422 -119.87845825 288.58482422 -120.84838867 286.9465332 C-151.16331494 235.3212657 -168.59308096 178.39482126 -153.97070312 118.88598633 C-147.73650155 95.28889637 -135.23627512 72.22004528 -118.45898438 54.46801758 C-116.60159212 52.49989617 -114.89386502 50.4686565 -113.17773438 48.37817383 C-85.81041946 17.10124249 -40.80701899 -0.1160267 0 0 Z M-103.42773438 61.31567383 C-106.60080683 64.85842463 -109.54081079 68.53759268 -112.42773438 72.31567383 C-113.09417969 73.16645508 -113.760625 74.01723633 -114.44726562 74.89379883 C-137.82355724 105.69333098 -147.29537997 145.25234741 -142.60717773 183.45996094 C-141.0784241 194.3158409 -138.55716113 204.81848799 -135.42773438 215.31567383 C-135.22341797 216.02159668 -135.01910156 216.72751953 -134.80859375 217.45483398 C-122.52969011 259.34928378 -97.41980085 298.625574 -68.91992188 331.42504883 C-66.62242612 334.08985582 -64.42677225 336.809811 -62.24023438 339.56567383 C-52.13776854 351.92299583 -40.68625774 363.14735311 -29.42773438 374.44067383 C-28.93932068 374.93176636 -28.45090698 375.42285889 -27.94769287 375.92883301 C-22.83481098 381.06301947 -17.68509942 386.07981969 -12.17919922 390.79174805 C-10.53634705 392.22117142 -8.96964384 393.69666759 -7.41601562 395.22192383 C-6.53300781 396.07786133 -5.65 396.93379883 -4.74023438 397.81567383 C-3.84949219 398.69223633 -2.95875 399.56879883 -2.04101562 400.47192383 C0.36554976 402.50095079 0.36554976 402.50095079 2.94726562 402.51098633 C6.9710488 400.67872792 9.75832545 397.7696958 12.88476562 394.69067383 C14.1504363 393.46801771 15.41736739 392.24666503 16.68554688 391.02661133 C17.33031982 390.40310791 17.97509277 389.77960449 18.6394043 389.13720703 C20.45149364 387.42948964 22.3090054 385.80785893 24.20507812 384.19458008 C29.8456515 379.30631174 35.06123554 373.9756892 40.3269043 368.69140625 C42.13088648 366.8820645 43.94015227 365.07813064 45.75 363.2746582 C51.57175924 357.45655597 57.25448927 351.60402185 62.57226562 345.31567383 C63.59308955 344.1584152 64.61652142 343.00345172 65.64257812 341.85083008 C73.74506486 332.66985086 81.27958504 323.14938082 88.57226562 313.31567383 C89.12446777 312.57381836 89.67666992 311.83196289 90.24560547 311.06762695 C101.55021522 295.8285536 111.56756557 280.01492128 120.57226562 263.31567383 C120.90436035 262.70353027 121.23645508 262.09138672 121.57861328 261.46069336 C144.00828004 219.69087635 156.40211303 170.76399018 143.75976562 124.00317383 C143.05868734 121.76501447 142.32854077 119.53579003 141.57226562 117.31567383 C141.36230957 116.68886719 141.15235352 116.06206055 140.93603516 115.41625977 C130.04332152 83.2839411 108.64402288 56.99613172 80.35546875 38.4831543 C78.89274379 37.52549401 77.44171893 36.54998539 75.99414062 35.56958008 C65.17510861 28.59016957 52.54178629 23.91257026 40.19726562 20.44067383 C39.1840625 20.1543811 39.1840625 20.1543811 38.15039062 19.86230469 C26.47388272 16.77680984 14.86421722 15.93819287 2.82226562 16.00317383 C2.1191626 16.00499664 1.41605957 16.00681946 0.69165039 16.00869751 C-39.17840227 16.1825429 -75.20374056 33.42275325 -103.42773438 61.31567383 Z M-167.42773438 334.31567383 C-170.04710937 340.64754883 -172.66648437 346.97942383 -175.36523438 353.50317383 C-176.19144287 355.49372803 -177.01765137 357.48428223 -177.86889648 359.53515625 C-178.52298251 361.12200384 -179.17673237 362.70899005 -179.83007812 364.29614258 C-180.17043091 365.11264282 -180.51078369 365.92914307 -180.8614502 366.77038574 C-181.1861731 367.56158813 -181.510896 368.35279053 -181.84545898 369.16796875 C-182.26848549 370.19056038 -182.26848549 370.19056038 -182.70005798 371.23381042 C-183.63605838 373.75749208 -183.63605838 373.75749208 -184.42773438 378.31567383 C-168.25773437 378.31567383 -152.08773437 378.31567383 -135.42773438 378.31567383 C-132.7488345 372.95787408 -130.24035052 367.69017013 -127.97460938 362.16723633 C-127.66952454 361.42863373 -127.3644397 360.69003113 -127.05010986 359.92904663 C-126.41342058 358.3851988 -125.77824126 356.84072743 -125.14453125 355.2956543 C-124.170884 352.92398728 -123.19021493 350.55530569 -122.20898438 348.18676758 C-121.58877147 346.68043053 -120.96896487 345.17392612 -120.34960938 343.66723633 C-119.90908234 342.60480209 -119.90908234 342.60480209 -119.45965576 341.52090454 C-117.9443554 338.03275588 -117.9443554 338.03275588 -117.42773438 334.31567383 C-133.92773438 334.31567383 -150.42773438 334.31567383 -167.42773438 334.31567383 Z M-99.42773438 334.31567383 C-104.57907183 343.83610285 -108.44359097 353.91970989 -112.49023438 363.94067383 C-113.55460627 366.57391199 -114.62023429 369.20660654 -115.68980408 371.83773804 C-116.35074413 373.46378325 -117.00879799 375.09100596 -117.66334534 376.71963501 C-123.28409428 390.5532471 -123.28409428 390.5532471 -127.42773438 393.31567383 C-130.21818542 393.59414673 -130.21818542 393.59414673 -133.64331055 393.63452148 C-134.92441208 393.65439117 -136.20551361 393.67426086 -137.5254364 393.69473267 C-138.92385689 393.70660909 -140.3222792 393.71827195 -141.72070312 393.72973633 C-143.15132263 393.74844644 -144.58193109 393.76801974 -146.01252747 393.78842163 C-149.77551764 393.83976566 -153.53854361 393.87937904 -157.30169678 393.91656494 C-161.14262766 393.95659047 -164.98340938 394.0076894 -168.82421875 394.05786133 C-176.35862165 394.15464744 -183.89309667 394.23904344 -191.42773438 394.31567383 C-194.22639936 399.71831405 -196.60300733 405.09958912 -198.67773438 410.81567383 C-198.94585937 411.54270508 -199.21398437 412.26973633 -199.49023438 413.01879883 C-200.14017262 414.78291691 -200.78455688 416.54907964 -201.42773438 418.31567383 C-200.69523972 418.31931946 -199.96274506 418.32296509 -199.20805359 418.32672119 C-192.30686934 418.36457896 -185.40607432 418.42140615 -178.50523663 418.49957657 C-174.95732961 418.53909601 -171.40967242 418.57126203 -167.86157227 418.58666992 C-163.78295899 418.60470301 -159.70527999 418.65463321 -155.62695312 418.70629883 C-154.351884 418.70752747 -153.07681488 418.7087561 -151.7631073 418.71002197 C-150.58210953 418.7297406 -149.40111176 418.74945923 -148.18432617 418.76977539 C-146.62212593 418.78309906 -146.62212593 418.78309906 -145.02836609 418.79669189 C-142.42773438 419.31567383 -142.42773438 419.31567383 -140.59281921 421.18069458 C-138.95506225 424.18182978 -139.01649706 425.91123433 -139.42773438 429.31567383 C-140.35382994 432.30675909 -141.55710196 435.15264469 -142.79492188 438.02661133 C-143.14568283 438.86430557 -143.49644379 439.70199982 -143.85783386 440.56507874 C-144.99635224 443.27784823 -146.14948836 445.98413699 -147.30273438 448.69067383 C-148.08431528 450.54707872 -148.86483039 452.40393269 -149.64428711 454.26123047 C-151.55087827 458.7989667 -153.46813716 463.33209216 -155.38922119 467.8637085 C-157.33674229 472.46187278 -159.27121635 477.06545646 -161.19970703 481.67163086 C-162.04009953 483.67833425 -162.88461948 485.68331569 -163.73388672 487.6862793 C-164.09820801 488.55269043 -164.4625293 489.41910156 -164.83789062 490.31176758 C-165.14863525 491.04580811 -165.45937988 491.77984863 -165.77954102 492.53613281 C-166.54181777 494.31322398 -166.54181777 494.31322398 -166.42773438 496.31567383 C-157.51773438 496.31567383 -148.60773438 496.31567383 -139.42773438 496.31567383 C-130.1808798 474.03324066 -120.94696522 451.74556014 -111.74307251 429.44534302 C-107.33238773 418.75882742 -102.91594834 408.07476761 -98.48242188 397.39770508 C-97.88684479 395.96308426 -97.88684479 395.96308426 -97.27923584 394.4994812 C-95.38549366 389.93827124 -93.49056316 385.37756067 -91.59375 380.81762695 C-90.92118888 379.1985009 -90.24866091 377.57936107 -89.57617188 375.96020508 C-89.26984833 375.22502151 -88.96352478 374.48983795 -88.6479187 373.7323761 C-87.49125069 370.94527468 -86.38237352 368.17959125 -85.42773438 365.31567383 C-81.85184127 364.42582025 -79.01560858 364.43783761 -75.42773438 365.31567383 C-70.84085457 368.15146769 -66.99864831 372.08124797 -63.09570312 375.76879883 C-60.81820173 377.88095469 -58.41790723 379.81681572 -55.99023438 381.75317383 C-49.64496557 386.90754174 -43.50263989 392.28930148 -37.33740234 397.65600586 C-30.19382196 403.86440006 -23.03127566 410.04391355 -15.67773438 416.00317383 C-11.29621642 419.55835287 -7.11062756 423.2833692 -2.93945312 427.08129883 C0.45684069 430.1025742 3.98819542 432.94143316 7.52148438 435.80004883 C11.09283061 438.74492332 14.5844105 441.77284359 18.07226562 444.81567383 C22.35432854 448.54982551 26.65558397 452.24026487 31.07226562 455.81567383 C37.40426079 460.94693509 43.5251601 466.31423657 49.67138672 471.66479492 C52.66971121 474.26878545 55.68199589 476.85634013 58.69726562 479.44067383 C59.19782471 479.87033447 59.69838379 480.29999512 60.21411133 480.74267578 C61.30188607 481.67454127 62.40309972 482.5908416 63.51391602 483.49511719 C65.57226562 485.31567383 65.57226562 485.31567383 68.12866211 488.10693359 C73.63729169 493.83965833 78.16000407 496.88690439 86.25299072 497.35717773 C90.97600402 497.41283177 95.6683995 497.23566232 100.38476562 497.00317383 C102.34881983 496.94788261 104.3130252 496.89771272 106.27734375 496.8527832 C111.0461125 496.73270287 115.80748376 496.54360044 120.57226562 496.31567383 C119.79753906 495.36966309 119.0228125 494.42365234 118.22460938 493.44897461 C117.57093384 492.65077805 117.57093384 492.65077805 116.90405273 491.8364563 C115.00280254 489.66539762 112.84730043 487.95937467 110.57226562 486.19067383 C106.23206916 482.72551698 102.12102257 479.11588608 98.07226562 475.31567383 C94.1769305 471.66637191 90.23887401 468.15865032 86.07226562 464.81567383 C81.9055961 461.47264828 77.96812614 457.96446862 74.07226562 454.31567383 C69.25624493 449.80651463 64.29984158 445.56008615 59.15820312 441.42114258 C48.13914461 432.44943179 48.13914461 432.44943179 46.57226562 429.31567383 C46.11370275 423.01043431 46.11370275 423.01043431 47.69282246 420.61793804 C50.43678771 418.71664737 52.57301409 418.93019598 55.89335632 418.91694641 C56.85887782 418.90697617 56.85887782 418.90697617 57.84390479 418.89680451 C60.00441354 418.87812674 62.16437081 418.88078286 64.32495117 418.88330078 C65.87218003 418.87428649 67.41940171 418.86396009 68.96661377 418.85241699 C73.17086622 418.82478158 77.37498342 418.81555365 81.57931495 418.80956292 C85.97161733 418.80019621 90.363818 418.77399427 94.75605774 418.7495575 C103.07514844 418.7058418 111.39421946 418.67732602 119.71339017 418.65423411 C129.18371275 418.62720957 138.65393327 418.58329641 148.12418306 418.53794539 C167.60682342 418.44502652 187.08949076 418.373379 206.57226562 418.31567383 C205.62449169 415.75212796 204.67352582 413.18984281 203.72070312 410.62817383 C203.45443115 409.90694336 203.18815918 409.18571289 202.91381836 408.44262695 C201.09055602 403.55081129 199.06185205 398.91183338 196.57226562 394.31567383 C195.99232849 394.30758698 195.41239136 394.29950012 194.81488037 394.29116821 C188.78017199 394.20512691 182.74579226 394.10562338 176.71142578 393.99829102 C174.45920327 393.96000226 172.20691962 393.92514922 169.95458984 393.89379883 C166.71755115 393.84814645 163.48093327 393.79015168 160.24414062 393.72973633 C159.23671814 393.71818512 158.22929565 393.70663391 157.19134521 393.69473267 C155.78033539 393.66492813 155.78033539 393.66492813 154.34082031 393.63452148 C153.51475281 393.62119781 152.6886853 393.60787415 151.83758545 393.59414673 C149.33236984 393.28618374 147.70564208 392.65179225 145.57226562 391.31567383 C144.04734565 388.26583387 144.33664014 385.67333693 144.57226562 382.31567383 C146.09723163 380.25261339 146.99651555 379.43308481 149.5275116 378.91694641 C150.63670708 378.90029182 150.63670708 378.90029182 151.76831055 378.88330078 C153.02927803 378.85360954 153.02927803 378.85360954 154.3157196 378.82331848 C155.21893448 378.81692856 156.12214935 378.81053864 157.05273438 378.80395508 C157.98072342 378.78600388 158.90871246 378.76805267 159.86482239 378.7495575 C162.82975719 378.69536092 165.79453018 378.66152883 168.75976562 378.62817383 C170.76955382 378.59500901 172.77932063 378.56052013 174.7890625 378.5246582 C179.71668027 378.43962904 184.64424927 378.37286245 189.57226562 378.31567383 C188.86252433 373.32103475 186.90093651 368.91767928 184.97460938 364.29614258 C184.6208876 363.43757156 184.26716583 362.57900055 183.90272522 361.69441223 C182.77596317 358.9622323 181.64295898 356.23269172 180.50976562 353.50317383 C179.74307597 351.64722485 178.97679521 349.79110689 178.2109375 347.93481445 C176.33611318 343.39312911 174.45568771 338.85380007 172.57226562 334.31567383 C162.31486121 334.06001607 152.05822275 333.86496289 141.79827309 333.74573994 C137.03314773 333.68849569 132.27021246 333.61095662 127.50634766 333.48583984 C122.90254845 333.36569343 118.30084528 333.30042324 113.6955986 333.27202415 C111.94514347 333.25180714 110.19479432 333.21232284 108.44524002 333.1526432 C98.32244413 332.66829948 98.32244413 332.66829948 89.35247803 336.65536499 C86.80454815 339.42246256 84.67894993 342.20458704 82.57226562 345.31567383 C81.18913168 347.05501524 79.7950331 348.785759 78.38476562 350.50317383 C77.30388672 351.84508789 77.30388672 351.84508789 76.20117188 353.21411133 C72.31836245 357.89215747 68.07988288 362.25885824 63.88793945 366.65820312 C63.27329834 367.30442627 62.65865723 367.95064941 62.02539062 368.61645508 C61.48043945 369.18533447 60.93548828 369.75421387 60.37402344 370.34033203 C58.01484895 372.92679284 55.80006723 375.61521445 53.57226562 378.31567383 C54.45287659 378.31931946 55.33348755 378.32296509 56.24078369 378.32672119 C64.53966899 378.36458754 72.83816075 378.42142461 81.13676834 378.49957657 C85.40320627 378.53908636 89.66943673 378.57125746 93.93603516 378.58666992 C98.05357614 378.60181375 102.17054689 378.63621795 106.28783417 378.68398285 C107.85865065 378.6988203 109.42954854 378.7067162 111.00043488 378.70755768 C113.20110366 378.70992215 115.40018982 378.73695561 117.60058594 378.76977539 C118.85301086 378.77865784 120.10543579 378.78754028 121.39581299 378.79669189 C125.12459314 379.40591538 126.33902065 380.31911862 128.57226562 383.31567383 C128.74414062 385.67504883 128.74414062 385.67504883 128.32226562 388.06567383 C128.19335938 388.86489258 128.06445312 389.66411133 127.93164062 390.48754883 C127.75375 391.3924707 127.75375 391.3924707 127.57226562 392.31567383 C123.56481171 393.66214047 119.50644609 393.40067302 115.33813477 393.33056641 C113.62142946 393.31113335 111.90471869 393.29217902 110.18800354 393.27363586 C108.8250928 393.25689536 108.8250928 393.25689536 107.43464851 393.23981667 C101.58569555 393.17855635 95.73634787 393.17852453 89.88712406 393.16721058 C84.75848628 393.15380717 79.63170899 393.11914883 74.50366211 393.03808594 C69.53158903 392.96069804 64.56234395 392.94285086 59.58975029 392.96390343 C57.70519742 392.96146418 55.82053918 392.93805198 53.9365406 392.89228249 C41.45281044 392.57584549 41.45281044 392.57584549 30.84753323 398.46225262 C28.77272563 400.49387387 26.84025468 402.61400895 24.94556999 404.81346703 C22.72284798 407.24482034 20.21249637 409.20538735 17.63476562 411.25317383 C14.7606414 413.53752112 12.02776558 415.83464162 9.38476562 418.37817383 C5.78952867 420.85489262 2.77514679 421.06073228 -1.42773438 420.31567383 C-3.90186016 418.74584251 -5.66444897 417.41711269 -7.74023438 415.44067383 C-8.29219482 414.94470703 -8.84415527 414.44874023 -9.4128418 413.93774414 C-11.10119301 412.41428138 -12.76452045 410.86648155 -14.42773438 409.31567383 C-15.4258059 408.40989846 -16.42572076 407.50614884 -17.42773438 406.60473633 C-19.19213709 405.01187276 -20.9497547 403.41142615 -22.69726562 401.80004883 C-24.12713813 400.49904895 -25.5616937 399.20212658 -27.03637695 397.95214844 C-33.56343961 392.40028429 -39.56512413 386.32920123 -45.60961914 380.26416016 C-47.48602913 378.38239109 -49.36772407 376.50602645 -51.25 374.63012695 C-57.18751061 368.69635266 -63.03524233 362.75693398 -68.42773438 356.31567383 C-69.44766755 355.1274006 -70.46849498 353.93989433 -71.49023438 352.75317383 C-72.21436523 351.90456787 -72.21436523 351.90456787 -72.953125 351.03881836 C-73.96769997 349.85324383 -74.98754611 348.67216644 -76.01171875 347.49487305 C-78.23622951 344.93115894 -80.36452279 342.40453273 -82.33398438 339.63598633 C-83.93848017 337.42587203 -85.15312488 335.83208016 -87.42773438 334.31567383 C-91.53728912 333.68183605 -95.31063472 333.91314771 -99.42773438 334.31567383 Z M-76.42773438 385.31567383 C-79.09556893 390.53190934 -81.52688763 395.75630797 -83.72070312 401.18676758 C-84.0240155 401.92976105 -84.32732788 402.67275452 -84.63983154 403.43826294 C-85.29327494 405.03968882 -85.94534555 406.64167542 -86.59616089 408.24417114 C-88.36168006 412.59095515 -90.13759036 416.9334955 -91.91210938 421.27661133 C-92.28065536 422.17938309 -92.64920135 423.08215485 -93.02891541 424.01228333 C-96.74351131 433.10472478 -100.50456905 442.17769458 -104.27264404 451.24807739 C-111.65660662 469.02147297 -111.65660662 469.02147297 -118.99023438 486.81567383 C-119.35431396 487.69940674 -119.71839355 488.58313965 -120.09350586 489.49365234 C-121.70535435 492.80645026 -121.70535435 492.80645026 -122.42773438 496.31567383 C-64.34773437 496.31567383 -6.26773437 496.31567383 53.57226562 496.31567383 C45.93611675 488.67952495 37.973754 481.5693835 29.57617188 474.78442383 C26.08510384 471.91530159 22.66848331 468.96922922 19.25976562 466.00317383 C18.62619141 465.45201904 17.99261719 464.90086426 17.33984375 464.33300781 C16.05378108 463.21389223 14.76781115 462.09467007 13.48193359 460.9753418 C6.43954171 454.85488923 -0.61776239 448.75537046 -7.86523438 442.87817383 C-14.21375677 437.72116297 -20.35866654 432.33623023 -26.52685547 426.96655273 C-34.46821538 420.06962547 -42.47879229 413.25239692 -50.52050781 406.47290039 C-53.39792779 404.04436494 -56.26094215 401.6007485 -59.10742188 399.13598633 C-59.72423828 398.60295898 -60.34105469 398.06993164 -60.9765625 397.52075195 C-62.15194461 396.50376358 -63.3252915 395.48441576 -64.49609375 394.4621582 C-68.31711872 391.1590843 -72.28197997 388.20195854 -76.42773438 385.31567383 Z M75.57226562 434.31567383 C82.74547132 441.48887952 90.10200368 448.39686152 98.00976562 454.75317383 C102.7884819 458.5967744 107.26384249 462.68527547 111.73608398 466.87402344 C115.91810576 470.76869765 120.277889 474.37648906 124.73632812 477.95239258 C128.64796854 481.21209293 132.36296787 484.6667769 136.0703125 488.15551758 C137.56019416 489.55380049 139.06589661 490.93516854 140.57226562 492.31567383 C141.61920845 493.37513214 141.61920845 493.37513214 142.68730164 494.45599365 C146.72717835 497.06014354 149.96790076 496.84929478 154.67700195 496.76977539 C156.03872025 496.77065155 156.03872025 496.77065155 157.427948 496.77154541 C160.42045692 496.76876472 163.41196254 496.73767321 166.40429688 496.70629883 C168.48222815 496.69883639 170.56016647 496.69314347 172.6381073 496.68914795 C178.10122179 496.67389191 183.56390938 496.63461002 189.02685547 496.59033203 C194.6037824 496.54937888 200.18077847 496.53113682 205.7578125 496.51098633 C216.69615087 496.46811602 227.63417272 496.39986477 238.57226562 496.31567383 C237.01473499 491.5514795 235.45622839 486.81510501 233.53515625 482.18237305 C233.16467163 481.28469208 232.79418701 480.38701111 232.41247559 479.46212769 C232.0217688 478.52434479 231.63106201 477.58656189 231.22851562 476.62036133 C230.61296814 475.13283859 230.61296814 475.13283859 229.98498535 473.61526489 C228.68363017 470.47252987 227.37796971 467.33160413 226.07226562 464.19067383 C225.19568983 462.07490179 224.31938525 459.95901737 223.44335938 457.84301758 C221.83362361 453.95807788 220.22334913 450.07336659 218.609375 446.19018555 C218.28755249 445.41569061 217.96572998 444.64119568 217.63415527 443.8432312 C216.29692544 440.66029677 214.93224342 437.48895535 213.57226562 434.31567383 C168.03226563 434.31567383 122.49226563 434.31567383 75.57226562 434.31567383 Z " fill="#000000" transform="translate(253.427734375,-0.315673828125)"/>
<path d="M0 0 C4.35099329 3.31053837 8.18593401 7.09485184 12 11 C12.67804688 11.65742187 13.35609375 12.31484375 14.0546875 12.9921875 C27.47587891 26.89057683 30.53004369 45.90217027 30.2734375 64.3671875 C29.63971114 83.10917411 20.21001602 99.50495783 6.75 112.1875 C-8.31530547 124.91729815 -26.17374062 129.97208705 -45.625 128.77734375 C-64.50425774 126.60707193 -81.54838694 117.87858229 -93.44921875 102.921875 C-98.22916471 96.40651601 -102.19938805 89.60009203 -105 82 C-105.31839844 81.14921875 -105.63679687 80.2984375 -105.96484375 79.421875 C-110.1009153 66.07970871 -109.70503959 49.10976843 -105 36 C-104.69835937 35.07703125 -104.39671875 34.1540625 -104.0859375 33.203125 C-102.34747748 28.31282283 -100.89486366 24.39051481 -96 22 C-92.53241058 22.05978602 -90.11173251 22.39034023 -87.0625 24.0625 C-85.2726315 27.32637785 -85.4521596 30.43320928 -86 34 C-86.88603912 36.88960507 -87.90847456 39.67717631 -89.02734375 42.484375 C-93.16820808 53.19408034 -92.47989582 67.87369319 -88.265625 78.39453125 C-81.0586571 93.23109788 -71.6582961 102.96245055 -56.06640625 108.99609375 C-41.80805365 113.66411492 -28.46969641 112.52547469 -15 106 C-11.84512644 104.17988064 -8.8934642 102.20965723 -6 100 C-4.7625 99.07380859 -4.7625 99.07380859 -3.5 98.12890625 C5.13804512 90.77307095 12.20378724 78.37334609 13.17700195 66.91625977 C13.67696512 48.76421076 11.05871056 34.41679126 -1.8125 20.6875 C-13.17809037 9.97888018 -27.19759334 5.35624756 -42.5859375 5.65234375 C-52.53548381 6.17866991 -61.73065955 10.02621604 -70.17578125 15.109375 C-72 16 -72 16 -75.3125 16.125 C-78.83659329 14.64979816 -80.17263682 13.36234825 -82 10 C-82.0625 6.4375 -82.0625 6.4375 -81 3 C-59.09114752 -16.87883643 -23.69469084 -14.93316562 0 0 Z " fill="#000000" transform="translate(295,104)"/>
</svg>
