<?xml version="1.0" standalone="no"?>
<!DOCTYPE svg PUBLIC "-//W3C//DTD SVG 20010904//EN"
 "http://www.w3.org/TR/2001/REC-SVG-20010904/DTD/svg10.dtd">
<svg version="1.0" xmlns="http://www.w3.org/2000/svg"
 width="512.000000pt" height="512.000000pt" viewBox="0 0 512.000000 512.000000"
 preserveAspectRatio="xMidYMid meet">

<g transform="translate(0.000000,512.000000) scale(0.100000,-0.100000)"
fill="#000000" stroke="none">
<path d="M810 5048 c-68 -35 -90 -86 -90 -210 l0 -98 -98 0 c-82 0 -105 -4
-142 -22 -61 -31 -90 -88 -90 -175 l0 -63 -78 0 c-99 0 -156 -26 -189 -85
l-23 -40 0 -2027 c0 -1408 3 -2035 11 -2055 14 -38 57 -83 96 -99 27 -12 251
-14 1332 -14 l1301 0 52 -40 c97 -74 52 -71 1024 -68 l869 3 49 24 c63 31 116
84 147 147 l24 49 0 1170 0 1170 -24 49 c-31 63 -90 122 -150 150 -45 20 -60
21 -488 24 l-443 3 0 662 c-1 605 -2 665 -18 699 -23 49 -771 816 -824 846
l-41 22 -1081 0 -1082 0 -44 -22z m2140 -323 c0 -125 5 -247 11 -277 33 -157
170 -293 327 -327 30 -6 148 -11 272 -11 l220 0 0 -635 0 -634 -387 -3 c-388
-3 -388 -3 -437 -27 -63 -31 -116 -84 -147 -147 -24 -48 -24 -55 -27 -352 -3
-292 -4 -302 -22 -292 -10 5 -76 10 -146 10 -105 0 -131 -3 -146 -17 -22 -20
-23 -61 -1 -85 14 -16 33 -18 145 -18 71 0 138 5 149 10 18 10 19 5 19 -195
l0 -205 -220 0 c-207 0 -221 -1 -240 -20 -25 -25 -25 -55 0 -80 19 -19 33 -20
240 -20 l220 0 0 -270 0 -270 -958 0 c-732 0 -961 3 -970 12 -17 17 -17 4049
0 4066 9 9 257 12 1055 12 l1043 0 0 -225z m605 -343 l150 -153 -205 3 c-193
3 -208 4 -250 27 -61 32 -116 86 -148 146 -26 49 -27 54 -30 262 l-3 213 168
-173 c92 -94 235 -241 318 -325z m-2835 -1638 c0 -2089 -6 -1916 68 -1972 l35
-27 979 -3 978 -2 0 -95 0 -95 -1117 0 c-1025 0 -1118 1 -1135 17 -17 15 -18
91 -18 2019 0 1807 2 2004 16 2018 12 12 37 16 105 16 l89 0 0 -1876z m-330
-278 c0 -1314 3 -1903 11 -1923 14 -38 57 -83 96 -99 27 -12 224 -14 1158 -14
l1125 0 0 -59 c0 -33 3 -66 6 -75 6 -15 -110 -16 -1262 -16 -1165 0 -1269 1
-1286 17 -17 15 -18 92 -18 2029 0 1907 1 2014 18 2023 9 6 47 11 85 11 l67 0
0 -1894z m4408 233 c26 -13 54 -38 70 -62 l27 -40 3 -284 3 -283 -1001 0
-1000 0 0 269 c0 166 4 281 11 298 15 40 57 82 104 104 38 18 84 19 889 19
846 0 850 0 894 -21z m100 -1597 l-3 -808 -27 -41 c-16 -24 -44 -49 -70 -62
-44 -21 -48 -21 -894 -21 -805 0 -851 1 -889 19 -47 22 -89 64 -104 104 -8 19
-11 286 -11 823 l0 794 1000 0 1000 0 -2 -808z"/>
<path d="M1027 4632 c-23 -25 -22 -85 1 -105 44 -40 102 -8 102 55 0 60 -65
92 -103 50z"/>
<path d="M2140 4455 c-403 -82 -692 -414 -717 -825 -14 -235 71 -466 236 -642
124 -132 259 -214 429 -260 112 -30 325 -30 437 1 299 81 531 301 624 591 138
434 -86 913 -510 1086 -143 59 -351 79 -499 49z m365 -129 c79 -22 213 -89
259 -129 l37 -32 -248 -247 -248 -247 -194 285 c-219 324 -210 291 -91 339
107 42 183 55 310 51 64 -2 142 -11 175 -20z m-454 -495 c111 -163 209 -302
217 -308 12 -10 110 -13 409 -13 l393 0 -4 -22 c-32 -154 -57 -219 -121 -319
-102 -157 -267 -276 -455 -326 -98 -26 -282 -24 -383 5 -262 75 -465 277 -539
537 -29 103 -32 286 -5 385 36 133 141 312 220 375 l32 25 17 -21 c10 -12 109
-155 219 -318z m938 95 c40 -81 63 -158 76 -248 l7 -48 -318 0 -319 0 225 225
225 226 32 -37 c18 -20 50 -73 72 -118z"/>
<path d="M1027 4372 c-15 -17 -17 -61 -17 -433 0 -457 0 -459 60 -459 60 0 60
1 60 461 0 390 -1 417 -18 432 -24 22 -65 21 -85 -1z"/>
<path d="M1270 2010 c-46 -46 -9 -100 68 -100 60 0 92 21 92 60 0 39 -32 60
-92 60 -35 0 -54 -6 -68 -20z"/>
<path d="M1557 2012 c-22 -24 -21 -65 1 -85 17 -15 56 -17 350 -17 319 0 333
1 352 20 11 11 20 29 20 40 0 11 -9 29 -20 40 -19 19 -33 20 -353 20 -311 0
-335 -1 -350 -18z"/>
<path d="M1270 1500 c-11 -11 -20 -29 -20 -40 0 -11 9 -29 20 -40 18 -18 33
-20 170 -20 137 0 152 2 170 20 11 11 20 29 20 40 0 11 -9 29 -20 40 -18 18
-33 20 -170 20 -137 0 -152 -2 -170 -20z"/>
<path d="M1767 1502 c-22 -24 -21 -65 1 -85 16 -15 45 -17 198 -17 201 0 224
6 224 60 0 54 -23 60 -226 60 -163 0 -183 -2 -197 -18z"/>
<path d="M3090 2570 c-19 -19 -20 -33 -20 -215 0 -182 1 -196 20 -215 20 -20
33 -20 815 -20 782 0 795 0 815 20 19 19 20 33 20 215 0 182 -1 196 -20 215
-20 20 -33 20 -815 20 -782 0 -795 0 -815 -20z m1520 -215 l0 -115 -710 0
-710 0 0 115 0 115 710 0 710 0 0 -115z"/>
<path d="M3293 1829 c-55 -10 -91 -30 -130 -71 -44 -45 -63 -96 -63 -165 1
-136 100 -233 237 -233 133 1 234 101 235 235 1 147 -134 261 -279 234z m114
-138 c12 -6 28 -28 36 -50 33 -80 -23 -161 -110 -161 -97 0 -150 114 -87 189
40 48 98 56 161 22z"/>
<path d="M3863 1829 c-55 -10 -91 -30 -130 -71 -44 -45 -63 -96 -63 -165 1
-135 100 -233 235 -233 137 0 235 98 235 235 0 75 -24 128 -77 176 -57 51
-128 72 -200 58z m130 -159 c21 -24 27 -40 27 -76 0 -39 -5 -51 -34 -80 -29
-29 -41 -34 -81 -34 -40 0 -52 5 -81 34 -29 29 -34 41 -34 79 0 112 127 160
203 77z"/>
<path d="M4433 1829 c-55 -10 -91 -30 -129 -71 -48 -50 -65 -92 -65 -157 -1
-139 98 -240 234 -241 138 0 237 97 237 235 0 75 -24 128 -77 176 -57 51 -128
72 -200 58z m130 -159 c21 -24 27 -40 27 -76 0 -98 -114 -151 -189 -88 -54 45
-58 119 -9 171 46 50 122 46 171 -7z"/>
<path d="M3287 1299 c-52 -12 -87 -32 -124 -71 -44 -45 -63 -96 -63 -165 1
-135 100 -233 235 -233 197 0 305 214 191 378 -48 70 -155 110 -239 91z m120
-136 c12 -8 28 -31 37 -53 32 -79 -24 -160 -111 -160 -38 0 -50 5 -79 34 -101
101 32 257 153 179z"/>
<path d="M3857 1299 c-53 -12 -87 -32 -124 -71 -44 -45 -63 -96 -63 -165 1
-135 100 -233 235 -233 137 0 235 98 235 235 0 99 -50 178 -135 215 -54 24
-102 30 -148 19z m93 -125 c48 -19 70 -55 70 -115 0 -33 -6 -47 -34 -75 -29
-29 -41 -34 -81 -34 -40 0 -52 5 -81 34 -29 29 -34 41 -34 79 0 54 34 102 83
116 18 5 33 10 34 10 2 1 21 -6 43 -15z"/>
<path d="M4427 1299 c-114 -27 -188 -116 -188 -228 -1 -139 98 -240 234 -241
138 0 237 97 237 235 0 37 -7 75 -19 100 -46 98 -163 158 -264 134z m87 -123
c49 -20 76 -60 76 -113 0 -38 -5 -50 -34 -79 -104 -104 -262 42 -172 159 11
14 68 43 94 47 1 0 17 -6 36 -14z"/>
<path d="M3262 761 c-102 -35 -162 -119 -162 -226 0 -137 98 -235 235 -235
197 0 305 214 191 378 -55 80 -170 116 -264 83z m144 -127 c20 -13 36 -39 47
-76 10 -29 -13 -86 -44 -112 -47 -40 -110 -37 -155 8 -101 101 32 258 152 180z"/>
<path d="M3855 771 c-72 -18 -142 -77 -169 -143 -22 -51 -20 -143 3 -193 39
-84 120 -135 216 -135 137 0 235 98 235 235 0 96 -47 173 -130 215 -42 21
-114 31 -155 21z m121 -137 c28 -19 44 -57 44 -105 0 -33 -7 -48 -34 -75 -29
-29 -41 -34 -81 -34 -40 0 -52 5 -81 34 -101 101 32 258 152 180z"/>
<path d="M4425 771 c-112 -28 -186 -119 -186 -230 -1 -139 98 -240 234 -241
137 0 236 97 237 233 0 69 -19 120 -63 165 -58 60 -150 91 -222 73z m89 -125
c49 -20 76 -60 76 -113 0 -38 -5 -50 -34 -79 -29 -29 -41 -34 -80 -34 -84 0
-138 76 -110 155 17 51 45 73 107 84 4 0 22 -5 41 -13z"/>
</g>
</svg>
