<?xml version="1.0" standalone="no"?>
<!DOCTYPE svg PUBLIC "-//W3C//DTD SVG 20010904//EN"
 "http://www.w3.org/TR/2001/REC-SVG-20010904/DTD/svg10.dtd">
<svg version="1.0" xmlns="http://www.w3.org/2000/svg"
 width="512.000000pt" height="512.000000pt" viewBox="0 0 512.000000 512.000000"
 preserveAspectRatio="xMidYMid meet">

<g transform="translate(0.000000,512.000000) scale(0.100000,-0.100000)"
fill="#000000" stroke="none">
<path d="M2445 5113 c-203 -28 -415 -151 -539 -312 -62 -80 -109 -171 -142
-271 -25 -77 -28 -99 -28 -235 -1 -127 2 -162 22 -228 43 -150 119 -273 235
-383 92 -88 183 -143 307 -186 93 -32 99 -33 260 -33 161 0 168 1 259 33 219
76 385 221 489 429 69 136 99 345 73 498 -41 233 -172 432 -368 559 -147 95
-213 100 -238 18 -10 -34 17 -68 83 -101 143 -72 243 -173 312 -315 105 -212
90 -471 -38 -667 -130 -199 -334 -309 -571 -309 -196 0 -341 59 -476 195 -136
136 -193 262 -202 446 -9 177 41 332 152 471 114 142 331 248 508 248 56 0 87
27 87 75 0 53 -31 75 -99 74 -31 -1 -69 -4 -86 -6z"/>
<path d="M3942 4278 c-924 -924 -895 -891 -908 -1024 l-7 -61 -96 -6 c-158
-10 -271 -56 -368 -150 l-42 -40 -78 31 c-88 34 -175 58 -248 67 -27 3 -64 8
-80 10 l-30 5 -1 93 c0 78 -4 100 -27 150 -14 32 -35 69 -45 82 -10 13 -396
395 -857 849 -771 760 -841 826 -872 826 -55 0 -88 -50 -67 -103 3 -8 322
-326 709 -707 l705 -693 -183 -188 c-100 -104 -332 -341 -514 -528 -284 -289
-333 -343 -333 -368 0 -38 37 -73 77 -73 28 0 85 55 545 524 l513 524 88 -86
c75 -74 90 -95 103 -141 18 -59 13 -113 -12 -165 -23 -44 -889 -912 -944 -944
-56 -34 -154 -37 -210 -8 -19 10 -175 157 -346 327 -336 335 -338 336 -389
284 -52 -51 -51 -53 283 -388 169 -169 327 -321 352 -337 65 -42 159 -64 237
-56 71 7 66 12 77 -89 l6 -50 -44 -28 c-24 -15 -93 -78 -154 -141 -88 -92
-114 -124 -131 -170 -76 -205 57 -424 270 -443 l56 -6 6 -56 c14 -156 154
-291 301 -291 l43 0 7 -59 c8 -74 55 -169 104 -212 49 -43 125 -76 195 -84
l57 -7 0 -44 c0 -103 69 -209 172 -264 57 -31 71 -34 148 -35 112 0 158 21
261 122 l79 76 79 -76 c101 -99 149 -122 256 -122 71 0 88 4 147 33 104 51
165 139 175 251 l6 59 56 7 c160 19 277 137 296 297 l6 58 45 0 c146 0 285
134 301 292 l6 55 58 7 c78 8 144 40 201 98 64 66 91 139 86 238 -4 96 -31
152 -113 239 l-62 65 78 74 c43 40 101 104 130 143 l52 70 66 -7 c82 -8 175
14 241 56 25 16 183 168 353 337 333 335 334 337 282 388 -47 48 -65 39 -233
-127 l-154 -153 -191 196 c-106 108 -367 375 -581 593 l-390 397 672 672 c607
607 672 675 672 704 0 37 -38 73 -79 73 -21 0 -184 -158 -869 -842z m-315
-902 c98 -101 358 -367 577 -590 l400 -407 -95 -95 c-123 -125 -164 -149 -249
-149 -53 0 -74 5 -110 27 -25 15 -244 226 -487 470 -469 470 -483 486 -483
578 0 74 32 126 148 243 59 59 110 107 113 107 4 0 88 -83 186 -184z m-546
-358 c6 -13 220 -232 475 -489 l465 -465 -50 -65 c-49 -65 -167 -179 -186
-179 -5 0 -167 157 -360 349 -339 338 -352 350 -407 366 -61 17 -110 14 -163
-12 -16 -9 -122 -106 -235 -218 -113 -111 -219 -210 -237 -219 -93 -47 -200
-41 -285 17 -54 36 -76 76 -62 113 5 13 153 185 330 382 264 294 330 362 375
386 72 40 136 54 241 55 81 1 88 -1 99 -21z m-841 -83 c68 -16 149 -44 163
-55 4 -4 -101 -128 -233 -276 -133 -148 -251 -287 -263 -309 -33 -61 -30 -156
5 -217 69 -117 248 -193 399 -169 128 21 173 52 398 276 133 131 216 206 234
211 27 6 54 -19 475 -437 246 -244 459 -462 474 -483 75 -106 -10 -266 -140
-266 -70 0 -103 26 -397 320 -315 315 -319 317 -370 265 -52 -51 -50 -55 265
-370 294 -294 320 -327 320 -397 0 -120 -144 -207 -253 -152 -18 9 -161 145
-319 302 -250 249 -291 285 -317 285 -43 0 -71 -28 -71 -72 0 -33 20 -55 294
-330 253 -255 296 -302 305 -338 34 -127 -85 -246 -212 -212 -36 9 -83 52
-338 306 -293 291 -297 294 -334 291 -49 -4 -81 -43 -71 -85 5 -19 103 -124
296 -318 158 -159 293 -300 299 -312 6 -12 11 -43 11 -68 0 -118 -115 -201
-226 -165 -24 8 -67 40 -111 82 l-71 70 21 46 c34 73 31 199 -6 274 -49 100
-145 167 -253 176 l-62 5 -6 57 c-8 73 -55 168 -103 211 -51 44 -127 77 -195
85 l-58 7 0 43 c0 147 -131 284 -289 300 l-58 7 -6 58 c-13 143 -126 263 -270
287 l-42 7 -9 99 -9 98 444 445 444 445 90 -6 c50 -4 119 -13 155 -21z m-1034
-1240 c75 -44 103 -138 65 -220 -26 -57 -215 -239 -265 -255 -78 -25 -176 13
-209 83 -22 45 -22 119 -1 160 23 44 169 193 223 228 59 38 126 40 187 4z
m345 -348 c79 -42 114 -150 73 -230 -23 -44 -169 -193 -223 -228 -88 -57 -201
-29 -248 60 -48 92 -27 151 105 285 136 138 199 162 293 113z m366 -358 c39
-24 69 -71 78 -122 13 -67 -13 -112 -138 -234 -91 -90 -120 -113 -156 -123
-146 -39 -266 115 -195 250 24 47 218 230 260 246 47 17 106 11 151 -17z m362
-358 c65 -46 89 -147 52 -219 -29 -57 -218 -237 -265 -252 -111 -36 -226 47
-226 164 0 26 7 61 16 79 23 44 169 193 224 229 40 26 52 29 105 26 44 -3 70
-10 94 -27z"/>
<path d="M2644 4318 l-204 -202 -84 82 c-68 67 -89 82 -115 82 -41 0 -71 -31
-71 -73 0 -28 14 -46 98 -129 129 -129 170 -143 253 -89 24 16 131 116 237
223 178 180 192 197 192 230 0 28 -7 42 -26 57 -53 42 -62 36 -280 -181z"/>
</g>
</svg>
