<?xml version="1.0" encoding="UTF-8"?>
<svg version="1.1" xmlns="http://www.w3.org/2000/svg" width="512" height="512">
<path d="M0 0 C2.11587648 1.78240159 3.99152068 3.49700122 5.8984375 5.47265625 C6.67908066 6.25823158 6.67908066 6.25823158 7.47549438 7.05967712 C8.56405722 8.15859211 9.64786748 9.2622338 10.72705078 10.37036133 C12.38238308 12.07008106 14.05099744 13.75580145 15.72265625 15.43945312 C16.78203566 16.51224557 17.84065722 17.58578703 18.8984375 18.66015625 C19.39628754 19.16539322 19.89413757 19.67063019 20.40707397 20.19117737 C23.62274063 23.4969953 24.91144173 24.91845853 25.29475403 29.59976196 C25.22031935 34.5070194 23.50128347 38.10073654 21.28393555 42.40380859 C20.69131927 43.60043121 20.69131927 43.60043121 20.08673096 44.82122803 C18.78553349 47.43836188 17.46176951 50.04331027 16.13671875 52.6484375 C15.22350779 54.4700877 14.31148186 56.29233239 13.40058899 58.11514282 C11.4928239 61.92443014 9.57446093 65.72811612 7.64770508 69.52783203 C5.17641477 74.40228132 2.72646116 79.28706841 0.28360271 84.17581749 C-1.59641351 87.93476355 -3.48473229 91.68948587 -5.37590599 95.44282913 C-6.28247927 97.24323781 -7.18711122 99.04462536 -8.08977699 100.84699631 C-9.35043583 103.35965999 -10.62148019 105.86677716 -11.89575195 108.37255859 C-12.26834641 109.11956024 -12.64094086 109.86656189 -13.02482605 110.63619995 C-14.75259585 114.00730736 -15.78932158 115.85954772 -19 118 C-21.56892395 117.65773678 -21.56892395 117.65773678 -24.72192383 116.94944763 C-35.98588587 115.25932543 -46.42307965 115.50121837 -56.04534912 122.26680374 C-68.79959182 132.18775165 -79.9320305 144.22227758 -91.08644706 155.87677518 C-96.23763723 161.25250139 -101.47849481 166.53723513 -106.72535264 171.81934863 C-116.07575086 181.23722889 -125.35513932 190.72188995 -134.59082031 200.25219727 C-143.55065585 209.49755342 -152.54320109 218.70904224 -161.58105469 227.87817383 C-162.1401767 228.44544026 -162.6992987 229.0127067 -163.2753638 229.59716303 C-166.08113697 232.44339883 -168.88755878 235.28899405 -171.69430351 238.13427174 C-194.89763357 261.65782629 -217.98599835 285.29116096 -241 309 C-239.52124462 312.12624674 -238.09209424 314.01146719 -235.5 316.3125 C-232.11840879 319.62334663 -230.5276061 322.16361076 -230 327 C-231.90533737 331.7523584 -234.66984828 335.09951066 -238.26673889 338.64768982 C-238.79719187 339.18282277 -239.32764484 339.71795571 -239.87417215 340.26930481 C-241.64481982 342.05187141 -243.42594026 343.82357732 -245.20727539 345.59545898 C-246.48273924 346.87499009 -247.75756447 348.15515806 -249.03179932 349.43591309 C-252.49005783 352.90783805 -255.95772767 356.37021756 -259.42757726 359.83055377 C-263.06424349 363.45961343 -266.69357129 367.09600021 -270.32408142 370.73121643 C-276.42607915 376.83867157 -282.53437248 382.93977667 -288.64624023 389.03735352 C-295.69714549 396.0719616 -302.73721793 403.11727201 -309.77170378 410.16829628 C-315.82153338 416.23177608 -321.87723543 422.28934432 -327.93780893 428.34208542 C-331.55289193 431.95250755 -335.16595637 435.56488711 -338.77372932 439.18261528 C-342.17078235 442.58838609 -345.57518974 445.98663592 -348.98521423 449.37941742 C-350.23012335 450.62038603 -351.47253558 451.86386575 -352.71214104 453.11013222 C-360.81444646 461.2519235 -368.9381838 469.13081427 -379.625 473.8125 C-380.46289062 474.19019531 -381.30078125 474.56789063 -382.1640625 474.95703125 C-396.01495978 480.05095628 -412.46439518 480.01790741 -426 474 C-439.34474786 467.6370695 -448.32213106 456.89274741 -453.375 443.125 C-457.05302032 430.05102861 -456.37114858 415.45902502 -451 403 C-450.63390625 402.10667969 -450.2678125 401.21335937 -449.890625 400.29296875 C-447.09812917 394.40631859 -443.2649972 389.88351853 -438.82519531 385.20849609 C-438.21326954 384.55897161 -437.60134377 383.90944714 -436.97087479 383.2402401 C-429.51313336 375.36655968 -421.84573162 367.70109382 -414.171875 360.0390625 C-412.60469263 358.47120451 -411.03765856 356.90319828 -409.47076416 355.33505249 C-406.22187263 352.08470177 -402.9712172 348.83612887 -399.71923828 345.58886719 C-395.5462266 341.42161408 -391.37780493 337.24980273 -387.21064377 333.07670021 C-383.99209583 329.85455087 -380.77118533 326.63477172 -377.54953766 323.41572189 C-376.00976386 321.87661535 -374.47073303 320.33676513 -372.93245697 318.79616165 C-370.79819534 316.65937384 -368.66077867 314.52579414 -366.52246094 312.39306641 C-365.88774368 311.75632492 -365.25302643 311.11958344 -364.59907532 310.46354675 C-359.2066159 305.09730773 -359.2066159 305.09730773 -354.125 304.6875 C-351.17031347 304.74659373 -350.10941607 304.93435036 -347.5 306.5 C-345.80847283 309.31921196 -345.25199161 311.57505913 -345.42183018 314.87295341 C-346.13591201 317.50001084 -347.22644157 318.78223198 -349.06321716 320.78274536 C-350.01828313 321.82660086 -350.01828313 321.82660086 -350.99264336 322.89154434 C-354.16712393 326.22590525 -357.39680535 329.49477414 -360.67602539 332.72607422 C-361.40868118 333.45245087 -362.14133698 334.17882751 -362.89619446 334.92721558 C-364.47362441 336.49088779 -366.0521276 338.05347794 -367.63160896 339.61507797 C-370.13670046 342.09331313 -372.63720734 344.57608712 -375.13633728 347.06033325 C-382.23745835 354.11891737 -389.34118905 361.17480111 -396.46118164 368.21435547 C-400.82866434 372.53315418 -405.18618212 376.8617946 -409.53747368 381.19690323 C-411.18952284 382.83909817 -412.84521015 384.47764201 -414.50468636 386.11233139 C-416.83033437 388.40399705 -419.14304167 390.7080403 -421.45336914 393.01513672 C-422.47049988 394.00833923 -422.47049988 394.00833923 -423.50817871 395.02160645 C-432.03328324 403.60090808 -436.82633914 412.89414975 -438 425 C-437.83217229 434.73400744 -434.85704698 443.54008771 -428.33203125 450.875 C-421.32902375 457.28507551 -412.65595316 460.83383196 -403.18359375 461.0703125 C-384.75371128 460.25334248 -374.41669223 448.58198351 -362.14404297 436.25756836 C-361.2159935 435.32966492 -360.28794403 434.40176147 -359.33177185 433.44573975 C-356.81987106 430.93412248 -354.31103624 428.4194638 -351.80279684 425.90419078 C-349.16877997 423.26386539 -346.53187582 420.62642654 -343.89529419 417.98866272 C-338.9176686 413.00794571 -333.94259463 408.02468825 -328.96846306 403.0404821 C-323.29923836 397.36002779 -317.62712813 391.68245843 -311.95478988 386.00511348 C-300.30001011 374.33991897 -288.64880679 362.67115918 -277 351 C-278.78961164 347.14772233 -281.23697098 344.50606057 -284.24414062 341.56054688 C-284.77766647 341.02994156 -285.31119232 340.49933624 -285.86088562 339.95265198 C-287.01707771 338.80405624 -288.17557416 337.65777645 -289.33610535 336.51356506 C-291.17303107 334.70220246 -293.00360454 332.88463332 -294.8326416 331.06530762 C-298.71620601 327.20458465 -302.60753062 323.3517419 -306.5 319.5 C-311.01098644 315.03621268 -315.518733 310.56925478 -320.01811218 306.09376526 C-321.82106118 304.30377573 -323.62993209 302.51991991 -325.43908691 300.73620605 C-326.54497313 299.63758568 -327.65057908 298.53868309 -328.75585938 297.43945312 C-329.25981735 296.94582779 -329.76377533 296.45220245 -330.28300476 295.94361877 C-333.65489019 292.57276095 -335.95209636 290.10776022 -336.0625 285.25 C-333.36009808 276.98382941 -324.47929515 270.20820075 -318.5 264.125 C-317.68402344 263.27164062 -316.86804688 262.41828125 -316.02734375 261.5390625 C-308.37223757 253.77336891 -308.37223757 253.77336891 -302 253 C-296.0352003 254.77674885 -292.14343404 259.57262505 -288 264 C-285.03226566 262.65946333 -282.90570068 261.17265867 -280.57453632 258.90722466 C-279.58119753 257.9485355 -279.58119753 257.9485355 -278.56779128 256.97047889 C-277.84862649 256.26663413 -277.12946169 255.56278936 -276.38850403 254.83761597 C-275.61808405 254.09077738 -274.84766407 253.34393879 -274.05389804 252.57446873 C-271.46566349 250.06230403 -268.88470162 247.54280424 -266.30395508 245.02294922 C-264.45300097 243.22216923 -262.60183514 241.42160685 -260.75047302 239.62124634 C-243.82012345 223.1440764 -226.99174014 206.56221517 -210.18681812 189.95725822 C-207.93509724 187.73280915 -205.68311828 185.50862173 -203.4309082 183.28466797 C-202.87119694 182.73195733 -202.31148568 182.17924669 -201.73481347 181.60978724 C-192.69540177 172.68674029 -183.59994683 163.82307161 -174.48119406 154.98120175 C-165.09914595 145.88167284 -155.77786412 136.72310067 -146.50960273 127.50768673 C-141.31209408 122.34304159 -136.09131558 117.20802577 -130.80030251 112.13906479 C-104.93560292 89.88670199 -104.93560292 89.88670199 -93.06492901 59.75720406 C-93.0919362 54.63612455 -93.73747873 49.68362122 -94.89396191 44.69050789 C-95 42 -95 42 -93.27038288 39.75971317 C-91.36722919 38.28462954 -89.65364799 37.07757496 -87.50878906 36.00715637 C-86.83593872 35.66653671 -86.16308838 35.32591705 -85.46984863 34.97497559 C-84.37875793 34.4378595 -84.37875793 34.4378595 -83.265625 33.88989258 C-82.49118042 33.50077194 -81.71673584 33.11165131 -80.91882324 32.71073914 C-78.36638733 31.43082648 -75.80838804 30.16249897 -73.25 28.89453125 C-71.47138801 28.00641784 -69.69307176 27.11771193 -67.91503906 26.22843933 C-64.19190496 24.36843486 -60.46614838 22.51382969 -56.73828125 20.66333008 C-51.95917328 18.29078034 -47.18541093 15.90770867 -42.41339111 13.52093983 C-38.74331743 11.68617483 -35.07117395 9.85558645 -31.39831543 8.02640343 C-29.63716862 7.14901244 -27.87650484 6.27065121 -26.11633301 5.39130592 C-23.65766391 4.1641386 -21.19643274 2.94227524 -18.734375 1.72192383 C-17.6432843 1.1756987 -17.6432843 1.1756987 -16.53015137 0.61843872 C-9.9383253 -2.63569082 -6.59226497 -3.84520604 0 0 Z M-17.38330078 20.01342773 C-18.02586823 20.33368927 -18.66843567 20.65395081 -19.33047485 20.98391724 C-21.45503662 22.04469325 -23.57517566 23.11400478 -25.6953125 24.18359375 C-27.16813218 24.9215321 -28.64118841 25.65899849 -30.11447144 26.39601135 C-33.20136768 27.94176154 -36.28625664 29.49142204 -39.36962891 31.04418945 C-43.32944535 33.0382537 -47.29271092 35.02533765 -51.25731087 37.00987148 C-54.29841445 38.53249774 -57.33837862 40.05738613 -60.37792587 41.58311653 C-61.83943713 42.31672794 -63.30114019 43.04995735 -64.76303482 43.78280449 C-66.80158131 44.80550058 -68.83874575 45.8308947 -70.87548828 46.85717773 C-72.03670197 47.44119858 -73.19791565 48.02521942 -74.39431763 48.62693787 C-76.86141407 49.7627722 -76.86141407 49.7627722 -78 51 C-78.12184426 52.91668943 -78.17974792 54.83750742 -78.2109375 56.7578125 C-78.23929688 57.94117188 -78.26765625 59.12453125 -78.296875 60.34375 C-78.34847118 62.84100523 -78.39288199 65.33842049 -78.4296875 67.8359375 C-78.460625 69.02703125 -78.4915625 70.218125 -78.5234375 71.4453125 C-78.54325684 72.53344238 -78.56307617 73.62157227 -78.58349609 74.74267578 C-79.64163113 83.01796166 -83.90991532 87.481514 -89.64982605 93.13084412 C-90.43643138 93.92086714 -91.22303671 94.71089017 -92.03347856 95.52485329 C-94.66810107 98.1660572 -97.31675171 100.79272274 -99.96557617 103.41967773 C-101.85848527 105.31145842 -103.7505858 107.20401655 -105.64170837 109.09757996 C-109.71289569 113.17086177 -113.79132584 117.23677228 -117.87480736 121.29772758 C-123.77877004 127.16914271 -129.67161912 133.05160951 -135.56183914 138.9368074 C-145.11927223 148.48549217 -154.68559846 158.02521536 -164.25756836 167.55932617 C-173.55425296 176.81927872 -182.8467152 186.08343503 -192.13354492 195.35327148 C-192.7062599 195.92493557 -193.27897488 196.49659966 -193.86904486 197.0855869 C-196.74224344 199.95356522 -199.61535936 202.82162633 -202.4884342 205.68972862 C-226.31282235 229.47266914 -250.1516632 253.24107415 -274 277 C-272.46712414 280.22314687 -270.85849312 282.37735598 -268.3046875 284.890625 C-267.58925781 285.59960938 -266.87382812 286.30859375 -266.13671875 287.0390625 C-265.39035156 287.76867187 -264.64398438 288.49828125 -263.875 289.25 C-263.12089844 289.99507813 -262.36679687 290.74015625 -261.58984375 291.5078125 C-259.73099228 293.3431342 -257.86762995 295.1736191 -256 297 C-252.96773713 295.6423831 -250.87221916 294.12079809 -248.53047752 291.77377987 C-247.85841817 291.10508592 -247.18635882 290.43639196 -246.49393404 289.74743456 C-245.76377852 289.01077123 -245.033623 288.27410791 -244.28134155 287.51512146 C-243.49937648 286.73415968 -242.71741142 285.95319789 -241.91175044 285.1485706 C-239.28453578 282.52231093 -236.66454602 279.88895915 -234.04443359 277.25561523 C-232.1657743 275.37475548 -230.28671964 273.49429884 -228.40715027 271.61434937 C-224.35681919 267.56165584 -220.31011335 263.50537142 -216.26578903 259.44668388 C-210.41669102 253.57691129 -204.5616061 247.71314033 -198.70494325 241.85091675 C-189.20094839 232.33766523 -179.70106312 222.82032133 -170.20410156 213.30004883 C-169.63568077 212.73023472 -169.06725997 212.16042061 -168.48161431 211.57333941 C-167.91246911 211.00279869 -167.34332392 210.43225796 -166.7569319 209.84442812 C-158.68405022 201.75177034 -150.61019341 193.66008711 -142.53515625 185.56958008 C-141.96682179 185.00015477 -141.39848734 184.43072947 -140.81293063 183.84404885 C-131.34724227 174.360357 -121.87953578 164.87868154 -112.41079009 155.39804226 C-106.56730963 149.54695961 -100.72591841 143.69380479 -94.88718976 137.83798028 C-90.88986089 133.82910904 -86.89085861 129.8219126 -82.89051984 125.81604486 C-80.5801373 123.50232129 -78.27089843 121.18747513 -75.96328163 118.87099266 C-73.46602265 116.36434739 -70.96575323 113.86074468 -68.46469116 111.3578949 C-67.7300742 110.61900085 -66.99545724 109.88010681 -66.23857915 109.11882204 C-65.5717353 108.45273583 -64.90489144 107.78664963 -64.21784019 107.10037899 C-63.64055526 106.52163019 -63.06327033 105.94288139 -62.46849191 105.34659475 C-59.26695806 102.41081509 -56.24087644 102.80360218 -52.0234375 102.68359375 C-51.33819 102.66281265 -50.6529425 102.64203156 -49.94692993 102.62062073 C-47.75638931 102.55519815 -45.56572811 102.49627446 -43.375 102.4375 C-41.8906125 102.39430782 -40.40623722 102.3506933 -38.921875 102.30664062 C-35.28137916 102.19952447 -31.64074749 102.09823638 -28 102 C-23.53557742 93.21007576 -19.08407941 84.41374118 -14.64903927 75.60895157 C-12.58933902 71.52088476 -10.52522655 67.43517363 -8.45092773 63.35449219 C-6.44988742 59.41752565 -4.4605744 55.47483947 -2.47931099 51.52788544 C-1.72075073 50.02186507 -0.95796353 48.51796619 -0.19093132 47.01624298 C0.88140372 44.9150244 1.9385615 42.80681494 2.99243164 40.69628906 C3.47471222 39.76408539 3.47471222 39.76408539 3.96673584 38.81304932 C5.2084531 36.29364209 6.0524159 34.52018949 5.76667786 31.68444824 C4.83866996 29.6455459 3.74301216 28.35484345 2.1640625 26.765625 C1.59429687 26.19199219 1.02453125 25.61835937 0.4375 25.02734375 C-0.160625 24.44082031 -0.75875 23.85429688 -1.375 23.25 C-1.96539062 22.64800781 -2.55578125 22.04601562 -3.1640625 21.42578125 C-3.73640625 20.85730469 -4.30875 20.28882813 -4.8984375 19.703125 C-5.42099121 19.18395508 -5.94354492 18.66478516 -6.48193359 18.12988281 C-10.18360601 15.3747622 -13.81895632 18.22566803 -17.38330078 20.01342773 Z M-306.3828125 277.1875 C-307.74019531 278.5796875 -307.74019531 278.5796875 -309.125 280 C-310.03507813 280.928125 -310.94515625 281.85625 -311.8828125 282.8125 C-312.58148438 283.534375 -313.28015625 284.25625 -314 285 C-312.450168 288.70044944 -310.19605329 291.04581087 -307.36669922 293.86035156 C-306.89823578 294.32910706 -306.42977234 294.79786255 -305.94711304 295.28082275 C-304.40433305 296.82221432 -302.85460036 298.35640873 -301.3046875 299.890625 C-300.23093808 300.96064255 -299.15763067 302.03110381 -298.08474731 303.10198975 C-295.26479548 305.91431879 -292.43888846 308.72058889 -289.61169434 311.52563477 C-286.7257863 314.39105523 -283.84555743 317.26217168 -280.96484375 320.1328125 C-275.31543511 325.76079512 -269.65972175 331.38238884 -264 337 C-260.58940597 335.39464713 -258.38207516 333.59481099 -255.75 330.875 C-255.04359375 330.15054688 -254.3371875 329.42609375 -253.609375 328.6796875 C-253.07828125 328.12539063 -252.5471875 327.57109375 -252 327 C-253.54873576 323.31246439 -255.79037476 320.95614716 -258.6015625 318.13964844 C-259.06681335 317.67089294 -259.53206421 317.20213745 -260.01141357 316.71917725 C-261.54429638 315.17752068 -263.08434442 313.64326096 -264.625 312.109375 C-265.69381503 311.03921253 -266.76233303 309.96875333 -267.83056641 308.89801025 C-270.06674918 306.65888251 -272.30650093 304.4234037 -274.54882812 302.19042969 C-277.42751696 299.3231626 -280.29709784 296.44697384 -283.16409302 293.56801987 C-285.3668827 291.35801821 -287.57439501 289.15278367 -289.78338623 286.94898224 C-290.84384127 285.8898641 -291.90280509 284.82925074 -292.96026611 283.76714325 C-294.43488252 282.28746951 -295.91571938 280.81432254 -297.3984375 279.34277344 C-298.24067871 278.50212341 -299.08291992 277.66147339 -299.95068359 276.79534912 C-302.97654686 274.14447445 -303.41593495 274.46380913 -306.3828125 277.1875 Z " fill="#000000" transform="translate(471,18)"/>
<path d="M0 0 C0.68969879 -0.01139008 1.37939758 -0.02278015 2.08999634 -0.03451538 C9.31399063 -0.14527287 16.5390073 -0.19262012 23.76367188 -0.23535156 C27.18801201 -0.25759703 30.61125713 -0.29931773 34.03515625 -0.35839844 C38.1743466 -0.42967817 42.31250938 -0.46621154 46.45228195 -0.47846985 C48.02555213 -0.48884056 49.59879312 -0.51119414 51.17171097 -0.54606628 C65.00964146 -0.83690261 65.00964146 -0.83690261 69.79418945 3.25268555 C70.98859272 4.55059691 72.15398314 5.87574306 73.29052734 7.22460938 C74.64928313 8.55978054 76.01809131 9.88478354 77.39575195 11.20043945 C78.83079724 12.62899381 80.26307567 14.06033187 81.69287109 15.49414062 C82.45604141 16.25635422 83.21921173 17.01856781 84.00550842 17.80387878 C85.60247523 19.40017005 87.19819988 20.9977049 88.79272461 22.59643555 C91.2420247 25.0511376 93.69667638 27.50039833 96.15185547 29.94921875 C97.70751514 31.50553845 99.26286501 33.06216789 100.81787109 34.61914062 C101.55319565 35.35244095 102.2885202 36.08574127 103.04612732 36.84126282 C103.72095657 37.51924423 104.39578583 38.19722565 105.09106445 38.89575195 C105.98419594 39.79007683 105.98419594 39.79007683 106.89537048 40.70246887 C108.29052734 42.22460937 108.29052734 42.22460937 109.29052734 44.22460938 C109.08319548 45.92889936 108.79894776 47.62402407 108.48022461 49.31103516 C105.07702218 69.22318179 101.39937923 94.99581497 113.14080811 112.86791992 C128.49616129 134.20724892 149.96735506 151.95542666 170.11563969 168.62561226 C173.69735753 171.6097969 175.13190693 172.82346243 175.66552734 177.53710938 C175.29052734 181.22460937 175.29052734 181.22460937 173.22802734 184.16210938 C170.29052734 186.22460938 170.29052734 186.22460938 166.97802734 186.97460938 C157.10768083 184.96708127 148.17586396 172.25504261 141.20068359 165.26757812 C139.84702393 163.914593 138.49321593 162.56175628 137.13926697 161.20906067 C134.31786203 158.3891226 131.49825541 155.56740214 128.67993164 152.74438477 C125.06287448 149.12159793 121.44130183 145.50336339 117.81839848 141.88642406 C115.02944005 139.1010706 112.24285705 136.31335054 109.45699883 133.52489662 C108.12164186 132.18887191 106.78553982 130.85359148 105.4486866 129.51906395 C103.58893521 127.66184153 101.73240126 125.80146252 99.87670898 123.94018555 C99.32247757 123.38797836 98.76824615 122.83577118 98.19721985 122.26683044 C94.40479879 118.45315228 94.40479879 118.45315228 93.29052734 116.22460938 C93.3493164 114.37298616 93.47884866 112.52345762 93.640625 110.67797852 C97.49533615 72.18770471 97.49533615 72.18770471 83.75239563 37.62704468 C72.85572049 25.20512423 60.70339339 16.08725768 43.85856628 14.97543335 C35.56159088 14.74999493 27.43032722 15.68310894 19.29052734 17.22460938 C19.80195786 17.73381927 20.31338837 18.24302917 20.84031677 18.76766968 C25.65467966 23.56201296 30.46664816 28.35874751 35.27592373 33.15819359 C37.74862677 35.62567337 40.22225338 38.09221237 42.69799805 40.55664062 C45.54279834 43.38851847 48.38356379 46.22441301 51.22412109 49.06054688 C52.11578476 49.94704926 53.00744843 50.83355164 53.9261322 51.74691772 C54.7469075 52.56761749 55.5676828 53.38831726 56.41333008 54.23388672 C57.13947006 54.95780609 57.86561005 55.68172546 58.61375427 56.42758179 C62.88519374 61.0053596 61.66986696 67.6874447 61.75048828 73.60791016 C61.77699502 75.09196422 61.81781106 76.57583765 61.87353516 78.05908203 C62.3887916 91.94927821 62.3887916 91.94927821 58.37255859 96.62695312 C57.03651268 97.85355373 55.67346534 99.05113154 54.29052734 100.22460938 C52.69104376 101.84928961 51.10173036 103.484025 49.52099609 105.12695312 C47.84261881 106.80795083 46.16159303 108.48630802 44.47802734 110.16210938 C43.62015625 111.02384766 42.76228516 111.88558594 41.87841797 112.7734375 C41.05921875 113.59134766 40.24001953 114.40925781 39.39599609 115.25195312 C38.65502686 115.99179443 37.91405762 116.73163574 37.15063477 117.49389648 C32.52104729 121.80143627 25.88967714 120.60310492 19.90722656 120.68457031 C18.4231725 120.71107705 16.93929907 120.75189309 15.45605469 120.80761719 C13.30377704 120.88745587 11.15501351 120.91999097 9.00146484 120.94335938 C7.71546387 120.97365234 6.42946289 121.00394531 5.10449219 121.03515625 C-0.2780255 119.89125926 -2.90971972 117.05527548 -6.70947266 113.22460938 C-7.72105942 112.24374863 -7.72105942 112.24374863 -8.75308228 111.24307251 C-10.9055446 109.14391979 -13.02857097 107.01826299 -15.14697266 104.88476562 C-15.91251465 104.11780869 -16.67805664 103.35085175 -17.46679688 102.56065369 C-19.88340463 100.13850056 -22.29648992 97.71287325 -24.70947266 95.28710938 C-26.35897951 93.63258045 -28.00871694 91.97828136 -29.65869141 90.32421875 C-33.67828637 86.29366735 -37.69500435 82.26026665 -41.70947266 78.22460938 C-44.88254316 94.97981639 -45.90620415 111.71797926 -36.16650391 126.50585938 C-27.43450422 138.43892538 -16.06695365 149.92055418 -0.94173622 152.42788029 C11.17683094 154.04661863 23.42456985 153.73628925 35.59912109 153.0402832 C36.28998212 153.00277419 36.98084314 152.96526518 37.69263935 152.92661953 C40.97923433 152.74127088 44.24517609 152.50183749 47.52079773 152.17198181 C57.20215769 151.41094455 57.20215769 151.41094455 61.25683594 154.83178711 C62.62424832 156.2747472 63.96514642 157.74294955 65.29052734 159.22460938 C66.84801579 160.78260652 68.42757192 162.31654211 70.00647926 163.85281467 C73.16049984 166.93287184 76.26590181 170.06168639 79.38037109 173.18164062 C80.73403076 174.53462575 82.08783876 175.88746247 83.44178772 177.24015808 C86.26319266 180.06009615 89.08279928 182.88181661 91.90112305 185.70483398 C95.51818021 189.32762082 99.13975286 192.94585536 102.76265621 196.56279469 C105.55161463 199.34814815 108.33819764 202.13586821 111.12405586 204.92432213 C112.45941283 206.26034684 113.79551487 207.59562727 115.13236809 208.9301548 C116.99211947 210.78737722 118.84865343 212.64775623 120.7043457 214.5090332 C121.25857712 215.06124039 121.81280853 215.61344757 122.38383484 216.18238831 C127.14897596 220.97423879 127.14897596 220.97423879 127.66552734 225.53710938 C127.29052734 229.22460938 127.29052734 229.22460938 125.22802734 232.16210938 C122.29052734 234.22460938 122.29052734 234.22460938 118.97802734 234.97460938 C110.19843181 233.18892893 104.63163839 224.2183167 99.1756897 217.61482239 C72.08904001 182.87924939 72.08904001 182.87924939 33.72602081 165.59355164 C20.6972507 164.59951569 7.34992337 165.51281531 -5.52676392 167.68962097 C-13.45650287 168.88640385 -13.45650287 168.88640385 -16.97846985 167.02616882 C-19.0869514 165.22157317 -20.87847134 163.30885319 -22.70947266 161.22460938 C-24.0705966 159.89185248 -25.43921807 158.56671568 -26.81469727 157.2487793 C-28.24974255 155.82022494 -29.68202098 154.38888688 -31.11181641 152.95507812 C-32.25657188 151.81175774 -32.25657188 151.81175774 -33.42445374 150.64533997 C-35.02142054 149.0490487 -36.61714519 147.45151385 -38.21166992 145.8527832 C-40.66097001 143.39808115 -43.1156217 140.94882042 -45.57080078 138.5 C-47.12646046 136.9436803 -48.68181032 135.38705086 -50.23681641 133.83007812 C-51.33980324 132.73012764 -51.33980324 132.73012764 -52.46507263 131.60795593 C-53.13990189 130.92997452 -53.81473114 130.2519931 -54.51000977 129.5534668 C-55.40314125 128.65914192 -55.40314125 128.65914192 -56.3143158 127.74674988 C-59.26584033 124.52658506 -58.85332665 121.70304265 -58.88647461 117.45166016 C-58.89304581 116.75553619 -58.899617 116.05941223 -58.90638733 115.3421936 C-58.92612464 113.03476864 -58.93778307 110.72740874 -58.94775391 108.41992188 C-58.95182943 107.63240414 -58.95590496 106.8448864 -58.96010399 106.03350449 C-58.98096539 101.86625175 -58.99526745 97.69903195 -59.00463867 93.53173828 C-59.0157106 89.22506396 -59.05011878 84.91890527 -59.08981037 80.61241341 C-59.11593842 77.30271434 -59.12432702 73.99313893 -59.12792015 70.68334579 C-59.13279509 69.0956969 -59.14443493 67.50805385 -59.16295815 65.92050552 C-59.18727271 63.69870201 -59.18639968 61.47824311 -59.17944336 59.25634766 C-59.1853096 57.99219025 -59.19117584 56.72803284 -59.19721985 55.42556763 C-58.70947266 52.22460938 -58.70947266 52.22460938 -56.91447449 49.82809448 C-54.25103052 47.89122864 -52.10868946 47.47087349 -48.8248291 47.66014099 C-41.13725414 49.71151773 -34.76793202 59.23008025 -29.46327209 64.85412407 C-26.36981667 68.11885268 -23.23425066 71.34331539 -20.10614777 74.57479763 C-17.37793544 77.39780246 -14.66615988 80.23366229 -11.98486328 83.10131836 C-9.36566853 85.90083612 -6.70792345 88.65818409 -4.02073669 91.3924427 C-3.01437327 92.43054009 -2.02219575 93.48261364 -1.04603577 94.54916191 C3.80409712 99.83243419 8.1262503 103.70609533 15.53437042 104.09182072 C23.23791495 104.08556849 27.90053898 102.66001404 33.45068359 97.25195312 C34.22283203 96.41792969 34.99498047 95.58390625 35.79052734 94.72460938 C36.62455078 93.95246094 37.45857422 93.1803125 38.31787109 92.38476562 C43.66115469 86.90110019 45.22485921 82.18877411 45.25837517 74.56185341 C44.75545968 65.58189095 38.81957215 60.81851103 32.54833984 55.06054688 C31.33867188 53.89097761 30.13282654 52.71744306 28.93063354 51.54019165 C25.77875352 48.47146709 22.58367715 45.45224922 19.37475586 42.44335938 C14.23588971 37.60738216 9.17118437 32.69344214 4.0981102 27.78868484 C2.32739193 26.08844266 0.54085169 24.40643028 -1.24972534 22.72714233 C-2.34181782 21.68793819 -3.43371667 20.64853051 -4.52539062 19.60888672 C-5.95768509 18.26230484 -5.95768509 18.26230484 -7.41891479 16.88851929 C-9.87765004 14.02901973 -10.858008 11.87520776 -11.70947266 8.22460938 C-11.1903681 5.45778207 -10.09364187 3.74577472 -8.70947266 1.22460938 C-5.80820908 -0.22602241 -3.2411644 0.04896815 0 0 Z " fill="#000000" transform="translate(74.70947265625,15.775390625)"/>
<path d="M0 0 C2.41555585 1.99371846 3.99464872 3.5693897 5.88110352 5.97265625 C6.96779283 7.26380888 8.05506562 8.5544706 9.14283752 9.8447113 C9.70810213 10.53182127 10.27336674 11.21893124 10.85576057 11.92686272 C39.56288014 48.91085485 39.56288014 48.91085485 79.94148064 68.03795242 C92.88899963 69.10456066 106.21558745 68.09013151 118.97044373 65.68824768 C126.76661409 64.35199786 126.76661409 64.35199786 130.25563049 66.18507385 C132.36868228 67.99360891 134.16449748 69.91164381 136 72 C137.36111815 73.33276281 138.72973407 74.65790554 140.10522461 75.97583008 C141.5402699 77.40438443 142.97254832 78.83572249 144.40234375 80.26953125 C145.16551407 81.03174484 145.92868439 81.79395844 146.71498108 82.57926941 C148.31194789 84.17556068 149.90767253 85.77309553 151.50219727 87.37182617 C153.95149736 89.82652823 156.40614904 92.27578896 158.86132812 94.72460938 C160.4169878 96.28092907 161.97233766 97.83755852 163.52734375 99.39453125 C164.63033058 100.49448174 164.63033058 100.49448174 165.75559998 101.61665344 C166.43042923 102.29463486 167.10525848 102.97261627 167.80053711 103.67114258 C168.3959581 104.26735916 168.99137909 104.86357574 169.60484314 105.4778595 C172.55636768 108.69802432 172.14385399 111.52156673 172.17700195 115.77294922 C172.18357315 116.46907318 172.19014435 117.16519714 172.19691467 117.88241577 C172.21665198 120.18984073 172.22831041 122.49720064 172.23828125 124.8046875 C172.24235678 125.59220524 172.2464323 126.37972298 172.25063133 127.19110489 C172.27149273 131.35835763 172.2857948 135.52557742 172.29516602 139.69287109 C172.30623794 143.99954542 172.34064613 148.3057041 172.38033772 152.61219597 C172.40646576 155.92189503 172.41485436 159.23147045 172.41844749 162.54126358 C172.42332244 164.12891248 172.43496228 165.71655553 172.45348549 167.30410385 C172.47780005 169.52590737 172.47692702 171.74636626 172.4699707 173.96826172 C172.47583694 175.23241913 172.48170319 176.49657654 172.48774719 177.79904175 C172 181 172 181 170.20500183 183.39651489 C167.54155787 185.33338073 165.39921681 185.75373588 162.11535645 185.56446838 C154.42778149 183.51309164 148.05845936 173.99452912 142.75379944 168.37048531 C139.66034402 165.1057567 136.524778 161.88129399 133.39667511 158.64981174 C130.66846279 155.82680692 127.95668722 152.99094709 125.27539062 150.12329102 C122.65619588 147.32377326 119.99845079 144.56642529 117.31126404 141.83216667 C116.30490061 140.79406929 115.31272309 139.74199573 114.33656311 138.67544746 C109.48643022 133.39217519 105.16427705 129.51851404 97.75615692 129.13278866 C90.05261239 129.13904089 85.38998837 130.56459534 79.83984375 135.97265625 C79.06769531 136.80667969 78.29554688 137.64070312 77.5 138.5 C76.66597656 139.27214844 75.83195313 140.04429687 74.97265625 140.83984375 C69.63313892 146.31964397 68.064017 151.03111362 68.02974033 158.6531086 C68.53481686 167.66101696 74.50827441 172.49963175 80.77734375 178.3046875 C81.98919335 179.48408311 83.19743883 180.66719221 84.40223694 181.85379028 C87.55887532 184.94417847 90.76005451 187.98387011 93.97406006 191.0144043 C97.24913863 194.1179355 100.48164948 197.26510974 103.71679688 200.41015625 C107.34877753 203.93813301 110.98442492 207.46126827 114.65354919 210.95065308 C115.20775543 211.47869537 115.76196167 212.00673767 116.33296204 212.55078125 C117.8298292 213.97504191 119.3296587 215.39618738 120.82969666 216.81710815 C124.11951069 220.12600423 124.1711216 222.3106884 124.42578125 226.9296875 C123.79260845 230.00841763 122.44624343 231.06293313 120 233 C116.8394165 233.52812195 116.8394165 233.52812195 113.06347656 233.56518555 C112.37348572 233.5770137 111.68349487 233.58884186 110.97259521 233.60102844 C108.69494683 233.6338834 106.41849469 233.63687241 104.140625 233.63671875 C102.55124426 233.64703806 100.96186819 233.6581017 99.37249756 233.6698761 C96.04019931 233.68930815 92.70832066 233.69273108 89.37597656 233.6862793 C85.12067251 233.68029534 80.86755932 233.72443754 76.61270523 233.78216839 C73.32848021 233.8192835 70.04477679 233.82406163 66.76036835 233.81989479 C65.19274618 233.82275516 63.62510104 233.83673807 62.05768585 233.86237144 C48.29596717 234.06371053 48.29596717 234.06371053 43.50073242 229.96533203 C42.30512118 228.66945784 41.13826346 227.34652608 40 226 C38.64101293 224.66506424 37.27221536 223.34005687 35.89477539 222.02416992 C34.4597301 220.59561557 33.02745168 219.16427751 31.59765625 217.73046875 C30.83448593 216.96825516 30.07131561 216.20604156 29.28501892 215.42073059 C27.68805211 213.82443932 26.09232747 212.22690447 24.49780273 210.62817383 C22.04850264 208.17347177 19.59385096 205.72421104 17.13867188 203.27539062 C15.5830122 201.71907093 14.02766234 200.16244148 12.47265625 198.60546875 C11.7373317 197.87216843 11.00200714 197.1388681 10.24440002 196.38334656 C9.56957077 195.70536514 8.89474152 195.02738373 8.19946289 194.32885742 C7.30633141 193.43453255 7.30633141 193.43453255 6.39515686 192.5221405 C5 191 5 191 4 189 C4.20733186 187.29571001 4.49157958 185.60058531 4.81030273 183.91357422 C8.21350516 164.00142759 11.89114812 138.2287944 0.14971924 120.35668945 C-15.20563395 99.01736046 -36.67682772 81.26918271 -56.82511234 64.59899712 C-60.40683018 61.61481248 -61.84137959 60.40114695 -62.375 55.6875 C-62 52 -62 52 -59.9375 49.0625 C-57 47 -57 47 -53.6875 46.25 C-43.81715349 48.2575281 -34.88533661 60.96956677 -27.91015625 67.95703125 C-26.55649659 69.31001637 -25.20268859 70.66285309 -23.84873962 72.01554871 C-21.02733468 74.83548677 -18.20772806 77.65720723 -15.3894043 80.48022461 C-11.77234713 84.10301144 -8.15077449 87.72124598 -4.52787113 91.33818531 C-1.73891271 94.12353877 1.04767029 96.91125884 3.83352852 99.69971275 C5.16888548 101.03573747 6.50498753 102.37101789 7.84184074 103.70554543 C9.70159213 105.56276784 11.55812608 107.42314686 13.41381836 109.28442383 C13.96804977 109.83663101 14.52228119 110.3888382 15.0933075 110.95777893 C18.88572855 114.7714571 18.88572855 114.7714571 20 117 C19.94121094 118.85162322 19.81167868 120.70115176 19.64990234 122.54663086 C15.7951912 161.03690466 15.7951912 161.03690466 29.53813171 195.5975647 C40.43480685 208.01948514 52.58713396 217.13735169 69.43196106 218.24917603 C77.72893647 218.47461445 85.86020013 217.54150043 94 216 C93.48856949 215.4907901 92.97713898 214.9815802 92.45021057 214.4569397 C87.63584769 209.66259641 82.82387918 204.86586187 78.01460361 200.06641579 C75.54190057 197.59893601 73.06827396 195.132397 70.5925293 192.66796875 C67.74772901 189.83609091 64.90696355 187.00019636 62.06640625 184.1640625 C61.17474258 183.27756012 60.28307892 182.39105774 59.36439514 181.47769165 C58.54361984 180.65699188 57.72284454 179.83629211 56.87719727 178.99072266 C56.15105728 178.26680328 55.4249173 177.54288391 54.67677307 176.79702759 C50.40533361 172.21924978 51.62066038 165.53716467 51.54003906 159.61669922 C51.51353232 158.13264516 51.47271629 156.64877172 51.41699219 155.16552734 C50.90173575 141.27533116 50.90173575 141.27533116 54.91796875 136.59765625 C56.25401466 135.37105564 57.617062 134.17347784 59 133 C60.59948359 131.37531976 62.18879699 129.74058437 63.76953125 128.09765625 C65.44790854 126.41665855 67.12893432 124.73830135 68.8125 123.0625 C69.67037109 122.20076172 70.52824219 121.33902344 71.41210938 120.45117188 C72.23130859 119.63326172 73.05050781 118.81535156 73.89453125 117.97265625 C74.63550049 117.23281494 75.37646973 116.49297363 76.13989258 115.73071289 C80.76948005 111.42317311 87.40085021 112.62150446 93.38330078 112.54003906 C94.86735484 112.51353232 96.35122828 112.47271629 97.83447266 112.41699219 C99.98675031 112.33715351 102.13551383 112.30461841 104.2890625 112.28125 C105.57506348 112.25095703 106.86106445 112.22066406 108.18603516 112.18945312 C113.56855284 113.33335011 116.20024706 116.16933389 120 120 C120.67439117 120.65390717 121.34878235 121.30781433 122.04360962 121.98153687 C124.19607195 124.08068959 126.31909831 126.20634639 128.4375 128.33984375 C129.20304199 129.10680069 129.96858398 129.87375763 130.75732422 130.66395569 C133.17393197 133.08610881 135.58701726 135.51173612 138 137.9375 C139.64950686 139.59202893 141.29924429 141.24632802 142.94921875 142.90039062 C146.96881371 146.93094202 150.98553169 150.96434272 155 155 C158.1730705 138.24479299 159.19673149 121.50663012 149.45703125 106.71875 C140.72503156 94.785684 129.35748099 83.30405519 114.23226357 80.79672909 C102.1136964 79.17799074 89.8659575 79.48832012 77.69140625 80.18432617 C76.65511471 80.24058969 76.65511471 80.24058969 75.59788799 80.29798985 C72.31129301 80.48333849 69.04535125 80.72277189 65.76972961 81.05262756 C56.08836965 81.81366483 56.08836965 81.81366483 52.03369141 78.39282227 C50.66627903 76.94986218 49.32538092 75.48165983 48 74 C46.44251155 72.44200285 44.86295542 70.90806726 43.28404808 69.3717947 C40.13002751 66.29173753 37.02462554 63.16292299 33.91015625 60.04296875 C32.55649659 58.68998363 31.20268859 57.33714691 29.84873962 55.98445129 C27.02733468 53.16451323 24.20772806 50.34279277 21.3894043 47.51977539 C17.77234713 43.89698856 14.15077449 40.27875402 10.52787113 36.66181469 C7.73891271 33.87646123 4.95232971 31.08874116 2.16647148 28.30028725 C0.83111452 26.96426253 -0.50498753 25.62898211 -1.84184074 24.29445457 C-3.70159213 22.43723216 -5.55812608 20.57685314 -7.41381836 18.71557617 C-7.96804977 18.16336899 -8.52228119 17.6111618 -9.0933075 17.04222107 C-13.89184078 12.21679126 -13.89184078 12.21679126 -14.25 8.1875 C-13.96929042 4.60845281 -13.12271416 2.85749983 -11 0 C-7.45491032 -1.77254484 -3.73527089 -1.0124789 0 0 Z " fill="#000000" transform="translate(324,263)"/>
</svg>
