<?xml version="1.0" standalone="no"?>
<!DOCTYPE svg PUBLIC "-//W3C//DTD SVG 20010904//EN"
 "http://www.w3.org/TR/2001/REC-SVG-20010904/DTD/svg10.dtd">
<svg version="1.0" xmlns="http://www.w3.org/2000/svg"
 width="2339.000000pt" height="1654.000000pt" viewBox="0 0 2339.000000 1654.000000"
 preserveAspectRatio="xMidYMid meet">

<g transform="translate(0.000000,1654.000000) scale(0.100000,-0.100000)"
fill="#000000" stroke="none">
<path d="M3310 11694 c-152 -18 -364 -69 -396 -95 -7 -6 -22 -12 -34 -14 -38
-7 -260 -118 -254 -127 3 -5 2 -7 -3 -6 -14 4 -54 -13 -49 -21 3 -4 -5 -8 -16
-8 -11 -1 -28 -8 -37 -16 -9 -8 -43 -29 -76 -47 -174 -97 -301 -194 -332 -254
-23 -45 -33 -85 -22 -92 5 -3 6 -10 3 -16 -8 -12 25 -88 38 -88 5 0 7 -4 4 -9
-5 -7 24 -54 68 -108 85 -105 129 -152 138 -147 6 4 8 3 5 -3 -8 -13 77 -96
88 -86 4 5 5 3 2 -3 -8 -14 17 -37 28 -26 5 4 5 2 2 -5 -7 -12 232 -208 241
-198 4 4 -79 108 -108 135 -11 11 -119 157 -145 197 -15 24 -32 40 -38 36 -6
-4 -7 -1 -3 6 5 7 1 20 -7 29 -8 9 -24 36 -36 60 -12 23 -26 42 -32 42 -6 0
-8 4 -5 8 2 4 -4 27 -14 51 -69 153 -51 274 53 354 20 15 37 27 39 27 2 0 3
-17 4 -37 1 -51 11 -85 26 -95 7 -4 10 -8 6 -8 -10 0 11 -45 56 -122 22 -37
44 -64 49 -61 6 3 7 1 3 -5 -7 -13 70 -132 85 -132 5 0 8 -6 6 -12 -1 -7 5
-12 13 -10 8 2 12 0 8 -4 -4 -4 2 -21 15 -38 25 -35 265 -325 308 -371 15 -16
42 -47 59 -67 18 -21 37 -35 43 -31 6 3 7 1 3 -5 -6 -10 22 -48 101 -132 75
-81 122 -135 123 -141 0 -3 -45 -55 -100 -114 -54 -59 -96 -113 -93 -118 3 -6
1 -7 -4 -4 -11 7 -90 -82 -85 -95 1 -5 -2 -7 -7 -6 -5 2 -68 -67 -140 -152
-183 -216 -201 -238 -201 -244 0 -3 -10 -16 -22 -28 -13 -13 -34 -39 -48 -57
-14 -19 -44 -58 -67 -89 -24 -30 -43 -57 -43 -61 0 -3 -16 -24 -35 -46 -19
-22 -35 -45 -35 -52 0 -6 -4 -13 -9 -15 -10 -4 -223 -318 -215 -318 3 0 -1 -7
-10 -15 -19 -19 -143 -225 -148 -245 -2 -8 -8 -19 -15 -25 -24 -22 -244 -465
-255 -515 -2 -8 -5 -17 -9 -20 -13 -12 -49 -111 -44 -120 3 -6 2 -10 -3 -10
-12 0 -34 -59 -26 -71 3 -5 1 -9 -4 -9 -11 0 -64 -159 -56 -171 3 -5 0 -9 -6
-9 -7 0 -10 -7 -6 -15 3 -8 1 -15 -3 -15 -5 0 -12 -18 -16 -40 -4 -22 -12 -43
-17 -46 -7 -4 -8 -2 -4 4 4 7 2 12 -3 12 -6 0 -10 3 -10 8 1 4 0 10 -1 15 -1
4 -4 12 -5 17 -1 6 -3 11 -5 13 -6 8 -22 125 -22 162 1 49 15 166 26 210 2 11
11 48 19 82 8 34 12 64 9 67 -3 3 -1 6 5 6 6 0 14 15 18 33 4 17 8 34 9 37 3
11 29 77 47 117 11 24 19 47 19 52 0 13 203 416 219 435 7 8 9 21 5 27 -4 7
-3 9 3 6 5 -3 20 13 32 36 12 23 44 76 71 117 26 41 45 79 42 84 -3 5 0 6 5 3
6 -4 18 8 27 27 8 18 22 39 31 46 8 7 15 17 15 22 0 5 7 16 15 25 8 8 12 19 9
25 -4 6 -3 9 2 6 5 -4 25 17 44 45 50 75 192 258 277 358 40 47 73 90 73 95 0
20 -361 -353 -462 -478 -60 -75 -108 -139 -106 -141 1 -3 -8 -14 -22 -26 -14
-11 -22 -20 -18 -21 3 0 -7 -14 -23 -31 -16 -17 -26 -36 -22 -43 3 -6 2 -8 -2
-3 -11 9 -46 -43 -38 -56 3 -6 1 -7 -5 -3 -13 8 -35 -28 -24 -39 4 -5 2 -6 -3
-2 -11 6 -92 -111 -87 -125 1 -5 -2 -8 -7 -8 -9 0 -59 -71 -63 -91 -2 -6 -13
-23 -25 -36 -12 -14 -25 -35 -29 -47 -4 -11 -15 -32 -25 -45 -10 -13 -16 -27
-13 -32 3 -5 0 -9 -6 -9 -6 0 -8 -4 -5 -10 3 -5 2 -10 -3 -10 -4 0 -18 -18
-31 -40 -12 -22 -19 -40 -16 -40 4 0 -1 -7 -9 -16 -9 -8 -14 -20 -11 -25 4 -5
1 -9 -4 -9 -6 0 -11 -9 -11 -20 0 -11 -5 -20 -11 -20 -5 0 -7 -4 -4 -10 3 -5
1 -10 -5 -10 -6 0 -8 -4 -5 -10 3 -5 1 -10 -5 -10 -6 0 -8 -4 -5 -10 3 -5 1
-10 -5 -10 -6 0 -8 -4 -5 -10 3 -5 2 -10 -3 -10 -12 0 -33 -56 -25 -64 4 -3 1
-6 -6 -6 -7 0 -10 -4 -6 -9 3 -5 1 -12 -5 -16 -6 -4 -8 -11 -5 -16 4 -5 2 -9
-3 -9 -12 0 -43 -86 -34 -94 3 -3 1 -6 -5 -6 -9 0 -34 -67 -37 -100 -1 -9 -5
-20 -8 -25 -12 -20 -49 -176 -43 -185 3 -5 1 -11 -4 -15 -5 -3 -8 -15 -6 -27
3 -11 1 -26 -3 -32 -9 -14 -12 -65 -13 -201 0 -105 27 -258 49 -274 4 -4 8
-13 10 -21 9 -44 118 -160 143 -153 5 2 9 -2 9 -8 0 -8 5 -7 16 1 12 11 15 11
12 -1 -2 -9 4 -13 18 -12 25 3 51 -22 58 -57 12 -58 15 -70 26 -89 6 -12 8
-21 5 -21 -6 0 52 -98 73 -122 8 -10 19 -15 25 -11 5 3 7 2 4 -4 -4 -5 9 -24
28 -41 19 -16 35 -28 35 -25 0 4 8 -1 18 -10 10 -10 22 -14 25 -10 4 3 7 1 7
-6 0 -7 6 -11 14 -8 7 3 19 0 25 -6 20 -20 186 -13 280 12 116 31 292 101 284
114 -3 6 -1 7 5 3 12 -7 50 10 179 82 45 25 79 50 76 55 -3 6 -1 7 5 3 15 -9
144 73 135 86 -3 7 -1 8 5 4 13 -8 74 23 67 34 -2 4 2 7 9 7 27 0 338 222 329
235 -3 7 -1 8 5 4 12 -7 112 60 112 76 0 5 5 6 10 3 6 -3 13 1 16 9 3 9 11 16
17 16 6 0 17 7 26 15 9 9 44 36 78 61 35 26 60 51 56 57 -3 6 -1 7 5 3 6 -4
20 2 32 14 11 11 23 20 27 20 4 0 30 19 57 42 28 24 56 46 61 50 98 74 215
180 497 447 113 107 91 115 -38 13 -16 -13 -79 -58 -141 -101 -62 -43 -109
-82 -105 -85 4 -4 2 -6 -4 -4 -8 2 -303 -185 -474 -302 -134 -91 -750 -424
-810 -438 -7 -2 -29 -10 -49 -19 -20 -9 -40 -17 -46 -18 -5 -2 -44 -13 -85
-25 -41 -13 -84 -24 -95 -25 -11 -1 -20 -3 -20 -4 0 -1 -20 -4 -45 -6 -25 -2
-49 -4 -55 -5 -30 -5 -161 23 -185 40 -15 11 -30 17 -33 14 -3 -4 -5 3 -4 14
0 11 4 19 8 16 11 -7 139 47 139 58 0 5 4 7 9 3 5 -3 17 2 25 11 9 8 16 13 16
9 0 -9 245 119 422 220 86 49 154 94 151 100 -4 5 -3 7 2 3 9 -8 34 5 242 132
88 53 150 97 146 103 -4 6 -1 7 6 2 8 -4 39 11 79 37 37 25 119 78 182 118 63
41 120 79 125 84 6 6 22 17 37 25 15 8 37 22 47 33 11 10 23 18 26 18 7 0 127
80 135 90 3 3 44 32 93 64 52 34 85 61 81 68 -4 7 -2 8 5 4 6 -4 38 12 74 37
34 24 103 72 152 106 50 33 101 70 112 81 12 11 25 20 28 20 18 0 344 244 338
253 -3 6 -1 7 6 3 10 -6 63 28 161 105 13 10 28 19 34 19 5 0 46 -27 93 -60
46 -33 86 -60 90 -60 3 0 11 -6 17 -13 18 -23 470 -340 483 -340 6 0 11 -4 10
-8 -2 -7 126 -100 318 -230 55 -38 105 -72 110 -77 58 -48 226 -153 236 -147
7 5 10 4 5 -3 -8 -14 80 -75 96 -66 6 4 8 3 5 -3 -7 -11 291 -213 312 -213 6
0 11 -3 11 -8 0 -4 35 -29 78 -55 42 -27 115 -72 162 -102 47 -30 91 -52 98
-50 7 3 10 0 7 -5 -3 -6 2 -13 11 -17 10 -4 40 -22 68 -40 28 -18 57 -31 64
-28 7 3 11 1 8 -4 -3 -5 14 -19 38 -32 24 -13 91 -50 149 -81 57 -31 144 -75
193 -98 97 -45 97 -44 14 -82 -36 -16 -65 -21 -140 -20 -148 0 -318 57 -595
200 -60 31 -114 61 -120 65 -5 4 -93 57 -195 118 -278 166 -546 346 -863 579
-76 56 -141 99 -145 95 -9 -9 371 -375 385 -370 7 2 10 -1 8 -8 -5 -14 90 -93
106 -89 6 1 8 -1 5 -6 -3 -5 14 -24 37 -44 101 -84 317 -254 377 -296 36 -26
70 -51 75 -57 13 -14 245 -183 305 -221 25 -16 51 -35 58 -42 8 -7 28 -20 45
-29 18 -9 34 -19 37 -23 3 -3 52 -35 110 -69 58 -35 112 -67 120 -72 33 -19
95 -52 95 -49 0 2 18 -6 40 -17 61 -31 217 -84 231 -79 7 3 14 0 16 -6 5 -15
161 -21 209 -8 22 6 37 15 34 20 -3 4 3 7 12 6 25 -4 104 64 146 126 32 46 79
157 75 176 -4 21 27 78 41 75 6 -2 21 1 33 6 13 5 26 9 31 10 26 3 103 94 134
159 41 85 78 285 67 361 -3 25 -8 70 -11 100 -2 31 -6 67 -8 81 -2 14 -6 39
-9 55 -2 17 -7 40 -10 53 -12 43 -17 67 -22 97 -3 17 -9 34 -14 39 -5 5 -6 15
-3 22 3 8 0 14 -7 14 -6 0 -8 5 -5 10 3 6 3 16 -2 23 -4 6 -9 21 -10 31 -2 11
-8 25 -13 31 -5 7 -7 15 -3 18 3 4 1 7 -6 7 -7 0 -10 4 -7 8 3 5 -1 20 -9 35
-7 14 -11 28 -7 31 3 3 0 6 -7 6 -7 0 -10 4 -6 9 3 5 1 12 -5 16 -6 4 -8 10
-5 15 3 5 0 14 -7 22 -7 7 -15 22 -16 33 -2 11 -9 23 -15 27 -7 4 -7 8 -2 8 6
0 4 4 -3 8 -7 5 -15 19 -17 32 -2 13 -8 26 -12 29 -5 3 -9 13 -11 21 -2 8 -8
17 -13 18 -5 2 -7 8 -3 13 3 5 0 9 -6 9 -6 0 -9 4 -5 9 3 5 0 15 -7 23 -7 7
-14 20 -16 28 -2 8 -8 17 -13 18 -5 2 -7 8 -3 13 3 5 1 9 -4 9 -5 0 -9 6 -9
13 -1 20 -93 177 -105 177 -6 0 -8 3 -5 6 8 8 -24 64 -35 64 -4 0 -8 4 -8 10
0 17 -89 150 -101 150 -5 0 -8 4 -5 9 3 5 -5 20 -19 35 -13 15 -24 30 -24 34
1 6 -35 52 -69 88 -7 8 -11 14 -7 14 3 0 -22 36 -56 80 -34 44 -65 80 -70 80
-5 0 -8 4 -6 8 4 14 -155 182 -166 175 -5 -3 -7 -2 -4 4 3 5 -37 54 -89 109
-53 54 -92 92 -88 84 7 -13 103 -137 133 -172 7 -7 34 -44 62 -83 28 -38 56
-74 63 -80 7 -5 14 -14 14 -20 1 -5 27 -46 57 -90 64 -92 105 -155 105 -159 0
-13 99 -163 105 -158 3 4 5 2 3 -3 -5 -17 34 -95 45 -88 6 3 7 1 3 -5 -3 -6 0
-17 8 -25 8 -8 12 -17 9 -21 -4 -3 0 -6 7 -6 7 0 11 -3 7 -6 -7 -8 71 -166 87
-176 6 -4 8 -8 4 -8 -4 0 4 -26 18 -57 14 -32 45 -107 69 -168 23 -60 46 -119
50 -130 5 -11 8 -23 7 -27 -1 -4 3 -20 9 -35 6 -15 13 -39 15 -53 3 -14 10
-43 16 -65 6 -22 13 -51 15 -65 2 -14 5 -41 8 -60 11 -71 6 -252 -6 -275 -3
-5 -12 -30 -19 -53 -13 -41 -14 -42 -23 -20 -5 12 -10 32 -11 43 -7 51 -30
135 -37 135 -5 0 -6 7 -3 15 4 8 1 15 -5 15 -6 0 -8 7 -5 15 4 8 1 15 -6 15
-6 0 -9 4 -6 9 4 5 1 22 -5 38 -7 15 -13 39 -15 52 -1 13 -9 31 -17 40 -8 9
-12 22 -10 29 3 6 0 12 -7 12 -6 0 -9 4 -6 9 8 12 -14 71 -26 71 -5 0 -6 5 -3
10 3 6 2 10 -4 10 -6 0 -8 7 -5 15 4 8 1 15 -6 15 -6 0 -8 5 -5 10 3 6 1 10
-5 10 -6 0 -9 4 -6 9 8 12 -69 183 -78 174 -4 -4 -4 0 0 10 4 11 1 17 -7 17
-7 0 -10 3 -6 6 7 7 -30 86 -45 95 -5 3 -9 9 -7 13 4 14 -54 125 -63 120 -5
-3 -7 -2 -6 3 4 13 -23 73 -34 73 -5 0 -7 3 -5 8 3 4 -10 32 -28 62 -18 30
-53 88 -77 127 -24 40 -47 73 -51 73 -5 0 -6 3 -3 8 4 7 -158 257 -233 357
-184 247 -255 338 -351 455 -62 74 -116 134 -121 133 -5 -2 -8 0 -7 5 5 13
-54 82 -65 75 -5 -3 -7 -1 -4 4 4 6 -23 41 -59 79 -36 38 -64 69 -63 69 2 0
-5 10 -16 22 -10 12 -23 19 -28 16 -6 -3 -7 -2 -4 4 4 6 -4 20 -18 33 -20 19
-33 66 -14 54 4 -2 24 18 45 44 21 26 41 49 44 52 33 29 119 144 114 152 -4 6
-2 8 4 5 14 -9 285 333 285 360 0 7 4 10 8 8 4 -3 38 43 77 103 84 130 93 147
84 157 -4 5 -2 5 4 2 10 -6 22 17 70 128 12 29 18 51 31 121 3 17 0 41 -6 53
-20 36 2 23 55 -31 78 -82 87 -101 89 -193 1 -44 -1 -85 -6 -90 -4 -6 -9 -24
-11 -40 -2 -17 -9 -36 -16 -44 -7 -7 -11 -19 -8 -27 3 -7 2 -14 -2 -16 -4 -2
-18 -23 -31 -48 -49 -91 -148 -243 -199 -308 -92 -115 -92 -135 -2 -52 30 28
67 60 82 72 15 11 25 25 21 31 -3 6 -1 7 5 3 16 -10 106 80 96 95 -4 7 -3 9 4
5 12 -7 99 100 94 117 -2 7 0 9 4 5 8 -9 67 74 78 110 4 12 11 22 15 22 4 0
16 24 26 53 48 140 -13 217 -340 433 -80 53 -151 109 -185 146 -54 58 -58 61
-110 64 -30 2 -57 4 -60 5 -3 1 -8 1 -13 0 -9 -1 -108 39 -193 80 -123 58
-217 73 -439 73 -166 0 -218 -4 -304 -22 -57 -12 -108 -19 -112 -16 -5 3 -9 0
-9 -7 0 -6 -8 -9 -20 -6 -11 3 -20 1 -20 -5 0 -6 -9 -8 -20 -5 -10 3 -20 1
-22 -3 -2 -5 -14 -10 -28 -12 -14 -2 -29 -6 -35 -9 -5 -4 -27 -9 -47 -13 -21
-4 -38 -10 -38 -14 0 -4 -8 -8 -17 -9 -21 -2 -133 -50 -133 -57 0 -3 19 2 43
10 23 9 49 17 57 19 8 2 15 4 15 5 0 1 7 3 15 5 34 9 92 23 123 31 12 3 32 7
44 9 12 2 26 5 30 8 5 3 31 8 58 12 28 4 61 9 75 11 80 13 123 16 300 21 228
6 330 -7 498 -62 99 -33 249 -103 192 -90 -101 23 -174 37 -232 45 -63 9 -343
12 -418 5 -46 -5 -129 -15 -160 -20 -14 -2 -41 -6 -60 -9 -19 -3 -46 -8 -60
-11 -14 -3 -37 -8 -52 -10 -31 -5 -106 -23 -128 -32 -8 -3 -24 -8 -35 -10 -11
-2 -27 -6 -35 -10 -8 -3 -24 -8 -35 -10 -36 -6 -180 -55 -192 -66 -7 -5 -13
-7 -13 -3 0 6 -142 -43 -150 -53 -3 -3 -14 -8 -25 -9 -10 -2 -63 -21 -117 -43
-100 -40 -108 -43 -166 -72 -19 -9 -39 -17 -46 -17 -7 0 -60 21 -117 46 -57
25 -112 46 -121 47 -10 1 -18 4 -18 8 0 9 -90 40 -90 31 0 -4 -4 -2 -8 4 -10
14 -88 44 -96 37 -3 -4 -6 -1 -6 5 0 9 -50 26 -66 22 -4 -1 -10 3 -13 8 -5 8
-88 39 -124 46 -7 2 -25 8 -41 15 -16 6 -36 13 -45 15 -9 2 -27 8 -41 13 -14
6 -41 14 -60 17 -19 4 -55 14 -80 21 -25 8 -58 16 -75 19 -16 3 -46 9 -65 15
-31 9 -64 15 -135 26 -11 2 -35 6 -52 9 -100 19 -380 37 -467 31 -159 -11
-212 -17 -248 -26 -20 -5 -56 -12 -80 -14 l-43 -6 30 17 c48 28 188 72 298 95
81 18 139 22 282 23 204 1 355 -6 349 -16 -3 -4 4 -6 13 -6 10 1 36 -2 58 -6
22 -4 60 -9 85 -12 24 -3 52 -9 61 -14 9 -5 18 -7 21 -5 2 3 20 0 39 -6 35
-10 65 -18 86 -23 7 -1 15 -5 19 -8 3 -4 12 -4 19 -2 7 3 16 1 19 -5 4 -6 13
-8 21 -4 8 3 15 0 15 -7 0 -6 4 -8 10 -5 5 3 24 -1 42 -9 43 -20 120 -47 124
-43 2 2 -27 15 -64 31 -37 15 -79 34 -94 42 -16 9 -28 12 -28 8 0 -3 -6 -1
-13 5 -8 6 -17 8 -20 4 -4 -3 -7 -1 -7 6 0 8 -7 11 -15 7 -8 -3 -15 -1 -15 4
0 6 -3 9 -7 9 -5 -1 -10 -1 -13 1 -3 1 -16 3 -30 6 -14 2 -32 7 -40 11 -18 8
-15 7 -126 32 -175 39 -270 52 -424 55 -85 2 -171 2 -190 0z m-45 -221 c146
-2 233 -8 242 -16 12 -13 45 -8 37 6 -6 9 -4 9 7 1 23 -18 63 -28 54 -14 -6 9
-1 9 16 -1 13 -7 38 -14 54 -16 59 -7 80 -10 80 -13 0 -1 9 -4 20 -6 39 -6 70
-13 95 -19 14 -3 34 -8 45 -9 11 -2 20 -4 20 -5 0 -2 15 -7 48 -14 6 -1 18 -6
25 -10 6 -5 16 -6 21 -2 5 3 13 0 16 -6 4 -5 13 -8 20 -5 7 2 16 2 19 -2 7 -7
31 -13 59 -15 9 -1 17 -5 17 -10 0 -4 4 -6 9 -2 5 3 13 0 16 -6 4 -5 13 -8 20
-5 7 2 16 2 20 -2 4 -4 11 -8 16 -8 5 -1 11 -3 14 -4 3 -1 10 -4 15 -5 6 -1
12 -4 15 -5 3 -1 10 -4 15 -5 6 -1 12 -4 15 -5 3 -1 10 -4 15 -5 6 -1 12 -4
15 -5 3 -1 10 -4 15 -5 6 -1 12 -4 15 -5 3 -1 10 -4 15 -5 6 -1 12 -4 15 -5 3
-1 8 -3 13 -4 4 -1 17 -7 29 -14 12 -6 32 -14 45 -16 13 -3 24 -5 26 -5 1 -1
5 -1 8 0 4 0 10 -4 13 -10 4 -6 16 -12 26 -14 11 -2 36 -11 55 -20 19 -8 38
-13 42 -11 5 3 8 1 8 -3 0 -5 27 -19 60 -32 62 -25 74 -39 40 -48 -11 -3 -20
-10 -20 -16 0 -6 -3 -7 -6 -4 -12 12 -304 -156 -304 -175 0 -4 -4 -7 -9 -5
-11 3 -274 -164 -268 -170 8 -7 187 86 187 97 0 6 3 9 8 8 14 -4 52 13 52 23
0 6 4 8 9 4 5 -3 16 1 24 9 8 8 17 12 21 9 3 -4 6 -1 6 6 0 7 5 9 10 6 6 -3
10 -1 10 4 0 6 3 10 8 9 14 -4 52 14 52 24 0 6 3 9 6 5 4 -3 25 4 48 15 22 12
43 23 46 23 23 4 50 18 50 26 0 5 3 8 8 7 14 -4 82 24 82 33 0 6 5 7 10 4 6
-3 10 -1 10 6 0 7 3 10 6 7 3 -4 21 0 40 8 32 13 38 12 98 -15 36 -16 67 -27
70 -23 3 3 6 0 6 -7 0 -7 5 -9 10 -6 6 3 10 1 10 -5 0 -6 5 -8 10 -5 6 3 10 1
10 -5 0 -6 4 -9 9 -6 5 4 11 2 13 -2 1 -5 68 -42 148 -82 80 -40 183 -94 230
-120 107 -59 178 -95 165 -83 -22 20 -116 83 -124 83 -5 0 -11 3 -13 8 -4 9
-88 64 -88 58 0 -3 -12 6 -26 19 -15 14 -30 22 -34 20 -4 -3 -11 2 -14 11 -4
9 -9 14 -12 11 -4 -3 -15 3 -27 13 -11 11 -25 17 -30 13 -6 -3 -8 -2 -4 3 6
10 -117 87 -139 87 -8 0 -14 4 -14 9 0 4 -29 22 -64 40 -54 28 -62 35 -50 46
8 7 14 10 14 7 0 -3 10 0 23 7 12 6 31 13 42 15 10 2 22 8 26 14 3 6 9 10 13
10 23 -3 36 0 32 8 -4 5 3 7 14 4 11 -3 20 0 20 6 0 5 7 8 15 5 8 -4 15 -2 15
3 0 5 6 10 13 10 15 0 119 35 127 43 3 3 10 5 15 5 32 1 74 18 69 27 -4 7 -2
8 5 4 6 -4 35 1 64 10 28 10 55 19 60 20 4 1 10 3 15 4 4 1 12 3 17 5 6 1 13
3 18 5 4 1 12 4 17 5 6 1 11 3 13 5 1 1 11 3 22 5 49 9 60 13 57 26 -3 10 0
10 12 0 11 -9 20 -9 34 -2 11 6 22 7 26 4 3 -3 6 -2 6 3 0 6 10 11 23 12 46 3
78 11 92 22 11 9 15 9 15 1 0 -9 5 -9 20 -1 11 6 26 10 33 9 6 -1 23 1 37 4
24 7 102 15 148 16 13 1 21 4 19 9 -5 6 28 8 223 10 129 2 322 -22 440 -54
116 -32 140 -45 161 -86 11 -21 17 -38 14 -38 -4 0 -3 -5 1 -11 12 -21 7 -115
-11 -175 -20 -70 -87 -212 -144 -306 -23 -37 -41 -71 -41 -77 0 -5 -4 -11 -9
-13 -4 -1 -29 -34 -54 -73 -57 -88 -129 -192 -186 -270 -25 -33 -63 -85 -85
-115 -108 -146 -132 -169 -153 -146 -5 5 -2 6 6 1 9 -5 12 -4 7 3 -4 7 -13 12
-21 12 -8 0 -17 5 -21 12 -5 7 -3 8 7 3 12 -8 12 -6 0 8 -7 9 -17 14 -22 11
-5 -3 -8 0 -7 8 2 7 -3 12 -10 10 -6 -1 -11 2 -10 6 3 8 -125 132 -136 132 -4
0 -17 11 -29 25 -27 30 -354 293 -382 307 -11 5 23 -31 75 -80 52 -50 99 -88
104 -85 5 4 6 1 3 -4 -8 -13 17 -36 27 -25 4 4 6 0 4 -8 -2 -8 3 -14 10 -12 8
1 11 -2 8 -7 -7 -10 18 -33 27 -26 4 3 5 2 2 -1 -7 -10 147 -170 159 -166 6 2
8 0 3 -4 -10 -11 23 -45 37 -37 6 3 8 3 4 -2 -9 -9 52 -81 65 -77 5 1 6 -2 3
-7 -3 -5 10 -23 30 -40 l35 -32 -20 -32 c-11 -17 -32 -45 -47 -62 -14 -16 -45
-55 -68 -85 -22 -30 -54 -70 -71 -88 -16 -19 -34 -41 -39 -50 -5 -10 -15 -21
-23 -25 -7 -4 -13 -15 -13 -22 0 -8 -4 -15 -9 -15 -5 0 -28 -26 -52 -57 -24
-32 -52 -67 -62 -78 -44 -46 -107 -135 -97 -135 17 0 427 398 529 513 33 38
44 45 54 35 7 -7 44 -52 84 -99 39 -48 78 -93 85 -100 7 -8 29 -34 48 -59 19
-25 37 -47 40 -50 3 -3 16 -22 30 -42 13 -20 28 -34 32 -32 5 3 7 2 6 -3 -3
-10 93 -143 103 -143 3 0 12 -13 19 -30 7 -16 16 -30 21 -30 4 0 11 -9 14 -20
4 -11 11 -17 17 -14 6 4 8 3 5 -2 -7 -13 81 -140 95 -136 5 1 7 -1 4 -6 -6
-10 96 -171 117 -184 6 -4 8 -8 4 -8 -5 0 0 -12 11 -27 25 -35 151 -245 190
-315 16 -29 49 -89 73 -133 24 -44 47 -82 51 -83 5 -2 6 -7 3 -12 -3 -5 2 -16
11 -24 8 -9 12 -16 8 -16 -3 0 -2 -6 3 -12 6 -7 16 -30 22 -50 7 -21 16 -38
20 -38 4 0 8 -6 8 -12 0 -7 11 -38 25 -68 13 -30 30 -71 38 -90 7 -19 17 -39
22 -44 4 -6 8 -16 8 -23 0 -8 7 -29 15 -49 8 -19 15 -38 16 -42 1 -4 14 -43
29 -87 64 -183 109 -411 110 -557 0 -88 5 -85 -90 -68 -62 10 -81 15 -127 29
-18 5 -33 7 -33 5 0 -3 -12 2 -27 10 -16 8 -71 32 -123 52 -281 109 -683 331
-1297 717 -283 178 -306 191 -315 189 -5 -1 -8 2 -8 7 0 5 -17 20 -37 32 -21
13 -156 99 -301 191 -144 92 -266 168 -271 168 -5 0 -11 3 -13 8 -3 8 -84 62
-93 62 -9 0 -38 30 -34 34 2 1 20 13 39 26 42 29 56 40 81 63 10 9 23 17 27
17 4 0 25 15 46 34 20 19 39 35 42 35 14 -1 93 69 86 76 -4 5 -2 5 4 2 6 -4
32 13 58 36 26 23 116 101 201 172 84 72 149 132 144 133 -10 4 -32 -10 -350
-218 -417 -274 -474 -310 -484 -310 -6 0 -88 52 -183 115 -95 63 -177 115
-182 115 -6 0 -10 3 -10 8 0 4 -17 16 -37 27 -21 11 -44 26 -51 33 -8 7 -28
20 -45 28 -16 9 -35 20 -41 26 -6 5 -76 52 -156 103 -145 95 -193 115 -110 47
25 -20 108 -91 185 -157 77 -67 158 -134 180 -150 22 -17 42 -33 45 -37 5 -6
121 -93 247 -185 29 -21 52 -40 53 -43 0 -5 -33 -27 -255 -169 -55 -35 -103
-69 -107 -75 -4 -6 -8 -8 -8 -4 0 4 -80 -44 -177 -105 -98 -62 -232 -146 -298
-187 -66 -41 -121 -78 -123 -82 -2 -4 -9 -8 -14 -8 -10 0 -95 -51 -123 -73
-18 -14 -422 -253 -525 -310 -445 -247 -695 -368 -930 -447 -69 -23 -132 -45
-140 -48 -8 -3 -19 -6 -25 -7 -5 -1 -12 -3 -15 -4 -9 -5 -45 -10 -114 -17
l-68 -6 6 93 c4 52 9 110 12 129 4 19 7 49 8 67 0 17 4 29 9 26 5 -3 10 25 6
40 0 1 4 14 10 30 6 15 13 38 15 50 7 35 95 285 126 359 16 37 28 68 26 68 -2
0 39 87 91 193 53 105 96 198 96 205 0 6 4 12 8 12 14 0 41 61 35 76 -3 8 -1
12 4 9 8 -5 109 154 103 162 -2 2 4 11 13 21 23 25 154 232 154 243 0 5 5 9
11 9 5 0 8 4 5 9 -4 5 -2 11 2 13 5 1 30 35 57 73 27 39 78 111 113 160 36 50
65 95 65 102 0 7 4 10 8 7 8 -5 55 67 51 79 -1 5 2 6 7 2 11 -6 37 34 32 50
-1 6 1 7 5 3 8 -9 150 171 146 184 -1 5 2 7 7 3 10 -6 37 34 33 48 -1 5 1 6 6
3 10 -6 98 103 94 116 -1 5 2 7 7 4 5 -3 15 4 24 17 8 12 33 42 55 66 23 25
39 48 36 52 -2 4 5 5 16 2 11 -3 20 -10 20 -15 0 -17 320 -329 331 -323 5 4 8
2 7 -4 -4 -12 246 -242 250 -230 2 5 -18 35 -45 66 -27 32 -130 155 -228 273
-98 118 -181 217 -185 220 -15 13 -70 89 -70 97 0 5 11 20 25 33 15 14 23 30
20 39 -3 9 -3 12 1 8 11 -10 75 54 67 67 -3 6 -2 8 2 3 11 -10 46 23 38 36 -3
5 -2 8 3 6 5 -2 108 94 229 215 235 234 229 235 -53 12 -171 -134 -204 -163
-338 -289 l-62 -58 -148 188 c-81 103 -165 211 -186 238 -21 28 -58 75 -82
105 -71 90 -159 220 -222 326 -32 54 -63 102 -69 106 -5 4 -7 8 -2 8 4 0 -1
17 -12 38 -35 69 -69 221 -53 237 4 3 8 11 8 16 1 5 3 11 4 14 1 3 3 11 4 18
0 6 11 16 24 22 12 5 22 13 22 18 0 4 4 6 8 3 9 -5 144 28 138 35 -2 2 9 4 26
3 17 0 52 3 77 8 25 5 77 10 114 13 38 2 71 6 74 9 3 3 11 2 17 -2 6 -4 61 -8
121 -9z"/>
<path d="M8620 8850 l0 -2580 1598 0 c983 1 1631 4 1685 10 137 16 161 19 239
34 175 34 400 115 538 195 47 27 84 55 82 61 -1 6 2 9 8 5 26 -16 254 173 342
285 59 75 115 180 150 280 l33 95 3 1588 c2 1743 6 1629 -58 1796 -143 371
-611 686 -1160 780 -166 29 -299 31 -1852 31 l-1608 0 0 -2580z m3160 1875
c103 -7 127 -10 150 -17 8 -3 49 -16 90 -29 41 -13 90 -32 108 -42 17 -10 32
-16 32 -12 0 3 7 -1 16 -9 8 -9 20 -13 26 -10 7 4 8 2 4 -4 -4 -7 -2 -12 5
-12 6 0 42 -31 79 -68 56 -56 71 -79 84 -123 15 -49 16 -210 14 -1569 l-3
-1515 -23 -43 c-81 -151 -292 -264 -550 -294 -81 -10 -373 -12 -1194 -10
l-1088 2 -2 1880 -3 1879 35 3 c70 6 2128 -1 2220 -7z"/>
<path d="M20208 11425 c-5 -5 -94 -15 -143 -15 -88 -2 -395 -87 -523 -146 -41
-19 -76 -34 -79 -34 -9 0 -197 -113 -245 -148 -27 -18 -48 -38 -48 -44 0 -5
-4 -7 -9 -4 -13 9 -182 -162 -230 -233 -56 -83 -94 -159 -85 -173 4 -6 3 -8
-4 -4 -10 6 -44 -77 -47 -114 0 -9 -5 -22 -10 -30 -6 -9 -11 -805 -13 -2112
l-2 -2097 455 0 455 -1 0 1300 0 1300 138 0 c75 0 666 1 1313 1 l1176 0 1 348
0 347 -1287 0 c-707 -1 -1299 1 -1314 3 l-28 3 3 407 c3 383 4 408 23 446 23
45 31 58 60 85 45 44 93 79 147 108 31 16 54 33 50 38 -4 4 -2 4 4 1 5 -3 41
5 78 19 150 54 156 54 1252 54 l1011 0 1 350 1 350 -1048 0 c-576 0 -1050 -2
-1053 -5z"/>
<path d="M13745 8768 c2 -1681 -2 -1561 53 -1706 86 -225 327 -451 636 -597
162 -76 440 -162 493 -152 12 2 20 1 18 -3 -3 -4 39 -13 93 -18 53 -6 104 -12
112 -13 8 -1 541 -3 1184 -5 642 -2 1171 -5 1174 -8 2 -3 4 -82 4 -176 -1
-159 -3 -175 -25 -223 -38 -82 -124 -157 -251 -221 -34 -16 -65 -31 -71 -32
-5 -1 -46 -13 -90 -26 l-80 -23 -1051 -3 -1052 -3 1 -349 0 -349 1036 0 c642
0 1072 3 1131 10 204 22 451 87 606 159 35 17 67 30 72 30 4 0 18 9 30 20 12
12 22 18 22 15 0 -9 38 13 145 84 102 68 285 233 285 257 0 8 4 14 9 14 4 0
24 24 44 53 41 63 100 177 91 177 -4 0 -2 6 3 12 6 7 16 29 22 49 12 36 16 59
31 159 5 30 9 1037 9 2238 l1 2182 -459 0 -459 0 0 -1672 0 -1673 -1139 -2
c-1232 -2 -1202 -3 -1365 52 -84 28 -201 94 -250 140 -19 19 -39 31 -43 27 -5
-4 -5 -2 -1 5 3 6 2 14 -4 18 -18 11 -47 79 -54 128 -4 26 -7 707 -7 1512 l0
1465 -453 0 -453 0 2 -1552z"/>
<path d="M1627 5513 c-3 -5 -8 -30 -11 -58 l-7 -50 65 3 66 4 1 -29 c3 -146
-1 -449 -6 -490 l-8 -53 83 0 c82 0 82 0 76 24 -5 19 -10 419 -7 530 1 16 8
18 65 14 36 -2 63 -1 60 3 -2 4 -5 30 -5 58 l-2 51 -183 0 c-100 0 -185 -3
-187 -7z"/>
<path d="M2075 5488 c10 -41 10 -574 1 -615 l-8 -33 174 3 173 2 5 55 5 55
-101 -3 -102 -4 -3 49 c-2 26 -3 70 -1 96 l3 49 90 -4 89 -3 0 62 0 63 -26
-10 c-32 -13 -137 -13 -149 -1 -6 6 -9 44 -7 85 l4 75 85 3 c46 2 92 -1 100
-6 14 -7 15 -4 10 24 -4 18 -7 45 -7 61 l0 29 -171 0 -171 0 7 -32z"/>
<path d="M2509 5513 c-1 -5 -1 -12 0 -16 4 -25 1 -631 -4 -635 -17 -18 13 -22
165 -21 167 1 170 1 170 22 0 12 3 38 6 57 l6 35 -96 -3 c-87 -3 -96 -2 -97
15 -4 72 1 535 6 543 4 6 -22 10 -74 10 -45 0 -82 -3 -82 -7z"/>
<path d="M2915 5489 c9 -42 10 -575 1 -616 l-8 -33 174 3 173 2 5 55 5 55
-102 -3 -103 -3 -1 38 c-2 50 1 146 4 149 6 7 135 6 155 0 21 -7 22 -5 22 58
l0 66 -26 -10 c-35 -14 -141 -13 -150 1 -6 10 -8 91 -5 147 1 10 24 13 102 10
l101 -3 -6 29 c-3 16 -6 41 -6 57 l0 29 -171 0 -171 0 7 -31z"/>
<path d="M3385 5496 c-40 -40 -46 -88 -43 -339 3 -254 10 -287 64 -307 14 -6
81 -10 148 -10 l123 0 7 38 c13 81 18 77 -93 74 -96 -3 -99 -3 -105 20 -8 30
-8 386 0 416 6 21 11 22 100 22 l94 0 0 55 0 55 -135 0 c-130 0 -137 -1 -160
-24z"/>
<path d="M3817 5500 c-42 -33 -46 -64 -44 -334 2 -244 3 -256 24 -283 11 -15
26 -27 32 -25 6 1 11 -2 11 -7 0 -13 251 -14 283 -2 54 21 60 51 64 316 3 237
-3 287 -43 330 -22 24 -26 25 -162 25 -124 0 -142 -2 -165 -20z m227 -106 c9
-24 7 -417 -3 -432 -5 -9 -26 -12 -67 -10 l-59 3 -3 215 c-1 118 0 220 2 227
8 20 122 17 130 -3z"/>
<path d="M4285 5180 l0 -341 33 3 33 3 -1 269 c0 149 2 268 5 265 5 -6 42
-165 52 -224 4 -27 49 -248 58 -285 2 -8 4 -18 4 -22 2 -14 91 -9 96 5 5 15
16 65 20 92 1 11 5 27 8 35 6 15 44 198 52 248 36 217 47 187 43 -116 l-3
-272 78 0 79 0 -7 53 c-10 65 -9 509 0 577 l7 50 -96 0 -95 0 -11 -41 c-6 -22
-13 -54 -14 -72 -2 -18 -6 -39 -9 -47 -10 -28 -39 -175 -41 -203 -3 -79 -36
36 -81 278 -3 17 -8 42 -11 58 l-6 27 -96 0 -97 0 0 -340z"/>
<path d="M4932 5238 c6 -396 8 -398 216 -398 203 0 200 -6 204 388 l3 292 -30
0 -30 0 3 -251 c2 -138 1 -266 -3 -285 l-6 -34 -98 0 c-81 0 -100 3 -105 16
-8 21 -8 516 0 537 5 15 -3 17 -76 17 l-82 0 4 -282z"/>
<path d="M5455 5180 l0 -340 36 0 36 0 -9 48 c-5 26 -9 130 -9 232 0 270 0
290 9 290 7 0 72 -207 117 -375 9 -33 25 -90 36 -127 l21 -68 93 0 94 0 0 314
c0 172 3 325 7 340 6 25 4 26 -36 26 -26 0 -39 -4 -35 -11 10 -14 10 -557 1
-548 -3 2 -39 121 -81 264 -42 143 -78 268 -81 278 -5 15 -19 17 -102 17 l-97
0 0 -340z"/>
<path d="M5996 5473 c9 -61 9 -548 0 -596 l-7 -37 78 0 78 0 0 340 0 340 -78
0 -78 0 7 -47z"/>
<path d="M6311 5504 c-45 -32 -50 -64 -50 -327 0 -150 4 -249 10 -252 5 -4 7
-11 4 -16 -4 -5 7 -23 24 -39 l29 -30 136 0 136 0 0 38 c0 20 3 46 6 57 5 19
0 20 -98 20 l-103 0 0 225 0 225 98 0 c108 0 104 -4 91 78 l-7 37 -126 0
c-101 0 -131 -3 -150 -16z"/>
<path d="M6827 5497 c3 -13 -7 -65 -21 -117 -14 -51 -23 -96 -21 -101 3 -4 1
-9 -3 -11 -7 -2 -84 -259 -96 -321 -2 -6 -8 -23 -13 -37 -29 -70 -28 -70 21
-70 l46 0 0 42 c0 23 7 65 17 94 16 52 16 52 62 56 68 5 146 -5 144 -18 -1 -7
2 -26 7 -44 5 -17 10 -54 11 -81 l3 -49 89 0 c81 0 88 2 82 18 -4 9 -16 53
-26 97 -11 44 -22 87 -26 95 -3 8 -7 26 -9 39 -2 13 -6 31 -10 40 -4 9 -8 25
-10 36 -1 11 -18 85 -38 165 -20 80 -38 155 -41 168 -5 21 -11 22 -89 22 -82
0 -83 0 -79 -23z m58 -177 c4 -22 10 -40 13 -40 4 0 7 -13 8 -29 1 -16 5 -37
9 -47 4 -11 9 -31 11 -46 l4 -28 -66 0 c-49 0 -65 3 -61 13 2 6 17 60 32 119
15 59 31 105 36 103 4 -3 10 -23 14 -45z"/>
<path d="M7284 5510 c-11 -4 -29 -25 -40 -47 -16 -34 -18 -64 -18 -263 -1
-124 3 -242 7 -263 4 -20 21 -50 36 -66 l29 -29 135 -1 135 -1 0 50 c1 27 3
53 5 58 3 4 -41 7 -96 7 l-102 0 -3 219 c-1 121 1 223 6 228 4 4 50 8 101 9
l93 1 -6 30 c-3 17 -6 41 -6 54 l0 24 -127 -1 c-71 0 -137 -4 -149 -9z"/>
<path d="M7665 5180 l0 -340 78 0 78 0 -7 48 c-9 60 -9 524 0 586 l7 46 -78 0
-78 0 0 -340z"/>
<path d="M7989 5513 c-9 -2 -27 -23 -40 -46 -22 -40 -23 -51 -25 -254 -2 -253
6 -307 47 -345 30 -28 31 -28 162 -27 72 1 141 6 153 11 51 23 65 99 63 331
-1 217 -10 277 -45 312 -24 24 -29 25 -162 24 -75 -1 -144 -3 -153 -6z m211
-333 l0 -230 -59 0 c-33 0 -62 4 -65 9 -8 12 -8 429 -1 441 3 6 33 10 66 10
l59 0 0 -230z"/>
<path d="M8446 5485 c9 -50 11 -615 2 -615 -5 0 -8 -7 -8 -15 0 -11 11 -15 38
-15 l37 0 -2 92 c-8 281 -7 486 1 478 6 -6 11 -16 12 -25 1 -8 37 -134 80
-280 l77 -265 93 1 94 0 0 302 c0 166 3 319 6 340 l7 37 -40 0 -40 0 8 -52
c15 -91 15 -508 0 -508 -5 0 -14 19 -20 43 -6 23 -42 148 -80 277 l-68 235
-102 3 -102 3 7 -36z"/>
<path d="M8974 5496 c9 -35 9 -595 1 -628 l-7 -28 170 0 c190 0 182 -3 182 73
l0 42 -99 -3 -100 -3 -3 98 -3 98 30 -2 c17 -1 58 -4 93 -6 l62 -3 0 62 0 63
-29 -10 c-16 -6 -55 -9 -87 -7 l-59 3 -3 83 -3 83 101 -3 c97 -3 101 -2 96 17
-3 11 -6 37 -6 58 l0 37 -171 0 -171 0 6 -24z"/>
<path d="M9442 5503 c-32 -28 -39 -68 -40 -223 -1 -158 10 -204 51 -214 12 -2
55 -5 95 -5 100 0 105 -6 87 -96 -4 -19 -10 -20 -117 -15 -62 3 -114 5 -114 5
-1 0 1 -26 3 -57 l5 -57 150 0 150 -1 28 28 c34 34 44 106 38 266 -3 87 -7
110 -24 133 -12 15 -26 28 -32 28 -6 0 -14 3 -18 8 -4 4 -44 7 -88 7 l-81 0 4
51 3 50 114 -3 c128 -3 121 -8 108 75 l-7 37 -147 0 c-126 0 -151 -3 -168 -17z"/>
<path d="M10142 5443 c16 -43 34 -80 39 -81 5 -2 7 -7 5 -11 -3 -4 15 -61 40
-127 44 -117 45 -121 45 -235 -1 -65 -4 -124 -7 -133 -5 -14 5 -16 73 -16 l80
0 -5 129 c-3 93 -1 135 9 152 13 26 68 173 74 202 2 10 22 58 44 107 l39 90
-49 0 c-49 0 -49 0 -49 -33 0 -40 -71 -239 -85 -238 -12 0 -82 181 -91 234
l-7 37 -92 0 -93 0 30 -77z"/>
<path d="M10963 5505 c-36 -25 -43 -70 -41 -242 3 -140 5 -165 21 -180 17 -17
46 -21 180 -23 26 0 27 -2 27 -56 l0 -55 -116 3 -116 3 5 -48 c4 -26 9 -52 12
-57 8 -13 266 -13 300 0 47 18 57 63 53 246 -3 155 -4 165 -26 186 -20 20 -34
23 -110 25 -50 1 -88 7 -90 13 -2 5 -7 8 -12 5 -8 -5 -8 0 5 58 l6 28 115 -3
c111 -3 115 -2 110 17 -3 11 -6 37 -6 58 l0 37 -148 0 c-115 0 -152 -3 -169
-15z"/>
<path d="M11385 5511 c7 -12 8 -649 0 -661 -3 -5 71 -9 170 -10 l175 0 2 32
c0 18 2 45 3 60 1 20 -2 25 -11 20 -7 -4 -51 -6 -98 -4 l-86 3 0 96 0 95 90
-4 90 -4 0 62 0 63 -32 -10 c-18 -5 -59 -9 -90 -9 l-58 0 0 86 0 85 95 -3 95
-3 0 26 c0 15 -3 41 -6 58 l-6 31 -170 0 c-104 0 -167 -4 -163 -9z"/>
<path d="M11814 5495 c9 -35 10 -594 1 -627 l-7 -26 82 -1 83 0 -7 47 c-5 40
-10 179 -7 235 1 13 10 17 38 17 20 0 34 -2 31 -6 -3 -3 3 -37 13 -77 11 -40
22 -81 24 -92 3 -11 10 -43 16 -72 l12 -51 79 0 c69 0 78 2 74 16 -52 177 -77
277 -69 279 6 2 19 10 29 18 17 12 19 28 19 157 0 213 6 208 -257 208 l-160 0
6 -25z m274 -156 c2 -51 -1 -71 -13 -83 -19 -19 -100 -22 -111 -4 -6 10 -8 59
-5 136 1 22 4 23 64 20 l62 -3 3 -66z"/>
<path d="M12309 5498 c5 -13 18 -70 30 -128 12 -58 25 -112 28 -120 3 -8 7
-22 8 -30 12 -69 18 -100 26 -135 5 -22 12 -53 15 -70 3 -16 8 -37 11 -45 3
-8 7 -24 8 -35 2 -11 6 -29 8 -40 3 -11 6 -27 6 -36 1 -14 15 -17 86 -18 75
-1 85 1 86 16 2 31 8 55 34 163 15 58 28 116 31 130 2 14 10 52 18 84 8 33 13
63 10 67 -2 4 0 10 5 13 5 4 12 25 16 49 11 63 12 68 29 115 l15 42 -43 0 -43
0 -7 -62 c-5 -56 -9 -79 -20 -138 -2 -8 -6 -22 -9 -30 -4 -8 -8 -31 -9 -50 -2
-19 -6 -37 -9 -40 -3 -3 -16 -53 -29 -112 -13 -60 -27 -108 -30 -108 -4 0 -13
33 -20 73 -7 39 -15 76 -18 82 -3 5 -7 19 -8 32 -1 12 -14 77 -29 143 -15 67
-27 141 -28 166 l-2 44 -87 0 c-87 0 -87 0 -79 -22z"/>
<path d="M12855 5180 l0 -340 79 0 79 0 -7 33 c-8 39 -8 591 0 624 6 23 5 23
-72 23 l-79 0 0 -340z"/>
<path d="M13173 5508 c-22 -11 -48 -68 -54 -118 -1 -14 -3 -117 -3 -230 0
-313 5 -320 209 -320 l133 0 4 58 3 58 -60 -3 c-33 -2 -77 -5 -98 -6 -31 -2
-39 1 -43 18 -2 11 -3 115 -2 230 l3 210 98 0 99 0 -6 35 c-3 19 -6 45 -6 58
0 22 -2 22 -127 21 -71 0 -138 -5 -150 -11z"/>
<path d="M13555 5180 l0 -340 79 0 79 0 -7 33 c-7 32 -8 568 -1 620 l3 27 -76
0 -77 0 0 -340z"/>
<path d="M13873 5508 c-46 -22 -58 -84 -58 -308 1 -357 3 -360 208 -360 214 0
212 -4 212 345 0 220 -2 254 -18 282 -9 18 -26 37 -36 43 -26 13 -280 12 -308
-2z m217 -328 l0 -231 -62 3 -63 3 -5 218 c-3 132 -1 222 5 228 5 5 35 9 67 9
l58 0 0 -230z"/>
<path d="M14372 5498 c-30 -33 -41 -97 -38 -228 4 -200 11 -209 147 -210 l87
0 4 -46 c2 -25 1 -49 -2 -54 -8 -13 -219 -17 -224 -5 -7 16 -6 -68 0 -92 6
-22 10 -23 146 -23 159 0 190 9 207 62 13 42 12 303 -1 346 -13 44 -38 55
-138 62 l-85 5 0 45 0 45 115 0 115 0 -3 58 -4 57 -152 0 c-145 0 -154 -1
-174 -22z"/>
</g>
</svg>
