<svg xmlns="http://www.w3.org/2000/svg" width="1900" height="1343" viewBox="0 0 1169 827"><path d="M165.414 242.242c-7.594.899-18.191 3.45-19.789 4.75-.348.297-1.098.598-1.7.7-1.898.347-12.991 5.898-12.69 6.347.148.25.097.348-.153.3-.7-.202-2.7.65-2.45 1.048.153.203-.25.402-.796.402-.55.05-1.402.399-1.852.8-.449.4-2.148 1.45-3.796 2.349-8.696 4.847-15.043 9.699-16.59 12.695-1.153 2.25-1.653 4.25-1.102 4.601.25.149.3.5.149.797-.399.602 1.25 4.403 1.902 4.403.25 0 .348.199.2.449-.25.347 1.198 2.699 3.398 5.398 4.246 5.246 6.445 7.598 6.894 7.348.3-.2.402-.149.25.148-.398.653 3.848 4.801 4.398 4.301.2-.25.25-.152.102.149-.402.699.848 1.851 1.398 1.3.25-.199.25-.101.098.25-.347.602 11.594 10.399 12.047 9.899.2-.2-3.95-5.399-5.398-6.75-.551-.551-5.946-7.848-7.246-9.848-.75-1.2-1.602-2-1.899-1.797-.3.2-.352.047-.152-.3.25-.352.05-1-.348-1.45-.402-.453-1.2-1.8-1.8-3-.598-1.152-1.298-2.101-1.598-2.101-.301 0-.403-.2-.25-.399.097-.199-.2-1.351-.7-2.55-3.449-7.649-2.55-13.696 2.649-17.696 1-.75 1.847-1.348 1.95-1.348.097 0 .147.848.198 1.848.051 2.55.551 4.25 1.301 4.75.348.2.496.399.297.399-.5 0 .55 2.25 2.8 6.097 1.098 1.852 2.2 3.2 2.45 3.051.297-.148.348-.05.148.25-.351.648 3.5 6.598 4.246 6.598.25 0 .403.3.301.601-.05.348.25.598.653.5.398-.101.597 0 .398.2-.2.199.098 1.05.75 1.898 1.25 1.75 13.242 16.246 15.39 18.547.75.8 2.098 2.347 2.95 3.347.898 1.051 1.848 1.75 2.148 1.551.301-.148.352-.05.149.25-.297.5 1.101 2.399 5.05 6.598 3.747 4.05 6.094 6.75 6.145 7.05 0 .15-2.25 2.747-4.996 5.696-2.7 2.95-4.797 5.648-4.648 5.898.148.301.05.352-.2.204-.55-.352-4.5 4.097-4.25 4.746.051.25-.097.351-.347.3-.25-.097-3.399 3.352-6.996 7.598-9.145 10.797-10.047 11.899-10.047 12.2 0 .148-.5.796-1.098 1.398-.648.648-1.7 1.949-2.398 2.847-.7.954-2.2 2.903-3.348 4.45-1.2 1.5-2.148 2.851-2.148 3.05 0 .149-.801 1.2-1.75 2.301-.95 1.098-1.75 2.246-1.75 2.598 0 .3-.2.648-.45.75-.5.199-11.144 15.894-10.746 15.894.153 0-.05.352-.5.75-.949.953-7.144 11.25-7.394 12.25-.102.399-.399.95-.75 1.25-1.2 1.098-12.196 23.243-12.743 25.743-.101.398-.25.847-.449 1-.652.597-2.449 5.546-2.199 6 .148.296.098.496-.152.496-.598 0-1.7 2.953-1.297 3.55.148.25.047.45-.203.45-.547 0-3.196 7.949-2.797 8.55.148.247 0 .45-.301.45-.348 0-.5.347-.3.75.152.398.05.75-.15.75-.25 0-.597.898-.8 1.996-.2 1.101-.598 2.152-.848 2.3-.351.2-.398.102-.199-.199.2-.351.098-.601-.152-.601-.297 0-.5-.149-.5-.399.05-.199 0-.5-.047-.75-.05-.199-.203-.601-.25-.851-.05-.297-.152-.547-.25-.649-.3-.398-1.102-6.246-1.102-8.097.051-2.45.75-8.297 1.301-10.496.098-.551.55-2.403.95-4.102.398-1.7.597-3.2.449-3.348-.149-.148-.051-.3.25-.3.3 0 .699-.75.898-1.649.203-.851.402-1.7.45-1.851.152-.547 1.448-3.848 2.35-5.848.548-1.2.95-2.348.95-2.598 0-.652 10.145-20.797 10.945-21.746.348-.398.45-1.05.25-1.348-.203-.351-.152-.453.149-.3.25.148 1-.653 1.597-1.801.602-1.149 2.2-3.797 3.551-5.848 1.297-2.05 2.246-3.949 2.098-4.199-.149-.25 0-.3.25-.152.3.203.898-.399 1.348-1.348.402-.898 1.101-1.95 1.55-2.3.399-.348.75-.848.75-1.098 0-.25.348-.801.75-1.25.399-.403.598-.95.45-1.25-.2-.301-.149-.45.101-.301.246.199 1.246-.848 2.195-2.25 2.5-3.746 9.598-12.895 13.844-17.895 2-2.347 3.649-4.5 3.649-4.75 0-1-18.04 17.649-23.086 23.895-3 3.75-5.399 6.949-5.301 7.05.05.149-.399.7-1.098 1.297-.699.551-1.097 1-.898 1.051.148 0-.352.7-1.153 1.551-.796.848-1.296 1.797-1.097 2.148.148.301.101.399-.102.149-.547-.45-2.297 2.152-1.898 2.8.152.301.05.352-.25.15-.649-.4-1.746 1.401-1.2 1.952.2.246.102.297-.148.098-.55-.3-4.598 5.55-4.348 6.25.051.25-.101.398-.351.398-.45 0-2.95 3.551-3.149 4.551-.097.297-.648 1.149-1.25 1.797-.597.7-1.246 1.75-1.449 2.352-.199.55-.746 1.597-1.246 2.25-.5.648-.8 1.347-.652 1.597.152.25 0 .45-.297.45-.3 0-.402.199-.25.5.148.25.098.5-.152.5-.2 0-.899.902-1.547 2-.602 1.101-.95 2-.801 2 .2 0-.05.351-.45.8-.448.399-.698 1-.55 1.25.2.25.05.45-.2.45-.3 0-.55.449-.55 1 0 .55-.25 1-.55 1-.25 0-.349.199-.2.5.152.25.05.5-.25.5-.297 0-.398.199-.25.5.152.25.05.5-.25.5-.297 0-.398.199-.25.5.152.25.05.5-.25.5-.297 0-.398.199-.25.496.152.25.102.5-.148.5-.598 0-1.649 2.8-1.25 3.199.199.152.05.3-.301.3-.348 0-.496.2-.297.45.148.25.05.601-.25.8-.3.2-.403.551-.25.801.2.25.097.45-.153.45-.597 0-2.148 4.3-1.699 4.699.153.148.051.3-.25.3-.449 0-1.699 3.348-1.847 4.997-.051.453-.25 1-.399 1.25-.601 1-2.449 8.8-2.148 9.25.148.25.047.55-.203.75-.25.148-.399.75-.297 1.347.148.551.047 1.301-.153 1.602-.449.7-.597 3.25-.648 10.047 0 5.25 1.348 12.898 2.45 13.695.198.2.398.652.5 1.05.448 2.2 5.894 8 7.144 7.65.25-.102.449.1.449.398 0 .402.25.351.8-.047.602-.551.75-.551.602.047-.101.453.2.652.899.601 1.25-.148 2.547 1.098 2.898 2.848.598 2.902.75 3.5 1.3 4.45.298.6.4 1.05.25 1.05-.3 0 2.599 4.898 3.645 6.098.403.5.954.75 1.25.55.25-.148.352-.101.2.2-.2.25.453 1.199 1.402 2.05.95.801 1.746 1.399 1.746 1.25 0-.199.402.051.902.5.5.5 1.098.7 1.25.5.2-.152.348-.05.348.297 0 .352.3.551.7.403.35-.153.949 0 1.25.3 1 1 9.296.649 13.992-.601 5.796-1.551 14.593-5.047 14.195-5.7-.153-.3-.05-.347.25-.148.597.348 2.496-.5 8.945-4.101 2.246-1.247 3.945-2.497 3.797-2.747-.152-.3-.05-.351.25-.152.75.45 7.195-3.648 6.746-4.297-.148-.351-.05-.402.25-.199.649.398 3.7-1.152 3.348-1.703-.102-.2.101-.348.449-.348 1.352 0 16.89-11.097 16.441-11.746-.148-.351-.05-.402.25-.203.602.352 5.598-2.996 5.598-3.797 0-.25.25-.3.5-.152.3.152.649-.047.8-.45.15-.449.548-.796.849-.796.3 0 .851-.352 1.3-.75.45-.453 2.2-1.801 3.899-3.051 1.746-1.3 2.996-2.55 2.797-2.848-.149-.3-.051-.351.25-.152.3.2 1-.098 1.597-.7.551-.55 1.153-1 1.352-1 .199 0 1.5-.949 2.847-2.097 1.399-1.203 2.801-2.3 3.051-2.5 4.895-3.7 10.742-9 24.836-22.344 5.649-5.351 4.547-5.75-1.898-.652-.801.652-3.95 2.898-7.047 5.05-3.098 2.15-5.45 4.098-5.246 4.247.199.203.097.3-.203.203-.399-.102-15.141 9.246-23.688 15.094-6.695 4.55-37.48 21.195-40.476 21.894-.352.102-1.45.5-2.45.95-1 .453-2 .851-2.3.902-.25.097-2.2.648-4.246 1.25-2.051.648-4.2 1.199-4.75 1.25-.547.047-.997.148-.997.199 0 .05-1 .2-2.25.3-1.25.098-2.449.2-2.75.25-1.5.25-8.046-1.152-9.246-2-.746-.55-1.496-.85-1.648-.698-.149.199-.25-.153-.2-.704 0-.546.2-.949.4-.796.55.347 6.948-2.352 6.948-2.903 0-.25.2-.347.45-.148.25.148.847-.102 1.25-.551.449-.398.796-.648.796-.45 0 .45 12.246-5.948 21.09-10.995 4.297-2.45 7.696-4.7 7.547-5-.2-.25-.148-.352.102-.149.449.399 1.699-.25 12.093-6.601 4.395-2.649 7.497-4.848 7.293-5.149-.199-.297-.046-.347.301-.097.403.199 1.95-.551 3.95-1.852 1.847-1.25 5.945-3.898 9.093-5.898 3.149-2.047 5.996-3.95 6.246-4.2.301-.296 1.102-.847 1.852-1.25.75-.398 1.847-1.097 2.347-1.648.551-.5 1.149-.898 1.301-.898.348 0 6.348-4 6.746-4.5.149-.149 2.2-1.598 4.649-3.2 2.597-1.699 4.246-3.05 4.047-3.398-.2-.352-.102-.399.25-.2.3.2 1.898-.6 3.699-1.85 1.7-1.2 5.144-3.599 7.594-5.298 2.5-1.652 5.047-3.5 5.597-4.05.602-.551 1.25-1 1.399-1 .902 0 17.191-12.196 16.89-12.645-.148-.3-.047-.352.301-.152.5.3 3.149-1.399 8.047-5.247.648-.5 1.398-.953 1.7-.953.25 0 2.296 1.352 4.648 3 2.297 1.653 4.297 3 4.496 3 .152 0 .55.301.851.649.899 1.152 23.489 16.996 24.137 16.996.3 0 .55.203.5.402-.102.348 6.297 4.996 15.89 11.496 2.75 1.899 5.247 3.598 5.497 3.848 2.898 2.402 11.297 7.648 11.797 7.352.347-.25.5-.204.25.148-.403.7 3.996 3.75 4.796 3.3.301-.202.399-.152.25.15-.351.55 14.543 10.648 15.59 10.648.301 0 .551.148.551.398 0 .2 1.75 1.45 3.899 2.75 2.097 1.348 5.746 3.598 8.093 5.098 2.352 1.5 4.551 2.601 4.899 2.5.351-.149.5 0 .351.25-.152.3.098.648.547.851.5.2 2 1.098 3.399 1.996 1.402.903 2.851 1.551 3.199 1.403.351-.153.55-.051.402.199-.152.25.7.95 1.899 1.598 1.199.652 4.546 2.5 7.445 4.05 2.848 1.551 7.195 3.75 9.644 4.899 4.848 2.25 4.848 2.199.7 4.097-1.797.801-3.246 1.051-6.996 1-7.395 0-15.891-2.847-29.735-9.996-3-1.55-5.695-3.05-5.996-3.25-.25-.199-4.648-2.847-9.746-5.898-13.894-8.297-27.285-17.297-43.129-28.941-3.797-2.801-7.047-4.95-7.246-4.75-.45.449 18.543 18.746 19.242 18.496.348-.102.5.05.399.398-.25.7 4.5 4.649 5.297 4.45.3-.051.402.05.25.3-.149.25.699 1.2 1.851 2.2 5.047 4.199 15.84 12.695 18.84 14.796 1.797 1.3 3.496 2.55 3.746 2.848.648.699 12.246 9.148 15.242 11.047 1.25.8 2.551 1.75 2.899 2.101.402.348 1.398 1 2.25 1.45.898.449 1.699.949 1.847 1.148.153.152 2.598 1.75 5.5 3.45 2.899 1.75 5.594 3.35 5.996 3.6 1.649.95 4.747 2.598 4.747 2.45 0-.102.898.3 2 .848 3.046 1.55 10.843 4.199 11.542 3.949.352-.149.7 0 .801.3.25.75 8.047 1.051 10.446.399 1.097-.297 1.847-.75 1.699-1-.153-.2.148-.348.597-.297 1.25.2 5.2-3.2 7.297-6.3 1.598-2.298 3.95-7.848 3.746-8.798-.199-1.05 1.352-3.898 2.051-3.75.301.102 1.051-.05 1.649-.3.652-.25 1.3-.45 1.55-.5 1.297-.149 5.149-4.696 6.696-7.946 2.05-4.25 3.898-14.246 3.347-18.046-.148-1.25-.398-3.5-.546-5a64.165 64.165 0 0 0-.403-4.047c-.098-.7-.3-1.95-.45-2.75-.1-.852-.347-2-.5-2.649-.597-2.148-.847-3.351-1.097-4.847-.152-.852-.449-1.704-.699-1.954-.25-.25-.3-.75-.152-1.097.152-.399 0-.7-.348-.7-.3 0-.402-.25-.25-.5.149-.3.149-.8-.101-1.152-.2-.297-.45-1.047-.5-1.547-.098-.55-.399-1.25-.649-1.55-.25-.352-.351-.75-.152-.899.152-.203.05-.351-.297-.351-.352 0-.5-.2-.352-.399.153-.25-.05-1-.449-1.75-.351-.7-.55-1.398-.351-1.55.152-.15 0-.301-.348-.301-.352 0-.5-.2-.3-.45.151-.25.05-.597-.25-.8-.302-.2-.4-.5-.25-.75.151-.25 0-.7-.349-1.098-.351-.352-.75-1.102-.8-1.649-.102-.55-.45-1.152-.75-1.351-.352-.2-.352-.399-.102-.399.3 0 .203-.199-.148-.402-.348-.25-.75-.95-.848-1.598-.102-.648-.402-1.3-.602-1.449-.25-.152-.449-.652-.55-1.05-.098-.399-.399-.852-.649-.899-.25-.102-.351-.402-.148-.652.148-.25 0-.45-.301-.45-.3 0-.45-.199-.25-.449.148-.25 0-.75-.352-1.148-.347-.352-.699-1-.796-1.403-.102-.398-.403-.847-.653-.898-.25-.102-.347-.398-.148-.648.148-.25.05-.454-.2-.454s-.449-.296-.449-.648c-.05-1-4.648-8.848-5.25-8.848-.297 0-.398-.148-.25-.3.403-.399-1.199-3.2-1.746-3.2-.203 0-.402-.199-.402-.5 0-.847-4.445-7.496-5.047-7.496-.25 0-.398-.199-.25-.449.152-.25-.25-1-.95-1.75-.648-.75-1.198-1.5-1.198-1.7.05-.3-1.75-2.6-3.45-4.402-.347-.398-.547-.699-.347-.699.148 0-1.102-1.797-2.801-3.996-1.7-2.2-3.246-4-3.496-4s-.403-.2-.301-.402c.2-.7-7.746-9.098-8.297-8.746-.25.148-.348.101-.2-.2.15-.25-1.847-2.699-4.444-5.449-2.653-2.699-4.598-4.597-4.399-4.199.348.649 5.145 6.848 6.645 8.598.351.351 1.699 2.199 3.097 4.148 1.403 1.899 2.801 3.7 3.149 4 .351.25.699.7.699 1 .05.25 1.352 2.3 2.852 4.5 3.199 4.598 5.246 7.746 5.246 7.945 0 .653 4.949 8.149 5.246 7.899.152-.2.25-.098.152.152-.25.848 1.7 4.746 2.246 4.399.301-.153.352-.051.153.25-.153.3 0 .847.398 1.25.402.398.602.847.45 1.047-.2.152 0 .3.35.3.348 0 .552.153.348.301-.347.399 3.551 8.297 4.348 8.797.3.2.402.402.203.402-.203 0 .2 1.297.899 2.848.699 1.602 2.25 5.348 3.449 8.398 1.148 3 2.297 5.95 2.496 6.497.25.55.402 1.152.352 1.351-.051.2.148 1 .449 1.75.3.75.648 1.95.75 2.649.148.699.5 2.148.8 3.25.297 1.097.649 2.55.747 3.25.101.699.25 2.046.402 3 .55 3.546.3 12.593-.3 13.746-.15.25-.598 1.5-.95 2.648-.648 2.05-.7 2.098-1.148 1-.25-.601-.5-1.601-.551-2.148-.352-2.551-1.5-6.75-1.848-6.75-.25 0-.3-.352-.152-.75.199-.399.05-.75-.25-.75-.297 0-.399-.348-.25-.75.203-.399.05-.75-.297-.75-.3 0-.453-.2-.3-.45.198-.25.05-1.097-.25-1.898-.352-.75-.65-1.95-.75-2.602-.052-.648-.45-1.546-.852-2-.399-.449-.598-1.097-.497-1.449.149-.297 0-.597-.351-.597-.3 0-.45-.2-.3-.45.401-.601-.7-3.55-1.298-3.55-.25 0-.3-.25-.152-.5.152-.301.101-.5-.2-.5-.3 0-.398-.352-.25-.75.2-.399.051-.75-.3-.75-.297 0-.399-.25-.25-.5.152-.301.05-.5-.25-.5-.297 0-.45-.2-.297-.45.398-.601-3.45-9.148-3.898-8.699-.2.203-.2 0 0-.5.199-.547.05-.848-.352-.848-.348 0-.5-.152-.3-.3.35-.348-1.497-4.297-2.247-4.75-.25-.149-.45-.45-.351-.649.199-.699-2.7-6.25-3.149-6-.25.153-.348.102-.3-.148.202-.649-1.15-3.649-1.7-3.649-.25 0-.348-.152-.25-.402.152-.2-.496-1.598-1.398-3.098-.899-1.5-2.649-4.398-3.848-6.347-1.2-2-2.348-3.649-2.547-3.649-.25 0-.3-.152-.152-.402.199-.348-7.895-12.848-11.645-17.844-9.195-12.348-12.742-16.898-17.539-22.746-3.097-3.7-5.797-6.7-6.047-6.648-.25.101-.398 0-.351-.25.25-.649-2.696-4.098-3.246-3.75-.25.152-.352.05-.2-.2.2-.296-1.152-2.046-2.949-3.949-1.8-1.898-3.199-3.449-3.148-3.449.097 0-.25-.5-.801-1.098-.5-.601-1.148-.949-1.398-.8-.301.148-.352.101-.2-.2.2-.3-.199-1-.902-1.648-.996-.953-1.648-3.3-.7-2.7.204.098 1.2-.902 2.25-2.202 1.052-1.297 2.052-2.45 2.2-2.598 1.648-1.45 5.945-7.2 5.695-7.598-.199-.3-.097-.398.203-.25.7.45 14.243-16.644 14.243-17.996 0-.351.199-.5.398-.398.2.148 1.899-2.153 3.848-5.149 4.199-6.5 4.648-7.351 4.199-7.851-.2-.25-.102-.25.2-.098.5.3 1.097-.852 3.5-6.398.597-1.45.898-2.551 1.546-6.051.152-.848 0-2.047-.3-2.649-.997-1.796.1-1.148 2.75 1.551 3.898 4.098 4.347 5.047 4.449 9.649.046 2.199-.051 4.246-.301 4.496-.2.3-.45 1.203-.551 2-.098.851-.45 1.8-.8 2.199-.349.351-.548.953-.4 1.351.15.348.102.7-.097.801-.203.098-.902 1.149-1.55 2.399-2.45 4.547-7.4 12.148-9.946 15.394-4.598 5.75-4.598 6.75-.102 2.602 1.5-1.403 3.352-3 4.102-3.602.746-.547 1.246-1.25 1.047-1.547-.149-.3-.05-.351.25-.152.8.5 5.297-3.996 4.797-4.746-.2-.352-.149-.453.199-.25.601.348 4.95-5 4.7-5.852-.102-.347 0-.449.198-.25.403.453 3.348-3.699 3.899-5.496.199-.601.55-1.101.75-1.101.199 0 .8-1.2 1.3-2.649 2.399-7-.652-10.847-16.992-21.644-4-2.649-7.546-5.45-9.246-7.297-2.699-2.903-2.898-3.05-5.496-3.2-1.5-.1-2.847-.202-3-.25-.148-.05-.398-.05-.648 0-.45.048-5.399-1.952-9.645-4-6.148-2.898-10.844-3.648-21.941-3.648-8.293 0-10.895.2-15.192 1.098-2.847.601-5.394.95-5.597.8-.25-.148-.45 0-.45.352 0 .297-.398.45-1 .297-.546-.148-.996-.05-.996.25s-.453.402-1 .25c-.5-.148-1-.05-1.101.152-.098.25-.7.5-1.399.598-.699.102-1.449.3-1.75.45-.25.202-1.347.452-2.347.652-1.051.199-1.899.5-1.899.699 0 .2-.402.398-.851.45-1.047.1-6.645 2.5-6.645 2.847 0 .152.95-.098 2.149-.496a30.217 30.217 0 0 1 2.847-.953c.399-.098.75-.2.75-.25 0-.047.352-.149.75-.25 1.7-.45 4.598-1.149 6.145-1.547a31.817 31.817 0 0 1 2.2-.45c.6-.101 1.3-.25 1.5-.402.25-.148 1.55-.398 2.898-.598 1.398-.203 3.05-.453 3.75-.55 3.996-.653 6.144-.801 14.992-1.051 11.394-.3 16.492.351 24.886 3.101 4.946 1.649 12.442 5.149 9.594 4.496-5.047-1.148-8.695-1.847-11.594-2.25-3.148-.449-17.14-.597-20.89-.25-2.297.25-6.445.75-7.992 1-.703.102-2.051.301-3 .45-.95.152-2.301.402-3 .55-.7.153-1.848.403-2.598.5-1.55.25-5.297 1.153-6.395 1.602-.402.149-1.203.399-1.75.5-.55.098-1.351.297-1.75.5-.398.149-1.199.399-1.75.5-1.796.297-8.996 2.746-9.593 3.297-.352.25-.649.351-.649.152 0-.3-7.097 2.149-7.496 2.649-.152.148-.703.398-1.25.449-.5.101-3.148 1.05-5.847 2.148-4.997 2-5.399 2.153-8.297 3.602-.95.45-1.95.848-2.297.848-.352 0-3-1.051-5.848-2.297-2.848-1.25-5.598-2.301-6.047-2.352-.5-.05-.898-.2-.898-.398 0-.45-4.5-2-4.5-1.551 0 .2-.2.101-.399-.2-.5-.699-4.398-2.199-4.797-1.85-.152.202-.3.05-.3-.25 0-.45-2.5-1.298-3.301-1.099-.2.051-.496-.152-.649-.402-.25-.398-4.398-1.95-6.195-2.297a20.076 20.076 0 0 1-2.05-.75c-.797-.3-1.797-.652-2.247-.75-.453-.101-1.351-.398-2.05-.648-.7-.3-2.051-.703-3-.852-.95-.199-2.747-.699-3.997-1.05-1.25-.399-2.898-.797-3.75-.95-.796-.148-2.296-.449-3.246-.75-1.55-.449-3.199-.75-6.746-1.3-.55-.098-1.75-.297-2.601-.45-4.996-.949-18.989-1.847-23.336-1.547-7.946.547-10.594.848-12.395 1.297-1 .25-2.797.602-3.996.7l-2.148.3 1.496-.847c2.398-1.403 9.398-3.602 14.894-4.75 4.047-.899 6.946-1.102 14.094-1.149 10.191-.05 17.738.297 17.438.797-.149.203.203.3.652.3.5-.05 1.797.102 2.898.302 1.098.199 2.996.449 4.246.601 1.2.149 2.602.45 3.051.7.45.25.899.347 1.047.25.102-.153 1 0 1.95.296 1.75.5 3.25.903 4.3 1.153.348.05.746.25.95.398.148.2.597.2.949.102.347-.153.796-.051.949.25.199.3.648.398 1.047.199.402-.149.75 0 .75.347 0 .301.199.403.5.25.25-.148 1.199.051 2.101.454 2.149 1 5.996 2.347 6.196 2.148.101-.101-1.348-.75-3.2-1.55-1.847-.75-3.949-1.7-4.695-2.098-.8-.45-1.402-.602-1.402-.403 0 .153-.297.051-.649-.25-.398-.297-.847-.398-1-.199-.199.152-.347.05-.347-.3 0-.4-.352-.548-.75-.348-.403.148-.75.05-.75-.2 0-.3-.153-.453-.352-.453-.25.051-.5.051-.648-.047-.149-.05-.801-.152-1.5-.3-.7-.102-1.598-.352-2-.551-.899-.399-.747-.348-6.297-1.598-8.743-1.949-13.493-2.601-21.188-2.75-4.246-.101-8.547-.101-9.496 0Zm-2.246 11.047c7.293.102 11.64.399 12.094.8.597.65 2.246.4 1.847-.3-.3-.45-.199-.45.348-.05 1.152.898 3.148 1.398 2.7.698-.298-.449-.048-.449.8.051.648.352 1.898.7 2.7.801 2.948.348 3.995.5 3.995.649 0 .05.45.199 1 .3 1.95.301 3.5.649 4.75.95.7.148 1.7.398 2.246.449.551.101 1 .199 1 .25 0 .101.75.351 2.399.699.3.05.902.3 1.25.5.3.25.8.3 1.05.101.25-.148.65 0 .798.301.203.25.652.399 1 .25.351-.101.8-.101.949.098.351.351 1.55.652 2.949.75.45.05.852.25.852.5 0 .2.199.3.449.101.25-.152.648 0 .8.301.2.25.649.399.997.25.351-.101.8-.101 1 .098.199.2.55.402.8.402.25.047.551.149.7.2.148.05.5.199.75.25.3.05.597.199.75.25.148.05.5.199.75.25.3.05.597.199.75.25.148.046.5.199.75.25.297.046.597.199.746.25.152.046.5.199.75.25.3.046.601.199.75.25.152.046.5.199.75.25.3.046.601.199.75.25.148.046.398.148.648.199.203.05.852.347 1.45.699.6.3 1.6.7 2.25.8.648.15 1.199.25 1.3.25.05.048.25.048.399 0 .199 0 .5.2.648.5.203.298.8.598 1.3.7.552.098 1.802.55 2.75 1 .95.398 1.9.648 2.098.55.25-.152.399-.05.399.15 0 .25 1.351.948 3 1.597 3.098 1.25 3.7 1.949 2 2.402-.55.149-1 .5-1 .797 0 .3-.152.352-.3.203-.599-.601-15.192 7.797-15.192 8.746 0 .2-.2.352-.45.25-.55-.148-13.695 8.2-13.394 8.5.398.348 9.344-4.3 9.344-4.851 0-.301.152-.45.402-.399.7.2 2.598-.652 2.598-1.152 0-.297.199-.399.449-.2.25.153.8-.046 1.2-.449.401-.398.85-.597 1.05-.449.148.2.3.051.3-.3 0-.348.25-.45.5-.301.298.152.5.05.5-.2 0-.3.15-.5.4-.449.698.2 2.597-.699 2.597-1.199 0-.3.152-.45.3-.25.2.148 1.25-.2 2.399-.75 1.098-.602 2.148-1.148 2.297-1.148 1.152-.204 2.5-.903 2.5-1.301 0-.25.152-.399.398-.352.703.203 4.102-1.199 4.102-1.648 0-.301.25-.352.496-.2.3.149.5.051.5-.3 0-.348.152-.5.3-.348.153.2 1.052 0 2-.402 1.598-.649 1.9-.598 4.9.75 1.796.8 3.347 1.351 3.495 1.148.153-.148.301 0 .301.352 0 .351.25.449.5.3.3-.152.5-.05.5.25 0 .301.25.399.5.25.3-.152.5-.05.5.25 0 .301.2.45.45.301.25-.203.55-.101.648.098.05.25 3.398 2.102 7.398 4.098 3.996 2 9.145 4.699 11.492 6 5.348 2.949 8.895 4.75 8.246 4.148-1.097-1-5.796-4.148-6.195-4.148-.25 0-.55-.149-.652-.399-.2-.449-4.399-3.199-4.399-2.902 0 .152-.597-.297-1.296-.95-.75-.699-1.5-1.097-1.7-1-.199.153-.55-.097-.699-.546-.2-.453-.45-.703-.601-.551-.2.148-.75-.152-1.348-.648-.55-.551-1.25-.852-1.5-.653-.3.153-.399.102-.2-.148.301-.5-5.847-4.352-6.945-4.352-.402 0-.703-.199-.703-.449 0-.2-1.449-1.098-3.195-2-2.7-1.398-3.102-1.75-2.5-2.297.398-.351.7-.5.7-.351 0 .152.5 0 1.148-.348.601-.3 1.55-.652 2.101-.75.5-.102 1.098-.402 1.297-.703.152-.297.45-.5.652-.5 1.149.152 1.797 0 1.598-.399-.2-.25.148-.347.7-.199.55.149 1 0 1-.3 0-.25.35-.4.75-.25.398.199.75.1.75-.15s.3-.5.648-.5c.75 0 5.949-1.75 6.347-2.147.149-.153.5-.25.75-.25 1.598-.051 3.696-.903 3.45-1.352-.204-.352-.102-.399.246-.2.3.2 1.75-.05 3.199-.5 1.398-.5 2.75-.949 3-1 .199-.05.5-.148.75-.199.199-.05.597-.152.847-.25.301-.05.653-.152.903-.25.199-.05.597-.199.847-.25.301-.05.551-.152.649-.25.05-.05.55-.152 1.101-.25 2.45-.449 2.997-.652 2.848-1.3-.148-.5 0-.5.602 0 .547.449.996.449 1.699.101.547-.3 1.098-.351 1.297-.199.152.149.3.098.3-.152 0-.301.5-.551 1.149-.598 2.3-.152 3.898-.55 4.598-1.101.55-.45.75-.45.75-.051 0 .449.25.449 1 .05.55-.3 1.3-.5 1.648-.449.3.051 1.149-.05 1.848-.199 1.203-.351 5.097-.75 7.398-.8.649-.051 1.051-.2.95-.45-.25-.3 1.398-.402 11.144-.5 6.445-.101 16.09 1.098 21.988 2.7 5.797 1.597 6.996 2.25 8.047 4.296.547 1.05.848 1.902.7 1.902-.2 0-.153.25.05.547.598 1.051.348 5.75-.55 8.75-1 3.5-4.348 10.598-7.196 15.297-1.152 1.848-2.05 3.547-2.05 3.848 0 .25-.2.55-.45.648-.2.051-1.45 1.703-2.7 3.653a315.571 315.571 0 0 1-9.292 13.496c-1.25 1.648-3.149 4.25-4.25 5.746-5.399 7.3-6.598 8.45-7.645 7.3-.25-.25-.101-.3.301-.05.45.25.598.2.348-.149-.2-.351-.649-.601-1.051-.601-.399 0-.848-.25-1.047-.602-.25-.347-.152-.398.348-.148.601.398.601.3 0-.399-.348-.449-.848-.699-1.098-.55-.25.148-.402 0-.351-.399.101-.351-.149-.601-.5-.5-.297.047-.547-.101-.5-.3.152-.403-6.247-6.598-6.793-6.598-.204 0-.852-.551-1.45-1.25-1.351-1.5-17.691-14.649-19.093-15.348-.547-.25 1.152 1.55 3.75 4 2.597 2.5 4.945 4.399 5.195 4.25.25-.203.3-.05.152.2-.402.648.848 1.796 1.348 1.25.2-.204.3 0 .2.398-.099.398.151.699.5.601.401-.05.55.098.401.348-.351.5.899 1.648 1.348 1.3.2-.152.25-.1.102.052-.352.5 7.343 8.496 7.945 8.296.3-.101.398 0 .148.2-.5.55 1.149 2.25 1.852 1.851.297-.152.398-.152.2.098-.45.45 2.597 4.05 3.245 3.851.25-.05.301.098.153.348-.153.25.5 1.149 1.5 2l1.746 1.602-1 1.597a30.674 30.674 0 0 1-2.348 3.098c-.7.8-2.25 2.75-3.398 4.25-1.098 1.5-2.7 3.5-3.547 4.398-.801.95-1.7 2.051-1.95 2.5-.25.5-.75 1.051-1.148 1.25-.351.2-.652.75-.652 1.102 0 .398-.2.75-.45.75s-1.398 1.297-2.597 2.848c-1.2 1.597-2.598 3.347-3.098 3.898-2.199 2.3-5.347 6.75-4.847 6.75.847 0 21.34-19.894 26.437-25.644 1.649-1.899 2.195-2.25 2.695-1.75.352.351 2.2 2.597 4.2 4.949 1.949 2.398 3.898 4.648 4.246 5 .351.398 1.449 1.699 2.402 2.949.95 1.25 1.848 2.348 1.996 2.496.152.152.8 1.102 1.5 2.102.649 1 1.399 1.699 1.598 1.597.25-.148.351-.097.3.153-.148.5 4.649 7.148 5.149 7.148.148 0 .598.649.95 1.5.35.797.8 1.5 1.05 1.5.2 0 .547.45.7 1 .198.547.55.848.847.7.3-.204.402-.153.25.097-.348.652 4.05 7 4.75 6.8.25-.05.348.048.2.298-.302.5 4.796 8.55 5.847 9.199.297.199.398.398.199.398-.25 0 0 .602.55 1.352 1.247 1.75 7.544 12.246 9.493 15.746.8 1.45 2.45 4.45 3.648 6.648 1.2 2.2 2.348 4.098 2.551 4.149.25.101.297.351.149.601-.149.25.101.797.55 1.2.399.449.598.8.399.8-.149 0-.098.297.152.598.297.352.797 1.5 1.098 2.5.351 1.05.8 1.898 1 1.898.199 0 .398.301.398.602 0 .348.551 1.898 1.25 3.398.649 1.5 1.5 3.551 1.899 4.5.351.95.851 1.95 1.101 2.2.2.3.399.8.399 1.148 0 .399.351 1.45.75 2.45.398.949.75 1.898.8 2.1.047.2.7 2.15 1.45 4.349 3.195 9.148 5.445 20.543 5.496 27.843 0 4.399.25 4.25-4.5 3.399-3.098-.5-4.047-.75-6.344-1.45-.902-.25-1.652-.351-1.652-.25 0 .149-.598-.101-1.348-.5-.8-.398-3.547-1.601-6.148-2.597-14.04-5.45-34.13-16.547-64.817-35.844-14.14-8.898-15.289-9.547-15.742-9.445-.25.047-.398-.102-.398-.352s-.848-1-1.848-1.601c-1.05-.649-7.797-4.946-15.043-9.547-7.195-4.598-13.293-8.399-13.543-8.399s-.55-.148-.648-.398c-.153-.399-4.2-3.098-4.649-3.098-.45 0-1.898-1.5-1.7-1.703.099-.047 1-.648 1.95-1.297 2.098-1.449 2.797-2 4.047-3.148.5-.453 1.148-.852 1.348-.852.203 0 1.25-.75 2.3-1.699 1-.95 1.95-1.75 2.098-1.75.7.05 4.649-3.45 4.3-3.8-.202-.25-.1-.25.2-.098.297.199 1.598-.649 2.899-1.801a597.227 597.227 0 0 1 10.042-8.598c4.2-3.598 7.446-6.598 7.196-6.648-.496-.2-1.598.5-17.488 10.898-20.84 13.695-23.688 15.496-24.188 15.496-.3 0-4.398-2.601-9.145-5.75-4.75-3.148-8.847-5.746-9.097-5.746-.301 0-.5-.152-.5-.402 0-.2-.848-.801-1.848-1.348-1.05-.55-2.2-1.3-2.55-1.652-.4-.348-1.4-1-2.247-1.399-.8-.449-1.75-1-2.05-1.3-.301-.25-3.797-2.598-7.797-5.149-7.246-4.746-9.645-5.746-5.496-2.348 1.25 1 5.398 4.547 9.246 7.848 3.847 3.348 7.894 6.7 8.996 7.496 1.097.852 2.097 1.653 2.246 1.852.25.3 6.047 4.648 12.344 9.246 1.449 1.05 2.601 2 2.648 2.152 0 .25-1.648 1.348-12.742 8.446-2.75 1.75-5.149 3.449-5.348 3.75-.2.3-.398.398-.398.199 0-.2-4 2.199-8.848 5.25a2750.411 2750.411 0 0 1-14.89 9.347c-3.297 2.051-6.047 3.899-6.149 4.098-.098.203-.45.402-.7.402-.5 0-4.745 2.547-6.144 3.649-.902.7-21.09 12.648-26.238 15.496-22.238 12.348-34.73 18.394-46.477 22.344a375.557 375.557 0 0 0-6.996 2.398c-.398.152-.949.3-1.25.352-.25.05-.597.148-.75.199-.449.25-2.246.5-5.695.851l-3.398.301.3-4.652c.2-2.598.45-5.496.598-6.445.2-.954.352-2.45.402-3.352 0-.848.2-1.45.45-1.3.25.152.5-1.247.3-1.997 0-.05.2-.703.496-1.5.301-.75.653-1.902.75-2.5.352-1.75 4.75-14.246 6.297-17.945.801-1.852 1.403-3.399 1.301-3.399-.101 0 1.95-4.351 4.547-9.648 2.648-5.25 4.797-9.898 4.797-10.25 0-.297.203-.598.402-.598.7 0 2.047-3.05 1.746-3.8-.148-.399-.047-.598.203-.45.399.25 5.446-7.699 5.145-8.097-.098-.102.203-.551.652-1.051 1.149-1.25 7.696-11.598 7.696-12.145 0-.25.25-.453.55-.453.25 0 .399-.199.25-.449-.203-.25-.101-.547.098-.648.25-.051 1.5-1.75 2.848-3.649 1.351-1.95 3.898-5.55 5.648-8 1.8-2.5 3.25-4.746 3.25-5.098 0-.351.2-.5.399-.351.398.25 2.75-3.348 2.546-3.95-.046-.25.102-.296.352-.097.55.3 1.848-1.7 1.598-2.5-.047-.3.05-.351.25-.148.402.449 7.496-8.551 7.297-9.2-.051-.25.101-.351.351-.148.5.297 1.848-1.703 1.649-2.402-.051-.25.05-.297.3-.149.5.301 4.895-5.148 4.696-5.8-.051-.25.101-.348.351-.2.25.153.75-.199 1.2-.847.398-.602 1.648-2.102 2.745-3.301 1.153-1.25 1.95-2.399 1.801-2.598-.101-.2.25-.25.801-.101.547.152 1 .5 1 .75 0 .851 15.992 16.445 16.54 16.144.25-.2.401-.098.35.203-.199.598 12.294 12.098 12.493 11.496.101-.25-.899-1.75-2.25-3.3a2981.045 2981.045 0 0 1-11.39-13.645c-4.9-5.898-9.048-10.848-9.247-11-.75-.648-3.5-4.445-3.5-4.848 0-.25.55-1 1.25-1.648.75-.7 1.149-1.5 1-1.95-.148-.449-.148-.6.05-.402.548.5 3.747-2.699 3.349-3.347-.153-.301-.102-.399.097-.149.551.5 2.301-1.152 1.903-1.8-.153-.25-.102-.399.148-.301.25.101 5.398-4.7 11.445-10.746 11.743-11.7 11.442-11.747-2.648-.602-8.547 6.7-10.195 8.148-16.895 14.45l-3.097 2.898-7.395-9.399a3091.764 3091.764 0 0 1-9.297-11.898c-1.047-1.399-2.898-3.746-4.097-5.246-3.547-4.5-7.946-11-11.094-16.297-1.598-2.7-3.149-5.098-3.45-5.301-.25-.2-.347-.398-.097-.398.2 0-.05-.852-.602-1.899-1.75-3.45-3.449-11.047-2.648-11.848.2-.152.398-.55.398-.8.051-.25.153-.551.204-.7.046-.148.148-.55.199-.898 0-.3.55-.8 1.199-1.101.598-.25 1.098-.649 1.098-.899 0-.2.203-.3.402-.152.45.25 7.195-1.399 6.895-1.75-.098-.098.449-.2 1.3-.149.848 0 2.598-.148 3.848-.398s3.848-.5 5.695-.653c1.903-.097 3.551-.296 3.7-.449.148-.148.55-.097.851.102.297.2 3.047.398 6.047.45ZM430.777 384.406v128.969h79.86c49.125-.05 81.508-.2 84.207-.5 6.847-.8 8.047-.95 11.945-1.7 8.746-1.698 19.988-5.745 26.887-9.745 2.347-1.352 4.195-2.75 4.097-3.051-.05-.3.098-.45.399-.25 1.3.8 12.695-8.649 17.094-14.246 2.945-3.75 5.746-8.996 7.496-13.996l1.648-4.75.149-79.38c.101-87.128.3-81.429-2.899-89.78-7.144-18.543-30.535-34.29-57.969-38.989-8.296-1.449-14.945-1.55-92.554-1.55h-80.36ZM588.7 290.68c5.145.351 6.344.5 7.496.851.399.149 2.45.797 4.496 1.45 2.051.648 4.496 1.597 5.399 2.097.847.5 1.597.8 1.597.602 0-.153.352.047.801.449.399.45 1 .648 1.297.5.352-.2.403-.102.203.2-.203.35-.101.6.25.6.297 0 2.098 1.548 3.946 3.4 2.8 2.796 3.55 3.948 4.199 6.148.75 2.449.8 10.496.699 78.43l-.148 75.73-1.153 2.152c-4.047 7.547-14.59 13.195-27.484 14.695-4.047.5-18.64.602-59.668.5l-54.375-.101-.098-93.977-.152-93.926 1.75-.152c3.5-.297 106.348.05 110.945.352ZM1009.883 255.688c-.25.25-4.7.75-7.149.75-4.398.101-19.738 4.347-26.136 7.296-2.047.954-3.797 1.704-3.946 1.704-.453 0-9.847 5.648-12.246 7.398-1.347.898-2.398 1.898-2.398 2.2 0 .25-.2.347-.45.198-.648-.449-9.093 8.098-11.495 11.645-2.797 4.152-4.696 7.95-4.247 8.648.2.301.149.403-.199.2-.5-.297-2.199 3.851-2.347 5.699 0 .453-.25 1.101-.5 1.5-.301.449-.551 40.242-.653 105.574l-.097 104.824h22.738l22.738.051V383.406h6.895c3.75 0 33.285-.05 65.617-.05h58.77l.05-17.395v-17.344h-64.316c-35.332.047-64.918-.05-65.668-.152l-1.399-.149.149-20.347c.152-19.145.203-20.395 1.152-22.293 1.149-2.25 1.547-2.899 2.996-4.25 2.25-2.2 4.649-3.95 7.348-5.399 1.547-.797 2.7-1.648 2.5-1.898-.203-.2-.102-.2.2-.05.25.151 2.046-.25 3.898-.95 7.496-2.7 7.792-2.7 62.566-2.7h50.523l.102-34.991h-52.375c-28.785 0-52.473.101-52.621.25ZM686.898 388.508c.098 84.027-.101 78.031 2.649 85.277 4.297 11.246 16.34 22.543 31.781 29.844 8.098 3.797 21.992 8.098 24.64 7.598.598-.102.997-.051.9.148-.153.203 1.948.652 4.648.902 2.648.297 5.195.598 5.597.649.399.05 27.035.148 59.168.25 32.082.101 58.52.25 58.668.398.102.153.203 4.102.203 8.801-.05 7.945-.152 8.746-1.25 11.145-1.898 4.101-6.199 7.847-12.543 11.046-1.699.801-3.25 1.551-3.55 1.602-.25.05-2.297.648-4.496 1.3l-4 1.15-52.52.148-52.574.152.05 17.445v17.446h51.774c32.082 0 53.57-.149 56.52-.5 10.195-1.098 22.539-4.348 30.285-7.95 1.75-.847 3.347-1.5 3.597-1.5.2 0 .899-.449 1.5-.996.598-.601 1.098-.902 1.098-.75 0 .45 1.898-.652 7.246-4.199 5.098-3.402 14.242-11.648 14.242-12.848 0-.402.203-.699.453-.699.2 0 1.2-1.199 2.196-2.652 2.05-3.149 5-8.848 4.55-8.848-.203 0-.101-.297.149-.597.3-.352.8-1.45 1.098-2.45.601-1.8.8-2.949 1.55-7.949.25-1.5.45-51.836.45-111.871l.05-109.074h-45.875v167.207l-56.922.101c-61.57.102-60.07.149-68.214-2.597-4.2-1.403-10.047-4.7-12.496-7-.95-.95-1.946-1.551-2.149-1.352-.25.203-.25.102-.047-.25.149-.297.098-.7-.203-.898-.898-.551-2.348-3.95-2.695-6.399-.203-1.3-.352-35.34-.352-75.582v-73.23h-45.277ZM81.309 551.215c-.149.25-.399 1.5-.551 2.902l-.348 2.5 3.246-.152 3.301-.2.047 1.45c.152 7.297-.047 22.445-.297 24.496l-.402 2.648h4.148c4.098 0 4.098 0 3.797-1.199-.25-.95-.5-20.945-.348-26.496.051-.797.399-.898 3.246-.7 1.801.102 3.149.052 3-.148-.101-.199-.25-1.5-.25-2.898l-.101-2.55h-9.145c-4.996 0-9.242.148-9.343.347ZM103.695 552.465c.5 2.05.5 28.695.051 30.742l-.398 1.652 8.695-.152 8.644-.098.5-5.5-5.046.153-5.098.199-.148-2.45c-.102-1.3-.153-3.5-.051-4.8l.148-2.45 4.5.2 4.445.152v-6.25l-1.296.5c-1.602.649-6.848.649-7.45.051-.296-.3-.449-2.2-.347-4.25l.199-3.75 4.246-.148c2.3-.102 4.598.05 5 .3.7.348.75.2.5-1.199-.2-.902-.352-2.25-.352-3.05v-1.45h-17.09ZM125.387 551.215c-.051.25-.051.601 0 .8.199 1.25.05 31.544-.2 31.743-.851.902.649 1.101 8.243 1.05 8.347-.05 8.496-.05 8.496-1.101 0-.598.152-1.898.3-2.848l.301-1.75-4.797.153c-4.347.148-4.796.097-4.847-.75-.2-3.602.05-26.746.3-27.145.2-.3-1.101-.5-3.699-.5-2.25 0-4.097.149-4.097.348ZM145.676 552.418c.449 2.098.5 28.742.05 30.789l-.402 1.652 8.696-.152 8.648-.098.5-5.5-5.098.153-5.148.148-.05-1.898c-.099-2.5.05-7.301.198-7.45.301-.351 6.746-.3 7.746 0 1.051.348 1.102.25 1.102-2.898v-3.3l-1.3.5c-1.75.698-7.048.648-7.497-.052-.3-.5-.398-4.546-.25-7.347.05-.5 1.2-.649 5.098-.5l5.047.152-.301-1.453c-.149-.797-.297-2.047-.297-2.848v-1.449h-17.094ZM169.164 552.066c-2 2-2.3 4.399-2.148 16.946.148 12.699.5 14.347 3.195 15.347.703.301 4.05.5 7.398.5h6.145l.351-1.898c.649-4.05.899-3.852-4.648-3.7-4.797.15-4.945.15-5.246-1-.399-1.5-.399-19.296 0-20.796.3-1.05.55-1.098 4.996-1.098h4.7v-5.5h-6.747c-6.496 0-6.847.051-7.996 1.2ZM190.754 551.867c-2.102 1.649-2.3 3.2-2.2 16.696.098 12.195.15 12.796 1.2 14.148.547.746 1.297 1.348 1.598 1.246.3-.047.55.102.55.352 0 .648 12.543.699 14.141.101 2.7-1.05 3-2.55 3.2-15.797.148-11.847-.15-14.347-2.15-16.496-1.097-1.199-1.3-1.25-8.097-1.25-6.195 0-7.094.098-8.242 1Zm11.344 5.297c.449 1.2.347 20.848-.153 21.598-.25.449-1.297.597-3.347.5l-2.95-.153-.148-10.746c-.05-5.898 0-11 .102-11.347.398-1 6.093-.852 6.496.148ZM214.14 567.863v17.047l1.65-.152 1.648-.149-.051-13.449c0-7.445.101-13.394.25-13.246.25.3 2.101 8.25 2.601 11.2.2 1.347 2.45 12.394 2.899 14.245.097.399.199.899.199 1.098.098.703 4.547.453 4.797-.25.25-.75.8-3.246 1-4.598.05-.55.25-1.347.398-1.75.301-.75 2.2-9.898 2.602-12.394 1.797-10.848 2.347-9.348 2.148 5.797l-.152 13.597h7.848l-.352-2.648c-.5-3.25-.45-25.445 0-28.844l.352-2.5h-9.547l-.547 2.051c-.301 1.098-.653 2.7-.703 3.598-.098.898-.297 1.949-.45 2.347-.5 1.403-1.949 8.75-2.046 10.149-.153 3.949-1.801-1.801-4.051-13.895-.149-.851-.399-2.101-.547-2.902l-.3-1.348h-9.645ZM246.473 564.965c.3 19.793.402 19.894 10.797 19.894 10.144 0 9.992.301 10.19-19.394l.153-14.598h-3l.153 12.547c.097 6.899.046 13.297-.153 14.246l-.3 1.7h-4.895c-4.05 0-5-.15-5.25-.801-.398-1.047-.398-25.793 0-26.844.25-.75-.148-.848-3.797-.848h-4.098ZM272.61 567.863v16.996h3.597l-.45-2.398c-.25-1.3-.448-6.5-.448-11.598 0-13.5 0-14.496.449-14.496.351 0 3.597 10.348 5.847 18.742.45 1.653 1.25 4.5 1.801 6.352l1.047 3.398h9.348v-15.695c0-8.601.148-16.246.347-16.996.301-1.25.2-1.3-1.796-1.3-1.301 0-1.95.198-1.75.55.5.7.5 27.844.05 27.39-.152-.097-1.949-6.046-4.05-13.195-2.098-7.148-3.899-13.398-4.047-13.898-.25-.75-.95-.848-5.098-.848h-4.848ZM299.645 553.215c.453 3.05.453 27.394 0 29.793l-.348 1.851h7.797v-33.992h-7.797ZM315.387 551.668c-2.246 1.598-2.496 3.2-2.496 16.344 0 7.5.199 12.449.5 12.597.25.2.347.551.199.801-.2.25.348 1.149 1.2 1.95l1.448 1.5h13.594v-1.9c0-1 .148-2.3.297-2.85.25-.95 0-1-4.895-1h-5.148v-22.493h4.898c5.395 0 5.196.2 4.547-3.902l-.351-1.848h-6.297c-5.047 0-6.547.149-7.496.801ZM341.176 552.016c.148.652-.352 3.25-1.051 5.847-.7 2.551-1.148 4.801-1.05 5.051.152.2.05.45-.15.55-.347.098-4.198 12.946-4.796 16.048-.102.297-.399 1.148-.649 1.847-1.449 3.5-1.402 3.5 1.047 3.5h2.301v-2.101c0-1.149.348-3.246.848-4.7.8-2.597.8-2.597 3.097-2.796 3.399-.25 7.297.25 7.2.898-.051.352.097 1.3.347 2.2.25.85.5 2.699.551 4.05l.149 2.45h4.449c4.047 0 4.398-.102 4.097-.903-.199-.45-.8-2.648-1.3-4.848-.547-2.199-1.098-4.347-1.297-4.75-.153-.398-.352-1.297-.45-1.949-.101-.648-.3-1.547-.5-2-.199-.45-.402-1.246-.5-1.797-.05-.55-.902-4.25-1.898-8.25-1-3.996-1.902-7.746-2.05-8.398-.25-1.047-.551-1.098-4.45-1.098-4.098 0-4.144 0-3.945 1.149Zm2.898 8.847c.2 1.102.5 2 .649 2 .199 0 .351.653.398 1.45.05.8.25 1.851.453 2.351.2.547.45 1.547.547 2.297l.2 1.402h-3.298c-2.449 0-3.246-.152-3.046-.652.097-.297.847-2.996 1.597-5.95.75-2.948 1.551-5.245 1.801-5.148.2.153.5 1.153.7 2.25ZM364.012 551.367c-.547.2-1.45 1.25-1.996 2.348-.801 1.7-.903 3.2-.903 13.148-.047 6.2.153 12.098.352 13.145.2 1 1.05 2.5 1.797 3.3l1.449 1.45 6.75.05 6.746.051v-2.5c.05-1.351.148-2.648.25-2.898.148-.2-2.05-.352-4.797-.352h-5.098l-.152-10.945c-.05-6.05.05-11.148.3-11.398.2-.2 2.5-.399 5.048-.45l4.648-.05-.3-1.5c-.149-.848-.301-2.051-.301-2.7v-1.199l-6.344.051c-3.55 0-6.848.2-7.45.45ZM383.055 567.863v16.996h7.793l-.348-2.398c-.45-3-.45-26.195 0-29.293l.348-2.3h-7.793ZM399.246 551.215c-.45.101-1.351 1.152-2 2.3-1.098 2-1.148 2.551-1.25 12.7-.098 12.644.3 15.344 2.348 17.242 1.5 1.402 1.55 1.402 8.097 1.352 3.598-.051 7.047-.301 7.645-.551 2.55-1.149 3.25-4.95 3.148-16.547-.046-10.844-.5-13.844-2.246-15.594-1.199-1.199-1.449-1.25-8.097-1.199-3.746.047-7.196.148-7.645.297Zm10.543 16.648v11.496h-2.95c-1.648 0-3.097-.199-3.245-.449-.403-.601-.403-21.445-.051-22.043.148-.3 1.648-.5 3.297-.5h2.95ZM422.082 552.617c.45 2.5.55 30.742.102 30.742-.25 0-.399.348-.399.75 0 .551.547.75 1.899.75h1.847l-.097-4.601c-.403-14.043-.352-24.293.046-23.89.301.296.551.796.602 1.245.05.403 1.848 6.7 3.996 14l3.848 13.246 4.648-.05h4.7V569.71c0-8.297.148-15.945.3-16.996l.348-1.848h-3.996l.398 2.598c.75 4.55.75 25.394 0 25.394-.25 0-.699-.949-1-2.148-.3-1.149-2.097-7.399-3.996-13.848l-3.398-11.746-5.098-.152-5.098-.149ZM448.469 552.066c.449 1.75.449 29.743.05 31.391l-.347 1.402h8.492c9.496 0 9.098.149 9.098-3.648v-2.102l-4.95.153-4.996.148-.148-4.898-.152-4.899 1.5.098c.847.05 2.898.203 4.648.3l3.098.15v-6.247l-1.45.5c-.8.3-2.75.45-4.347.348l-2.95-.149-.148-4.148-.152-4.149 5.047.149c4.847.152 5.05.101 4.8-.848-.152-.55-.3-1.851-.3-2.902v-1.848h-17.09ZM471.86 551.715c-1.602 1.402-1.95 3.402-2 11.148-.051 7.899.5 10.2 2.546 10.7.602.097 2.75.25 4.75.25 4.996 0 5.246.296 4.348 4.796-.2.95-.5 1-5.848.75-3.097-.148-5.699-.25-5.699-.25-.047 0 .05 1.301.152 2.852l.25 2.848h7.496l7.497.05 1.398-1.402c1.7-1.7 2.2-5.297 1.898-13.297-.148-4.347-.347-5.496-1.199-6.644-.597-.75-1.297-1.403-1.597-1.403-.301 0-.7-.148-.903-.398-.199-.2-2.195-.352-4.394-.352h-4.051l.203-2.547.148-2.5 5.696.149c6.398.152 6.047.402 5.398-3.75l-.347-1.848h-7.348c-6.297 0-7.547.149-8.395.848ZM506.84 554.715c.8 2.152 1.7 4 1.95 4.05.25.098.35.348.25.551-.15.2.75 3.047 2 6.348 2.198 5.848 2.245 6.047 2.245 11.746-.047 3.25-.2 6.2-.347 6.649-.25.699.25.8 3.648.8h3.996l-.25-6.449c-.148-4.648-.05-6.75.45-7.597.652-1.301 3.398-8.649 3.698-10.098.102-.5 1.102-2.899 2.2-5.348l1.949-4.5h-2.45c-2.449 0-2.449 0-2.449 1.649 0 2-3.546 11.949-4.246 11.898-.601 0-4.097-9.047-4.547-11.7l-.351-1.847h-9.246ZM547.867 551.617c-1.797 1.25-2.148 3.5-2.047 12.098.149 6.996.25 8.246 1.051 8.996.848.851 2.297 1.05 8.992 1.148 1.301 0 1.352.102 1.352 2.801v2.75l-5.797-.148-5.797-.153.25 2.399c.2 1.3.45 2.601.598 2.851.402.649 13.293.649 14.992 0 2.351-.902 2.848-3.148 2.648-12.297-.148-7.75-.199-8.25-1.297-9.296-1-1-1.699-1.153-5.5-1.25-2.496-.051-4.394-.352-4.496-.653-.101-.25-.351-.398-.601-.25-.399.25-.399 0 .25-2.898l.3-1.399 5.747.149c5.547.152 5.75.101 5.5-.848-.153-.55-.301-1.851-.301-2.902v-1.848h-7.395c-5.75 0-7.597.149-8.449.75ZM568.957 551.316c.352.602.402 32.442 0 33.043-.148.25 3.55.45 8.496.5h8.746l.102-1.601c0-.899.097-2.25.148-3 .051-.996-.101-1.246-.55-.996-.348.199-2.547.297-4.899.199l-4.297-.152v-9.547l4.5.199 4.496.2v-6.247l-1.597.5c-.903.25-2.95.45-4.5.45h-2.899v-8.548l4.75.149 4.746.152v-1.3c0-.75-.148-2.051-.3-2.899l-.301-1.55h-8.493c-5.199 0-8.347.198-8.148.448ZM590.398 552.117c.45 1.75.5 29.692.047 31.34l-.347 1.3 4.097.052h4.149l-.352-2.348c-.25-2-.5-8.95-.347-11.75.046-.649.5-.848 1.898-.848 1 0 1.7.098 1.547.297-.149.153.152 1.852.652 3.852.547 2 1.098 4.047 1.2 4.597.148.551.5 2.149.796 3.602l.602 2.547h3.95c3.444 0 3.898-.098 3.694-.801-2.597-8.848-3.847-13.844-3.445-13.945.297-.098.95-.5 1.45-.899.847-.601.948-1.402.948-7.847 0-10.649.297-10.399-12.843-10.399h-7.996Zm13.692 7.797c.101 2.55-.05 3.55-.649 4.149-.949.949-5 1.101-5.546.199-.301-.5-.403-2.95-.25-6.797.046-1.098.199-1.149 3.195-1l3.101.152ZM615.133 551.965c.25.652.902 3.5 1.5 6.398.601 2.903 1.25 5.602 1.398 6 .153.399.352 1.102.403 1.5.597 3.45.898 5 1.296 6.75.25 1.098.602 2.649.75 3.496.153.801.403 1.852.551 2.25.149.403.352 1.2.399 1.75.101.551.3 1.45.402 2 .148.551.297 1.348.297 1.801.05.7.75.848 4.3.899 3.747.05 4.247-.051 4.298-.801.101-1.547.398-2.75 1.699-8.149.75-2.898 1.398-5.797 1.55-6.496.098-.699.497-2.601.899-4.199.398-1.648.648-3.148.5-3.351-.102-.2 0-.5.25-.649.25-.2.598-1.25.797-2.45.55-3.148.601-3.398 1.45-5.75l.75-2.097h-4.298l-.347 3.098c-.25 2.8-.454 3.95-1 6.898-.102.403-.301 1.102-.454 1.5-.199.403-.398 1.551-.449 2.5-.097.95-.297 1.852-.449 2-.148.149-.797 2.649-1.45 5.598-.648 3-1.347 5.398-1.5 5.398-.198 0-.648-1.648-.995-3.648-.352-1.95-.75-3.8-.903-4.098-.148-.25-.347-.949-.398-1.601-.05-.598-.7-3.848-1.45-7.149-.75-3.347-1.35-7.047-1.398-8.297l-.101-2.199h-4.348c-4.348 0-4.348 0-3.95 1.098ZM642.422 567.863v16.996h7.894l-.351-1.652c-.399-1.95-.399-29.539 0-31.191.3-1.149.25-1.149-3.598-1.149h-3.945ZM658.313 551.465c-1.102.55-2.399 3.402-2.7 5.898-.05.703-.148 5.852-.148 11.5 0 15.645.25 15.996 10.445 15.996h6.645l.199-2.898.152-2.902-3 .152c-1.648.098-3.847.25-4.898.3-1.547.098-1.95-.05-2.149-.902-.097-.55-.148-5.746-.097-11.496l.148-10.496h9.844l-.3-1.75c-.15-.949-.298-2.25-.298-2.902 0-1.098-.101-1.098-6.347-1.047-3.547 0-6.899.25-7.496.547ZM677.402 567.863v16.996h7.895l-.348-1.652c-.351-1.598-.402-28.39-.05-30.992l.148-1.348h-7.645ZM693.293 551.465c-2.297 1.101-2.898 4.2-2.898 15.398.05 17.844.152 17.996 10.394 17.996 10.695 0 10.598.2 10.598-17.246 0-10.996-.102-12.699-.903-14.097-.449-.899-1.297-1.848-1.797-2.149-1.3-.648-13.992-.601-15.394.098Zm10.844 16.398v11.547l-3.098-.148-3.148-.153-.25-10.898c-.149-6.598-.047-11.094.25-11.395.25-.25 1.75-.449 3.347-.449h2.899Zm0 0" style="stroke:none;fill-rule:nonzero;fill:#000;fill-opacity:1"/><path d="M718.23 551.965c-1.5 1.652-2.046 4.851-1.898 11.398.2 10 .55 10.45 7.348 10.496h4.347l.2 2.301c.101 1.25.05 2.45-.102 2.7-.398.652-10.941.85-11.191.25-.352-.801-.301 3.398 0 4.597.296 1.102.5 1.152 7.293 1.152 7.949 0 9.496-.449 10.347-3.101.649-2.098.598-15.145-.05-17.293-.649-2.2-1.899-2.75-6.899-3.102l-4.246-.25v-4.496h11.492l-.148-2.902-.2-2.848h-7.597c-7.246 0-7.696.051-8.696 1.098Zm0 0" style="stroke:none;fill-rule:nonzero;fill:#000;fill-opacity:1"/></svg>