<?xml version="1.0" encoding="UTF-8"?>
<svg xmlns="http://www.w3.org/2000/svg" xmlns:xlink="http://www.w3.org/1999/xlink" width="2533px" height="1791px" viewBox="0 0 475 336" version="1.1">
<g id="surface1">
<path style=" stroke:none;fill-rule:nonzero;fill:rgb(0%,0%,0%);fill-opacity:1;" d="M 65.375 98.707031 C 62.175781 99.285156 60.523438 99.785156 57.75 100.984375 C 56.300781 101.609375 55.023438 102.210938 54.875 102.3125 C 54.75 102.410156 53.949219 102.859375 53.125 103.3125 C 47.199219 106.539062 44 108.816406 43.074219 110.441406 C 42.050781 112.214844 42.726562 114.042969 45.773438 117.695312 C 48.050781 120.421875 54.550781 126.351562 54.898438 126 C 54.976562 125.925781 54.324219 125.050781 53.476562 124.050781 C 52.625 123.023438 51.425781 121.472656 50.800781 120.570312 C 50.148438 119.671875 49.550781 118.894531 49.449219 118.871094 C 49.324219 118.820312 49.25 118.671875 49.25 118.546875 C 49.25 118.421875 48.875 117.746094 48.398438 117.019531 C 46.800781 114.46875 46.101562 111.390625 46.773438 109.640625 C 47.023438 108.941406 48.675781 107.0625 49.050781 107.0625 C 49.148438 107.0625 49.25 107.464844 49.25 107.9375 C 49.25 110.164062 52.273438 114.917969 58.351562 122.199219 C 59.726562 123.847656 61.324219 125.699219 61.898438 126.324219 C 62.898438 127.375 65.226562 130.050781 66.851562 131.980469 L 67.550781 132.828125 L 65.875 134.78125 C 64.949219 135.832031 63.425781 137.558594 62.476562 138.582031 C 59.324219 142.058594 52.550781 150.316406 51.25 152.242188 C 51.050781 152.539062 49.898438 154.191406 48.726562 155.894531 C 44.023438 162.621094 40.273438 169.027344 37.648438 174.855469 C 37 176.304688 36.324219 177.753906 36.125 178.105469 C 35.949219 178.457031 35.675781 179.132812 35.550781 179.605469 C 35.398438 180.082031 35.050781 181.109375 34.75 181.859375 C 34.449219 182.609375 33.875 184.285156 33.476562 185.585938 C 32.699219 188.113281 32.574219 188.386719 32.398438 187.835938 C 31.824219 186.011719 31.699219 185.285156 31.699219 183.535156 C 31.675781 180.433594 32.523438 176.78125 34.375 171.976562 C 35.175781 169.902344 38.976562 162.371094 40.375 160.144531 C 43.648438 154.890625 46.300781 151.191406 50.125 146.488281 C 51.300781 145.011719 52 143.984375 51.675781 144.210938 C 50.726562 144.835938 44.273438 151.714844 42.425781 154.089844 C 41.523438 155.265625 40.625 156.394531 40.449219 156.59375 C 39.800781 157.367188 37.75 160.320312 37.75 160.496094 C 37.75 160.59375 37.476562 160.972656 37.148438 161.320312 C 36.824219 161.695312 36.351562 162.320312 36.074219 162.746094 C 35.824219 163.171875 35.074219 164.347656 34.398438 165.375 C 33.25 167.125 28.925781 175.355469 29.148438 175.355469 C 29.199219 175.355469 29.023438 175.804688 28.75 176.328125 C 27.898438 178.054688 26.449219 182.382812 26.125 184.308594 C 26.023438 184.886719 25.898438 185.660156 25.851562 186.0625 C 25.523438 187.960938 25.476562 191.015625 25.726562 192.863281 C 26.199219 196.441406 27.75 198.945312 29.949219 199.769531 C 31.574219 200.371094 31.648438 200.445312 32.226562 202.320312 C 32.5 203.246094 33 204.398438 33.300781 204.898438 C 34.050781 206.097656 36.351562 208.023438 37.449219 208.398438 C 38.800781 208.847656 42.273438 208.523438 44.75 207.75 C 47.226562 206.972656 51.726562 204.871094 53.898438 203.472656 C 54.75 202.945312 55.773438 202.296875 56.148438 202.070312 C 56.550781 201.820312 57.101562 201.496094 57.375 201.320312 C 57.648438 201.144531 58.675781 200.496094 59.625 199.894531 C 61.925781 198.441406 65.5 195.816406 65.5 195.566406 C 65.5 195.464844 65.625 195.367188 65.773438 195.367188 C 66 195.367188 67.898438 194.164062 68.699219 193.488281 C 69 193.238281 70.324219 192.214844 75 188.5625 C 79.101562 185.359375 87.550781 177.554688 87.226562 177.253906 C 87.125 177.128906 86.175781 177.78125 81.75 181.109375 C 80.726562 181.859375 78.976562 183.058594 77.875 183.710938 C 76.773438 184.382812 74.476562 185.910156 72.75 187.0625 C 68.800781 189.738281 64.398438 192.289062 58.375 195.367188 C 50.523438 199.367188 46.625 200.269531 42.699219 198.96875 C 41.574219 198.59375 41.023438 197.867188 41.875 197.867188 C 42.800781 197.867188 53.601562 192.238281 56.074219 190.464844 C 56.726562 189.988281 57.351562 189.613281 57.476562 189.613281 C 57.824219 189.613281 60.476562 188.0625 63.050781 186.335938 C 64.25 185.535156 65.601562 184.683594 66.050781 184.460938 C 67.199219 183.882812 78 176.679688 80.050781 175.128906 C 81 174.453125 81.976562 173.753906 82.226562 173.601562 C 82.925781 173.253906 91.5 167.222656 94.050781 165.324219 C 96.851562 163.246094 99.199219 161.597656 99.675781 161.421875 C 100.050781 161.269531 102 162.523438 105.875 165.375 C 107.125 166.273438 109.5 167.976562 111.175781 169.125 C 112.824219 170.277344 115.300781 172.027344 116.675781 173.003906 C 122.523438 177.207031 125.199219 179.054688 126.25 179.632812 C 126.851562 179.957031 127.5 180.40625 127.675781 180.632812 C 127.851562 180.859375 128.351562 181.183594 128.800781 181.382812 C 129.25 181.558594 129.851562 181.933594 130.125 182.183594 C 130.851562 182.859375 135.375 185.859375 135.675781 185.859375 C 135.824219 185.859375 136.074219 186.035156 136.25 186.234375 C 136.625 186.710938 142.574219 190.363281 142.949219 190.363281 C 143.101562 190.363281 143.25 190.464844 143.300781 190.589844 C 143.398438 190.863281 145.425781 192.113281 145.75 192.113281 C 145.898438 192.113281 146.226562 192.316406 146.5 192.566406 C 146.773438 192.816406 148.824219 193.941406 151.050781 195.089844 C 153.300781 196.242188 155.226562 197.292969 155.351562 197.390625 C 155.5 197.515625 155.074219 197.84375 154.375 198.144531 C 152.648438 198.917969 149.476562 198.71875 146.300781 197.644531 C 140.375 195.667969 128.800781 188.835938 117.625 180.734375 C 115.699219 179.332031 113.800781 177.980469 113.398438 177.730469 C 112.675781 177.253906 112.675781 177.253906 112.949219 177.753906 C 113.425781 178.632812 122.675781 187.160156 126.125 189.886719 C 135.824219 197.566406 143.898438 203.070312 148.699219 205.273438 C 156.351562 208.773438 160.351562 208.074219 162.898438 202.746094 C 163.375 201.796875 163.75 200.792969 163.75 200.542969 C 163.75 199.71875 164.226562 199.167969 165.101562 199.019531 C 166 198.84375 167.648438 197.292969 168.324219 195.964844 C 168.875 194.890625 169.476562 192.691406 169.75 190.789062 C 170.324219 186.8125 168.601562 178.582031 166.074219 173.101562 C 164.398438 169.527344 162.175781 165.222656 161.601562 164.421875 C 161.273438 163.996094 161 163.546875 161 163.449219 C 161 163.273438 157.851562 158.542969 155.851562 155.71875 C 154.425781 153.742188 152.273438 151.140625 150.351562 149.089844 C 149.375 148.0625 147.976562 146.585938 147.25 145.835938 C 145.523438 144.011719 145.898438 144.609375 148.523438 147.964844 C 151.449219 151.664062 156.824219 159.894531 157.800781 162.148438 C 157.976562 162.546875 158.199219 162.847656 158.300781 162.847656 C 158.398438 162.847656 158.5 163.046875 158.5 163.273438 C 158.5 163.523438 158.851562 164.347656 159.273438 165.097656 C 160.449219 167.199219 163 173.703125 163.699219 176.355469 C 164.523438 179.605469 164.75 184.257812 164.125 186.109375 C 163.898438 186.8125 163.648438 187.363281 163.601562 187.285156 C 163.550781 187.238281 163.273438 186.359375 163.023438 185.335938 C 162.398438 182.910156 160.550781 177.554688 159.375 174.730469 C 156.949219 169 152.125 160.371094 147.875 154.214844 C 145.699219 151.039062 140.273438 143.960938 138.601562 142.085938 C 137.851562 141.234375 137.074219 140.359375 136.925781 140.160156 C 136.75 139.957031 136.273438 139.382812 135.824219 138.882812 C 135.398438 138.382812 134.523438 137.332031 133.875 136.582031 C 133.226562 135.832031 132.574219 135.082031 132.398438 134.957031 C 132.25 134.804688 131.875 134.378906 131.574219 134.003906 L 131.023438 133.28125 L 132.898438 131.179688 C 133.925781 130.027344 134.898438 128.800781 135.050781 128.453125 C 135.199219 128.101562 135.398438 127.824219 135.5 127.824219 C 135.75 127.824219 139.300781 123.472656 140.726562 121.449219 C 145.273438 114.992188 147 111.464844 146.699219 109.316406 C 146.625 108.914062 146.675781 108.566406 146.75 108.566406 C 147 108.566406 148.875 110.640625 149.25 111.292969 C 149.699219 112.167969 149.648438 114.792969 149.125 116.445312 C 148.601562 118.09375 146.726562 121.371094 144.523438 124.449219 C 142.550781 127.226562 142.5 127.324219 143.75 126.324219 C 145.523438 124.925781 149.351562 121.046875 150.148438 119.847656 C 153 115.542969 153.351562 114.46875 152.5 112.667969 C 151.851562 111.367188 150.226562 109.914062 146.375 107.3125 C 144.925781 106.3125 143 104.835938 142.125 104.035156 C 140.648438 102.710938 140.375 102.5625 139.398438 102.5625 C 138.675781 102.5625 137.550781 102.234375 136.199219 101.660156 C 135.050781 101.183594 133.5 100.558594 132.75 100.285156 C 131.050781 99.683594 126.023438 99.210938 123.375 99.433594 C 121 99.609375 117.523438 100.058594 117 100.257812 C 116.800781 100.335938 116.449219 100.410156 116.25 100.460938 C 114.773438 100.734375 109.148438 102.785156 109.324219 102.960938 C 109.375 103.011719 109.925781 102.886719 110.523438 102.6875 C 114.023438 101.433594 118.648438 100.636719 123.625 100.433594 C 129.300781 100.183594 133.375 100.859375 137.300781 102.6875 C 138.851562 103.410156 138.550781 103.460938 136 102.886719 C 134.601562 102.585938 132.851562 102.460938 129.125 102.460938 C 122.425781 102.4375 119.625 102.910156 112 105.363281 C 108.050781 106.636719 103.550781 108.316406 101.351562 109.316406 C 99.398438 110.191406 99.875 110.289062 94.5 108.0625 C 92.773438 107.363281 90.875 106.613281 90.25 106.414062 C 89.625 106.214844 88.898438 105.914062 88.648438 105.761719 C 87.226562 104.960938 79.5 102.8125 75.375 102.0625 C 70.023438 101.109375 62.976562 100.984375 59.449219 101.8125 C 56.226562 102.535156 57.773438 101.511719 61.5 100.433594 C 63.726562 99.785156 64.273438 99.734375 69.675781 99.632812 C 74.824219 99.535156 75.824219 99.585938 78.550781 100.058594 C 82 100.660156 84.976562 101.359375 86.976562 102.085938 C 89.226562 102.859375 88.675781 102.460938 86.199219 101.484375 C 82.074219 99.859375 78.125 98.957031 73.125 98.558594 C 69.25 98.234375 67.824219 98.285156 65.375 98.707031 Z M 68.125 102.960938 C 72.476562 103.1875 72.601562 103.210938 77.125 104.160156 C 82.175781 105.238281 88.625 107.140625 92.125 108.589844 C 92.398438 108.714844 93.226562 109.039062 93.949219 109.316406 C 96 110.089844 97.324219 110.839844 97.101562 111.066406 C 96.976562 111.167969 95.875 111.792969 94.675781 112.417969 C 93.476562 113.042969 91.75 114.042969 90.875 114.644531 C 90 115.21875 88.324219 116.292969 87.125 117.042969 C 84.726562 118.519531 84.398438 119.070312 86.675781 117.820312 C 89.625 116.167969 96.5 112.816406 96.898438 112.816406 C 97 112.816406 97.300781 112.640625 97.550781 112.390625 C 98.273438 111.742188 99.898438 111.867188 101.75 112.691406 C 103.273438 113.390625 106.476562 115.042969 111.699219 117.871094 C 112.949219 118.546875 114 119.046875 114 118.972656 C 114 118.894531 112.851562 118.070312 111.449219 117.167969 C 110.023438 116.246094 107.976562 114.894531 106.875 114.191406 C 105.773438 113.46875 104.574219 112.71875 104.226562 112.542969 C 102.25 111.515625 101.5 111.042969 101.5 110.816406 C 101.5 110.664062 101.625 110.566406 101.800781 110.566406 C 101.949219 110.566406 102.550781 110.339844 103.101562 110.089844 C 104.824219 109.289062 114.773438 106.0625 115.574219 106.0625 C 115.773438 106.0625 116.023438 105.964844 116.125 105.839844 C 116.199219 105.6875 116.449219 105.613281 116.699219 105.613281 C 117.148438 105.664062 119.726562 105.085938 120.101562 104.863281 C 120.226562 104.789062 120.625 104.6875 120.976562 104.664062 C 121.324219 104.613281 122.574219 104.4375 123.75 104.285156 C 127.148438 103.8125 133.675781 103.863281 136.75 104.414062 C 141.949219 105.3125 142.851562 106.011719 142.800781 108.964844 C 142.75 111.816406 140.800781 115.945312 136.601562 122.097656 C 134.273438 125.5 130.476562 130.578125 129.800781 131.152344 C 129.324219 131.601562 129.25 131.601562 128.699219 131.226562 C 128.398438 131.003906 128.226562 130.828125 128.300781 130.828125 C 128.398438 130.828125 127.550781 129.953125 126.425781 128.875 C 123.925781 126.523438 116.925781 120.820312 116.75 120.996094 C 116.675781 121.046875 117.023438 121.449219 117.5 121.871094 C 120.523438 124.472656 128.25 132.628906 128.25 133.203125 C 128.25 133.355469 126.375 135.804688 124.050781 138.683594 C 121.75 141.535156 119.476562 144.410156 119 145.035156 L 118.125 146.210938 L 118.875 145.660156 C 119.300781 145.363281 121.925781 142.859375 124.726562 140.109375 C 127.550781 137.332031 129.898438 135.082031 130 135.082031 C 130.074219 135.082031 131.5 136.730469 133.148438 138.734375 C 134.773438 140.734375 136.25 142.511719 136.375 142.683594 C 136.523438 142.835938 137.023438 143.511719 137.5 144.160156 C 137.976562 144.835938 138.675781 145.785156 139.074219 146.285156 C 139.449219 146.789062 140.148438 147.761719 140.601562 148.464844 C 141.074219 149.140625 141.625 149.9375 141.851562 150.214844 C 142.074219 150.488281 142.625 151.289062 143.074219 152.015625 C 143.523438 152.714844 144.699219 154.617188 145.699219 156.191406 C 147.351562 158.871094 151.5 166.023438 151.5 166.25 C 151.5 166.300781 151.824219 167.050781 152.226562 167.898438 C 155.800781 175.605469 157.800781 182.308594 158.175781 187.761719 L 158.324219 190.113281 L 157.351562 190.113281 C 153.675781 190.089844 145.550781 186.535156 134.75 180.183594 C 129.273438 176.980469 119.875 171.175781 115.375 168.226562 C 112 166.023438 104.300781 161.144531 103.125 160.46875 C 102.648438 160.195312 102.25 159.84375 102.25 159.695312 C 102.25 159.546875 103.523438 158.46875 105.050781 157.320312 C 106.601562 156.167969 108.050781 155.042969 108.25 154.84375 C 108.449219 154.640625 108.925781 154.292969 109.25 154.042969 C 109.875 153.640625 113.375 150.664062 115.625 148.636719 C 116.324219 148.011719 116.675781 147.585938 116.398438 147.664062 C 116.148438 147.761719 112.601562 150.039062 108.523438 152.691406 C 104.449219 155.367188 100.824219 157.695312 100.449219 157.84375 C 99.824219 158.144531 99.550781 158.019531 96.199219 155.84375 C 94.226562 154.59375 90.949219 152.441406 88.875 151.066406 C 84.351562 148.0625 83 147.238281 82.875 147.363281 C 82.726562 147.539062 90.875 154.34375 94.324219 156.945312 C 96.148438 158.292969 97.648438 159.496094 97.675781 159.570312 C 97.75 159.769531 85.25 167.851562 78.125 172.175781 C 77.449219 172.601562 75.925781 173.527344 74.75 174.230469 C 73.574219 174.953125 71.226562 176.355469 69.5 177.355469 C 67.773438 178.355469 65.875 179.480469 65.25 179.855469 C 62.449219 181.53125 54.324219 185.710938 51.25 187.0625 C 46.726562 189.0625 42.25 190.539062 40.175781 190.761719 L 38.449219 190.9375 L 38.625 188.960938 C 39 184.558594 39.824219 181.382812 42.125 175.480469 C 43.050781 173.101562 47.101562 164.421875 47.773438 163.347656 C 47.898438 163.148438 48.324219 162.472656 48.699219 161.871094 C 52.925781 155.09375 57.300781 148.589844 59.625 145.6875 C 59.976562 145.238281 60.25 144.761719 60.25 144.609375 C 60.25 144.460938 60.351562 144.335938 60.476562 144.335938 C 60.601562 144.335938 61.273438 143.585938 61.976562 142.636719 C 62.675781 141.710938 63.398438 140.785156 63.574219 140.582031 C 63.773438 140.382812 64.425781 139.582031 65.023438 138.832031 C 65.648438 138.082031 66.550781 137.007812 67.050781 136.457031 C 67.550781 135.90625 68.175781 135.207031 68.425781 134.90625 L 68.875 134.328125 L 73.375 138.734375 C 78.375 143.636719 80.949219 145.960938 81.125 145.785156 C 81.199219 145.710938 79.199219 143.210938 76.699219 140.234375 C 74.175781 137.230469 71.800781 134.328125 71.398438 133.804688 L 70.648438 132.804688 L 71.125 132.003906 C 71.375 131.554688 72.074219 130.753906 72.675781 130.175781 C 73.273438 129.601562 73.75 129.101562 73.75 129.027344 C 73.75 128.976562 75.574219 127.074219 77.824219 124.824219 C 80.050781 122.574219 81.425781 121.070312 80.875 121.472656 C 78.226562 123.375 73.875 126.875 71.648438 128.902344 C 69.226562 131.128906 69.199219 131.152344 68.773438 130.652344 C 58.523438 117.621094 55.300781 112.96875 54.101562 109.390625 C 53.601562 107.890625 53.476562 107.164062 53.601562 106.1875 C 53.773438 104.710938 54.226562 104.285156 56.101562 103.8125 C 57.851562 103.363281 63.449219 102.636719 64.375 102.710938 C 64.800781 102.761719 66.476562 102.859375 68.125 102.960938 Z M 68.125 102.960938 "/>
<path style=" stroke:none;fill-rule:nonzero;fill:rgb(0%,0%,0%);fill-opacity:1;" d="M 175.050781 156.144531 L 175.125 208.5 L 207.875 208.5 C 241.851562 208.5 242.824219 208.472656 247.25 207.449219 C 251.375 206.496094 256.851562 204.347656 258.425781 203.019531 C 258.800781 202.695312 259.351562 202.371094 259.625 202.269531 C 260.523438 201.996094 264.601562 198.492188 265.925781 196.84375 C 267.300781 195.191406 268.875 192.1875 269.601562 189.964844 C 270 188.761719 270.023438 185.9375 269.949219 155.941406 C 269.875 124.972656 269.824219 123.125 269.398438 121.824219 C 267.398438 115.820312 262.648438 110.964844 255.375 107.539062 C 252.75 106.3125 250.074219 105.414062 246.523438 104.613281 L 243.625 103.960938 L 209.300781 103.886719 L 175 103.785156 Z M 235 118.070312 C 240.898438 118.246094 242.074219 118.34375 243.375 118.769531 C 246.199219 119.722656 247.800781 120.597656 249.175781 121.898438 C 251.601562 124.199219 251.375 120.570312 251.449219 156.019531 L 251.5 187.363281 L 250.898438 188.285156 C 248.925781 191.390625 245.125 193.390625 239.925781 194.089844 C 238.675781 194.265625 230 194.367188 215.726562 194.367188 L 193.5 194.367188 L 193.5 118.09375 L 194.074219 117.996094 C 195.050781 117.796875 227.875 117.871094 235 118.070312 Z M 235 118.070312 "/>
<path style=" stroke:none;fill-rule:nonzero;fill:rgb(0%,0%,0%);fill-opacity:1;" d="M 409 103.988281 C 405.226562 104.335938 400.601562 105.539062 396.550781 107.214844 C 394.550781 108.039062 390.726562 110.265625 389.351562 111.390625 C 386.273438 113.894531 383.5 117.195312 382.75 119.222656 C 382.601562 119.621094 382.226562 120.445312 381.925781 121.070312 C 381.398438 122.148438 381.375 122.648438 381.199219 132.328125 C 381.074219 137.90625 381.023438 157.320312 381.050781 175.480469 L 381.125 208.5 L 390.324219 208.574219 L 399.5 208.625 L 399.5 155.84375 L 452.75 155.84375 L 452.75 141.585938 L 399.476562 141.585938 L 399.550781 133.253906 C 399.601562 127.726562 399.75 124.722656 399.925781 124.300781 C 400.800781 122.273438 404.148438 119.847656 407.449219 118.871094 L 409.625 118.21875 L 431.199219 118.121094 L 452.75 118.046875 L 452.75 103.8125 L 431.324219 103.863281 C 419.523438 103.863281 409.476562 103.9375 409 103.988281 Z M 409 103.988281 "/>
<path style=" stroke:none;fill-rule:nonzero;fill:rgb(0%,0%,0%);fill-opacity:1;" d="M 279 154.765625 C 279.023438 170.425781 279.125 184.984375 279.226562 187.113281 C 279.425781 190.6875 279.5 191.113281 280.226562 192.714844 C 283.050781 198.917969 289.574219 203.871094 298.5 206.621094 C 300.726562 207.296875 301.800781 207.523438 305.625 208.125 C 306.449219 208.25 316 208.375 327 208.375 C 337.925781 208.375 348.824219 208.449219 351.199219 208.550781 L 355.550781 208.699219 L 355.449219 212.351562 C 355.375 215.527344 355.300781 216.128906 354.824219 217.027344 C 353.773438 219.03125 350.949219 220.980469 347.375 222.230469 C 345.925781 222.734375 345.324219 222.757812 324.125 222.882812 L 302.375 223.007812 L 302.300781 230.0625 L 302.25 237.140625 L 323.550781 237.140625 C 346.824219 237.140625 347.351562 237.117188 352.851562 235.664062 C 359.425781 233.9375 365.101562 230.710938 369 226.433594 C 370.550781 224.757812 372.726562 221.355469 372.75 220.605469 C 372.75 220.40625 372.851562 220.132812 372.976562 219.980469 C 373.101562 219.855469 373.375 218.90625 373.601562 217.878906 C 373.949219 216.230469 374 210.699219 374 171.152344 L 374 126.324219 L 355.5 126.324219 L 355.5 194.039062 L 334.824219 194.164062 C 312.175781 194.289062 307.425781 194.191406 305.25 193.414062 C 301.773438 192.1875 299.074219 190.363281 298.199219 188.613281 L 297.625 187.488281 L 297.550781 156.894531 L 297.5 126.324219 L 279 126.324219 Z M 279 154.765625 "/>
<path style=" stroke:none;fill-rule:nonzero;fill:rgb(0%,0%,0%);fill-opacity:1;" d="M 34.125 223.859375 C 33.175781 224.007812 33.125 224.058594 32.976562 225.109375 L 32.824219 226.183594 L 34.175781 226.058594 L 35.550781 225.910156 L 35.449219 231.789062 L 35.375 237.667969 L 36.875 237.589844 L 38.375 237.515625 L 38.273438 231.8125 L 38.199219 226.132812 L 40.773438 226.132812 L 40.699219 224.933594 L 40.625 223.757812 L 37.875 223.734375 C 36.375 223.707031 34.675781 223.757812 34.125 223.859375 Z M 34.125 223.859375 "/>
<path style=" stroke:none;fill-rule:nonzero;fill:rgb(0%,0%,0%);fill-opacity:1;" d="M 42.375 230.664062 L 42.375 237.714844 L 44.976562 237.542969 C 46.398438 237.464844 47.949219 237.390625 48.398438 237.390625 C 49.148438 237.390625 49.199219 237.339844 49.300781 236.390625 L 49.398438 235.390625 L 45.25 235.390625 L 45.25 231.363281 L 47.074219 231.4375 L 48.875 231.511719 L 48.949219 230.363281 L 49.023438 229.238281 L 47.199219 229.238281 L 45.375 229.261719 L 45.375 226.007812 L 49.300781 226.007812 L 49.148438 225.132812 C 49.074219 224.660156 49 224.109375 49 223.933594 C 49 223.707031 48.175781 223.632812 45.699219 223.632812 L 42.375 223.632812 Z M 42.375 230.664062 "/>
<path style=" stroke:none;fill-rule:nonzero;fill:rgb(0%,0%,0%);fill-opacity:1;" d="M 51.625 223.808594 C 51.148438 223.910156 51.125 224.132812 51.050781 230.5625 C 50.976562 235.867188 51.023438 237.265625 51.300781 237.417969 C 51.699219 237.691406 57.425781 237.714844 57.601562 237.441406 C 57.648438 237.339844 57.773438 236.839844 57.875 236.316406 L 58.050781 235.390625 L 56.175781 235.390625 C 54.476562 235.390625 54.273438 235.339844 54.125 234.863281 C 54.023438 234.566406 54.023438 232.011719 54.125 229.136719 L 54.300781 223.957031 L 53.726562 223.808594 C 53.101562 223.632812 52.449219 223.632812 51.625 223.808594 Z M 51.625 223.808594 "/>
<path style=" stroke:none;fill-rule:nonzero;fill:rgb(0%,0%,0%);fill-opacity:1;" d="M 59.375 230.664062 L 59.375 237.691406 L 62.75 237.515625 C 64.601562 237.417969 66.125 237.316406 66.148438 237.292969 C 66.175781 237.292969 66.25 236.839844 66.324219 236.316406 L 66.476562 235.390625 L 62.226562 235.390625 L 62.300781 233.4375 L 62.375 231.511719 L 64.125 231.511719 L 65.875 231.488281 L 65.949219 230.386719 L 66.023438 229.261719 L 62.375 229.261719 L 62.300781 227.683594 L 62.226562 226.132812 L 66.273438 226.132812 L 66.199219 224.933594 L 66.125 223.757812 L 59.375 223.609375 Z M 59.375 230.664062 "/>
<path style=" stroke:none;fill-rule:nonzero;fill:rgb(0%,0%,0%);fill-opacity:1;" d="M 69.574219 223.808594 C 68.398438 224.035156 68.125 224.933594 68.050781 229.261719 C 67.949219 233.988281 68.125 236.191406 68.726562 236.917969 C 69.101562 237.367188 69.5 237.464844 71.851562 237.566406 C 74.824219 237.742188 75 237.667969 75 236.214844 C 75 235.265625 74.800781 235.164062 72.898438 235.339844 C 70.800781 235.515625 70.75 235.390625 70.75 230.914062 C 70.75 225.910156 70.648438 226.132812 72.898438 226.132812 L 74.75 226.132812 L 74.75 223.632812 L 72.449219 223.65625 C 71.175781 223.683594 69.875 223.757812 69.574219 223.808594 Z M 69.574219 223.808594 "/>
<path style=" stroke:none;fill-rule:nonzero;fill:rgb(0%,0%,0%);fill-opacity:1;" d="M 79.125 223.78125 C 78.851562 223.859375 78.375 223.957031 78.050781 224.035156 C 76.976562 224.257812 76.75 225.382812 76.75 230.738281 C 76.75 233.414062 76.851562 235.890625 77 236.265625 C 77.398438 237.339844 78.726562 237.714844 81.574219 237.589844 C 83.398438 237.492188 84.148438 237.367188 84.449219 237.066406 C 85 236.492188 85.375 230.414062 85.050781 227.183594 C 84.726562 224.082031 84.550781 223.910156 81.726562 223.757812 C 80.574219 223.707031 79.398438 223.707031 79.125 223.78125 Z M 82.199219 230.6875 L 82.125 235.265625 L 81.023438 235.339844 C 80.324219 235.390625 79.851562 235.316406 79.726562 235.089844 C 79.476562 234.714844 79.425781 226.535156 79.675781 226.308594 C 79.75 226.210938 80.375 226.132812 81.050781 226.132812 L 82.25 226.132812 Z M 82.199219 230.6875 "/>
<path style=" stroke:none;fill-rule:nonzero;fill:rgb(0%,0%,0%);fill-opacity:1;" d="M 87.25 230.664062 C 87.25 236.964844 87.300781 237.691406 87.648438 237.542969 C 87.875 237.464844 88.148438 237.390625 88.273438 237.390625 C 88.398438 237.390625 88.5 235.113281 88.523438 232.0625 C 88.550781 225.960938 88.574219 225.984375 90.023438 233.289062 C 90.875 237.667969 91 237.917969 92.199219 237.492188 C 92.773438 237.292969 92.898438 236.964844 93.523438 234.140625 C 93.898438 232.414062 94.351562 230.210938 94.523438 229.261719 C 95.050781 225.984375 95.226562 226.683594 95.25 232.1875 L 95.25 237.640625 L 98.375 237.640625 L 98.324219 230.710938 L 98.25 223.757812 L 96.5 223.683594 C 94.5 223.609375 94.476562 223.609375 94 226.132812 C 93.875 226.886719 93.550781 228.460938 93.300781 229.636719 L 92.824219 231.761719 L 92.550781 230.761719 C 92.398438 230.210938 92.023438 228.636719 91.75 227.261719 C 91.476562 225.882812 91.199219 224.507812 91.125 224.183594 C 91 223.683594 90.851562 223.632812 89.125 223.632812 L 87.25 223.632812 Z M 87.25 230.664062 "/>
<path style=" stroke:none;fill-rule:nonzero;fill:rgb(0%,0%,0%);fill-opacity:1;" d="M 100.300781 229.5625 C 100.425781 236.390625 100.550781 236.917969 102.199219 237.367188 C 103.523438 237.742188 106.375 237.691406 107.351562 237.292969 C 108.074219 236.992188 108.226562 236.765625 108.476562 235.640625 C 108.625 234.941406 108.75 231.964844 108.75 229.011719 C 108.75 223.808594 108.726562 223.632812 108.25 223.632812 C 107.773438 223.632812 107.75 223.808594 107.75 228.9375 C 107.75 231.863281 107.675781 234.515625 107.601562 234.816406 C 107.449219 235.339844 107.300781 235.390625 105.625 235.390625 C 104.375 235.390625 103.726562 235.289062 103.523438 235.039062 C 103.324219 234.789062 103.25 233.113281 103.300781 229.285156 C 103.351562 224.957031 103.300781 223.859375 103.050781 223.757812 C 102.851562 223.683594 102.148438 223.632812 101.449219 223.632812 L 100.199219 223.632812 Z M 100.300781 229.5625 "/>
<path style=" stroke:none;fill-rule:nonzero;fill:rgb(0%,0%,0%);fill-opacity:1;" d="M 111 230.636719 L 111 237.640625 L 112.125 237.640625 L 112.050781 231.839844 C 112 227.460938 112.050781 226.132812 112.273438 226.460938 C 112.5 226.859375 113.699219 230.6875 115.175781 235.890625 L 115.648438 237.515625 L 117.574219 237.589844 L 119.476562 237.667969 L 119.550781 230.835938 C 119.601562 226.484375 119.523438 223.933594 119.375 223.832031 C 119.25 223.707031 118.949219 223.65625 118.75 223.707031 C 118.425781 223.757812 118.351562 224.660156 118.25 229.386719 C 118.175781 232.488281 118.074219 234.941406 118.050781 234.839844 C 118.023438 234.738281 117.324219 232.3125 116.476562 229.460938 C 115.625 226.511719 114.773438 224.132812 114.550781 223.933594 C 114.324219 223.78125 113.449219 223.632812 112.574219 223.632812 L 111 223.632812 Z M 111 230.636719 "/>
<path style=" stroke:none;fill-rule:nonzero;fill:rgb(0%,0%,0%);fill-opacity:1;" d="M 121.875 230.636719 L 121.875 237.667969 L 123.375 237.589844 L 124.875 237.515625 L 124.875 223.757812 L 121.875 223.609375 Z M 121.875 230.636719 "/>
<path style=" stroke:none;fill-rule:nonzero;fill:rgb(0%,0%,0%);fill-opacity:1;" d="M 129.148438 223.882812 C 127.324219 224.234375 127.175781 224.808594 127.300781 231.4375 C 127.375 236.242188 127.398438 236.367188 127.976562 236.992188 C 128.550781 237.617188 128.699219 237.640625 131.25 237.640625 L 133.925781 237.640625 L 134.101562 236.589844 C 134.324219 235.289062 134.101562 235.140625 131.949219 235.140625 L 130.25 235.140625 L 130.25 226.160156 L 132.074219 226.085938 L 133.875 226.007812 L 133.875 223.757812 L 132 223.707031 C 130.976562 223.707031 129.675781 223.757812 129.148438 223.882812 Z M 129.148438 223.882812 "/>
<path style=" stroke:none;fill-rule:nonzero;fill:rgb(0%,0%,0%);fill-opacity:1;" d="M 138.875 223.933594 C 138.824219 224.109375 138.5 225.433594 138.175781 226.886719 C 137.824219 228.335938 137.023438 231.210938 136.398438 233.3125 C 135.773438 235.414062 135.25 237.242188 135.25 237.390625 C 135.25 237.515625 135.648438 237.640625 136.125 237.640625 C 136.976562 237.640625 137 237.617188 137 236.742188 C 137 235.191406 137.5 233.890625 138.175781 233.738281 C 138.800781 233.5625 141.175781 233.714844 141.375 233.9375 C 141.449219 233.988281 141.550781 234.613281 141.648438 235.289062 C 141.925781 237.742188 141.851562 237.640625 143.351562 237.640625 C 144.824219 237.640625 145.574219 237.464844 145.375 237.140625 C 145.175781 236.816406 142.25 225.007812 142.25 224.535156 C 142.25 224.332031 142.023438 224.035156 141.773438 223.882812 C 141.074219 223.53125 139 223.558594 138.875 223.933594 Z M 140.273438 229.1875 C 140.925781 231.714844 140.949219 231.636719 139.5 231.636719 C 138.824219 231.636719 138.25 231.5625 138.25 231.4375 C 138.25 231.136719 139.25 227.558594 139.425781 227.335938 C 139.625 226.960938 139.773438 227.234375 140.273438 229.1875 Z M 140.273438 229.1875 "/>
<path style=" stroke:none;fill-rule:nonzero;fill:rgb(0%,0%,0%);fill-opacity:1;" d="M 155.75 230.636719 L 155.75 237.640625 L 158.625 237.640625 L 158.625 223.632812 L 155.75 223.632812 Z M 155.75 230.636719 "/>
<path style=" stroke:none;fill-rule:nonzero;fill:rgb(0%,0%,0%);fill-opacity:1;" d="M 178.976562 223.734375 C 178.925781 223.808594 178.949219 224.734375 179.023438 225.808594 C 179.273438 228.335938 179.273438 232.988281 179.050781 234.265625 C 178.875 235.191406 178.773438 234.941406 177.425781 230.261719 C 176.625 227.511719 175.875 224.984375 175.773438 224.632812 C 175.601562 224.035156 175.476562 224.007812 173.601562 223.933594 L 171.625 223.859375 L 171.726562 237.515625 L 172.351562 237.589844 L 172.949219 237.667969 L 172.824219 231.839844 C 172.726562 228.035156 172.773438 226.085938 172.925781 226.257812 C 173.074219 226.382812 173.800781 228.710938 174.574219 231.414062 C 176.550781 238.316406 176.148438 237.640625 178.226562 237.640625 C 179.175781 237.640625 180.023438 237.542969 180.101562 237.417969 C 180.175781 237.316406 180.25 234.1875 180.25 230.488281 L 180.273438 223.757812 L 179.699219 223.683594 C 179.375 223.632812 179.050781 223.65625 178.976562 223.734375 Z M 178.976562 223.734375 "/>
<path style=" stroke:none;fill-rule:nonzero;fill:rgb(0%,0%,0%);fill-opacity:1;" d="M 182.351562 230.636719 L 182.351562 237.640625 L 185.148438 237.640625 C 188.699219 237.640625 189.25 237.464844 189.25 236.265625 L 189.25 235.390625 L 185.25 235.390625 L 185.25 231.335938 L 189 231.6875 L 189 229.210938 L 185.25 229.460938 L 185.25 226.132812 L 187.101562 226.132812 C 188.125 226.132812 189.023438 226.035156 189.101562 225.933594 C 189.148438 225.835938 189.148438 225.257812 189.074219 224.683594 L 188.925781 223.632812 L 182.375 223.632812 Z M 182.351562 230.636719 "/>
<path style=" stroke:none;fill-rule:nonzero;fill:rgb(0%,0%,0%);fill-opacity:1;" d="M 192.976562 223.808594 C 191.351562 223.984375 191.125 224.484375 191.050781 228.1875 C 190.925781 232.863281 191.050781 233.0625 194.125 233.1875 L 195.625 233.265625 L 195.625 235.265625 L 191 235.265625 L 191 236.066406 C 191 237.640625 191.023438 237.640625 194.226562 237.640625 C 197.050781 237.640625 197.175781 237.617188 197.773438 236.992188 C 198.351562 236.390625 198.375 236.140625 198.449219 232.914062 C 198.523438 229.886719 198.476562 229.410156 198.074219 228.9375 C 197.601562 228.3125 196.199219 227.910156 194.699219 227.886719 C 193.773438 227.886719 193.75 227.859375 193.75 227.011719 L 193.75 226.132812 L 195.851562 226.132812 C 198.273438 226.132812 198.648438 225.910156 198.300781 224.582031 L 198.101562 223.757812 L 195.976562 223.734375 C 194.824219 223.707031 193.476562 223.757812 192.976562 223.808594 Z M 192.976562 223.808594 "/>
<path style=" stroke:none;fill-rule:nonzero;fill:rgb(0%,0%,0%);fill-opacity:1;" d="M 205.5 223.882812 C 205.5 224.035156 205.800781 224.832031 206.148438 225.710938 C 208.074219 230.386719 208.351562 231.414062 208.5 234.515625 L 208.625 237.515625 L 210.074219 237.589844 L 211.5 237.667969 L 211.5 234.988281 C 211.5 232.488281 211.574219 232.164062 212.523438 229.535156 C 213.074219 228.011719 213.824219 226.109375 214.148438 225.335938 C 214.875 223.582031 214.875 223.632812 214.148438 223.632812 C 213.175781 223.632812 212.75 223.910156 212.75 224.484375 C 212.75 225.160156 211.601562 228.636719 211.25 228.984375 C 210.949219 229.285156 210.101562 227.433594 209.5 225.257812 L 209.074219 223.757812 L 207.300781 223.683594 C 206.148438 223.632812 205.5 223.707031 205.5 223.882812 Z M 205.5 223.882812 "/>
<path style=" stroke:none;fill-rule:nonzero;fill:rgb(0%,0%,0%);fill-opacity:1;" d="M 223.726562 223.808594 C 222.226562 223.984375 221.898438 224.558594 221.800781 227.410156 C 221.726562 228.761719 221.773438 230.488281 221.875 231.238281 C 222.050781 232.8125 222.175781 232.886719 224.75 233.113281 L 226.375 233.265625 L 226.449219 234.316406 L 226.523438 235.390625 L 221.675781 235.390625 L 221.824219 236.289062 C 221.898438 236.789062 222.050781 237.265625 222.125 237.339844 C 222.398438 237.640625 226.648438 237.691406 227.675781 237.417969 C 228.601562 237.167969 228.773438 236.992188 229.023438 236.164062 C 229.199219 235.589844 229.273438 234.015625 229.226562 232.214844 C 229.101562 228.4375 228.976562 228.261719 226.476562 228.085938 C 225.5 228.011719 224.625 227.859375 224.5 227.734375 C 224.375 227.609375 224.351562 227.210938 224.425781 226.808594 L 224.550781 226.132812 L 226.773438 226.132812 C 227.976562 226.132812 229.023438 226.058594 229.074219 225.933594 C 229.125 225.835938 229.125 225.285156 229.050781 224.683594 L 228.949219 223.632812 L 226.773438 223.683594 C 225.601562 223.707031 224.226562 223.757812 223.726562 223.808594 Z M 223.726562 223.808594 "/>
<path style=" stroke:none;fill-rule:nonzero;fill:rgb(0%,0%,0%);fill-opacity:1;" d="M 231.949219 223.808594 L 231.25 223.910156 L 231.25 237.542969 L 234.75 237.617188 L 238.25 237.667969 L 238.25 235.390625 L 234.226562 235.390625 L 234.300781 233.4375 L 234.375 231.511719 L 236.199219 231.585938 L 238 231.6875 L 238 229.210938 L 234.25 229.460938 L 234.25 226.132812 L 238.324219 226.132812 L 238.148438 225.082031 C 238.050781 224.535156 237.925781 223.957031 237.851562 223.832031 C 237.726562 223.632812 233.273438 223.609375 231.949219 223.808594 Z M 231.949219 223.808594 "/>
<path style=" stroke:none;fill-rule:nonzero;fill:rgb(0%,0%,0%);fill-opacity:1;" d="M 240 223.734375 C 240 223.808594 240 226.960938 239.976562 230.6875 L 239.976562 237.515625 L 241.5 237.589844 L 243.023438 237.667969 L 242.851562 234.640625 L 242.675781 231.636719 L 243.425781 231.636719 C 244.148438 231.636719 244.175781 231.664062 244.75 234.1875 C 245.523438 237.640625 245.550781 237.640625 246.875 237.640625 C 248.773438 237.640625 248.75 237.691406 247.925781 234.664062 L 247.175781 231.964844 L 247.726562 231.210938 C 248.25 230.511719 248.300781 230.238281 248.199219 227.683594 C 248.101562 223.832031 248.148438 223.882812 243.523438 223.707031 C 241.601562 223.632812 240 223.632812 240 223.734375 Z M 245.5 227.335938 C 245.5 228.960938 245.125 229.4375 243.875 229.335938 L 242.875 229.261719 L 242.800781 227.683594 L 242.726562 226.132812 L 245.5 226.132812 Z M 245.5 227.335938 "/>
<path style=" stroke:none;fill-rule:nonzero;fill:rgb(0%,0%,0%);fill-opacity:1;" d="M 250.101562 223.984375 C 250.023438 224.160156 250.300781 225.835938 250.726562 227.660156 C 251.125 229.511719 251.773438 232.4375 252.148438 234.1875 L 252.851562 237.367188 L 253.875 237.542969 C 256.125 237.867188 256 237.992188 257.074219 233.390625 C 257.925781 229.6875 259 225.132812 259.273438 224.132812 C 259.351562 223.859375 259.148438 223.734375 258.574219 223.683594 C 258.125 223.632812 257.75 223.683594 257.75 223.808594 C 257.726562 224.382812 257.226562 227.636719 257 228.511719 C 256.875 229.0625 256.523438 230.511719 256.226562 231.761719 C 255.523438 234.789062 255.375 234.941406 255.050781 233.339844 C 253.949219 228.160156 253.25 224.683594 253.25 224.183594 C 253.25 223.683594 253.148438 223.632812 251.75 223.632812 C 250.699219 223.632812 250.199219 223.734375 250.101562 223.984375 Z M 250.101562 223.984375 "/>
<path style=" stroke:none;fill-rule:nonzero;fill:rgb(0%,0%,0%);fill-opacity:1;" d="M 261.175781 223.808594 C 261.074219 223.882812 261 227.035156 261 230.8125 L 261 237.640625 L 264.125 237.640625 L 264.050781 230.960938 C 264.023438 227.261719 263.949219 224.109375 263.875 223.933594 C 263.75 223.609375 261.476562 223.484375 261.175781 223.808594 Z M 261.175781 223.808594 "/>
<path style=" stroke:none;fill-rule:nonzero;fill:rgb(0%,0%,0%);fill-opacity:1;" d="M 275.25 230.636719 L 275.25 237.640625 L 278.25 237.640625 L 278.25 223.632812 L 275.25 223.632812 Z M 275.25 230.636719 "/>
<path style=" stroke:none;fill-rule:nonzero;fill:rgb(0%,0%,0%);fill-opacity:1;" d="M 292.550781 223.808594 C 291.476562 224.007812 291.125 224.984375 291.050781 228.011719 C 290.949219 231.261719 291.273438 232.636719 292.25 232.914062 C 292.601562 233.015625 293.523438 233.089844 294.324219 233.113281 L 295.75 233.140625 L 295.75 234.113281 C 295.75 235.289062 295.550781 235.390625 293.101562 235.390625 L 291.25 235.390625 L 291.25 236.390625 C 291.25 237.640625 291.625 237.765625 295.074219 237.566406 C 298.523438 237.390625 298.5 237.441406 298.5 232.789062 C 298.5 230.285156 298.398438 229.113281 298.175781 228.785156 C 297.949219 228.484375 297.25 228.261719 295.925781 228.085938 L 294 227.8125 L 294 226.132812 L 298.523438 226.132812 L 298.449219 224.933594 L 298.375 223.757812 L 295.75 223.734375 C 294.300781 223.707031 292.875 223.734375 292.550781 223.808594 Z M 292.550781 223.808594 "/>
<path style=" stroke:none;fill-rule:nonzero;fill:rgb(0%,0%,0%);fill-opacity:1;" d="M 147.648438 224.359375 C 146.925781 225.160156 146.75 226.382812 146.75 230.511719 C 146.773438 234.964844 146.949219 236.164062 147.773438 237.042969 C 148.300781 237.589844 148.5 237.640625 151.050781 237.640625 L 153.75 237.640625 L 153.75 236.539062 C 153.75 235.265625 153.523438 235.140625 151.175781 235.140625 L 149.75 235.140625 L 149.800781 230.6875 L 149.875 226.257812 L 151.75 226.035156 C 152.773438 225.933594 153.648438 225.808594 153.699219 225.757812 C 153.75 225.710938 153.699219 225.285156 153.625 224.785156 L 153.449219 223.882812 L 150.75 223.882812 C 148.449219 223.882812 148.023438 223.957031 147.648438 224.359375 Z M 147.648438 224.359375 "/>
<path style=" stroke:none;fill-rule:nonzero;fill:rgb(0%,0%,0%);fill-opacity:1;" d="M 161.773438 224.535156 C 161.023438 225.484375 160.949219 226.335938 161.050781 231.511719 L 161.125 236.191406 L 161.976562 236.941406 L 162.824219 237.714844 L 165.550781 237.566406 C 167.050781 237.492188 168.449219 237.292969 168.648438 237.140625 C 169.300781 236.589844 169.5 235.039062 169.5 230.636719 C 169.5 226.007812 169.273438 224.558594 168.5 224.132812 C 168.25 224.007812 166.75 223.882812 165.148438 223.882812 C 162.375 223.882812 162.273438 223.910156 161.773438 224.535156 Z M 166.5 230.761719 L 166.5 235.390625 L 165.648438 235.390625 C 163.949219 235.390625 164 235.539062 164 230.613281 L 164 226.132812 L 166.5 226.132812 Z M 166.5 230.761719 "/>
<path style=" stroke:none;fill-rule:nonzero;fill:rgb(0%,0%,0%);fill-opacity:1;" d="M 267.199219 224.308594 C 266.5 225.109375 266.25 226.683594 266.25 230.511719 C 266.273438 237.191406 266.449219 237.464844 270.5 237.589844 L 273.25 237.691406 L 273.25 235.214844 L 271.324219 235.238281 L 269.375 235.265625 L 269.300781 230.6875 L 269.25 226.132812 L 271.25 226.132812 C 273.398438 226.132812 273.398438 226.160156 273.101562 224.660156 L 272.949219 223.882812 L 270.25 223.882812 C 268.023438 223.882812 267.523438 223.957031 267.199219 224.308594 Z M 267.199219 224.308594 "/>
<path style=" stroke:none;fill-rule:nonzero;fill:rgb(0%,0%,0%);fill-opacity:1;" d="M 281.449219 224.132812 C 280.699219 224.582031 280.449219 226.734375 280.550781 231.511719 C 280.601562 234.488281 280.75 236.214844 280.949219 236.566406 C 281.125 236.867188 281.675781 237.242188 282.199219 237.390625 C 283.425781 237.714844 286.398438 237.691406 287.5 237.316406 C 288.800781 236.867188 288.976562 236.089844 288.976562 230.511719 C 289 226.460938 288.925781 225.632812 288.550781 224.882812 L 288.125 224.007812 L 285 223.957031 C 283.25 223.910156 281.699219 224.007812 281.449219 224.132812 Z M 286 230.789062 L 286 235.414062 L 284.824219 235.339844 L 283.625 235.265625 L 283.550781 230.6875 L 283.5 226.132812 L 286 226.132812 Z M 286 230.789062 "/>
</g>
</svg>
