<?xml version="1.0" encoding="UTF-8"?>
<svg xmlns="http://www.w3.org/2000/svg" xmlns:xlink="http://www.w3.org/1999/xlink" width="2533px" height="1791px" viewBox="0 0 1267 896" version="1.1">
<g id="surface1">
<path style=" stroke:none;fill-rule:nonzero;fill:rgb(0%,0%,0%);fill-opacity:1;" d="M 174.574219 263.21875 C 166.046875 264.761719 161.640625 266.09375 154.246094 269.292969 C 150.382812 270.957031 146.976562 272.5625 146.578125 272.832031 C 146.246094 273.09375 144.109375 274.292969 141.914062 275.5 C 126.113281 284.105469 117.585938 290.175781 115.117188 294.511719 C 112.386719 299.238281 114.1875 304.113281 122.3125 313.855469 C 128.382812 321.125 145.714844 336.9375 146.640625 336 C 146.851562 335.800781 145.109375 333.46875 142.851562 330.800781 C 140.582031 328.0625 137.382812 323.925781 135.71875 321.519531 C 133.976562 319.125 132.382812 317.050781 132.113281 316.988281 C 131.78125 316.855469 131.582031 316.457031 131.582031 316.125 C 131.582031 315.792969 130.582031 313.988281 129.3125 312.050781 C 125.050781 305.25 123.1875 297.042969 124.980469 292.375 C 125.644531 290.511719 130.050781 285.5 131.050781 285.5 C 131.3125 285.5 131.582031 286.574219 131.582031 287.832031 C 131.582031 293.769531 139.644531 306.449219 155.847656 325.863281 C 159.515625 330.261719 163.773438 335.199219 165.304688 336.863281 C 167.972656 339.667969 174.179688 346.800781 178.511719 351.949219 L 180.375 354.207031 L 175.90625 359.417969 C 173.441406 362.21875 169.378906 366.824219 166.847656 369.550781 C 158.441406 378.824219 140.382812 400.84375 136.914062 405.980469 C 136.382812 406.769531 133.3125 411.175781 130.1875 415.71875 C 117.648438 433.65625 107.648438 450.738281 100.648438 466.28125 C 98.921875 470.144531 97.117188 474.011719 96.585938 474.949219 C 96.117188 475.886719 95.390625 477.6875 95.058594 478.949219 C 94.652344 480.21875 93.722656 482.957031 92.921875 484.957031 C 92.121094 486.957031 90.589844 491.425781 89.527344 494.894531 C 87.453125 501.636719 87.121094 502.363281 86.652344 500.894531 C 85.121094 496.03125 84.789062 494.09375 84.789062 489.425781 C 84.726562 481.15625 86.984375 471.417969 91.921875 458.605469 C 94.058594 453.074219 104.191406 432.988281 107.917969 427.050781 C 116.648438 413.042969 123.71875 403.175781 133.914062 390.636719 C 137.050781 386.699219 138.914062 383.957031 138.050781 384.5625 C 135.519531 386.230469 118.3125 404.574219 113.386719 410.90625 C 110.980469 414.042969 108.585938 417.050781 108.117188 417.582031 C 106.386719 419.644531 100.921875 427.519531 100.921875 427.988281 C 100.921875 428.25 100.191406 429.261719 99.316406 430.1875 C 98.453125 431.1875 97.191406 432.855469 96.453125 433.988281 C 95.785156 435.125 93.785156 438.261719 91.984375 441 C 88.921875 445.667969 77.394531 467.613281 77.988281 467.613281 C 78.121094 467.613281 77.652344 468.8125 76.925781 470.207031 C 74.652344 474.8125 70.789062 486.355469 69.925781 491.488281 C 69.65625 493.03125 69.320312 495.09375 69.195312 496.167969 C 68.320312 501.230469 68.195312 509.375 68.863281 514.300781 C 70.125 523.84375 74.257812 530.519531 80.121094 532.71875 C 84.453125 534.324219 84.652344 534.519531 86.195312 539.519531 C 86.921875 541.988281 88.253906 545.0625 89.058594 546.394531 C 91.058594 549.59375 97.191406 554.730469 100.117188 555.730469 C 103.722656 556.925781 112.980469 556.0625 119.585938 554 C 126.1875 551.925781 138.183594 546.324219 143.976562 542.59375 C 146.246094 541.1875 148.976562 539.457031 149.976562 538.855469 C 151.046875 538.1875 152.515625 537.324219 153.246094 536.855469 C 153.972656 536.386719 156.714844 534.65625 159.246094 533.050781 C 165.378906 529.175781 174.910156 522.175781 174.910156 521.511719 C 174.910156 521.238281 175.242188 520.980469 175.636719 520.980469 C 176.242188 520.980469 181.304688 517.769531 183.4375 515.96875 C 184.238281 515.300781 187.769531 512.574219 200.238281 502.832031 C 211.171875 494.292969 233.699219 473.480469 232.835938 472.675781 C 232.566406 472.34375 230.035156 474.082031 218.234375 482.957031 C 215.503906 484.957031 210.839844 488.15625 207.902344 489.894531 C 204.964844 491.6875 198.84375 495.761719 194.238281 498.832031 C 183.707031 505.96875 171.972656 512.769531 155.910156 520.980469 C 134.976562 531.644531 124.582031 534.050781 114.117188 530.582031 C 111.117188 529.582031 109.648438 527.644531 111.917969 527.644531 C 114.386719 527.644531 143.183594 512.636719 149.777344 507.90625 C 151.515625 506.636719 153.183594 505.636719 153.515625 505.636719 C 154.441406 505.636719 161.515625 501.5 168.378906 496.894531 C 171.574219 494.761719 175.179688 492.488281 176.375 491.894531 C 179.4375 490.355469 208.234375 471.144531 213.703125 467.011719 C 216.234375 465.207031 218.839844 463.34375 219.503906 462.9375 C 221.371094 462.011719 244.230469 445.925781 251.03125 440.863281 C 258.5 435.324219 264.757812 430.925781 266.027344 430.457031 C 267.027344 430.050781 272.226562 433.394531 282.558594 441 C 285.890625 443.394531 292.222656 447.9375 296.691406 451 C 301.085938 454.074219 307.6875 458.738281 311.355469 461.34375 C 326.945312 472.550781 334.082031 477.480469 336.882812 479.019531 C 338.484375 479.886719 340.214844 481.082031 340.683594 481.6875 C 341.152344 482.292969 342.484375 483.15625 343.683594 483.6875 C 344.878906 484.15625 346.484375 485.15625 347.214844 485.824219 C 349.152344 487.625 361.210938 495.625 362.011719 495.625 C 362.410156 495.625 363.074219 496.09375 363.542969 496.625 C 364.542969 497.894531 380.40625 507.636719 381.40625 507.636719 C 381.8125 507.636719 382.207031 507.90625 382.34375 508.238281 C 382.605469 508.96875 388.007812 512.300781 388.875 512.300781 C 389.269531 512.300781 390.144531 512.84375 390.871094 513.511719 C 391.601562 514.175781 397.070312 517.175781 403.007812 520.238281 C 409.003906 523.3125 414.140625 526.113281 414.472656 526.375 C 414.867188 526.707031 413.734375 527.582031 411.871094 528.386719 C 407.265625 530.449219 398.808594 529.917969 390.34375 527.050781 C 374.542969 521.78125 343.683594 503.5625 313.886719 481.957031 C 308.75 478.21875 303.6875 474.613281 302.617188 473.949219 C 300.691406 472.675781 300.691406 472.675781 301.417969 474.011719 C 302.691406 476.355469 327.351562 499.09375 336.546875 506.363281 C 362.410156 526.84375 383.9375 541.519531 396.738281 547.394531 C 417.140625 556.730469 427.804688 554.863281 434.59375 540.65625 C 435.867188 538.125 436.867188 535.449219 436.867188 534.78125 C 436.867188 532.582031 438.136719 531.113281 440.46875 530.71875 C 442.863281 530.25 447.257812 526.113281 449.0625 522.574219 C 450.53125 519.707031 452.132812 513.84375 452.863281 508.769531 C 454.394531 498.167969 449.800781 476.21875 443.0625 461.605469 C 438.59375 452.074219 432.667969 440.59375 431.136719 438.457031 C 430.261719 437.324219 429.535156 436.125 429.535156 435.863281 C 429.535156 435.394531 421.140625 422.78125 415.804688 415.25 C 412.003906 409.980469 406.265625 403.042969 401.140625 397.574219 C 398.539062 394.832031 394.808594 390.894531 392.871094 388.894531 C 388.269531 384.03125 389.269531 385.625 396.269531 394.574219 C 404.070312 404.4375 418.398438 426.386719 421.003906 432.394531 C 421.472656 433.457031 422.066406 434.261719 422.335938 434.261719 C 422.597656 434.261719 422.867188 434.792969 422.867188 435.394531 C 422.867188 436.0625 423.804688 438.261719 424.929688 440.261719 C 428.066406 445.863281 434.867188 463.207031 436.730469 470.28125 C 438.925781 478.949219 439.53125 491.355469 437.867188 496.292969 C 437.261719 498.167969 436.59375 499.636719 436.46875 499.425781 C 436.335938 499.300781 435.59375 496.957031 434.929688 494.230469 C 433.261719 487.761719 428.335938 473.480469 425.199219 465.949219 C 418.734375 450.667969 405.871094 427.65625 394.539062 411.238281 C 388.738281 402.769531 374.273438 383.894531 369.8125 378.894531 C 367.8125 376.625 365.742188 374.292969 365.347656 373.761719 C 364.878906 373.21875 363.605469 371.6875 362.410156 370.355469 C 361.273438 369.019531 358.941406 366.21875 357.210938 364.21875 C 355.484375 362.21875 353.742188 360.21875 353.273438 359.886719 C 352.878906 359.480469 351.878906 358.34375 351.078125 357.34375 L 349.609375 355.417969 L 354.609375 349.8125 C 357.347656 346.738281 359.941406 343.46875 360.347656 342.542969 C 360.742188 341.605469 361.273438 340.863281 361.542969 340.863281 C 362.210938 340.863281 371.679688 329.261719 375.480469 323.863281 C 387.601562 306.644531 392.207031 297.238281 391.402344 291.511719 C 391.207031 290.4375 391.339844 289.511719 391.539062 289.511719 C 392.207031 289.511719 397.207031 295.042969 398.207031 296.78125 C 399.402344 299.113281 399.265625 306.113281 397.871094 310.519531 C 396.476562 314.917969 391.476562 323.65625 385.601562 331.863281 C 380.34375 339.269531 380.207031 339.53125 383.539062 336.863281 C 388.269531 333.136719 398.476562 322.792969 400.601562 319.59375 C 408.203125 308.113281 409.140625 305.25 406.871094 300.449219 C 405.140625 296.980469 400.808594 293.105469 390.539062 286.167969 C 386.675781 283.5 381.542969 279.5625 379.207031 277.425781 C 375.269531 273.894531 374.542969 273.5 371.9375 273.5 C 370.011719 273.5 367.011719 272.625 363.410156 271.09375 C 360.347656 269.824219 356.210938 268.15625 354.210938 267.425781 C 349.683594 265.824219 336.277344 264.5625 329.214844 265.15625 C 322.882812 265.625 313.613281 266.824219 312.21875 267.355469 C 311.6875 267.5625 310.75 267.761719 310.21875 267.894531 C 306.28125 268.625 291.285156 274.09375 291.753906 274.5625 C 291.890625 274.699219 293.359375 274.363281 294.953125 273.832031 C 304.28125 270.488281 316.613281 268.363281 329.882812 267.824219 C 345.015625 267.15625 355.878906 268.957031 366.347656 273.832031 C 370.480469 275.761719 369.679688 275.894531 362.878906 274.363281 C 359.148438 273.5625 354.484375 273.230469 344.546875 273.230469 C 326.6875 273.167969 319.21875 274.425781 298.886719 280.96875 C 288.359375 284.363281 276.359375 288.84375 270.496094 291.511719 C 265.289062 293.84375 266.558594 294.105469 252.230469 288.167969 C 247.625 286.300781 242.5625 284.300781 240.898438 283.769531 C 239.230469 283.238281 237.292969 282.4375 236.628906 282.03125 C 232.835938 279.894531 212.234375 274.167969 201.238281 272.167969 C 186.96875 269.625 168.179688 269.292969 158.777344 271.5 C 150.183594 273.425781 154.308594 270.699219 164.242188 267.824219 C 170.179688 266.09375 171.636719 265.957031 186.042969 265.6875 C 199.769531 265.425781 202.433594 265.5625 209.703125 266.824219 C 218.902344 268.425781 226.835938 270.292969 232.167969 272.230469 C 238.167969 274.292969 236.699219 273.230469 230.097656 270.625 C 219.097656 266.292969 208.570312 263.886719 195.238281 262.824219 C 184.90625 261.957031 181.105469 262.09375 174.574219 263.21875 Z M 181.90625 274.5625 C 193.507812 275.167969 193.84375 275.230469 205.902344 277.761719 C 219.371094 280.636719 236.566406 285.707031 245.898438 289.574219 C 246.625 289.90625 248.832031 290.769531 250.761719 291.511719 C 256.226562 293.574219 259.757812 295.574219 259.164062 296.175781 C 258.832031 296.449219 255.894531 298.113281 252.699219 299.78125 C 249.5 301.449219 244.898438 304.113281 242.5625 305.71875 C 240.230469 307.25 235.761719 310.113281 232.566406 312.113281 C 226.171875 316.050781 225.296875 317.519531 231.367188 314.1875 C 239.230469 309.78125 257.5625 300.84375 258.625 300.84375 C 258.894531 300.84375 259.695312 300.375 260.363281 299.707031 C 262.289062 297.980469 266.621094 298.3125 271.558594 300.511719 C 275.621094 302.375 284.160156 306.78125 298.085938 314.324219 C 301.417969 316.125 304.21875 317.457031 304.21875 317.261719 C 304.21875 317.050781 301.160156 314.855469 297.417969 312.449219 C 293.617188 309.988281 288.160156 306.386719 285.222656 304.511719 C 282.285156 302.582031 279.089844 300.582031 278.164062 300.113281 C 272.890625 297.375 270.894531 296.113281 270.894531 295.511719 C 270.894531 295.105469 271.226562 294.84375 271.695312 294.84375 C 272.089844 294.84375 273.695312 294.238281 275.164062 293.574219 C 279.753906 291.4375 306.28125 282.832031 308.417969 282.832031 C 308.949219 282.832031 309.617188 282.574219 309.886719 282.238281 C 310.085938 281.832031 310.75 281.636719 311.417969 281.636719 C 312.613281 281.769531 319.488281 280.230469 320.488281 279.636719 C 320.820312 279.4375 321.882812 279.167969 322.820312 279.105469 C 323.75 278.96875 327.082031 278.5 330.214844 278.09375 C 339.277344 276.832031 356.679688 276.96875 364.878906 278.4375 C 378.738281 280.832031 381.144531 282.699219 381.011719 290.574219 C 380.875 298.175781 375.675781 309.1875 364.480469 325.59375 C 358.273438 334.667969 348.152344 348.207031 346.347656 349.738281 C 345.078125 350.9375 344.878906 350.9375 343.410156 349.9375 C 342.609375 349.34375 342.152344 348.875 342.351562 348.875 C 342.609375 348.875 340.351562 346.542969 337.351562 343.667969 C 330.683594 337.394531 312.019531 322.1875 311.550781 322.65625 C 311.355469 322.792969 312.28125 323.863281 313.550781 324.988281 C 321.613281 331.925781 342.214844 353.675781 342.214844 355.207031 C 342.214844 355.613281 337.214844 362.144531 331.019531 369.824219 C 324.882812 377.425781 318.824219 385.09375 317.550781 386.761719 L 315.21875 389.894531 L 317.21875 388.425781 C 318.355469 387.636719 325.351562 380.957031 332.820312 373.625 C 340.351562 366.21875 346.609375 360.21875 346.878906 360.21875 C 347.078125 360.21875 350.878906 364.613281 355.273438 369.957031 C 359.605469 375.292969 363.542969 380.03125 363.878906 380.488281 C 364.273438 380.894531 365.605469 382.699219 366.875 384.425781 C 368.148438 386.230469 370.011719 388.761719 371.074219 390.09375 C 372.074219 391.4375 373.9375 394.03125 375.144531 395.90625 C 376.40625 397.707031 377.875 399.832031 378.480469 400.574219 C 379.074219 401.300781 380.542969 403.4375 381.738281 405.375 C 382.9375 407.238281 386.070312 412.3125 388.738281 416.511719 C 393.144531 423.65625 404.203125 442.730469 404.203125 443.332031 C 404.203125 443.46875 405.070312 445.46875 406.140625 447.730469 C 415.671875 468.28125 421.003906 486.15625 422.003906 500.699219 L 422.398438 506.96875 L 419.804688 506.96875 C 410.003906 506.90625 388.34375 497.425781 359.542969 480.488281 C 344.941406 471.949219 319.882812 456.46875 307.886719 448.605469 C 298.886719 442.730469 278.359375 429.71875 275.226562 427.917969 C 273.953125 427.1875 272.890625 426.25 272.890625 425.855469 C 272.890625 425.457031 276.289062 422.582031 280.359375 419.519531 C 284.496094 416.449219 288.359375 413.449219 288.890625 412.917969 C 289.421875 412.375 290.691406 411.449219 291.554688 410.78125 C 293.222656 409.707031 302.554688 401.769531 308.554688 396.363281 C 310.417969 394.699219 311.355469 393.5625 310.617188 393.769531 C 309.949219 394.03125 300.492188 400.105469 289.617188 407.175781 C 278.757812 414.3125 269.089844 420.519531 268.089844 420.917969 C 266.425781 421.71875 265.695312 421.386719 256.757812 415.582031 C 251.5 412.25 242.761719 406.511719 237.230469 402.84375 C 225.171875 394.832031 221.566406 392.636719 221.234375 392.96875 C 220.839844 393.4375 242.5625 411.582031 251.761719 418.519531 C 256.625 422.113281 260.625 425.324219 260.695312 425.519531 C 260.894531 426.050781 227.566406 447.605469 208.570312 459.136719 C 206.769531 460.269531 202.707031 462.738281 199.570312 464.613281 C 196.4375 466.542969 190.175781 470.28125 185.574219 472.949219 C 180.96875 475.613281 175.90625 478.613281 174.242188 479.613281 C 166.773438 484.082031 145.109375 495.230469 136.914062 498.832031 C 124.855469 504.167969 112.917969 508.105469 107.386719 508.699219 L 102.785156 509.167969 L 103.253906 503.894531 C 104.253906 492.15625 106.449219 483.6875 112.585938 467.949219 C 115.054688 461.605469 125.855469 438.457031 127.644531 435.59375 C 127.976562 435.0625 129.113281 433.261719 130.113281 431.65625 C 141.382812 413.582031 153.046875 396.238281 159.246094 388.5 C 160.179688 387.300781 160.910156 386.03125 160.910156 385.625 C 160.910156 385.230469 161.179688 384.894531 161.515625 384.894531 C 161.847656 384.894531 163.640625 382.894531 165.515625 380.363281 C 167.378906 377.894531 169.304688 375.425781 169.773438 374.886719 C 170.304688 374.355469 172.042969 372.21875 173.636719 370.21875 C 175.304688 368.21875 177.710938 365.355469 179.042969 363.886719 C 180.375 362.417969 182.042969 360.550781 182.710938 359.75 L 183.90625 358.207031 L 195.90625 369.957031 C 209.234375 383.03125 216.097656 389.230469 216.566406 388.761719 C 216.765625 388.5625 211.433594 381.894531 204.769531 373.957031 C 198.039062 365.949219 191.707031 358.207031 190.636719 356.8125 L 188.636719 354.144531 L 189.90625 352.011719 C 190.574219 350.8125 192.4375 348.675781 194.039062 347.136719 C 195.632812 345.605469 196.90625 344.269531 196.90625 344.074219 C 196.90625 343.9375 201.769531 338.863281 207.765625 332.863281 C 213.703125 326.863281 217.371094 322.855469 215.902344 323.925781 C 208.839844 329 197.238281 338.332031 191.300781 343.738281 C 184.84375 349.675781 184.769531 349.738281 183.636719 348.40625 C 156.308594 313.65625 147.714844 301.25 144.515625 291.707031 C 143.183594 287.707031 142.851562 285.769531 143.183594 283.167969 C 143.644531 279.230469 144.851562 278.09375 149.851562 276.832031 C 154.515625 275.636719 169.441406 273.699219 171.910156 273.894531 C 173.042969 274.03125 177.511719 274.292969 181.90625 274.5625 Z M 181.90625 274.5625 "/>
<path style=" stroke:none;fill-rule:nonzero;fill:rgb(0%,0%,0%);fill-opacity:1;" d="M 466.996094 416.386719 L 467.195312 556 L 554.511719 556 C 645.101562 556 647.695312 555.925781 659.496094 553.199219 C 670.492188 550.65625 685.097656 544.925781 689.292969 541.386719 C 690.292969 540.519531 691.761719 539.65625 692.492188 539.386719 C 694.886719 538.65625 705.757812 529.3125 709.289062 524.917969 C 712.957031 520.511719 717.152344 512.5 719.089844 506.574219 C 720.152344 503.363281 720.214844 495.832031 720.015625 415.84375 C 719.820312 333.261719 719.683594 328.332031 718.546875 324.863281 C 713.214844 308.855469 700.550781 295.90625 681.160156 286.769531 C 674.160156 283.5 667.027344 281.105469 657.558594 278.96875 L 649.832031 277.230469 L 558.3125 277.03125 L 466.859375 276.761719 Z M 626.835938 314.855469 C 642.5625 315.324219 645.695312 315.582031 649.164062 316.71875 C 656.695312 319.261719 660.964844 321.59375 664.628906 325.0625 C 671.097656 331.199219 670.492188 321.519531 670.691406 416.050781 L 670.828125 499.636719 L 669.222656 502.09375 C 663.964844 510.375 653.828125 515.707031 639.96875 517.574219 C 636.636719 518.042969 613.503906 518.3125 575.445312 518.3125 L 516.1875 518.3125 L 516.1875 314.917969 L 517.71875 314.65625 C 520.320312 314.125 607.835938 314.324219 626.835938 314.855469 Z M 626.835938 314.855469 "/>
<path style=" stroke:none;fill-rule:nonzero;fill:rgb(0%,0%,0%);fill-opacity:1;" d="M 1090.757812 277.300781 C 1080.699219 278.230469 1068.367188 281.4375 1057.566406 285.90625 C 1052.234375 288.105469 1042.039062 294.042969 1038.371094 297.042969 C 1030.164062 303.71875 1022.769531 312.519531 1020.769531 317.925781 C 1020.375 318.988281 1019.375 321.1875 1018.574219 322.855469 C 1017.167969 325.730469 1017.105469 327.0625 1016.636719 352.875 C 1016.300781 367.75 1016.167969 419.519531 1016.238281 467.949219 L 1016.4375 556 L 1040.964844 556.199219 L 1065.429688 556.332031 L 1065.429688 415.582031 L 1207.40625 415.582031 L 1207.40625 377.5625 L 1065.367188 377.5625 L 1065.566406 355.34375 C 1065.699219 340.605469 1066.097656 332.59375 1066.566406 331.46875 C 1068.898438 326.0625 1077.824219 319.59375 1086.625 316.988281 L 1092.425781 315.25 L 1149.945312 314.988281 L 1207.40625 314.792969 L 1207.40625 276.832031 L 1150.28125 276.96875 C 1118.816406 276.96875 1092.027344 277.167969 1090.757812 277.300781 Z M 1090.757812 277.300781 "/>
<path style=" stroke:none;fill-rule:nonzero;fill:rgb(0%,0%,0%);fill-opacity:1;" d="M 744.148438 412.707031 C 744.210938 454.46875 744.480469 493.292969 744.753906 498.96875 C 745.285156 508.5 745.480469 509.636719 747.417969 513.90625 C 754.949219 530.449219 772.34375 543.65625 796.140625 550.988281 C 802.078125 552.792969 804.941406 553.394531 815.136719 555 C 817.335938 555.332031 842.800781 555.667969 872.128906 555.667969 C 901.257812 555.667969 930.316406 555.863281 936.648438 556.136719 L 948.25 556.53125 L 947.980469 566.269531 C 947.78125 574.738281 947.585938 576.34375 946.3125 578.738281 C 943.511719 584.082031 935.980469 589.28125 926.453125 592.613281 C 922.589844 593.957031 920.984375 594.019531 864.460938 594.355469 L 806.472656 594.6875 L 806.273438 613.5 L 806.136719 632.375 L 862.929688 632.375 C 924.984375 632.375 926.390625 632.3125 941.054688 628.4375 C 958.582031 623.832031 973.714844 615.230469 984.109375 603.824219 C 988.242188 599.355469 994.046875 590.28125 994.109375 588.28125 C 994.109375 587.75 994.378906 587.019531 994.710938 586.613281 C 995.046875 586.28125 995.773438 583.75 996.378906 581.011719 C 997.304688 576.613281 997.441406 561.863281 997.441406 456.40625 L 997.441406 336.863281 L 948.113281 336.863281 L 948.113281 517.4375 L 892.988281 517.769531 C 832.601562 518.105469 819.9375 517.84375 814.136719 515.769531 C 804.867188 512.5 797.671875 507.636719 795.339844 502.96875 L 793.808594 499.96875 L 793.609375 418.386719 L 793.472656 336.863281 L 744.148438 336.863281 Z M 744.148438 412.707031 "/>
<path style=" stroke:none;fill-rule:nonzero;fill:rgb(0%,0%,0%);fill-opacity:1;" d="M 91.253906 596.957031 C 88.722656 597.355469 88.589844 597.488281 88.191406 600.292969 L 87.789062 603.15625 L 91.390625 602.824219 L 95.058594 602.425781 L 94.785156 618.105469 L 94.589844 633.78125 L 98.585938 633.574219 L 102.585938 633.375 L 102.316406 618.167969 L 102.117188 603.019531 L 108.980469 603.019531 L 108.785156 599.824219 L 108.585938 596.6875 L 101.253906 596.625 C 97.253906 596.550781 92.722656 596.6875 91.253906 596.957031 Z M 91.253906 596.957031 "/>
<path style=" stroke:none;fill-rule:nonzero;fill:rgb(0%,0%,0%);fill-opacity:1;" d="M 113.25 615.105469 L 113.25 633.90625 L 120.1875 633.449219 C 123.980469 633.238281 128.113281 633.042969 129.3125 633.042969 C 131.3125 633.042969 131.445312 632.90625 131.71875 630.375 L 131.976562 627.707031 L 120.917969 627.707031 L 120.917969 616.96875 L 125.78125 617.167969 L 130.582031 617.363281 L 130.78125 614.300781 L 130.976562 611.300781 L 126.113281 611.300781 L 121.25 611.363281 L 121.25 602.6875 L 131.71875 602.6875 L 131.3125 600.355469 C 131.113281 599.09375 130.914062 597.625 130.914062 597.15625 C 130.914062 596.550781 128.71875 596.355469 122.113281 596.355469 L 113.25 596.355469 Z M 113.25 615.105469 "/>
<path style=" stroke:none;fill-rule:nonzero;fill:rgb(0%,0%,0%);fill-opacity:1;" d="M 137.914062 596.824219 C 136.644531 597.09375 136.582031 597.6875 136.382812 614.832031 C 136.183594 628.980469 136.308594 632.707031 137.050781 633.113281 C 138.113281 633.84375 153.378906 633.90625 153.847656 633.175781 C 153.972656 632.90625 154.308594 631.574219 154.578125 630.175781 L 155.046875 627.707031 L 150.046875 627.707031 C 145.515625 627.707031 144.976562 627.574219 144.578125 626.300781 C 144.308594 625.511719 144.308594 618.699219 144.578125 611.03125 L 145.046875 597.21875 L 143.519531 596.824219 C 141.851562 596.355469 140.113281 596.355469 137.914062 596.824219 Z M 137.914062 596.824219 "/>
<path style=" stroke:none;fill-rule:nonzero;fill:rgb(0%,0%,0%);fill-opacity:1;" d="M 158.578125 615.105469 L 158.578125 633.84375 L 167.578125 633.375 C 172.511719 633.113281 176.574219 632.84375 176.636719 632.78125 C 176.710938 632.78125 176.90625 631.574219 177.105469 630.175781 L 177.511719 627.707031 L 166.179688 627.707031 L 166.378906 622.5 L 166.578125 617.363281 L 171.242188 617.363281 L 175.90625 617.300781 L 176.105469 614.363281 L 176.304688 611.363281 L 166.578125 611.363281 L 166.378906 607.15625 L 166.179688 603.019531 L 176.96875 603.019531 L 176.773438 599.824219 L 176.574219 596.6875 L 158.578125 596.292969 Z M 158.578125 615.105469 "/>
<path style=" stroke:none;fill-rule:nonzero;fill:rgb(0%,0%,0%);fill-opacity:1;" d="M 185.769531 596.824219 C 182.636719 597.425781 181.90625 599.824219 181.710938 611.363281 C 181.4375 623.96875 181.90625 629.84375 183.511719 631.78125 C 184.511719 632.980469 185.574219 633.238281 191.84375 633.511719 C 199.769531 633.980469 200.238281 633.78125 200.238281 629.90625 C 200.238281 627.375 199.707031 627.105469 194.632812 627.574219 C 189.042969 628.042969 188.90625 627.707031 188.90625 615.769531 C 188.90625 602.425781 188.636719 603.019531 194.632812 603.019531 L 199.570312 603.019531 L 199.570312 596.355469 L 193.4375 596.417969 C 190.042969 596.488281 186.574219 596.6875 185.769531 596.824219 Z M 185.769531 596.824219 "/>
<path style=" stroke:none;fill-rule:nonzero;fill:rgb(0%,0%,0%);fill-opacity:1;" d="M 211.234375 596.75 C 210.507812 596.957031 209.234375 597.21875 208.371094 597.425781 C 205.507812 598.019531 204.902344 601.019531 204.902344 615.300781 C 204.902344 622.4375 205.175781 629.042969 205.570312 630.042969 C 206.632812 632.90625 210.171875 633.90625 217.765625 633.574219 C 222.628906 633.3125 224.628906 632.980469 225.429688 632.175781 C 226.898438 630.644531 227.898438 614.4375 227.035156 605.824219 C 226.171875 597.550781 225.703125 597.09375 218.171875 596.6875 C 215.101562 596.550781 211.964844 596.550781 211.234375 596.75 Z M 219.433594 615.167969 L 219.234375 627.375 L 216.296875 627.574219 C 214.433594 627.707031 213.171875 627.511719 212.839844 626.90625 C 212.171875 625.90625 212.039062 604.09375 212.703125 603.488281 C 212.902344 603.230469 214.570312 603.019531 216.371094 603.019531 L 219.566406 603.019531 Z M 219.433594 615.167969 "/>
<path style=" stroke:none;fill-rule:nonzero;fill:rgb(0%,0%,0%);fill-opacity:1;" d="M 232.898438 615.105469 C 232.898438 631.90625 233.035156 633.84375 233.960938 633.449219 C 234.566406 633.238281 235.292969 633.042969 235.628906 633.042969 C 235.960938 633.042969 236.230469 626.96875 236.292969 618.832031 C 236.367188 602.5625 236.429688 602.625 240.292969 622.105469 C 242.5625 633.78125 242.898438 634.449219 246.09375 633.3125 C 247.625 632.78125 247.957031 631.90625 249.625 624.375 C 250.625 619.769531 251.832031 613.894531 252.292969 611.363281 C 253.699219 602.625 254.167969 604.488281 254.230469 619.167969 L 254.230469 633.707031 L 262.5625 633.707031 L 262.425781 615.230469 L 262.226562 596.6875 L 257.5625 596.488281 C 252.230469 596.292969 252.167969 596.292969 250.894531 603.019531 C 250.5625 605.03125 249.699219 609.230469 249.03125 612.363281 L 247.761719 618.03125 L 247.03125 615.363281 C 246.625 613.894531 245.625 609.699219 244.898438 606.03125 C 244.167969 602.355469 243.429688 598.6875 243.230469 597.824219 C 242.898438 596.488281 242.5 596.355469 237.898438 596.355469 L 232.898438 596.355469 Z M 232.898438 615.105469 "/>
<path style=" stroke:none;fill-rule:nonzero;fill:rgb(0%,0%,0%);fill-opacity:1;" d="M 267.695312 612.167969 C 268.027344 630.375 268.363281 631.78125 272.757812 632.980469 C 276.289062 633.980469 283.890625 633.84375 286.496094 632.78125 C 288.421875 631.980469 288.828125 631.375 289.492188 628.375 C 289.890625 626.511719 290.222656 618.574219 290.222656 610.699219 C 290.222656 596.824219 290.160156 596.355469 288.890625 596.355469 C 287.617188 596.355469 287.554688 596.824219 287.554688 610.5 C 287.554688 618.300781 287.359375 625.375 287.160156 626.175781 C 286.753906 627.574219 286.359375 627.707031 281.890625 627.707031 C 278.558594 627.707031 276.828125 627.4375 276.289062 626.769531 C 275.757812 626.105469 275.558594 621.636719 275.695312 611.425781 C 275.828125 599.886719 275.695312 596.957031 275.027344 596.6875 C 274.496094 596.488281 272.621094 596.355469 270.757812 596.355469 L 267.425781 596.355469 Z M 267.695312 612.167969 "/>
<path style=" stroke:none;fill-rule:nonzero;fill:rgb(0%,0%,0%);fill-opacity:1;" d="M 296.222656 615.03125 L 296.222656 633.707031 L 299.222656 633.707031 L 299.023438 618.238281 C 298.886719 606.5625 299.023438 603.019531 299.617188 603.894531 C 300.222656 604.957031 303.417969 615.167969 307.355469 629.042969 L 308.617188 633.375 L 313.75 633.574219 L 318.824219 633.78125 L 319.019531 615.5625 C 319.15625 603.957031 318.945312 597.15625 318.550781 596.886719 C 318.21875 596.550781 317.417969 596.417969 316.886719 596.550781 C 316.019531 596.6875 315.824219 599.09375 315.550781 611.699219 C 315.355469 619.96875 315.082031 626.511719 315.019531 626.238281 C 314.949219 625.96875 313.082031 619.5 310.824219 611.894531 C 308.554688 604.03125 306.28125 597.6875 305.6875 597.15625 C 305.085938 596.75 302.753906 596.355469 300.417969 596.355469 L 296.222656 596.355469 Z M 296.222656 615.03125 "/>
<path style=" stroke:none;fill-rule:nonzero;fill:rgb(0%,0%,0%);fill-opacity:1;" d="M 325.21875 615.03125 L 325.21875 633.78125 L 329.214844 633.574219 L 333.214844 633.375 L 333.214844 596.6875 L 325.21875 596.292969 Z M 325.21875 615.03125 "/>
<path style=" stroke:none;fill-rule:nonzero;fill:rgb(0%,0%,0%);fill-opacity:1;" d="M 344.609375 597.019531 C 339.746094 597.957031 339.351562 599.488281 339.683594 617.167969 C 339.882812 629.980469 339.945312 630.3125 341.484375 631.980469 C 343.015625 633.644531 343.410156 633.707031 350.214844 633.707031 L 357.347656 633.707031 L 357.816406 630.90625 C 358.410156 627.4375 357.816406 627.042969 352.078125 627.042969 L 347.546875 627.042969 L 347.546875 603.09375 L 352.410156 602.894531 L 357.210938 602.6875 L 357.210938 596.6875 L 352.210938 596.550781 C 349.484375 596.550781 346.015625 596.6875 344.609375 597.019531 Z M 344.609375 597.019531 "/>
<path style=" stroke:none;fill-rule:nonzero;fill:rgb(0%,0%,0%);fill-opacity:1;" d="M 370.542969 597.15625 C 370.40625 597.625 369.542969 601.15625 368.679688 605.03125 C 367.742188 608.894531 365.605469 616.5625 363.941406 622.167969 C 362.273438 627.769531 360.878906 632.644531 360.878906 633.042969 C 360.878906 633.375 361.941406 633.707031 363.210938 633.707031 C 365.480469 633.707031 365.542969 633.644531 365.542969 631.3125 C 365.542969 627.175781 366.875 623.707031 368.679688 623.300781 C 370.34375 622.832031 376.675781 623.238281 377.207031 623.832031 C 377.40625 623.96875 377.675781 625.636719 377.9375 627.4375 C 378.675781 633.980469 378.480469 633.707031 382.480469 633.707031 C 386.40625 633.707031 388.40625 633.238281 387.875 632.375 C 387.34375 631.511719 379.542969 600.019531 379.542969 598.761719 C 379.542969 598.21875 378.9375 597.425781 378.269531 597.019531 C 376.40625 596.082031 370.875 596.15625 370.542969 597.15625 Z M 374.273438 611.167969 C 376.011719 617.90625 376.074219 617.699219 372.210938 617.699219 C 370.40625 617.699219 368.875 617.5 368.875 617.167969 C 368.875 616.363281 371.542969 606.824219 372.011719 606.230469 C 372.542969 605.230469 372.9375 605.957031 374.273438 611.167969 Z M 374.273438 611.167969 "/>
<path style=" stroke:none;fill-rule:nonzero;fill:rgb(0%,0%,0%);fill-opacity:1;" d="M 415.535156 615.03125 L 415.535156 633.707031 L 423.199219 633.707031 L 423.199219 596.355469 L 415.535156 596.355469 Z M 415.535156 615.03125 "/>
<path style=" stroke:none;fill-rule:nonzero;fill:rgb(0%,0%,0%);fill-opacity:1;" d="M 477.464844 596.625 C 477.328125 596.824219 477.390625 599.292969 477.589844 602.15625 C 478.253906 608.894531 478.253906 621.300781 477.660156 624.707031 C 477.191406 627.175781 476.921875 626.511719 473.328125 614.03125 C 471.191406 606.699219 469.195312 599.957031 468.921875 599.019531 C 468.464844 597.425781 468.132812 597.355469 463.132812 597.15625 L 457.863281 596.957031 L 458.132812 633.375 L 459.800781 633.574219 L 461.394531 633.78125 L 461.058594 618.238281 C 460.800781 608.09375 460.925781 602.894531 461.332031 603.355469 C 461.726562 603.6875 463.664062 609.894531 465.726562 617.105469 C 470.996094 635.511719 469.921875 633.707031 475.464844 633.707031 C 477.996094 633.707031 480.253906 633.449219 480.460938 633.113281 C 480.660156 632.84375 480.859375 624.5 480.859375 614.636719 L 480.921875 596.6875 L 479.390625 596.488281 C 478.523438 596.355469 477.660156 596.417969 477.464844 596.625 Z M 477.464844 596.625 "/>
<path style=" stroke:none;fill-rule:nonzero;fill:rgb(0%,0%,0%);fill-opacity:1;" d="M 486.460938 615.03125 L 486.460938 633.707031 L 493.917969 633.707031 C 503.386719 633.707031 504.855469 633.238281 504.855469 630.042969 L 504.855469 627.707031 L 494.1875 627.707031 L 494.1875 616.894531 L 504.1875 617.832031 L 504.1875 611.230469 L 494.1875 611.894531 L 494.1875 603.019531 L 499.125 603.019531 C 501.855469 603.019531 504.25 602.761719 504.457031 602.488281 C 504.582031 602.230469 504.582031 600.6875 504.386719 599.15625 L 503.988281 596.355469 L 486.523438 596.355469 Z M 486.460938 615.03125 "/>
<path style=" stroke:none;fill-rule:nonzero;fill:rgb(0%,0%,0%);fill-opacity:1;" d="M 514.789062 596.824219 C 510.457031 597.292969 509.855469 598.625 509.65625 608.5 C 509.324219 620.96875 509.65625 621.5 517.851562 621.832031 L 521.851562 622.042969 L 521.851562 627.375 L 509.519531 627.375 L 509.519531 629.511719 C 509.519531 633.707031 509.582031 633.707031 518.121094 633.707031 C 525.652344 633.707031 525.984375 633.644531 527.578125 631.980469 C 529.121094 630.375 529.183594 629.707031 529.382812 621.105469 C 529.578125 613.03125 529.453125 611.761719 528.382812 610.5 C 527.121094 608.832031 523.382812 607.761719 519.382812 607.699219 C 516.914062 607.699219 516.851562 607.625 516.851562 605.363281 L 516.851562 603.019531 L 522.457031 603.019531 C 528.914062 603.019531 529.914062 602.425781 528.984375 598.886719 L 528.453125 596.6875 L 522.789062 596.625 C 519.714844 596.550781 516.125 596.6875 514.789062 596.824219 Z M 514.789062 596.824219 "/>
<path style=" stroke:none;fill-rule:nonzero;fill:rgb(0%,0%,0%);fill-opacity:1;" d="M 548.179688 597.019531 C 548.179688 597.425781 548.984375 599.550781 549.910156 601.894531 C 555.042969 614.363281 555.785156 617.105469 556.179688 625.375 L 556.511719 633.375 L 560.375 633.574219 L 564.179688 633.78125 L 564.179688 626.636719 C 564.179688 619.96875 564.375 619.105469 566.90625 612.09375 C 568.375 608.03125 570.375 602.957031 571.238281 600.894531 C 573.175781 596.21875 573.175781 596.355469 571.238281 596.355469 C 568.644531 596.355469 567.511719 597.09375 567.511719 598.625 C 567.511719 600.425781 564.449219 609.699219 563.511719 610.625 C 562.710938 611.425781 560.449219 606.488281 558.84375 600.6875 L 557.710938 596.6875 L 552.980469 596.488281 C 549.910156 596.355469 548.179688 596.550781 548.179688 597.019531 Z M 548.179688 597.019531 "/>
<path style=" stroke:none;fill-rule:nonzero;fill:rgb(0%,0%,0%);fill-opacity:1;" d="M 596.777344 596.824219 C 592.777344 597.292969 591.902344 598.824219 591.640625 606.425781 C 591.445312 610.03125 591.570312 614.636719 591.839844 616.636719 C 592.308594 620.832031 592.640625 621.03125 599.503906 621.636719 L 603.839844 622.042969 L 604.035156 624.84375 L 604.234375 627.707031 L 591.308594 627.707031 L 591.703125 630.105469 C 591.902344 631.4375 592.308594 632.707031 592.507812 632.90625 C 593.234375 633.707031 604.566406 633.84375 607.304688 633.113281 C 609.773438 632.449219 610.234375 631.980469 610.898438 629.769531 C 611.367188 628.238281 611.566406 624.042969 611.441406 619.238281 C 611.109375 609.167969 610.773438 608.699219 604.109375 608.230469 C 601.503906 608.03125 599.171875 607.625 598.839844 607.292969 C 598.503906 606.957031 598.441406 605.894531 598.640625 604.824219 L 598.972656 603.019531 L 604.902344 603.019531 C 608.109375 603.019531 610.898438 602.824219 611.035156 602.488281 C 611.171875 602.230469 611.171875 600.761719 610.972656 599.15625 L 610.703125 596.355469 L 604.902344 596.488281 C 601.777344 596.550781 598.109375 596.6875 596.777344 596.824219 Z M 596.777344 596.824219 "/>
<path style=" stroke:none;fill-rule:nonzero;fill:rgb(0%,0%,0%);fill-opacity:1;" d="M 618.699219 596.824219 L 616.835938 597.09375 L 616.835938 633.449219 L 626.167969 633.644531 L 635.5 633.78125 L 635.5 627.707031 L 624.773438 627.707031 L 624.96875 622.5 L 625.167969 617.363281 L 630.03125 617.5625 L 634.832031 617.832031 L 634.832031 611.230469 L 624.835938 611.894531 L 624.835938 603.019531 L 635.699219 603.019531 L 635.230469 600.21875 C 634.96875 598.761719 634.636719 597.21875 634.4375 596.886719 C 634.105469 596.355469 622.230469 596.292969 618.699219 596.824219 Z M 618.699219 596.824219 "/>
<path style=" stroke:none;fill-rule:nonzero;fill:rgb(0%,0%,0%);fill-opacity:1;" d="M 640.164062 596.625 C 640.164062 596.824219 640.164062 605.230469 640.101562 615.167969 L 640.101562 633.375 L 644.164062 633.574219 L 648.226562 633.78125 L 647.769531 625.707031 L 647.300781 617.699219 L 649.300781 617.699219 C 651.226562 617.699219 651.300781 617.769531 652.832031 624.5 C 654.890625 633.707031 654.964844 633.707031 658.496094 633.707031 C 663.558594 633.707031 663.496094 633.84375 661.296875 625.769531 L 659.296875 618.574219 L 660.765625 616.5625 C 662.160156 614.699219 662.296875 613.96875 662.027344 607.15625 C 661.765625 596.886719 661.890625 597.019531 649.558594 596.550781 C 644.4375 596.355469 640.164062 596.355469 640.164062 596.625 Z M 654.828125 606.230469 C 654.828125 610.5625 653.828125 611.832031 650.496094 611.5625 L 647.832031 611.363281 L 647.632812 607.15625 L 647.433594 603.019531 L 654.828125 603.019531 Z M 654.828125 606.230469 "/>
<path style=" stroke:none;fill-rule:nonzero;fill:rgb(0%,0%,0%);fill-opacity:1;" d="M 667.097656 597.292969 C 666.890625 597.761719 667.628906 602.230469 668.765625 607.09375 C 669.828125 612.03125 671.554688 619.832031 672.554688 624.5 L 674.429688 632.980469 L 677.160156 633.449219 C 683.160156 634.3125 682.824219 634.644531 685.6875 622.375 C 687.960938 612.5 690.824219 600.355469 691.554688 597.6875 C 691.761719 596.957031 691.21875 596.625 689.6875 596.488281 C 688.492188 596.355469 687.492188 596.488281 687.492188 596.824219 C 687.429688 598.355469 686.09375 607.03125 685.492188 609.363281 C 685.160156 610.832031 684.222656 614.699219 683.429688 618.03125 C 681.554688 626.105469 681.160156 626.511719 680.292969 622.238281 C 677.355469 608.425781 675.492188 599.15625 675.492188 597.824219 C 675.492188 596.488281 675.222656 596.355469 671.492188 596.355469 C 668.691406 596.355469 667.359375 596.625 667.097656 597.292969 Z M 667.097656 597.292969 "/>
<path style=" stroke:none;fill-rule:nonzero;fill:rgb(0%,0%,0%);fill-opacity:1;" d="M 696.625 596.824219 C 696.355469 597.019531 696.15625 605.425781 696.15625 615.5 L 696.15625 633.707031 L 704.488281 633.707031 L 704.289062 615.894531 C 704.21875 606.03125 704.019531 597.625 703.820312 597.15625 C 703.488281 596.292969 697.425781 595.957031 696.625 596.824219 Z M 696.625 596.824219 "/>
<path style=" stroke:none;fill-rule:nonzero;fill:rgb(0%,0%,0%);fill-opacity:1;" d="M 734.148438 615.03125 L 734.148438 633.707031 L 742.148438 633.707031 L 742.148438 596.355469 L 734.148438 596.355469 Z M 734.148438 615.03125 "/>
<path style=" stroke:none;fill-rule:nonzero;fill:rgb(0%,0%,0%);fill-opacity:1;" d="M 780.277344 596.824219 C 777.414062 597.355469 776.476562 599.957031 776.277344 608.03125 C 776.007812 616.699219 776.871094 620.363281 779.476562 621.105469 C 780.414062 621.375 782.871094 621.574219 785.007812 621.636719 L 788.808594 621.707031 L 788.808594 624.300781 C 788.808594 627.4375 788.277344 627.707031 781.746094 627.707031 L 776.808594 627.707031 L 776.808594 630.375 C 776.808594 633.707031 777.808594 634.042969 787.007812 633.511719 C 796.203125 633.042969 796.140625 633.175781 796.140625 620.769531 C 796.140625 614.09375 795.871094 610.96875 795.277344 610.09375 C 794.671875 609.292969 792.808594 608.699219 789.277344 608.230469 L 784.140625 607.5 L 784.140625 603.019531 L 796.203125 603.019531 L 796.003906 599.824219 L 795.808594 596.6875 L 788.808594 596.625 C 784.945312 596.550781 781.140625 596.625 780.277344 596.824219 Z M 780.277344 596.824219 "/>
<path style=" stroke:none;fill-rule:nonzero;fill:rgb(0%,0%,0%);fill-opacity:1;" d="M 393.933594 598.292969 C 392.007812 600.425781 391.539062 603.6875 391.539062 614.699219 C 391.601562 626.574219 392.070312 629.769531 394.269531 632.113281 C 395.675781 633.574219 396.207031 633.707031 403.007812 633.707031 L 410.203125 633.707031 L 410.203125 630.769531 C 410.203125 627.375 409.597656 627.042969 403.339844 627.042969 L 399.539062 627.042969 L 399.671875 615.167969 L 399.871094 603.355469 L 404.871094 602.761719 C 407.597656 602.488281 409.933594 602.15625 410.066406 602.019531 C 410.203125 601.894531 410.066406 600.761719 409.871094 599.425781 L 409.402344 597.019531 L 402.203125 597.019531 C 396.070312 597.019531 394.933594 597.21875 393.933594 598.292969 Z M 393.933594 598.292969 "/>
<path style=" stroke:none;fill-rule:nonzero;fill:rgb(0%,0%,0%);fill-opacity:1;" d="M 431.59375 598.761719 C 429.597656 601.292969 429.398438 603.5625 429.667969 617.363281 L 429.867188 629.84375 L 432.136719 631.84375 L 434.398438 633.90625 L 441.667969 633.511719 C 445.667969 633.3125 449.394531 632.78125 449.925781 632.375 C 451.664062 630.90625 452.195312 626.769531 452.195312 615.03125 C 452.195312 602.6875 451.59375 598.824219 449.53125 597.6875 C 448.863281 597.355469 444.863281 597.019531 440.59375 597.019531 C 433.199219 597.019531 432.929688 597.09375 431.59375 598.761719 Z M 444.199219 615.363281 L 444.199219 627.707031 L 441.925781 627.707031 C 437.398438 627.707031 437.53125 628.105469 437.53125 614.96875 L 437.53125 603.019531 L 444.199219 603.019531 Z M 444.199219 615.363281 "/>
<path style=" stroke:none;fill-rule:nonzero;fill:rgb(0%,0%,0%);fill-opacity:1;" d="M 712.683594 598.15625 C 710.820312 600.292969 710.152344 604.488281 710.152344 614.699219 C 710.214844 632.511719 710.683594 633.238281 721.484375 633.574219 L 728.816406 633.84375 L 728.816406 627.238281 L 723.683594 627.300781 L 718.484375 627.375 L 718.289062 615.167969 L 718.152344 603.019531 L 723.484375 603.019531 C 729.214844 603.019531 729.214844 603.09375 728.421875 599.09375 L 728.015625 597.019531 L 720.820312 597.019531 C 714.882812 597.019531 713.550781 597.21875 712.683594 598.15625 Z M 712.683594 598.15625 "/>
<path style=" stroke:none;fill-rule:nonzero;fill:rgb(0%,0%,0%);fill-opacity:1;" d="M 750.679688 597.6875 C 748.679688 598.886719 748.011719 604.625 748.285156 617.363281 C 748.417969 625.300781 748.816406 629.90625 749.34375 630.84375 C 749.8125 631.644531 751.28125 632.644531 752.679688 633.042969 C 755.949219 633.90625 763.875 633.84375 766.8125 632.84375 C 770.28125 631.644531 770.75 629.574219 770.75 614.699219 C 770.8125 603.894531 770.613281 601.6875 769.613281 599.6875 L 768.476562 597.355469 L 760.144531 597.21875 C 755.480469 597.09375 751.34375 597.355469 750.679688 597.6875 Z M 762.8125 615.4375 L 762.8125 627.769531 L 759.675781 627.574219 L 756.480469 627.375 L 756.28125 615.167969 L 756.148438 603.019531 L 762.8125 603.019531 Z M 762.8125 615.4375 "/>
</g>
</svg>
